<?xml version="1.0" ?><svg id="Layer_1" style="enable-background:new 0 0 512 512;" version="1.1" viewBox="0 0 512 512" xml:space="preserve" xmlns="http://www.w3.org/2000/svg" xmlns:xlink="http://www.w3.org/1999/xlink"><style type="text/css">
	.st0{fill-rule:evenodd;clip-rule:evenodd;fill:#FFFFFF;}
	.st1{fill-rule:evenodd;clip-rule:evenodd;fill:#060707;}
	.st2{fill-rule:evenodd;clip-rule:evenodd;fill:#EC1C24;}
</style><g><path class="st0" d="M256,0c70.7,0,134.7,28.7,181,75c46.3,46.3,75,110.3,75,181c0,70.7-28.7,134.7-75,181   c-46.3,46.3-110.3,75-181,75s-134.7-28.7-181-75C28.7,390.7,0,326.7,0,256c0-70.7,28.7-134.7,75-181C121.3,28.7,185.3,0,256,0z"/><g><path class="st1" d="M254.2,336.4c-16.1-4.8-32.2-9.5-48.3-14.3c-3.5-5.4-8.9-13.5-10.6-16.1c-15-22.8-26.1-57.2-13.4-83    c7-13.9,27.6-29.8,41.8-49.2c2.6-3.4,4.8-7.1,7-10.6c5.3-9,11.9-26.6,11.3-40.3c-0.4-12.3-3.3-10.6-6.8-17.6    c51.8,18.7,73.9,64.6,60.5,116.1c-1.3,5.2-8.7,19.5-16.6,32.4C254.1,294.2,248.2,289.2,254.2,336.4L254.2,336.4z"/><path class="st1" d="M266.8,304.2c7-26.7,26.6-30.2,38.9-65.5c3.1-9.1,3.7-23.6,4.4-33.5c43.3,36.8,24.8,76.7,1.3,116.9    c-14.7,4.9-29.6,9.8-44.5,14.6C265.3,326.6,264.2,314.2,266.8,304.2L266.8,304.2z"/><polygon class="st1" points="341.3,365.1 170.7,323.3 170.7,359.8 341.3,401.7   "/><polygon class="st1" points="258.5,385.3 191.5,369 170.9,374 170.9,406.7   "/><polygon class="st1" points="269.8,342.9 337.9,359.6 341.3,358.7 341.3,325.4   "/></g><path class="st2" d="M512,256c0-70.7-28.7-134.7-75-181C390.7,28.7,326.7,0,256,0C193,0,135.5,22.8,90.9,60.6l-0.1-0.1   C85.3,65.1,80,69.9,75,75c-5,5.1-9.9,10.3-14.5,15.8l0.1,0.1C22.8,135.5,0,193,0,256c0,70.7,28.7,134.7,75,181   c46.3,46.3,110.3,75,181,75c63,0,120.5-22.8,165.1-60.6l0.1,0.1c5.4-4.6,10.7-9.5,15.8-14.5c5-5,9.9-10.3,14.5-15.8l-0.1-0.1   C489.2,376.5,512,319,512,256z M256,42.9c58.9,0,112.1,23.9,150.7,62.4c38.6,38.6,62.4,91.9,62.4,150.7c0,51.1-18.1,98-48.1,134.8   L121.2,90.9C158,60.9,204.9,42.9,256,42.9z M256,469.1c-58.8,0-112.1-23.9-150.7-62.4C66.7,368.1,42.9,314.9,42.9,256   c0-51.1,18.1-98,48.1-134.8l299.8,299.8C354,451.1,307.1,469.1,256,469.1z"/></g></svg>