<?xml version="1.0" ?><svg id="Layer_1" style="enable-background:new 0 0 512 512;" version="1.1" viewBox="0 0 512 512" xml:space="preserve" xmlns="http://www.w3.org/2000/svg" xmlns:xlink="http://www.w3.org/1999/xlink"><style type="text/css">
	.st0{fill-rule:evenodd;clip-rule:evenodd;fill:#FFFFFF;}
	.st1{fill-rule:evenodd;clip-rule:evenodd;}
	.st2{fill-rule:evenodd;clip-rule:evenodd;fill:#EC1C24;}
</style><g><path class="st0" d="M256,0c70.7,0,134.7,28.6,181,75c46.3,46.3,75,110.3,75,181c0,70.7-28.7,134.7-75,181   c-46.3,46.3-110.3,75-181,75c-70.7,0-134.7-28.7-181-75C28.7,390.7,0,326.7,0,256c0-70.7,28.7-134.7,75-181   C121.3,28.6,185.3,0,256,0z"/><path class="st1" d="M355.9,202.1c-0.5-1.7-1.3-3.3-2.4-4.6l0,0c-1.1-1.3-2.4-2.4-4-3.1c-1.5-0.7-3.2-1.1-4.9-1.1h-87.1l-18-82.1   c0-0.2-0.1-0.4-0.2-0.6c-1.2-3.9-5.2-6-8.9-4.8l-69.9,23.6c-3.7,1.3-5.8,5.4-4.6,9.3c1.2,3.9,5.2,6.1,8.9,4.8l62.5-21.1l15.5,70.9   h-34.8c-1.7,0-3.4,0.4-4.9,1.1c-1.5,0.7-2.9,1.8-4,3.1l0,0c-1.1,1.3-1.9,2.9-2.4,4.6v0c-0.5,1.7-0.6,3.4-0.4,5.2l27.2,189   c0.4,3,1.9,5.6,3.9,7.5c2.1,1.9,4.8,3,7.7,3h82.1c2.9,0,5.6-1.1,7.7-3v0c2.1-1.9,3.5-4.5,4-7.5l27.1-189   C356.5,205.5,356.4,203.8,355.9,202.1z"/><path class="st2" d="M512,256c0-70.7-28.7-134.7-75-181C390.7,28.6,326.7,0,256,0C193,0,135.5,22.8,90.9,60.6l-0.1-0.1   C85.3,65.1,80,69.9,75,75c-5,5.1-9.9,10.3-14.5,15.8l0.1,0.1C22.8,135.5,0,193,0,256c0,70.7,28.7,134.7,75,181   c46.3,46.3,110.3,75,181,75c63,0,120.5-22.8,165.1-60.6l0.1,0.1c5.5-4.6,10.7-9.5,15.8-14.5c5.1-5,9.9-10.3,14.5-15.8l-0.1-0.1   C489.2,376.5,512,319,512,256z M256,42.9c58.9,0,112.1,23.9,150.7,62.4c38.6,38.6,62.4,91.9,62.4,150.7c0,51.1-18,98-48.1,134.8   L121.2,90.9C158,60.9,204.9,42.9,256,42.9z M256,469.1c-58.9,0-112.1-23.9-150.7-62.4C66.7,368.1,42.9,314.9,42.9,256   c0-51.1,18-98,48.1-134.8l299.8,299.8C354,451.1,307.1,469.1,256,469.1z"/></g></svg>