<?xml version="1.0" ?><svg id="Layer_1" style="enable-background:new 0 0 512 512;" version="1.1" viewBox="0 0 512 512" xml:space="preserve" xmlns="http://www.w3.org/2000/svg" xmlns:xlink="http://www.w3.org/1999/xlink"><style type="text/css">
	.st0{fill-rule:evenodd;clip-rule:evenodd;fill:#FFFFFF;}
	.st1{fill-rule:evenodd;clip-rule:evenodd;}
	.st2{fill-rule:evenodd;clip-rule:evenodd;fill:#EC1C24;}
</style><g><path class="st0" d="M256,0c70.7,0,134.7,28.7,181,75c46.3,46.3,75,110.3,75,181c0,70.7-28.7,134.7-75,181   c-46.4,46.3-110.4,75-181,75c-70.7,0-134.7-28.7-181-75C28.7,390.7,0,326.7,0,256c0-70.7,28.7-134.7,75-181   C121.3,28.7,185.3,0,256,0z"/><g><rect class="st1" height="41.9" width="257.3" x="149.4" y="308.2"/><rect class="st1" height="41.9" width="12.3" x="129.7" y="308.2"/><rect class="st1" height="41.9" width="12.3" x="105.3" y="308.2"/><path class="st1" d="M223.2,232.1c-4.4,1-9.1,1.9-14.1,2.9c-33.8,6.4-78.9,15-79.1,65.2l11.8,0.1c0.2-40.4,39.8-48,69.5-53.6    c5.3-1,10.3-2,14.6-3l4.4-1.1h0c41.8-9.7,70.9-16.5,71-80.4h-11.8c0,54.5-25.4,60.4-61.9,68.9L223.2,232.1z"/><path class="st1" d="M142.2,248.5c14.5-11.5,32.8-17.7,47.8-21.2c3.4-0.8,4.6-1.1,5.8-1.4c37.9-8.8,72.1-16.7,72.4-64l-11.8,0    c-0.3,37.9-30.1,44.8-63.2,52.5l-5.8,1.3c-16.3,3.8-36.3,10.6-52.4,23.5c-16.6,13.2-29,32.5-29.1,60.9l11.8,0.1    C117.6,276.1,128.1,259.7,142.2,248.5z"/></g><path class="st2" d="M512,256c0-70.7-28.7-134.7-75-181C390.7,28.7,326.7,0,256,0C193,0,135.5,22.8,90.9,60.6l-0.1-0.1   C85.3,65.1,80,69.9,75,75c-5,5.1-9.9,10.3-14.5,15.8l0.1,0.1C22.8,135.5,0,193,0,256c0,70.7,28.7,134.7,75,181   c46.3,46.3,110.3,75,181,75c63,0,120.5-22.8,165.2-60.6l0.1,0.1c5.5-4.6,10.7-9.5,15.8-14.5c5-5,9.9-10.3,14.5-15.8l-0.1-0.1   C489.2,376.6,512,319,512,256z M256,42.9c58.9,0,112.1,23.9,150.7,62.4c38.6,38.6,62.4,91.9,62.4,150.7c0,51.1-18.1,98-48.1,134.8   L121.2,90.9C158,60.9,204.9,42.9,256,42.9z M256,469.1c-58.9,0-112.1-23.9-150.7-62.4C66.7,368.1,42.9,314.9,42.9,256   c0-51.1,18-98,48.1-134.8l299.8,299.8C354,451.1,307.1,469.1,256,469.1z"/></g></svg>