<?xml version="1.0" ?><svg id="Layer_1" style="enable-background:new 0 0 512 512;" version="1.1" viewBox="0 0 512 512" xml:space="preserve" xmlns="http://www.w3.org/2000/svg" xmlns:xlink="http://www.w3.org/1999/xlink"><style type="text/css">
	.st0{fill-rule:evenodd;clip-rule:evenodd;fill:#FFFFFF;}
	.st1{fill-rule:evenodd;clip-rule:evenodd;fill:#EC1C24;}
</style><g><path class="st0" d="M256,0c70.7,0,134.7,28.6,181,75c46.3,46.3,75,110.3,75,181c0,70.7-28.7,134.7-75,181s-110.3,75-181,75   c-70.7,0-134.7-28.7-181-75C28.6,390.7,0,326.7,0,256c0-70.7,28.6-134.7,75-181C121.3,28.6,185.3,0,256,0z"/><g><path d="M346.6,160.2c11.1,0.4,20.4-8.3,20.8-19.5c0.4-11.1-8.3-20.4-19.5-20.8c-11.1-0.4-20.4,8.4-20.8,19.5    C326.8,150.5,335.5,159.8,346.6,160.2z"/><path d="M298.7,261.5l-3.8-10.8c-8.1,2.9-15.3,7.1-21.4,12.7l7.7,8.4C286.2,267.2,292,263.8,298.7,261.5z"/><path d="M274.4,279.5l-9.1-6.8c-4.5,6-8.3,13.3-11.3,21.5l10.7,4C267.2,291,270.5,284.7,274.4,279.5z"/><path d="M399,300c-8.6,0-15.6,5.4-22.6,10.9c-4.9,3.8-9.8,7.6-13.2,7.6c-3.3,0-8.2-3.8-13.2-7.6    c-0.4-0.3-0.9-0.7-1.3-1l-0.4-52.3c0-0.5-0.2-0.9-0.3-1.4c3.3,1.8,7.4,1.5,10.2-1.3l35.4-35.2c0.7-0.7,2.2-2.1,2.6-4.2    c0.5-2.5-0.4-5.6-2.3-7.4c-13.1-14.4-25.2-25-38.2-38.8c-0.9-1.2-1.9-2.3-3.2-3.3c-0.1-0.1-0.1-0.1-0.2-0.2l0,0    c-2.4-1.8-5.3-3-8.4-3.3c-9.4-0.8-17.9,6.1-19,15.4l-7.3,61.4c-0.3,2.5,0,4.9,0.8,7.2c-4.1,0.2-7.9,0.6-11.6,1.3l2,11.2    c4.5-0.8,9.6-1.1,14.8-1.1c0,0,0,0,0,0l0.4,42.9c-7,1.2-13,5.6-19,10.2c-4.9,3.8-9.8,7.6-13.2,7.6c-3.3,0-8.2-3.8-13.1-7.6    c-2.8-2.2-5.6-4.2-8.5-6c-4.3-2.8-8.9-4.8-14.1-4.8c-8.6,0-15.6,5.4-22.6,10.9c-4.9,3.8-9.8,7.6-13.2,7.6c-3.4,0-8.2-3.8-13.2-7.6    c-7-5.4-14-10.9-22.6-10.9c-8.6,0-15.6,5.4-22.6,10.9c-4.9,3.8-9.8,7.6-13.1,7.6c-3.4,0-8.3-3.8-13.2-7.6    c-7-5.4-14-10.9-22.6-10.9c-3,0-5.6,1.8-6.8,4.3l-0.9-0.5V366c0,4.2,3.5,7.7,7.7,7.7c3.4,0,8.2,3.8,13.2,7.6    c7,5.4,14,10.8,22.6,10.8c8.6,0,15.6-5.4,22.6-10.8c4.9-3.8,9.8-7.6,13.1-7.6s8.2,3.8,13.2,7.6c7,5.4,14,10.8,22.6,10.8    c8.6,0,15.6-5.4,22.6-10.8c4.9-3.8,9.8-7.6,13.1-7.6s8.2,3.8,13.2,7.6c7,5.4,14,10.8,22.6,10.8c8.6,0,15.6-5.4,22.6-10.8    c4.9-3.8,9.8-7.6,13.2-7.6s8.2,3.8,13.2,7.6c7,5.4,14,10.8,22.6,10.8c8.6,0,15.6-5.4,22.6-10.8c4.9-3.8,9.8-7.6,13.2-7.6    c4.2,0,7.7-3.5,7.7-7.7v-58.4C406.7,303.4,403.2,300,399,300z M356.8,197.9l17.2,17l-21.8,21.7L356.8,197.9z" id="_x31_"/></g><path class="st1" d="M512,256c0-70.7-28.7-134.7-75-181C390.7,28.6,326.7,0,256,0C193,0,135.4,22.8,90.8,60.6l-0.1-0.1   C85.3,65.1,80,69.9,75,75c-5.1,5.1-9.9,10.3-14.5,15.8l0.1,0.1C22.8,135.4,0,193,0,256c0,70.7,28.6,134.7,75,181   c46.3,46.3,110.3,75,181,75c63,0,120.5-22.8,165.1-60.6l0.1,0.1c5.4-4.6,10.7-9.5,15.8-14.5c5-5,9.9-10.3,14.5-15.8l-0.1-0.1   C489.2,376.5,512,319,512,256z M256,42.9c58.8,0,112.1,23.9,150.7,62.4c38.6,38.6,62.4,91.9,62.4,150.7c0,51.1-18.1,98-48.1,134.8   L121.2,90.9C158,60.9,204.9,42.9,256,42.9z M256,469.1c-58.9,0-112.2-23.9-150.7-62.4C66.7,368.1,42.9,314.9,42.9,256   c0-51.1,18.1-98,48.1-134.8l299.8,299.8C354,451.1,307.1,469.1,256,469.1z"/></g></svg>