<?xml version="1.0" ?><svg id="Layer_1" style="enable-background:new 0 0 512 512;" version="1.1" viewBox="0 0 512 512" xml:space="preserve" xmlns="http://www.w3.org/2000/svg" xmlns:xlink="http://www.w3.org/1999/xlink"><style type="text/css">
	.st0{fill-rule:evenodd;clip-rule:evenodd;fill:#FFFFFF;}
	.st1{fill-rule:evenodd;clip-rule:evenodd;}
	.st2{fill-rule:evenodd;clip-rule:evenodd;fill:#EC1C24;}
</style><g><path class="st0" d="M256,0c70.7,0,134.7,28.6,181,75c46.3,46.3,75,110.3,75,181c0,70.7-28.7,134.7-75,181   c-46.3,46.3-110.3,75-181,75c-70.7,0-134.7-28.7-181-75C28.7,390.7,0,326.7,0,256c0-70.7,28.7-134.7,75-181   C121.3,28.6,185.3,0,256,0z"/><g><polygon class="st1" points="105.3,202.4 181.1,202.4 193.2,193 274.5,130 274.5,256 274.5,381.9 193.2,319 181.1,309.6     105.3,309.6   "/><path class="st1" d="M300.2,184.1c13.5,21.2,20.7,46.1,20.7,71.8c0,25.7-7.3,50.6-20.7,71.8l16.8,12.9    c16.2-25,24.9-54.3,24.9-84.7s-8.7-59.7-24.9-84.7L300.2,184.1z"/><path class="st1" d="M337.1,121.4c28.1,38.5,43.3,85.2,43.3,133.8c0,49.3-15.6,96.6-44.4,135.3l21.1,16.1    c32.2-43.5,49.6-96.4,49.6-151.4c0-54.4-17-106.7-48.5-150L337.1,121.4z"/></g><path class="st2" d="M512,256c0-70.7-28.7-134.7-75-181C390.7,28.6,326.7,0,256,0C193,0,135.5,22.8,90.9,60.6l-0.1-0.1   C85.3,65.1,80.1,69.9,75,75c-5,5.1-9.9,10.3-14.5,15.8l0.1,0.1C22.8,135.5,0,193,0,256c0,70.7,28.7,134.7,75,181   c46.3,46.3,110.3,75,181,75c63,0,120.5-22.8,165.1-60.6l0.1,0.1c5.4-4.6,10.7-9.5,15.8-14.5c5-5,9.9-10.3,14.5-15.8l-0.1-0.1   C489.2,376.5,512,319,512,256z M256,42.9c58.8,0,112.1,23.9,150.7,62.4c38.6,38.6,62.4,91.9,62.4,150.7c0,51.1-18.1,98-48.1,134.8   L121.2,90.9C158,60.9,204.9,42.9,256,42.9z M256,469.1c-58.8,0-112.1-23.9-150.7-62.4C66.7,368.1,42.9,314.9,42.9,256   c0-51.1,18.1-98,48-134.8l299.8,299.8C354,451.1,307.1,469.1,256,469.1z"/></g></svg>