<?xml version="1.0" ?><svg id="Layer_1" style="enable-background:new 0 0 512 512;" version="1.1" viewBox="0 0 512 512" xml:space="preserve" xmlns="http://www.w3.org/2000/svg" xmlns:xlink="http://www.w3.org/1999/xlink"><style type="text/css">
	.st0{fill-rule:evenodd;clip-rule:evenodd;fill:#FFFFFF;}
	.st1{fill:#060707;}
	.st2{fill-rule:evenodd;clip-rule:evenodd;fill:#EC1C24;}
</style><g><path class="st0" d="M256,0c70.7,0,134.7,28.7,181,75c46.3,46.3,75,110.3,75,181c0,70.7-28.7,134.7-75,181   c-46.3,46.3-110.3,75-181,75s-134.7-28.7-181-75C28.6,390.7,0,326.7,0,256c0-70.7,28.6-134.7,75-181C121.3,28.7,185.3,0,256,0z"/><path class="st1" d="M378.6,167.5c-34.3-30.4-71.3-50.3-110.5-60.9c-8.2-2.3-16.7-2-20.5,4.8L126.9,323.9   c-3.8,6.8-0.8,15.7,6.7,19.8L244,404.6c7.4,4.2,16.7,2,20.6-4.8l120.7-212.5C389.1,180.5,385.1,173.1,378.6,167.5z M308.7,133.2   c0.8-1.3,2.4-1.7,3.8-1.1l20.9,11.5c1.3,0.8,1.7,2.5,1.1,3.9c-0.8,1.3-2.6,1.7-3.9,1l-20.8-11.4   C308.4,136.3,307.9,134.5,308.7,133.2z M196.1,247.2l5.2-9.2c1-1.7,3.6-2.2,5.9-0.9l20.1,11c2.3,1.3,3.2,3.8,2.3,5.5l-5.3,9.2   c-0.9,1.6-3.6,2-5.9,0.7l-19.9-11C196.1,251.3,195,248.9,196.1,247.2z M247.4,294.1c2.3,1.3,3.4,3.7,2.4,5.4l-5.2,9.2   c-1,1.7-3.7,2-6,0.8l-19.9-11.1c-2.3-1.1-3.4-3.7-2.4-5.4l5.2-9.2c1-1.7,3.7-2,6-0.7L247.4,294.1z M231.3,266.6l5.2-9.2   c0.9-1.8,3.6-2.2,5.9-0.9l19.9,11c2.3,1.3,3.4,3.8,2.5,5.4l-5.3,9.2c-0.9,1.7-3.6,2.2-5.9,0.9l-20-11   C231.4,270.7,230.3,268.4,231.3,266.6z M234.7,325.9l-5.2,9.2c-1.1,1.7-3.6,2.2-5.9,0.9L203.7,325c-2.4-1.3-3.4-3.7-2.5-5.4   l5.3-9.2c0.9-1.8,3.6-2.2,5.9-0.8l19.9,10.9C234.6,321.8,235.7,324.3,234.7,325.9z M180.9,273.8l5.2-9.4c1-1.6,3.7-2,6-0.7l20,10.9   c2.3,1.3,3.4,3.7,2.4,5.4l-5.2,9.2c-1,1.7-3.8,2.1-6,0.8l-20-11C181,277.9,179.9,275.3,180.9,273.8z M171.2,291   c0.9-1.8,3.6-2,5.9-0.9l19.9,11.1c2.3,1.2,3.4,3.7,2.5,5.4l-5.3,9.2c-0.8,1.6-3.5,2-5.9,0.7l-19.9-10.9c-2.3-1.3-3.4-3.7-2.5-5.5   L171.2,291z M184.5,333l-5.3,9.2c-0.9,1.7-3.6,2.2-5.9,0.9l-19.9-10.9c-2.3-1.3-3.4-3.8-2.4-5.4l5.2-9.4c1-1.6,3.6-2,5.9-0.7   l20.1,11C184.4,328.9,185.4,331.3,184.5,333z M214.4,361.6c-0.9,1.7-3.6,2-5.9,0.9l-19.9-11.1c-2.3-1.1-3.4-3.7-2.4-5.4l5.2-9.2   c0.9-1.6,3.5-2,5.9-0.7l19.9,10.9c2.3,1.3,3.4,3.7,2.5,5.4L214.4,361.6z M249.6,381.1c-0.9,1.7-3.5,2-5.9,0.9l-19.9-11.1   c-2.3-1.2-3.4-3.7-2.5-5.4l5.3-9.2c0.9-1.8,3.6-2,5.9-0.7l19.9,10.9c2.3,1.3,3.4,3.7,2.5,5.4L249.6,381.1z M269.9,345.3l-5.2,9.2   c-1.1,1.7-3.8,2.1-6.1,0.8l-19.9-11c-2.3-1.3-3.4-3.7-2.4-5.4l5.2-9.2c1.1-1.7,3.8-2.1,6.1-0.8l19.9,11   C269.8,341.2,270.9,343.6,269.9,345.3z M285,318.9l-5.1,9.2c-1.1,1.7-3.7,2-6.1,0.8l-19.9-11.1c-2.3-1.2-3.4-3.7-2.4-5.4l5.2-9.2   c1-1.7,3.7-2,6.1-0.8l19.9,11.1C284.9,314.8,286,317.2,285,318.9z M294.8,301.6c-0.9,1.8-3.6,2.2-5.9,0.9l-19.9-11   c-2.3-1.3-3.4-3.7-2.5-5.4l5.3-9.2c0.9-1.8,3.6-2.2,5.9-0.9l19.9,10.9c2.3,1.3,3.4,3.7,2.5,5.5L294.8,301.6z M360.2,188.3   l-45.7,80.4c-3,5.3-10,7.3-15.4,4.2l-80.5-44.3c-5.5-3.1-7.4-9.9-4.4-15.3l45.7-80.4c3-5.3,9.9-7.2,15.5-4.2l80.6,44.3   C361.3,176.1,363.2,182.9,360.2,188.3z"/><path class="st2" d="M512,256c0-70.7-28.7-134.7-75-181C390.7,28.7,326.7,0,256,0C193,0,135.4,22.8,90.8,60.6l-0.1-0.1   C85.3,65.1,80,69.9,75,75c-5.1,5.1-9.9,10.3-14.5,15.8l0.1,0.1C22.8,135.5,0,193,0,256c0,70.7,28.6,134.7,75,181   c46.3,46.3,110.3,75,181,75c63,0,120.5-22.8,165.1-60.6l0.1,0.1c5.4-4.6,10.7-9.5,15.8-14.5c5-5,9.9-10.3,14.5-15.8l-0.1-0.1   C489.2,376.6,512,319,512,256z M256,42.9c58.8,0,112.1,23.9,150.7,62.4c38.6,38.6,62.4,91.9,62.4,150.7c0,51.1-18.1,98-48.1,134.8   L121.2,90.9C158,60.9,204.9,42.9,256,42.9z M256,469.1c-58.9,0-112.2-23.9-150.7-62.4C66.7,368.1,42.9,314.9,42.9,256   c0-51.1,18.1-98,48.1-134.8l299.8,299.8C354,451.1,307.1,469.1,256,469.1z"/></g></svg>