<?xml version="1.0" ?><svg id="Layer_1" style="enable-background:new 0 0 512 512;" version="1.1" viewBox="0 0 512 512" xml:space="preserve" xmlns="http://www.w3.org/2000/svg" xmlns:xlink="http://www.w3.org/1999/xlink"><style type="text/css">
	.st0{fill-rule:evenodd;clip-rule:evenodd;fill:#FFFFFF;}
	.st1{fill-rule:evenodd;clip-rule:evenodd;}
	.st2{fill-rule:evenodd;clip-rule:evenodd;fill:#EC1C24;}
</style><g><path class="st0" d="M256,0c70.7,0,134.7,28.7,181,75c46.3,46.3,75,110.3,75,181c0,70.7-28.7,134.7-75,181   c-46.3,46.3-110.3,75-181,75c-70.7,0-134.7-28.7-181-75C28.7,390.7,0,326.7,0,256c0-70.7,28.7-134.7,75-181   C121.3,28.7,185.3,0,256,0z"/><path class="st1" d="M294.5,397.2l1.8-176.9c-0.5-19.8-26.6-28.8-26.6-41v-16.4v-40.6h0.7c1.1,0,1.9-0.8,1.9-1.9v-6.6   c0-1-0.8-1.8-1.9-1.8h-0.7v-4.4v-0.1l0-0.1v0v-0.1v0l0-0.1v-0.1l0-0.1V107l0,0v0l0,0v-0.1l0,0l0-0.1l0,0l0,0l0-0.1v0h0v-0.1h0   c0-0.1-0.1-0.1-0.1-0.2c-0.3-0.4-0.7-0.7-1.1-0.9l-0.1,0l0,0l-0.1,0l0,0l-0.1,0l0,0H268l0,0l-0.1,0l0,0l-0.1,0h-0.1l0,0h0h-0.1   h-0.1h0h-21.9h-0.1h-0.1h-0.1l-0.1,0h-0.1c0,0-0.1,0-0.1,0l0,0c-1.2,0.2-2.2,1-2.6,2.1l0,0.1c-0.1,0.2-0.1,0.4-0.2,0.6l0,0l0,0.1   l0,0.1v0.1v0.1v0.1v3.3h-0.7c-1.1,0-1.9,0.8-1.9,1.8v6.6c0,1,0.8,1.9,1.9,1.9h0.7v40.6v16.4c0,12.6-26.8,20.7-26.5,41l2,176.9   c0,5.2,4.4,9.5,9.8,9.5h57.3C290.1,406.7,294.5,402.5,294.5,397.2L294.5,397.2z M245.2,105.3L245.2,105.3l-0.1,0   C245.1,105.3,245.1,105.3,245.2,105.3z"/><path class="st2" d="M512,256c0-70.7-28.7-134.7-75-181C390.7,28.7,326.7,0,256,0C193,0,135.5,22.8,90.9,60.6l-0.1-0.1   C85.3,65.1,80,69.9,75,75c-5,5.1-9.9,10.3-14.5,15.8l0.1,0.1C22.8,135.5,0,193,0,256c0,70.7,28.7,134.7,75,181   c46.3,46.3,110.3,75,181,75c63,0,120.5-22.8,165.1-60.6l0.1,0.1c5.5-4.6,10.7-9.5,15.8-14.5c5.1-5,9.9-10.3,14.5-15.8l-0.1-0.1   C489.2,376.5,512,319,512,256z M256,42.9c58.9,0,112.1,23.9,150.7,62.4c38.6,38.6,62.4,91.9,62.4,150.7c0,51.1-18,98-48.1,134.8   L121.3,90.9C158,60.9,204.9,42.9,256,42.9z M256,469.1c-58.9,0-112.1-23.9-150.7-62.4C66.7,368.1,42.9,314.9,42.9,256   c0-51.1,18-98,48.1-134.8l299.8,299.8C354,451.1,307.1,469.1,256,469.1z"/></g></svg>