<?xml version="1.0" ?><svg id="Layer_1" style="enable-background:new 0 0 512 512;" version="1.1" viewBox="0 0 512 512" xml:space="preserve" xmlns="http://www.w3.org/2000/svg" xmlns:xlink="http://www.w3.org/1999/xlink"><style type="text/css">
	.st0{fill-rule:evenodd;clip-rule:evenodd;fill:#FFFFFF;}
	.st1{fill-rule:evenodd;clip-rule:evenodd;fill:#EC1C24;}
</style><g><path class="st0" d="M256,0c70.7,0,134.7,28.6,181,75c46.3,46.3,75,110.3,75,181c0,70.7-28.7,134.7-75,181   c-46.3,46.3-110.3,75-181,75c-70.7,0-134.7-28.7-181-75C28.6,390.7,0,326.7,0,256c0-70.7,28.6-134.7,75-181   C121.3,28.6,185.3,0,256,0z"/><g><g><path d="M318.6,220.4c2-0.1,4.1-0.2,6.1-0.4c3.6-0.3,5.1,0.1,6.5-0.8c0.8-0.5,2.1-1.9,3.5-3.2c2-2,4-3.4,6.3-5.1     c3.7-0.9,4.4-2.1,3.8-4.1c-0.7-2.4-1.3-2.5-2.9-3.2c-0.9-0.4-1.7-0.7-2.6-1c-9.6-3.6-17.5-7.5-25.6-12.6     c-4.9-3.1-5.1-3.1-8.2-7.7c-0.7-1.9-3.7-12.2-5.8-6.9c-5.3,13.9-14.6,20.7-15.7,36.3c8.8,3.8,17.6,7.6,26.5,11.5     C313.5,220.9,314.5,220.7,318.6,220.4z"/><path d="M220.5,263.6c3.3,0,8.1-3.7,12.8-7.5c6.8-5.3,13.6-10.7,22-10.7c8.4,0,15.2,5.3,22,10.7c4.8,3.7,9.6,7.5,12.8,7.5     c3.3,0,8.1-3.7,12.8-7.5c0.8-0.6,1.5-1.2,2.3-1.8c0.4-2.7,0.7-5.5,1.1-8.2c0.6-6.4,1.3-12.8,1.9-19.2     c-9.2-4.1-18.4-8.2-27.5-12.3c-4.8,4.3-5.5,4.2-11.7,6.3c-9.4,3.3-15,4.8-28.3,5.5c-10.4,0.6-24.6,3.5-34.2,2.2     c-4.1-0.6-7.8-1.8-10.1-4.1c-1.6-1.6-2.8-3.4-2.1-4.9c1-2.3,2.5-1.9,4-1.2c1.5,0.7,1.4,1,1.4-0.5c0-2.9-1.9-4.1-4.8-4.2     c-3.3,0-5.5,0.8-7.7,3.1c-1.1,1.2-1.8,2.6-2,4.2c-1.4,7.9,8.3,16,10.1,26.9c4.3,2.1,8.3,5,12.3,8.1     C212.5,259.8,217.3,263.6,220.5,263.6z"/></g><path d="M401.9,252.4c-0.7-2.3-2.3-4.1-4.5-4.9c0,0-0.1-0.1-0.1-0.1l0,0c-0.8-0.3-1.6-0.5-2.5-0.5c-8.4,0-15.2,5.3-22,10.7    c-4.8,3.7-9.6,7.5-12.8,7.5c-3.2,0-8-3.7-12.8-7.5c-6.8-5.3-13.7-10.7-22-10.7c-7.4,0-13.6,4.2-19.7,8.9c-0.8,0.6-1.6,1.2-2.3,1.8    c-4.8,3.7-9.6,7.5-12.8,7.5c-3.2,0-8-3.7-12.8-7.5c-6.8-5.3-13.7-10.7-22-10.7c-8.4,0-15.2,5.3-22,10.7c-4.8,3.7-9.6,7.5-12.8,7.5    c-3.2,0-8-3.7-12.8-7.5c-4-3.1-8-6.1-12.3-8.1c-3-1.5-6.2-2.5-9.7-2.5c-8.4,0-15.2,5.3-22,10.7c-4.8,3.7-9.6,7.5-12.8,7.5    c-3.3,0-8.1-3.7-12.8-7.5c-6.8-5.3-13.7-10.7-22-10.7c-4.1,0-7.5,3.4-7.5,7.5c-7.6,25.9,0.5,52.5,3.6,61c0.2,0.8,0.4,1.5,0.8,2.1    c0.2,0.4,0.3,0.7,0.3,0.7l0.1-0.1c0.6,0.9,1.5,1.6,2.7,1.6c3.3,0,8.1,3.8,12.8,7.5c6.8,5.3,13.6,10.6,22,10.6    c8.3,0,15.2-5.3,22-10.6c4.8-3.7,9.6-7.5,12.8-7.5c3.2,0,8,3.8,12.8,7.5c6.8,5.3,13.6,10.6,22,10.6c8.4,0,15.2-5.3,22-10.6    c4.8-3.7,9.6-7.5,12.8-7.5c3.3,0,8.1,3.8,12.8,7.5c6.8,5.3,13.6,10.6,22,10.6c8.4,0,15.2-5.3,22-10.6c4.8-3.7,9.6-7.5,12.8-7.5    c3.3,0,8.1,3.8,12.8,7.5c6.8,5.3,13.6,10.6,22,10.6c8.4,0,15.2-5.3,22-10.6c4.8-3.7,9.6-7.5,12.8-7.5    C412.1,279.3,406.9,260.3,401.9,252.4z"/></g><path class="st1" d="M512,256c0-70.7-28.7-134.7-75-181C390.7,28.6,326.7,0,256,0C193,0,135.4,22.8,90.9,60.6l-0.1-0.1   C85.3,65.1,80,69.9,75,75c-5.1,5.1-9.9,10.3-14.5,15.8l0.1,0.1C22.8,135.4,0,193,0,256c0,70.7,28.6,134.7,75,181   c46.3,46.3,110.3,75,181,75c62.9,0,120.5-22.8,165.1-60.6l0.1,0.1c5.5-4.6,10.7-9.5,15.8-14.5c5-5,9.9-10.3,14.5-15.8l-0.1-0.1   C489.2,376.5,512,319,512,256z M256,42.9c58.8,0,112.1,23.9,150.7,62.4c38.6,38.6,62.4,91.9,62.4,150.7c0,51.1-18.1,98-48.1,134.8   L121.2,90.9C158,60.9,204.9,42.9,256,42.9z M256,469.1c-58.9,0-112.2-23.9-150.7-62.4C66.7,368.1,42.8,314.9,42.8,256   c0-51.1,18.1-98,48.1-134.8l299.8,299.8C354,451.1,307.1,469.1,256,469.1z"/></g></svg>