<?xml version="1.0" ?><svg id="Layer_1" style="enable-background:new 0 0 512 512;" version="1.1" viewBox="0 0 512 512" xml:space="preserve" xmlns="http://www.w3.org/2000/svg" xmlns:xlink="http://www.w3.org/1999/xlink"><style type="text/css">
	.st0{fill-rule:evenodd;clip-rule:evenodd;fill:#FFFFFF;}
	.st1{fill-rule:evenodd;clip-rule:evenodd;fill:#060707;}
	.st2{fill-rule:evenodd;clip-rule:evenodd;fill:#EC1C24;}
</style><g><path class="st0" d="M256,0c70.7,0,134.7,28.7,181,75c46.3,46.3,75,110.3,75,181c0,70.7-28.7,134.7-75,181   c-46.3,46.3-110.3,75-181,75c-70.7,0-134.7-28.7-181-75C28.6,390.7,0,326.7,0,256c0-70.7,28.6-134.7,75-181   C121.3,28.7,185.3,0,256,0z"/><path class="st1" d="M405.7,169.5h-5.5c-0.8,0-1.2,0.6-1.2,1.2v4.9L388,188.8l-1.9,2.4h-13v2.8h-89.5v21.2H163.1   c-9.1,0-16.6,7.5-16.6,16.6v16.1h-18v-7.3c0-2.5-2.1-4.6-4.6-4.6h-13.9c-2.6,0-4.6,2.1-4.6,4.6v76.6c0,2.5,2.1,4.6,4.6,4.6h13.9   c2.6,0,4.6-2.1,4.6-4.6v-7.3h18v16.1c0,9.1,7.5,16.6,16.6,16.6h190.8c9.1,0,16.6-7.5,16.6-16.6v-94.2c0-7.3-4.9-13.5-11.5-15.7h14   v2.7h13l1.9,2.4l10.9,12.8v5.3c0,0.8,0.4,1.2,1.2,1.2h5.5c0.6,0,1-0.4,1-1.2v-68.5C406.7,170.1,406.3,169.5,405.7,169.5z"/><path class="st2" d="M512,256c0-70.7-28.7-134.7-75-181C390.7,28.7,326.7,0,256,0C193,0,135.4,22.8,90.8,60.6l-0.1-0.1   C85.3,65.1,80,69.9,75,75c-5.1,5.1-9.9,10.3-14.5,15.8l0.1,0.1C22.8,135.5,0,193,0,256c0,70.7,28.6,134.7,75,181   c46.3,46.3,110.3,75,181,75c63,0,120.5-22.8,165.1-60.6l0.1,0.1c5.5-4.6,10.7-9.5,15.8-14.5c5.1-5,9.9-10.3,14.5-15.8l-0.1-0.1   C489.2,376.5,512,319,512,256z M256,42.9c58.8,0,112.1,23.9,150.7,62.4c38.6,38.6,62.4,91.9,62.4,150.7c0,51.1-18,98-48.1,134.8   L121.2,90.9C158,60.9,204.9,42.9,256,42.9z M256,469.1c-58.9,0-112.2-23.9-150.7-62.4C66.7,368.1,42.9,314.9,42.9,256   c0-51.1,18-98,48.1-134.8l299.8,299.8C354,451.1,307.1,469.1,256,469.1z"/></g></svg>