<?xml version="1.0" ?><svg id="Layer_1" style="enable-background:new 0 0 512 512;" version="1.1" viewBox="0 0 512 512" xml:space="preserve" xmlns="http://www.w3.org/2000/svg" xmlns:xlink="http://www.w3.org/1999/xlink"><style type="text/css">
	.st0{fill-rule:evenodd;clip-rule:evenodd;fill:#FFFFFF;}
	.st1{fill-rule:evenodd;clip-rule:evenodd;}
	.st2{fill-rule:evenodd;clip-rule:evenodd;fill:#EC1C24;}
</style><g><path class="st0" d="M256,0c70.7,0,134.7,28.7,181,75c46.3,46.3,75,110.3,75,181c0,70.7-28.7,134.7-75,181   c-46.3,46.3-110.3,75-181,75c-70.7,0-134.7-28.7-181-75C28.7,390.7,0,326.7,0,256c0-70.7,28.7-134.7,75-181   C121.3,28.7,185.3,0,256,0z"/><path class="st1" d="M203.9,105.3c-4.7,11.9-12.4,32.4-16.6,52.3c-6.1,29.1-9.5,55.2,16.5,74.2c16.1,11.9,38,21.6,43.1,31.9   c4.3,13.5,4.6,107.4-1,114.4c-16.3,20.4-38.9,21.7-40.6,23.8c-1,1.2-1.3,4.6,0.3,4.8h100.7c1.6-0.2,1.3-3.5,0.3-4.8   c-1.8-2.1-24.3-3.4-40.7-23.8c-5.5-7-5.3-100.9-1-114.4c5.1-10.4,27-20,43.2-31.9c25.9-19.1,22.5-45.1,16.5-74.2   c-4.1-19.9-11.9-40.4-16.6-52.3H203.9z"/><path class="st2" d="M512,256c0-70.7-28.7-134.7-75-181C390.7,28.7,326.7,0,256,0C193,0,135.5,22.8,90.9,60.6l-0.1-0.1   C85.3,65.1,80,69.9,75,75c-5,5.1-9.9,10.3-14.5,15.8l0.1,0.1C22.8,135.5,0,193,0,256c0,70.7,28.7,134.7,75,181   c46.3,46.3,110.3,75,181,75c63,0,120.5-22.8,165.1-60.6l0.1,0.1c5.4-4.6,10.7-9.5,15.8-14.5c5-5,9.9-10.3,14.5-15.8l-0.1-0.1   C489.2,376.5,512,319,512,256z M256,42.9c58.9,0,112.1,23.9,150.7,62.4c38.6,38.6,62.4,91.9,62.4,150.7c0,51.1-18.1,98-48.1,134.8   L121.2,90.9C158,60.9,204.9,42.9,256,42.9z M256,469.1c-58.8,0-112.1-23.9-150.7-62.4C66.7,368.1,42.9,314.9,42.9,256   c0-51.1,18.1-98,48.1-134.8l299.8,299.8C354,451.1,307.1,469.1,256,469.1z"/></g></svg>