<?xml version="1.0" ?><svg id="Layer_1" style="enable-background:new 0 0 512 512;" version="1.1" viewBox="0 0 512 512" xml:space="preserve" xmlns="http://www.w3.org/2000/svg" xmlns:xlink="http://www.w3.org/1999/xlink"><style type="text/css">
	.st0{fill-rule:evenodd;clip-rule:evenodd;fill:#FFFFFF;}
	.st1{fill-rule:evenodd;clip-rule:evenodd;fill:#EC1C24;}
</style><g><path class="st0" d="M256,0c70.7,0,134.7,28.6,181,75c46.3,46.3,75,110.3,75,181c0,70.7-28.7,134.7-75,181s-110.3,75-181,75   c-70.7,0-134.7-28.7-181-75S0,326.7,0,256c0-70.7,28.7-134.7,75-181C121.3,28.6,185.3,0,256,0z"/><g><path d="M277.1,155.8c13.9,0,25.2-11.3,25.2-25.2c0-13.9-11.3-25.2-25.2-25.2s-25.2,11.3-25.2,25.2    C251.8,144.5,263.2,155.8,277.1,155.8z"/><path d="M340.2,264.6l-24-95.4c-1.2-4.6-5.6-7.5-10.2-6.9c-0.3,0-0.6-0.1-1-0.1h-55.8c-1.1,0-2.2,0.2-3.2,0.6    c-2.3,0.5-4.4,1.8-5.8,3.9L186,249c-2.8,4.2-1.6,10,2.6,12.7c4.2,2.8,10,1.6,12.7-2.6l39.3-59.6v72c0,4.4,3.4,8.1,7.7,8.5v114.9    c0,6.5,5.3,11.8,11.8,11.8c6.5,0,11.8-5.3,11.8-11.8V280.1h9.2v114.9c0,6.5,5.3,11.8,11.8,11.8c6.5,0,11.8-5.3,11.8-11.8V280.1    h0.4c4.7,0,8.6-3.9,8.6-8.5V234l8.8,35c1.2,4.9,6.2,7.9,11.2,6.7C338.4,274.5,341.4,269.5,340.2,264.6z"/><polygon points="171.6,298.1 177.7,331.5 219.4,323.8 213.3,290.4   "/><polygon points="174.1,382.5 187.9,398.3 207.3,381.3 193.4,365.5   "/></g><path class="st1" d="M512,256c0-70.7-28.7-134.7-75-181C390.7,28.6,326.7,0,256,0C193,0,135.5,22.8,90.9,60.6l-0.1-0.1   C85.3,65.1,80.1,69.9,75,75c-5,5.1-9.9,10.3-14.5,15.8l0.1,0.1C22.8,135.5,0,193,0,256c0,70.7,28.7,134.7,75,181s110.3,75,181,75   c63,0,120.5-22.8,165.1-60.6l0.1,0.1c5.4-4.6,10.7-9.5,15.8-14.5c5-5,9.9-10.3,14.5-15.8l-0.1-0.1C489.2,376.5,512,319,512,256z    M256,42.9c58.8,0,112.1,23.9,150.7,62.4c38.6,38.6,62.4,91.9,62.4,150.7c0,51.1-18.1,98-48,134.8L121.2,90.9   C158,60.9,204.9,42.9,256,42.9z M256,469.1c-58.8,0-112.1-23.9-150.7-62.4C66.7,368.1,42.9,314.9,42.9,256   c0-51.1,18.1-98,48.1-134.8l299.8,299.8C354,451.1,307.1,469.1,256,469.1z"/></g></svg>