<?xml version="1.0" ?><svg id="Layer_1" style="enable-background:new 0 0 512 512;" version="1.1" viewBox="0 0 512 512" xml:space="preserve" xmlns="http://www.w3.org/2000/svg" xmlns:xlink="http://www.w3.org/1999/xlink"><style type="text/css">
	.st0{fill-rule:evenodd;clip-rule:evenodd;fill:#FFFFFF;}
	.st1{fill-rule:evenodd;clip-rule:evenodd;fill:#EC1C24;}
</style><g><path class="st0" d="M256,0c70.7,0,134.7,28.7,181,75c46.3,46.3,75,110.3,75,181c0,70.7-28.7,134.7-75,181   c-46.3,46.3-110.3,75-181,75s-134.7-28.7-181-75C28.6,390.7,0,326.7,0,256c0-70.7,28.6-134.7,75-181C121.3,28.7,185.3,0,256,0z"/><g><g><path d="M291.9,269.5c3.3,0,8.2-3.8,13.1-7.6c6.3-4.9,12.6-9.5,20-10.5l15.8-25.4l5.4-49.1c0.5-4.6-2.8-9.2-7.4-9.2l0,0     c-4.6,0-8.8,2.8-9.3,7.4l-5.3,48.3L313.9,239c-3-2.5-7-3.9-11.2-3.1l-22,4.4c-7.2,1.4-11.8,8.4-10.6,15.5c2.9,1.8,5.7,3.9,8.5,6     C283.6,265.7,288.5,269.5,291.9,269.5z"/><path d="M288.7,236.1c10.4,0,18.9-8.4,18.9-18.9c0-10.4-8.5-18.9-18.9-18.9c-10.4,0-18.9,8.5-18.9,18.9     C269.8,227.7,278.3,236.1,288.7,236.1z"/></g><path d="M399,252.4c-8.6,0-15.6,5.4-22.6,10.8c-4.9,3.8-9.8,7.6-13.2,7.6c-3.3,0-8.2-3.8-13.1-7.6c-7-5.4-14-10.8-22.6-10.8    c-0.9,0-1.7,0.3-2.6,0.4c-7.4,1-13.8,5.6-20,10.5c-4.9,3.8-9.8,7.6-13.2,7.6c-3.3,0-8.2-3.8-13.1-7.6c-2.8-2.2-5.6-4.2-8.5-6    c-4.3-2.7-8.9-4.8-14.1-4.8c-8.6,0-15.6,5.4-22.6,10.8c-4.9,3.8-9.8,7.6-13.1,7.6c-3.3,0-8.3-3.8-13.2-7.6    c-7-5.4-14-10.8-22.6-10.8c-8.6,0-15.6,5.4-22.6,10.8c-4.9,3.8-9.8,7.6-13.2,7.6s-8.2-3.8-13.2-7.6c-7-5.4-14-10.8-22.6-10.8    c-3,0-5.6,1.8-6.8,4.3l-0.9-0.5v62.2c0,4.2,3.5,7.7,7.7,7.7c3.3,0,8.2,3.8,13.2,7.6c7,5.4,14,10.8,22.6,10.8    c8.6,0,15.6-5.4,22.6-10.8c4.9-3.8,9.8-7.6,13.1-7.6c3.3,0,8.2,3.8,13.2,7.6c7,5.4,14,10.8,22.6,10.8c8.6,0,15.6-5.4,22.6-10.8    c4.9-3.8,9.8-7.6,13.1-7.6c3.3,0,8.2,3.8,13.2,7.6c7,5.4,14,10.8,22.6,10.8c8.6,0,15.6-5.4,22.6-10.8c4.9-3.8,9.8-7.6,13.2-7.6    c3.3,0,8.2,3.8,13.2,7.6c7,5.4,14,10.8,22.6,10.8s15.6-5.4,22.6-10.8c4.9-3.8,9.8-7.6,13.2-7.6c4.2,0,7.7-3.4,7.7-7.7V260    C406.7,255.8,403.2,252.4,399,252.4z"/></g><path class="st1" d="M512,256c0-70.7-28.7-134.7-75-181C390.7,28.7,326.7,0,256,0C193,0,135.4,22.8,90.8,60.6l-0.1-0.1   C85.3,65.1,80,69.9,75,75c-5.1,5.1-9.9,10.3-14.5,15.8l0.1,0.1C22.8,135.5,0,193,0,256c0,70.7,28.6,134.7,75,181   c46.3,46.3,110.3,75,181,75c63,0,120.5-22.8,165.1-60.6l0.1,0.1c5.4-4.6,10.7-9.5,15.8-14.5c5-5,9.9-10.3,14.5-15.8l-0.1-0.1   C489.2,376.6,512,319,512,256z M256,42.9c58.8,0,112.1,23.9,150.7,62.4c38.6,38.6,62.4,91.9,62.4,150.7c0,51.1-18.1,98-48.1,134.8   L121.2,90.9C158,60.9,204.9,42.9,256,42.9z M256,469.1c-58.9,0-112.2-23.9-150.7-62.4C66.7,368.1,42.9,314.9,42.9,256   c0-51.1,18.1-98,48.1-134.8l299.8,299.8C354,451.1,307.1,469.1,256,469.1z"/></g></svg>