<?xml version="1.0" ?><svg id="Layer_1" style="enable-background:new 0 0 512 512;" version="1.1" viewBox="0 0 512 512" xml:space="preserve" xmlns="http://www.w3.org/2000/svg" xmlns:xlink="http://www.w3.org/1999/xlink"><style type="text/css">
	.st0{fill-rule:evenodd;clip-rule:evenodd;fill:#FFFFFF;}
	.st1{fill:#060707;}
	.st2{fill:#FFFFFF;}
	.st3{fill-rule:evenodd;clip-rule:evenodd;fill:#060707;}
	.st4{fill-rule:evenodd;clip-rule:evenodd;fill:#EC1C24;}
</style><g><path class="st0" d="M256,0c70.7,0,134.7,28.7,181,75c46.3,46.3,75,110.3,75,181c0,70.7-28.7,134.7-75,181   c-46.3,46.3-110.3,75-181,75c-70.7,0-134.7-28.7-181-75C28.7,390.7,0,326.7,0,256c0-70.7,28.7-134.7,75-181   C121.3,28.7,185.3,0,256,0z"/><g><path class="st1" d="M234,181.8v-6.4c0-7,6.5-12.7,14.7-12.7h14.6c8.1,0,14.7,5.7,14.7,12.7v6.4h5.7h6.1v-9.8    c0-10.8-10.1-19.5-22.5-19.5h-22.6c-12.4,0-22.5,8.7-22.5,19.5v9.8h1.3H234z"/><path class="st2" d="M255.9,193.9c-44.3,0-80.5,36.4-80.5,80.8s36.1,80.8,80.5,80.8c44.5,0,80.6-36.4,80.6-80.8    S300.5,193.9,255.9,193.9z"/><path class="st3" d="M255.9,344.1c38.3,0,69.5-31.1,69.5-69.5c0-38.4-31.2-69.5-69.5-69.5c-38.1,0-69.3,31.1-69.3,69.5    C186.6,313,217.8,344.1,255.9,344.1L255.9,344.1z"/><path class="st1" d="M380.3,181.8h-73.7h-6.1h-5.7h-22.3h-21.7h-10.4H239h-28.3h-26.9v-4.1c0-8.3-7.7-15-17.3-15    h-17.3c-9.6,0-17.3,6.7-17.3,15v4.1h-0.1c-14.6,0-26.5,12-26.5,26.5v124.8c0,14.5,11.8,26.3,26.5,26.3h248.5    c14.6,0,26.5-11.9,26.5-26.3V208.4C406.7,193.9,394.9,181.8,380.3,181.8z M255.9,355.5c-44.3,0-80.5-36.4-80.5-80.8    s36.1-80.8,80.5-80.8c44.5,0,80.6,36.4,80.6,80.8S300.5,355.5,255.9,355.5z" id="_x31__1_"/></g><path class="st4" d="M512,256c0-70.7-28.7-134.7-75-181C390.7,28.7,326.7,0,256,0C193,0,135.5,22.8,90.9,60.6l-0.1-0.1   C85.3,65.1,80.1,69.9,75,75c-5,5.1-9.9,10.3-14.5,15.8l0.1,0.1C22.8,135.5,0,193,0,256c0,70.7,28.7,134.7,75,181   c46.3,46.3,110.4,75,181,75c63,0,120.5-22.8,165.2-60.6l0.1,0.1c5.5-4.6,10.7-9.5,15.8-14.5c5-5,9.9-10.3,14.5-15.8l-0.1-0.1   C489.2,376.5,512,319,512,256z M256,42.9c58.9,0,112.1,23.9,150.7,62.4c38.6,38.6,62.4,91.9,62.4,150.7c0,51.1-18.1,98-48.1,134.8   L121.3,90.9C158,60.9,204.9,42.9,256,42.9z M256,469.1c-58.9,0-112.1-23.9-150.7-62.4C66.7,368.1,42.9,314.9,42.9,256   c0-51.1,18.1-98,48.1-134.8l299.9,299.8C354,451.1,307.2,469.1,256,469.1z"/></g></svg>