<?xml version="1.0" ?><svg id="Layer_1" style="enable-background:new 0 0 512 512;" version="1.1" viewBox="0 0 512 512" xml:space="preserve" xmlns="http://www.w3.org/2000/svg" xmlns:xlink="http://www.w3.org/1999/xlink"><style type="text/css">
	.st0{fill-rule:evenodd;clip-rule:evenodd;fill:#FFFFFF;}
	.st1{fill-rule:evenodd;clip-rule:evenodd;}
	.st2{fill-rule:evenodd;clip-rule:evenodd;fill:#EC1C24;}
</style><g><path class="st0" d="M256,0c70.7,0,134.7,28.7,181,75c46.3,46.3,75,110.3,75,181c0,70.7-28.7,134.7-75,181   c-46.3,46.3-110.3,75-181,75c-70.7,0-134.7-28.7-181-75C28.7,390.7,0,326.7,0,256c0-70.7,28.7-134.7,75-181   C121.3,28.7,185.3,0,256,0z"/><g><path class="st1" d="M404.2,287c-1.2-1.8-2.8-3.2-4.7-4.2c-1.9-1-3.9-1.5-6-1.5h-272c-2.1,0-4.1,0.5-6,1.5c-1.8,1-3.4,2.4-4.6,4.2    c-1.3,1.8-2.1,3.8-2.4,5.9c-0.3,2.1-0.1,4.2,0.6,6.3l9.6,29.7c0.9,2.8,2.6,5.1,4.8,6.7c2.2,1.6,4.8,2.6,7.7,2.6H384    c2.8,0,5.5-0.9,7.7-2.6c2.2-1.6,3.9-3.9,4.7-6.7l9.6-29.7c0.7-2.1,0.9-4.3,0.6-6.3C406.3,290.9,405.5,288.9,404.2,287z"/><path class="st1" d="M113.1,272.3c1.7,0.8,3.5,1.2,5.3,1.2h272.5c1.9,0,3.7-0.4,5.4-1.2c1.6-0.8,3.1-1.9,4.4-3.4h0    c1.2-1.5,2.1-3.1,2.7-5c0.5-1.8,0.7-3.7,0.4-5.7c-4.5-36.8-31.7-60.6-68.2-73.3c-23.4-8.1-50.7-11.7-78.1-11.1    c-27.3,0.6-54.7,5.3-78.6,13.6c-40.2,14-70.4,38.3-73.7,71.2c-0.2,2,0,3.8,0.6,5.6c0.5,1.8,1.5,3.4,2.7,4.9    C109.9,270.5,111.4,271.6,113.1,272.3z"/></g><path class="st2" d="M512,256c0-70.7-28.7-134.7-75-181C390.7,28.7,326.7,0,256,0C193,0,135.5,22.8,90.9,60.6l-0.1-0.1   C85.3,65.1,80,69.9,75,75c-5,5.1-9.9,10.3-14.5,15.8l0.1,0.1C22.8,135.5,0,193,0,256c0,70.7,28.7,134.7,75,181   c46.3,46.3,110.3,75,181,75c63,0,120.5-22.8,165.1-60.6l0.1,0.1c5.4-4.6,10.7-9.5,15.8-14.5c5-5,9.9-10.3,14.5-15.8l-0.1-0.1   C489.2,376.5,512,319,512,256z M256,42.9c58.8,0,112.1,23.9,150.7,62.4c38.6,38.6,62.4,91.9,62.4,150.7c0,51.1-18.1,98-48.1,134.8   L121.2,90.9C158,60.9,204.9,42.9,256,42.9z M256,469.1c-58.9,0-112.1-23.9-150.7-62.4C66.7,368.1,42.9,314.9,42.9,256   c0-51.1,18.1-98,48.1-134.8l299.8,299.8C354,451.1,307.1,469.1,256,469.1z"/></g></svg>