<?xml version="1.0" ?><svg id="Layer_1" style="enable-background:new 0 0 512 512;" version="1.1" viewBox="0 0 512 512" xml:space="preserve" xmlns="http://www.w3.org/2000/svg" xmlns:xlink="http://www.w3.org/1999/xlink"><style type="text/css">
	.st0{fill-rule:evenodd;clip-rule:evenodd;fill:#FFFFFF;}
	.st1{fill-rule:evenodd;clip-rule:evenodd;fill:#060707;}
	.st2{fill-rule:evenodd;clip-rule:evenodd;fill:#EC1C24;}
</style><g><path class="st0" d="M256,0c70.7,0,134.7,28.6,181,75c46.3,46.3,75,110.3,75,181c0,70.7-28.7,134.7-75,181   c-46.3,46.3-110.3,75-181,75c-70.7,0-134.7-28.7-181-75C28.6,390.7,0,326.7,0,256c0-70.7,28.6-134.7,75-181   C121.3,28.6,185.3,0,256,0z"/><path class="st1" d="M342.8,271.1v-5.6v-39.1v-72c0-8.2-6.7-14.8-15-14.8l0,0c-8.1,0-14.8,6.6-14.8,14.8v72h-5.7v-97   c0-8.2-6.7-14.7-15-14.7l0,0c-8.2,0-15,6.6-15,14.7v97h-5.7V120c0-8.2-6.7-14.8-14.8-14.8l0,0c-8.2,0-15,6.6-15,14.8v106.3h-5.7   v-97c0-8.2-6.7-14.7-15-14.7l0,0c-8.2,0-14.8,6.6-14.8,14.7v97v39.1h-7.2v-42.1c0-6.4-6.7-11.7-15-11.7l0,0c-8.2,0-15,5.2-15,11.7   v94.2c0,21.5,11.8,40,31.3,49.2l10,4.7c5.7,2.8,9.3,8.2,9.1,14.5l-0.4,10.8c0,2.8,0.9,5.1,2.7,7c1.9,1.9,4.2,2.9,6.9,2.9h87.6   c5.3,0,9.7-4.2,9.7-9.5l0.4-29.3c0.1-3.8,1.5-7.3,3.7-10.1c8.5-10.2,12.6-21.6,12.6-34.8v-26V271.1z"/><path class="st2" d="M512,256c0-70.7-28.7-134.7-75-181C390.7,28.6,326.7,0,256,0C193,0,135.4,22.8,90.8,60.6l-0.1-0.1   C85.3,65.1,80,69.9,75,75c-5.1,5.1-9.9,10.3-14.5,15.8l0.1,0.1C22.8,135.5,0,193,0,256c0,70.7,28.6,134.7,75,181   c46.3,46.3,110.3,75,181,75c62.9,0,120.5-22.8,165.1-60.6l0.1,0.1c5.5-4.6,10.7-9.5,15.8-14.5c5.1-5,9.9-10.3,14.5-15.8l-0.1-0.1   C489.2,376.5,512,319,512,256z M256,42.9c58.8,0,112.1,23.9,150.7,62.4c38.6,38.6,62.4,91.9,62.4,150.7c0,51.1-18,98-48.1,134.8   L121.2,90.9C158,60.9,204.9,42.9,256,42.9z M256,469.1c-58.9,0-112.2-23.9-150.7-62.4C66.7,368.1,42.8,314.9,42.8,256   c0-51.1,18.1-98,48.1-134.8l299.8,299.8C354,451.1,307.1,469.1,256,469.1z"/></g></svg>