<?xml version="1.0" ?><svg id="Layer_1" style="enable-background:new 0 0 512 512;" version="1.1" viewBox="0 0 512 512" xml:space="preserve" xmlns="http://www.w3.org/2000/svg" xmlns:xlink="http://www.w3.org/1999/xlink"><style type="text/css">
	.st0{fill-rule:evenodd;clip-rule:evenodd;fill:#FFFFFF;}
	.st1{fill-rule:evenodd;clip-rule:evenodd;}
	.st2{fill-rule:evenodd;clip-rule:evenodd;fill:#EC1C24;}
</style><g><path class="st0" d="M256,0c70.7,0,134.7,28.6,181,75c46.3,46.3,75,110.3,75,181c0,70.7-28.7,134.7-75,181   c-46.3,46.3-110.3,75-181,75c-70.7,0-134.7-28.7-181-75C28.7,390.7,0,326.7,0,256c0-70.7,28.7-134.7,75-181   C121.3,28.6,185.3,0,256,0z"/><path class="st1" d="M303.7,105.3c15.2,0,27.6,12.4,27.6,27.7c0,15.3-12.3,27.8-27.6,27.8c-15.3,0-27.6-12.4-27.6-27.8   C276.1,117.7,288.4,105.3,303.7,105.3L303.7,105.3z M233.2,336.2l5.1-57.7c2.1,0.4,4.2,0.5,6.3,0.3l51.7,119.4   c3.1,7.2,11.5,10.4,18.6,6.9l0,0c7-3.4,10.3-12.2,7.1-19.4l-53-122.5c-0.4-0.8-0.8-1.6-1.3-2.3l34.8-53.6l29.7,25.6   c0.3,0.3,0.6,0.5,0.9,0.8v0c2.3,1.8,5.3,2.9,8.6,2.9h27.8c7,0,12.8-4.9,12.8-11l0,0c0-6-5.8-11-12.8-11h-19.2l-45-38.9v0   c-1.8-2.7-4.1-5.1-7-7l-8-5.2c-3.7-2.4-7.8-3.7-11.9-3.9h0c-1.2-0.1-2.3,0-3.5,0.1l-84.8,1.3c-0.3,0-0.5,0-0.8,0h-0.1v0   c-4.6,0.2-9.1,2.8-11.4,7.2l-21.6,41.2c-3.5,6.6-0.9,14.9,5.7,18.4l0,0c6.6,3.5,14.8,0.9,18.3-5.7l19.6-37.4h47.5l-33.1,51   c-3.5,5.4-4.6,11.7-3.6,17.7c-0.2,0.7-0.3,1.4-0.3,2.1l-6.2,70.2l-66.1,29.1c-7.5,3.3-10.7,12.1-7,19.4l0,0   c3.7,7.4,12.8,10.7,20.3,7.4l71.6-31.6c0.4-0.2,0.8-0.3,1.2-0.5l0.4-0.2C230.1,347.1,233.3,341.8,233.2,336.2z"/><path class="st2" d="M512,256c0-70.7-28.7-134.7-75-181C390.7,28.6,326.7,0,256,0C193,0,135.5,22.8,90.9,60.6l-0.1-0.1   C85.3,65.1,80,69.9,75,75c-5,5.1-9.9,10.3-14.5,15.8l0.1,0.1C22.8,135.4,0,193,0,256c0,70.7,28.7,134.7,75,181   c46.3,46.3,110.3,75,181,75c63,0,120.5-22.8,165.1-60.6l0.1,0.1c5.4-4.6,10.7-9.5,15.8-14.5c5-5,9.9-10.3,14.5-15.8l-0.1-0.1   C489.2,376.5,512,319,512,256z M256,42.9c58.8,0,112.1,23.9,150.7,62.4c38.6,38.6,62.4,91.9,62.4,150.7c0,51.1-18.1,98-48.1,134.8   L121.2,90.9C158,60.9,204.9,42.9,256,42.9z M256,469.1c-58.9,0-112.1-23.9-150.7-62.4C66.7,368.1,42.9,314.9,42.9,256   c0-51.1,18.1-98,48.1-134.8l299.8,299.8C354,451.1,307.1,469.1,256,469.1z"/></g></svg>