<?xml version="1.0" ?><!DOCTYPE svg  PUBLIC '-//W3C//DTD SVG 1.1//EN'  'http://www.w3.org/Graphics/SVG/1.1/DTD/svg11.dtd'><svg height="512px" style="enable-background:new 0 0 512 512;" version="1.1" viewBox="0 0 512 512" width="512px" xml:space="preserve" xmlns="http://www.w3.org/2000/svg" xmlns:xlink="http://www.w3.org/1999/xlink"><g id="file__x2C__css__x2C__web__x2C_"><g id="Layer_101"><g><g><polygon points="107.074,25.469 349.079,25.469 420.601,97.844       420.601,447.877 107.074,447.877     " style="fill-rule:evenodd;clip-rule:evenodd;fill:#FFFFFF;"/><path d="M420.601,454.738H107.074c-3.79,0-6.86-3.07-6.86-6.861V25.469c0-3.79,3.07-6.86,6.86-6.86      h242.005c1.831,0,3.593,0.734,4.877,2.038l71.526,72.375c1.267,1.285,1.982,3.02,1.982,4.823v350.033      C427.465,451.668,424.391,454.738,420.601,454.738z M113.934,441.018h299.812V100.662l-67.534-68.333H113.934V441.018z" style="fill:#4C8CF9;"/></g><g><rect height="105.601" style="fill-rule:evenodd;clip-rule:evenodd;fill:#4C8CF9;" width="313.529" x="129.982" y="177.616"/></g><g><path d="M216.424,258.467h-11.056v-9.958h11.056V258.467z M269.563,239.364l0.134,0.133      c0.133,6.057-1.73,10.897-5.461,14.398c-3.726,3.497-8.92,5.241-15.58,5.241c-6.661,0-12.121-2.148-16.25-6.452      c-4.261-4.304-6.259-9.819-6.259-16.684v-11.168c0-6.722,1.998-12.371,6.125-16.675c3.997-4.309,9.324-6.594,15.718-6.594      c6.924,0,12.251,1.886,16.113,5.382c3.863,3.497,5.727,8.337,5.594,14.527v0.266h-10.786c0-3.763-0.931-6.589-2.663-8.471      c-1.732-2.019-4.529-2.964-8.257-2.964c-3.332,0-5.862,1.349-7.86,4.038c-1.996,2.688-2.93,6.185-2.93,10.489v11.168      c0,4.171,1.067,7.667,3.063,10.494c2.131,2.693,4.795,4.033,8.393,4.033c3.462,0,5.992-0.941,7.725-2.827      c1.6-1.881,2.397-4.708,2.397-8.337H269.563z M307.525,243.801c0-2.147-0.804-3.9-2.263-5.245      c-1.469-1.207-4.13-2.418-7.993-3.629c-6.525-1.886-11.591-4.176-14.922-6.864c-3.327-2.552-5.057-6.186-5.057-10.76      c0-4.708,1.996-8.475,5.859-11.302c3.859-2.955,8.787-4.437,14.784-4.437c6.126,0,11.054,1.748,14.918,4.979      c3.726,3.226,5.593,7.259,5.46,12.104v0.138h-10.787c0-2.561-0.804-4.579-2.533-6.19c-1.73-1.482-4.125-2.29-7.19-2.29      s-5.332,0.674-6.929,2.019c-1.597,1.212-2.528,2.96-2.528,4.979c0,1.886,0.932,3.501,2.666,4.708      c1.729,1.211,4.79,2.418,9.053,3.768c6.126,1.748,10.659,4.038,13.854,6.86c3.193,2.822,4.795,6.456,4.795,11.031      c0,4.841-1.996,8.613-5.727,11.435c-3.73,2.694-8.659,4.034-14.784,4.034c-5.998,0-11.32-1.479-15.854-4.708      c-4.392-3.093-6.653-7.535-6.525-13.179l0.138-0.271h10.783c0,3.363,0.937,5.786,3.065,7.401c2,1.478,4.795,2.285,8.393,2.285      c3.061,0,5.327-0.674,6.924-1.881C306.722,247.573,307.525,245.82,307.525,243.801L307.525,243.801z M356.939,243.801      c0-2.147-0.67-3.9-2.268-5.245c-1.463-1.207-4.129-2.418-7.855-3.629c-6.662-1.886-11.591-4.176-15.05-6.864      c-3.332-2.552-5.066-6.186-5.066-10.76c0-4.708,2.001-8.475,5.864-11.302c3.863-2.955,8.792-4.437,14.784-4.437      c6.126,0,11.054,1.748,14.918,4.979c3.858,3.226,5.727,7.259,5.593,12.104l-0.133,0.138h-10.787c0-2.561-0.799-4.579-2.533-6.19      c-1.73-1.482-4.13-2.29-7.195-2.29c-2.927,0-5.322,0.674-6.919,2.019c-1.602,1.212-2.4,2.96-2.4,4.979      c0,1.886,0.799,3.501,2.528,4.708c1.868,1.211,4.8,2.418,9.059,3.768c6.13,1.748,10.792,4.038,13.853,6.86      c3.198,2.822,4.795,6.456,4.795,11.031c0,4.841-1.863,8.613-5.594,11.435c-3.73,2.694-8.792,4.034-14.917,4.034      c-5.993,0-11.324-1.479-15.721-4.708c-4.524-3.093-6.653-7.535-6.524-13.179v-0.271h10.792c0,3.363,1.064,5.786,3.061,7.401      c1.996,1.478,4.795,2.285,8.393,2.285c3.064,0,5.327-0.674,6.924-1.881C356.141,247.573,356.939,245.82,356.939,243.801      L356.939,243.801z" style="fill:#FEFEFE;"/></g><g><path d="M263.498,146.359c-14.009,0-26.188-5.08-32.582-13.591c-2.276-3.028-1.666-7.328,1.365-9.604      c3.028-2.285,7.328-1.666,9.606,1.363c3.761,5.006,12.038,8.112,21.61,8.112c0.004,0,0.009,0,0.018,0      c9.691-0.004,18.639-3.263,22.269-8.108c2.276-3.038,6.575-3.648,9.604-1.372c3.032,2.271,3.647,6.571,1.376,9.604      c-6.286,8.378-19.02,13.591-33.239,13.596C263.516,146.359,263.507,146.359,263.498,146.359z" style="fill:#4C8CF9;"/></g><g><path d="M143.971,233.179c-0.023,0-0.046,0-0.069,0c-41.673-0.404-66.398-11.251-73.49-32.235      c-9.243-27.343,17.015-62.73,32.448-74.748c2.992-2.322,7.303-1.785,9.627,1.198c2.328,2.992,1.792,7.3-1.198,9.631      c-13.261,10.324-34.522,39.87-27.88,59.527c6.257,18.506,36.422,22.672,60.626,22.906c3.79,0.037,6.83,3.138,6.793,6.929      C150.791,230.15,147.726,233.179,143.971,233.179z" style="fill:#4C8CF9;"/></g><g><polygon points="349.079,97.844 420.601,97.844 349.079,25.469           " style="fill-rule:evenodd;clip-rule:evenodd;fill:#D4E4FF;"/><path d="M420.601,104.704h-71.521c-3.79,0-6.86-3.07-6.86-6.86V25.469c0-2.781,1.68-5.291,4.254-6.346      c2.574-1.065,5.529-0.455,7.483,1.523l71.526,72.375c1.946,1.969,2.515,4.915,1.45,7.466      C425.868,103.043,423.372,104.704,420.601,104.704z M355.938,90.984h48.239l-48.239-48.813V90.984z" style="fill:#4C8CF9;"/></g><g><path d="M239.341,493.395c-0.376,0-0.757-0.027-1.143-0.092l-22.509-3.766      c-3.306-0.557-5.727-3.414-5.727-6.77v-34.891c0-3.789,3.07-6.859,6.86-6.859c3.791,0,6.86,3.07,6.86,6.859v29.082l16.783,2.809      c3.737,0.629,6.259,4.162,5.632,7.9C245.538,491.023,242.631,493.395,239.341,493.395z" style="fill:#4C8CF9;"/></g><g><path d="M325.25,493.395c-0.376,0-0.762-0.027-1.146-0.092l-22.507-3.766      c-3.309-0.557-5.727-3.414-5.727-6.77v-34.891c0-3.789,3.069-6.859,6.859-6.859s6.86,3.07,6.86,6.859v29.082l16.78,2.809      c3.739,0.629,6.259,4.162,5.635,7.9C331.445,491.023,328.536,493.395,325.25,493.395z" style="fill:#4C8CF9;"/></g><g><path d="M290.873,65.155c6.259-1.748,13.188,0.941,16.519,6.86      c4.13,7.131,1.73,16.143-5.332,20.181c-7.057,4.166-15.978,1.748-19.979-5.382c-3.193-5.516-2.396-12.375,1.469-16.95      c1.331,1.748,3.726,2.418,5.727,1.211C291.276,69.863,292.075,67.169,290.873,65.155L290.873,65.155z" style="fill-rule:evenodd;clip-rule:evenodd;fill:#4C8CF9;"/></g><g><path d="M228.811,65.155c6.259-1.748,13.185,0.941,16.649,6.86      c3.994,7.131,1.597,16.143-5.462,20.181c-6.924,4.166-15.982,1.748-19.979-5.382c-3.196-5.516-2.397-12.375,1.466-16.95      c1.331,1.748,3.861,2.418,5.727,1.211C229.343,69.863,230.008,67.169,228.811,65.155L228.811,65.155z" style="fill-rule:evenodd;clip-rule:evenodd;fill:#4C8CF9;"/></g><g><path d="M296.6,429.047c-3.79,0-6.855-3.07-6.855-6.861c0-3.789,3.065-6.859,6.855-6.859      c3.717,0,7.929,0,9.021-1.115c0.366-0.371,1.532-2.037,1.436-8.053l-0.262-17.537c-0.551-13.313,4.011-20.992,7.93-25.082      c0.009-0.004,0.009-0.008,0.018-0.014c-3.932-4.098-8.498-11.814-7.947-25.297l0.129-4.166l0.133-13.113      c0.102-6.107-1.097-7.805-1.464-8.182c-1.146-1.16-5.497-1.16-8.993-1.16c-3.79,0-6.855-3.07-6.855-6.861      c0-3.789,3.065-6.859,6.855-6.859c6.378,0,13.601,0,18.771,5.258c3.827,3.893,5.543,9.605,5.405,17.988l-0.133,13.113      c0,0.047,0,0.088,0,0.133c0,0.02,0,0.037,0,0.057l-0.138,4.285c-0.275,6.828,1.193,12.242,4.139,15.313      c1.685,1.748,3.763,2.637,6.186,2.637c3.79,0,6.864,3.07,6.864,6.861c0,3.789-3.074,6.859-6.864,6.859      c-2.432,0-4.516,0.891-6.204,2.652c-2.932,3.051-4.396,8.41-4.12,15.088l0.138,4.496c0,0.031,0,0.059,0,0.088      c0,0.031,0,0.063,0,0.096l0.133,13.164c0.138,8.305-1.569,13.99-5.373,17.859C310.273,429.047,303.326,429.047,296.6,429.047z       M235.069,429.047c-6.344,0-13.534,0-18.673-5.182c-3.822-3.854-5.57-9.535-5.501-17.877l0.269-13.256      c0-0.027,0.002-0.055,0.002-0.082l0.133-4.443c0.223-6.768-1.273-12.158-4.21-15.191c-1.684-1.744-3.786-2.625-6.248-2.625      c-3.79,0-6.86-3.07-6.86-6.859c0-3.791,3.07-6.861,6.86-6.861c2.455,0,4.55-0.881,6.227-2.609      c2.951-3.053,4.456-8.494,4.231-15.326l-0.133-4.318c0-0.031-0.002-0.059-0.002-0.092l-0.269-13.168      c-0.069-8.457,1.688-14.166,5.536-18.043c5.183-5.227,12.332-5.227,18.639-5.227c3.79,0,6.86,3.07,6.86,6.859      c0,3.791-3.07,6.861-6.86,6.861c-3.448,0-7.739,0-8.897,1.17c-0.378,0.381-1.608,2.096-1.558,8.186l0.399,17.336      c0.44,13.463-4.096,21.143-8.014,25.227c3.912,4.07,8.455,11.721,8.014,25.113l-0.399,17.543      c-0.048,5.961,1.154,7.648,1.523,8.02c1.115,1.125,5.268,1.125,8.932,1.125c3.79,0,6.86,3.07,6.86,6.859      C241.929,425.977,238.859,429.047,235.069,429.047z" style="fill:#4C8CF9;"/></g></g></g></g><g id="Layer_1"/></svg>