<?xml version="1.0" ?><!DOCTYPE svg  PUBLIC '-//W3C//DTD SVG 1.1//EN'  'http://www.w3.org/Graphics/SVG/1.1/DTD/svg11.dtd'><svg height="512px" style="enable-background:new 0 0 512 512;" version="1.1" viewBox="0 0 512 512" width="512px" xml:space="preserve" xmlns="http://www.w3.org/2000/svg" xmlns:xlink="http://www.w3.org/1999/xlink"><g id="file__x2C__xls__x2C__excel__x2C_"><g id="Layer_90"><g><g><polygon points="107.071,25.534 349.079,25.534 420.601,97.776       420.601,447.809 107.071,447.809     " style="fill-rule:evenodd;clip-rule:evenodd;fill:#FFFFFF;"/><path d="M420.601,454.668H107.071c-3.79,0-6.859-3.068-6.859-6.859V25.534c0-3.79,3.069-6.86,6.859-6.86      h242.008c1.831,0,3.583,0.729,4.877,2.033l71.522,72.242c1.271,1.285,1.986,3.02,1.986,4.827v350.033      C427.465,451.6,424.391,454.668,420.601,454.668z M113.932,440.949h299.813V100.598L346.22,32.394H113.932V440.949z" style="fill:#4C8CF9;"/></g><g><rect height="105.6" style="fill-rule:evenodd;clip-rule:evenodd;fill:#4C8CF9;" width="313.532" x="129.98" y="177.681"/></g><g><path d="M220.283,258.398h-11.187v-9.824h11.187V258.398z M251.051,222.346l10.391-19.915h12.916      l-16.381,27.715l17.313,28.252h-13.453l-10.652-20.181l-10.655,20.181h-13.055l16.916-28.252l-16.514-27.715h12.919      L251.051,222.346z M292.203,249.786h24.641v8.613h-35.689v-55.967h11.049V249.786z M353.209,243.866      c0-2.147-0.666-3.9-2.263-5.245c-1.468-1.211-4.13-2.556-7.86-3.63c-6.658-2.019-11.586-4.171-15.051-6.864      c-3.331-2.689-5.061-6.323-5.061-10.893c0-4.575,2-8.342,5.859-11.168c3.863-2.955,8.792-4.438,14.784-4.438      c6.126,0,11.054,1.611,14.918,4.979c3.863,3.226,5.727,7.264,5.593,12.105l-0.133,0.138h-10.787c0-2.561-0.799-4.58-2.529-6.19      c-1.734-1.615-4.129-2.29-7.194-2.29s-5.327,0.542-6.929,1.886c-1.597,1.344-2.396,3.092-2.396,5.111      c0,1.886,0.799,3.364,2.533,4.575c1.729,1.212,4.79,2.556,9.058,3.9c6.121,1.749,10.783,3.9,13.849,6.727      c3.198,2.827,4.795,6.589,4.795,11.164c0,4.841-1.863,8.613-5.594,11.302c-3.863,2.827-8.792,4.17-14.917,4.17      c-5.993,0-11.32-1.615-15.716-4.712c-4.529-3.092-6.791-7.529-6.663-13.178l0.138-0.271h10.788c0,3.363,1.064,5.786,3.061,7.396      c2,1.482,4.8,2.29,8.393,2.29c3.061,0,5.327-0.675,6.924-1.886C352.41,247.638,353.209,245.885,353.209,243.866L353.209,243.866      z" style="fill:#FEFEFE;"/></g><g><path d="M263.498,146.424c-14.012,0-26.189-5.08-32.584-13.591c-2.275-3.028-1.666-7.328,1.365-9.604      c3.028-2.285,7.328-1.666,9.606,1.363c3.76,5.006,12.038,8.113,21.612,8.113c0.004,0,0.009,0,0.018,0      c9.691-0.005,18.639-3.263,22.269-8.108c2.276-3.038,6.575-3.644,9.604-1.372c3.032,2.271,3.647,6.571,1.376,9.604      c-6.286,8.379-19.02,13.591-33.239,13.596C263.516,146.424,263.507,146.424,263.498,146.424z" style="fill:#4C8CF9;"/></g><g><path d="M143.968,233.239c-0.025,0-0.051,0-0.076,0c-41.685-0.45-66.413-11.32-73.493-32.308      c-9.211-27.307,17.035-62.661,32.457-74.669c2.992-2.327,7.303-1.785,9.627,1.198c2.329,2.991,1.792,7.3-1.198,9.631      c-13.25,10.315-34.506,39.829-27.885,59.454c6.245,18.515,36.424,22.713,60.638,22.975c3.79,0.041,6.828,3.143,6.787,6.933      C150.784,230.215,147.722,233.239,143.968,233.239z" style="fill:#4C8CF9;"/></g><g><polygon points="349.079,97.776 420.601,97.776 349.079,25.534           " style="fill-rule:evenodd;clip-rule:evenodd;fill:#D4E4FF;"/><path d="M420.601,104.636h-71.521c-3.79,0-6.86-3.07-6.86-6.86V25.534c0-2.781,1.68-5.286,4.249-6.346      c2.579-1.051,5.534-0.455,7.488,1.519l71.522,72.242c1.95,1.969,2.519,4.914,1.454,7.47      C425.868,102.975,423.372,104.636,420.601,104.636z M355.938,90.916h48.217l-48.217-48.703V90.916z" style="fill:#4C8CF9;"/></g><g><path d="M239.339,493.326c-0.365,0-0.732-0.027-1.104-0.086l-22.509-3.635      c-3.322-0.537-5.765-3.404-5.765-6.773v-35.023c0-3.789,3.069-6.859,6.859-6.859c3.791,0,6.86,3.07,6.86,6.859v29.184      l16.743,2.701c3.74,0.607,6.282,4.127,5.679,7.865C245.559,490.932,242.645,493.326,239.339,493.326z" style="fill:#4C8CF9;"/></g><g><path d="M325.25,493.326c-0.367,0-0.733-0.027-1.105-0.086l-22.507-3.635      c-3.322-0.537-5.768-3.404-5.768-6.773v-35.023c0-3.789,3.069-6.859,6.859-6.859s6.86,3.07,6.86,6.859v29.184l16.743,2.701      c3.74,0.607,6.282,4.127,5.681,7.865C331.468,490.932,328.555,493.326,325.25,493.326z" style="fill:#4C8CF9;"/></g><g><path d="M290.873,65.22c6.259-1.749,13.188,0.94,16.519,6.86      c4.13,7.13,1.73,16.143-5.332,20.18c-7.057,4.167-15.978,1.749-19.979-5.382c-3.193-5.515-2.396-12.375,1.469-16.95      c1.331,1.748,3.726,2.29,5.727,1.211C291.276,69.928,292.075,67.234,290.873,65.22L290.873,65.22z" style="fill-rule:evenodd;clip-rule:evenodd;fill:#4C8CF9;"/></g><g><path d="M228.808,65.22c6.259-1.749,13.185,0.94,16.65,6.86      c3.994,7.13,1.597,16.143-5.463,20.18c-6.924,4.167-15.982,1.749-19.979-5.382c-3.196-5.515-2.397-12.375,1.466-16.95      c1.331,1.748,3.861,2.29,5.727,1.211C229.34,69.928,230.006,67.234,228.808,65.22L228.808,65.22z" style="fill-rule:evenodd;clip-rule:evenodd;fill:#4C8CF9;"/></g><g><polygon points="209.096,359.695 209.096,371.805 390.638,371.805       390.638,359.695 390.638,339.785 209.096,339.785     " style="fill-rule:evenodd;clip-rule:evenodd;fill:#D4E4FF;"/></g><g><path d="M390.638,346.645H137.04c-3.791,0-6.86-3.068-6.86-6.859v-32.02c0-3.789,3.069-6.859,6.86-6.859      h253.598c3.79,0,6.854,3.07,6.854,6.859v32.02C397.492,343.576,394.428,346.645,390.638,346.645z M143.899,332.926h239.873      v-18.299H143.899V332.926z" style="fill:#4C8CF9;"/></g><g><path d="M390.638,378.664H137.04c-3.791,0-6.86-3.07-6.86-6.859v-32.02c0-3.789,3.069-6.859,6.86-6.859      h253.598c3.79,0,6.854,3.07,6.854,6.859v32.02C397.492,375.594,394.428,378.664,390.638,378.664z M143.899,364.945h239.873      v-18.301H143.899V364.945z" style="fill:#4C8CF9;"/></g><g><path d="M390.638,410.678H137.04c-3.791,0-6.86-3.068-6.86-6.859v-32.014c0-3.791,3.069-6.859,6.86-6.859      h253.598c3.79,0,6.854,3.068,6.854,6.859v32.014C397.492,407.609,394.428,410.678,390.638,410.678z M143.899,396.959h239.873      v-18.295H143.899V396.959z" style="fill:#4C8CF9;"/></g><g><path d="M318.579,410.678H209.096c-3.79,0-6.86-3.068-6.86-6.859v-96.053c0-3.789,3.07-6.859,6.86-6.859      h109.483c3.79,0,6.859,3.07,6.859,6.859v96.053C325.438,407.609,322.369,410.678,318.579,410.678z M215.956,396.959h95.763      v-82.332h-95.763V396.959z" style="fill:#4C8CF9;"/></g></g></g></g><g id="Layer_1"/></svg>