<?xml version="1.0" ?><!DOCTYPE svg  PUBLIC '-//W3C//DTD SVG 1.1//EN'  'http://www.w3.org/Graphics/SVG/1.1/DTD/svg11.dtd'><svg height="512px" style="enable-background:new 0 0 512 512;" version="1.1" viewBox="0 0 512 512" width="512px" xml:space="preserve" xmlns="http://www.w3.org/2000/svg" xmlns:xlink="http://www.w3.org/1999/xlink"><g id="file__x2C__pdf__x2C__document__x2C_"><g id="Layer_110"><g><g><polygon points="107.072,25.469 349.08,25.469 420.602,97.844       420.602,447.875 107.072,447.875     " style="fill-rule:evenodd;clip-rule:evenodd;fill:#FFFFFF;"/><path d="M420.602,454.736H107.072c-3.79,0-6.859-3.07-6.859-6.861V25.469c0-3.791,3.069-6.86,6.859-6.86      H349.08c1.831,0,3.593,0.734,4.877,2.037l71.526,72.375c1.267,1.285,1.982,3.02,1.982,4.823v350.031      C427.466,451.666,424.392,454.736,420.602,454.736z M113.933,441.016h299.813V100.662l-67.534-68.333H113.933V441.016z" style="fill:#4C8CF9;"/></g><g><rect height="105.599" style="fill-rule:evenodd;clip-rule:evenodd;fill:#4C8CF9;" width="313.532" x="129.981" y="177.616"/></g><g><path d="M213.359,258.467h-11.056v-9.819h11.056V258.467z M235.869,238.153v20.313H224.68v-56.1h22.11      c6.394,0,11.322,1.753,15.048,4.983c3.597,3.226,5.46,7.663,5.46,12.912c0,5.378-1.863,9.682-5.46,12.913      c-3.727,3.368-8.654,4.979-15.048,4.979H235.869z M235.869,229.412h10.921c3.063,0,5.46-0.808,7.059-2.561      c1.6-1.615,2.398-3.763,2.398-6.452c0-2.693-0.798-4.983-2.398-6.727c-1.599-1.753-3.996-2.561-7.059-2.561h-10.921V229.412z       M275.429,258.467v-56.1h19.043c6.791,0,12.389,2.29,16.785,6.598c4.396,4.433,6.657,9.948,6.657,16.813v9.283      c0,6.86-2.262,12.513-6.657,16.817c-4.396,4.438-9.994,6.589-16.785,6.589H275.429z M286.616,211.113v38.608h7.323      c3.996,0,7.057-1.34,9.323-4.033c2.268-2.693,3.46-6.19,3.46-10.627v-9.283c0-4.442-1.192-7.938-3.46-10.627      c-2.267-2.689-5.327-4.038-9.323-4.038H286.616z M360.932,235.193H337.76v23.273h-11.187v-56.1h38.223v8.746H337.76v15.473      h23.172V235.193z" style="fill:#FEFEFE;"/></g><g><path d="M263.416,146.446c-0.036,0-0.073,0-0.11,0c-13.931-0.027-26.04-5.089-32.391-13.541      c-2.275-3.028-1.666-7.328,1.365-9.604c3.028-2.285,7.328-1.666,9.606,1.363c3.721,4.956,11.939,8.043,21.446,8.062      c0.028,0,0.056,0,0.083,0c9.737,0,18.726-3.244,22.393-8.085c2.284-3.02,6.589-3.611,9.608-1.326      c3.019,2.285,3.615,6.589,1.33,9.613C290.425,141.271,277.663,146.446,263.416,146.446z" style="fill:#4C8CF9;"/></g><g><path d="M143.969,233.308c-0.025,0-0.051,0-0.078,0c-41.673-0.454-66.399-11.334-73.486-32.34      c-9.229-27.366,17.023-62.753,32.453-74.771c2.992-2.322,7.303-1.79,9.627,1.197c2.329,2.992,1.792,7.3-1.198,9.631      C98.028,147.35,76.77,176.9,83.407,196.581c6.254,18.538,36.426,22.741,60.635,23.007c3.788,0.041,6.826,3.147,6.784,6.933      C150.785,230.284,147.723,233.308,143.969,233.308z" style="fill:#4C8CF9;"/></g><g><polygon points="349.08,97.844 420.602,97.844 349.08,25.469           " style="fill-rule:evenodd;clip-rule:evenodd;fill:#D4E4FF;"/><path d="M420.602,104.704H349.08c-3.79,0-6.86-3.069-6.86-6.86V25.469c0-2.781,1.68-5.291,4.254-6.346      c2.574-1.06,5.529-0.454,7.483,1.523l71.526,72.375c1.946,1.969,2.515,4.915,1.45,7.466      C425.869,103.043,423.373,104.704,420.602,104.704z M355.939,90.984h48.239l-48.239-48.813V90.984z" style="fill:#4C8CF9;"/></g><g><path d="M239.34,493.393c-0.376,0-0.757-0.027-1.143-0.092l-22.509-3.766      c-3.306-0.557-5.727-3.414-5.727-6.77v-34.891c0-3.789,3.069-6.859,6.859-6.859c3.791,0,6.86,3.07,6.86,6.859v29.082      l16.782,2.809c3.738,0.629,6.259,4.162,5.633,7.9C245.537,491.021,242.63,493.393,239.34,493.393z" style="fill:#4C8CF9;"/></g><g><path d="M325.251,493.393c-0.376,0-0.762-0.027-1.146-0.092l-22.507-3.766      c-3.309-0.557-5.727-3.414-5.727-6.77v-34.891c0-3.789,3.069-6.859,6.859-6.859s6.86,3.07,6.86,6.859v29.082l16.78,2.809      c3.739,0.629,6.259,4.162,5.635,7.9C331.446,491.021,328.537,493.393,325.251,493.393z" style="fill:#4C8CF9;"/></g><g><path d="M290.874,65.155c6.259-1.748,13.188,0.941,16.519,6.86      c4.13,7.13,1.73,16.142-5.332,20.313c-7.057,4.033-15.978,1.615-19.979-5.516c-3.193-5.516-2.396-12.375,1.469-16.95      c1.331,1.886,3.726,2.418,5.727,1.211C291.277,69.863,292.076,67.308,290.874,65.155L290.874,65.155z" style="fill-rule:evenodd;clip-rule:evenodd;fill:#4C8CF9;"/></g><g><path d="M228.809,65.155c6.259-1.748,13.185,0.941,16.65,6.86      c3.994,7.13,1.597,16.142-5.463,20.313c-6.924,4.033-15.982,1.615-19.979-5.516c-3.196-5.516-2.397-12.375,1.466-16.95      c1.331,1.886,3.861,2.418,5.727,1.211C229.341,69.863,230.007,67.308,228.809,65.155L228.809,65.155z" style="fill-rule:evenodd;clip-rule:evenodd;fill:#4C8CF9;"/></g><g><path d="M313.651,374.693c-4.662,0-10.521,0.541-17.445,1.885c-9.462-10.227-19.318-25.158-26.375-39.686      c6.929-29.596,3.464-33.764,2-35.648c-1.734-2.152-3.996-5.516-6.662-5.516c-1.064,0-3.992,0.537-5.194,0.807      c-3.063,1.08-4.66,3.365-5.859,6.457c-3.729,8.607,1.333,23.41,6.527,34.846c-4.529,17.758-11.855,39.012-19.713,56.365      c-19.712,9.145-30.101,18.023-31.035,26.5c-0.399,3.096,0.399,7.666,5.729,11.838c1.464,1.078,3.196,1.748,5.061,1.748      c4.527,0,9.056-3.635,14.383-11.168c3.997-5.379,8.126-12.912,12.387-22.191c13.989-6.193,31.167-11.709,45.819-14.803      c8.255,7.939,15.583,11.977,21.975,11.977c4.662,0,8.526-2.156,11.453-6.322c3.065-4.172,3.735-8.076,2.001-11.303      C326.701,376.578,321.773,374.693,313.651,374.693L313.651,374.693z M220.818,425.41c-2.397-1.887-2.265-3.227-2.265-3.629      c0.266-2.965,4.795-8.076,15.982-14.4C226.013,423.121,221.617,425.139,220.818,425.41L220.818,425.41z M263.306,305.148      c0.267,0,5.461,5.781,0.532,16.951C256.513,314.428,262.907,305.414,263.306,305.148L263.306,305.148z M252.649,389.221      c5.197-12.643,10.125-26.633,13.85-39.682c5.865,10.627,12.922,20.85,19.851,29.055      C275.291,381.287,263.438,384.916,252.649,389.221L252.649,389.221z M319.645,386.67c-1.597,2.283-5.062,2.283-6.259,2.283      c-2.799,0-3.864-1.613-8.122-4.844c3.593-0.533,6.791-0.67,9.452-0.67c4.662,0,5.461,0.807,6.131,1.072      C320.709,384.916,320.442,385.59,319.645,386.67L319.645,386.67z" style="fill:#4C8CF9;"/></g></g></g></g><g id="Layer_1"/></svg>