<?xml version="1.0" ?><!DOCTYPE svg  PUBLIC '-//W3C//DTD SVG 1.1//EN'  'http://www.w3.org/Graphics/SVG/1.1/DTD/svg11.dtd'><svg height="512px" style="enable-background:new 0 0 512 512;" version="1.1" viewBox="0 0 512 512" width="512px" xml:space="preserve" xmlns="http://www.w3.org/2000/svg" xmlns:xlink="http://www.w3.org/1999/xlink"><g id="file__x2C__jpg__x2C__image__x2C_"><g id="Layer_84"><g><g><polygon points="107.072,25.469 349.08,25.469 420.602,97.844       420.602,447.877 107.072,447.877     " style="fill-rule:evenodd;clip-rule:evenodd;fill:#FFFFFF;"/><path d="M420.602,454.738h-313.53c-3.79,0-6.859-3.07-6.859-6.861V25.469c0-3.79,3.069-6.86,6.859-6.86      H349.08c1.831,0,3.593,0.734,4.877,2.038l71.526,72.375c1.267,1.285,1.982,3.02,1.982,4.823v350.033      C427.466,451.668,424.392,454.738,420.602,454.738z M113.932,441.018h299.814V100.662l-67.534-68.333h-232.28V441.018z" style="fill:#4C8CF9;"/></g><g><rect height="105.601" style="fill-rule:evenodd;clip-rule:evenodd;fill:#4C8CF9;" width="313.532" x="129.98" y="177.616"/></g><g><path d="M217.752,258.463h-11.187v-9.82h11.187V258.463z M252.25,202.367h11.056v39.283      c0,5.378-1.734,9.687-5.194,12.78c-3.464,3.229-7.994,4.84-13.321,4.84c-5.727,0-10.389-1.477-13.717-4.304      c-3.332-2.822-4.928-6.993-4.795-12.646v-0.133h10.788c0,2.96,0.801,4.979,2.131,6.323c1.466,1.345,3.329,2.019,5.593,2.019      c2.131,0,3.864-0.808,5.327-2.423c1.333-1.61,2.132-3.767,2.132-6.594V202.367z M284.615,238.153v20.31h-11.054v-56.096h21.975      c6.396,0,11.453,1.749,15.051,4.979c3.73,3.23,5.598,7.668,5.598,12.912c0,5.383-1.867,9.691-5.598,12.917      c-3.598,3.363-8.654,4.979-15.051,4.979H284.615z M284.615,229.407h10.921c3.198,0,5.46-0.808,7.062-2.556      c1.597-1.615,2.396-3.767,2.396-6.456c0-2.688-0.799-4.979-2.396-6.727c-1.464-1.748-3.863-2.556-7.062-2.556h-10.921V229.407z       M366.925,250.799c-1.726,2.147-4.258,4.166-7.723,5.919c-3.593,1.61-7.988,2.551-13.32,2.551      c-6.791,0-12.252-2.146-16.515-6.456c-4.392-4.171-6.524-9.687-6.524-16.546v-11.706c0-6.722,2.133-12.238,6.259-16.546      c4.13-4.304,9.457-6.323,15.854-6.323c6.791,0,11.985,1.615,15.582,4.983c3.593,3.226,5.461,7.663,5.461,13.045v0.271h-10.526      c-0.129-2.96-1.064-5.383-2.795-7.131c-1.729-1.748-4.129-2.556-7.327-2.556c-3.46,0-6.126,1.344-8.26,4.033      c-2.129,2.561-3.061,6.057-3.061,10.223v11.706c0,4.171,1.069,7.667,3.198,10.356c2.129,2.561,5.062,3.905,8.654,3.905      c2.666,0,4.662-0.271,6.259-0.808c1.601-0.537,2.799-1.211,3.597-1.886v-10.356h-9.855v-7.805h21.043V250.799z" style="fill:#FEFEFE;"/></g><g><path d="M263.421,146.446c-0.037,0-0.069,0-0.105,0c-13.938-0.028-26.05-5.089-32.401-13.545      c-2.275-3.028-1.666-7.328,1.365-9.604c3.028-2.285,7.328-1.666,9.606,1.363c3.724,4.956,11.944,8.044,21.452,8.062      c0.027,0,0.056,0,0.078,0c9.737,0,18.726-3.244,22.393-8.081c2.284-3.023,6.589-3.62,9.608-1.331      c3.019,2.285,3.615,6.589,1.33,9.608C290.429,141.266,277.668,146.446,263.421,146.446z" style="fill:#4C8CF9;"/></g><g><path d="M143.969,233.308c-0.025,0-0.051,0-0.078,0c-41.673-0.455-66.396-11.334-73.483-32.34      c-9.234-27.361,17.019-62.758,32.448-74.775c2.99-2.317,7.303-1.79,9.629,1.198c2.329,2.991,1.792,7.3-1.195,9.631      c-13.261,10.324-34.52,39.884-27.882,59.56c6.256,18.538,36.426,22.741,60.635,23.007c3.788,0.042,6.826,3.148,6.784,6.934      C150.785,230.284,147.722,233.308,143.969,233.308z" style="fill:#4C8CF9;"/></g><g><polygon points="349.08,97.844 420.602,97.844 349.08,25.469           " style="fill-rule:evenodd;clip-rule:evenodd;fill:#D4E4FF;"/><path d="M420.602,104.704H349.08c-3.79,0-6.86-3.07-6.86-6.86V25.469c0-2.781,1.68-5.291,4.254-6.346      c2.574-1.065,5.529-0.455,7.483,1.523l71.526,72.375c1.946,1.969,2.515,4.915,1.45,7.466      C425.869,103.043,423.373,104.704,420.602,104.704z M355.939,90.984h48.239l-48.239-48.813V90.984z" style="fill:#4C8CF9;"/></g><g><path d="M239.339,493.395c-0.378,0-0.759-0.027-1.143-0.092l-22.509-3.771      c-3.306-0.555-5.727-3.418-5.727-6.768v-34.887c0-3.789,3.069-6.859,6.859-6.859c3.791,0,6.86,3.07,6.86,6.859v29.082      l16.782,2.809c3.738,0.629,6.259,4.166,5.633,7.9C245.534,491.023,242.629,493.395,239.339,493.395z" style="fill:#4C8CF9;"/></g><g><path d="M325.251,493.395c-0.381,0-0.762-0.027-1.146-0.092l-22.507-3.771      c-3.309-0.555-5.727-3.418-5.727-6.768v-34.887c0-3.789,3.069-6.859,6.859-6.859s6.86,3.07,6.86,6.859v29.082l16.78,2.809      c3.739,0.629,6.259,4.166,5.635,7.9C331.446,491.023,328.537,493.395,325.251,493.395z" style="fill:#4C8CF9;"/></g><g><path d="M290.874,65.155c6.259-1.753,13.188,0.936,16.519,6.855      c4.13,7.13,1.73,16.147-5.332,20.318c-7.057,4.033-15.978,1.615-19.979-5.515c-3.193-5.516-2.396-12.243,1.469-16.95      c1.331,1.881,3.726,2.418,5.727,1.211C291.277,69.863,292.076,67.303,290.874,65.155L290.874,65.155z" style="fill-rule:evenodd;clip-rule:evenodd;fill:#4C8CF9;"/></g><g><path d="M228.809,65.155c6.259-1.753,13.185,0.936,16.65,6.855      c3.994,7.13,1.597,16.147-5.463,20.318c-6.924,4.033-15.982,1.615-19.979-5.515c-3.196-5.516-2.397-12.243,1.466-16.95      c1.331,1.881,3.861,2.418,5.727,1.211C229.341,69.863,230.006,67.303,228.809,65.155L228.809,65.155z" style="fill-rule:evenodd;clip-rule:evenodd;fill:#4C8CF9;"/></g><g><path d="M162.612,305.279c14.119,0,25.439,11.568,25.439,25.828      c0,14.262-11.32,25.83-25.439,25.83c-14.117,0-25.572-11.568-25.572-25.83C137.04,316.848,148.495,305.279,162.612,305.279      L162.612,305.279z" style="fill-rule:evenodd;clip-rule:evenodd;fill:#D4E4FF;"/><path d="M162.612,363.797c-17.884,0-32.432-14.666-32.432-32.689s14.548-32.688,32.432-32.688      c17.811,0,32.299,14.664,32.299,32.688S180.422,363.797,162.612,363.797z M162.612,312.139      c-10.317,0-18.712,8.512-18.712,18.969s8.395,18.969,18.712,18.969c10.244,0,18.579-8.512,18.579-18.969      S172.856,312.139,162.612,312.139z" style="fill:#4C8CF9;"/></g><g><polygon points="137.838,442.361 416.206,442.361 416.206,366.486       357.206,302.861 273.162,369.582 230.139,340.928     " style="fill-rule:evenodd;clip-rule:evenodd;fill:#4C8CF9;"/></g></g></g></g><g id="Layer_1"/></svg>