<?xml version="1.0" ?><!DOCTYPE svg  PUBLIC '-//W3C//DTD SVG 1.1//EN'  'http://www.w3.org/Graphics/SVG/1.1/DTD/svg11.dtd'><svg height="512px" style="enable-background:new 0 0 512 512;" version="1.1" viewBox="0 0 512 512" width="512px" xml:space="preserve" xmlns="http://www.w3.org/2000/svg" xmlns:xlink="http://www.w3.org/1999/xlink"><g id="file__x2C_ppt__x2C__power_point__x2C_"><g id="Layer_78"><g><g><polygon points="107.072,25.469 349.08,25.469 420.602,97.844       420.602,447.877 107.072,447.877     " style="fill-rule:evenodd;clip-rule:evenodd;fill:#FFFFFF;"/><path d="M420.602,454.738h-313.53c-3.79,0-6.859-3.07-6.859-6.861V25.469c0-3.79,3.069-6.86,6.859-6.86      H349.08c1.831,0,3.593,0.734,4.877,2.038l71.526,72.375c1.267,1.285,1.982,3.02,1.982,4.823v350.033      C427.466,451.668,424.392,454.738,420.602,454.738z M113.932,441.018h299.814V100.662l-67.534-68.333h-232.28V441.018z" style="fill:#4C8CF9;"/></g><g><rect height="105.601" style="fill-rule:evenodd;clip-rule:evenodd;fill:#4C8CF9;" width="313.532" x="129.98" y="177.616"/></g><g><path d="M216.688,258.467h-11.054v-9.824h11.054V258.467z M239.064,238.153v20.314H228.01v-55.962h22.107      c6.395,0,11.326,1.611,15.051,4.841c3.598,3.364,5.46,7.668,5.46,13.05c0,5.378-1.862,9.687-5.46,12.913      c-3.726,3.23-8.657,4.845-15.051,4.845H239.064z M239.064,229.545h11.054c3.065,0,5.463-0.945,7.06-2.561      c1.6-1.744,2.397-3.9,2.397-6.589c0-2.688-0.798-4.845-2.397-6.589c-1.597-1.753-3.995-2.693-7.06-2.693h-11.054V229.545z       M289.942,238.153v20.314h-11.187v-55.962h22.112c6.387,0,11.453,1.611,15.05,4.841c3.593,3.364,5.461,7.668,5.461,13.05      c0,5.378-1.868,9.687-5.461,12.913c-3.597,3.23-8.663,4.845-15.05,4.845H289.942z M289.942,229.545h10.926      c3.061,0,5.46-0.945,7.057-2.561c1.597-1.744,2.396-3.9,2.396-6.589c0-2.688-0.799-4.845-2.396-6.589      c-1.597-1.753-3.996-2.693-7.057-2.693h-10.926V229.545z M367.86,211.113h-15.72v47.354h-11.05v-47.354h-15.582v-8.608h42.352      V211.113z" style="fill:#FEFEFE;"/></g><g><path d="M263.499,146.492c-14.012,0-26.19-5.075-32.584-13.587c-2.275-3.028-1.666-7.328,1.365-9.604      c3.021-2.28,7.328-1.666,9.606,1.363c3.758,5.001,12.038,8.107,21.613,8.107c0.004,0,0.009,0,0.018,0      c9.691-0.004,18.639-3.262,22.273-8.103c2.267-3.033,6.57-3.648,9.6-1.372c3.032,2.271,3.647,6.571,1.376,9.604      c-6.286,8.378-19.02,13.586-33.239,13.591C263.517,146.492,263.508,146.492,263.499,146.492z" style="fill:#4C8CF9;"/></g><g><path d="M143.969,233.308c-0.025,0-0.051,0-0.076,0c-41.673-0.45-66.399-11.329-73.486-32.335      c-9.234-27.362,17.019-62.763,32.448-74.78c2.99-2.322,7.303-1.79,9.629,1.198c2.329,2.991,1.792,7.3-1.195,9.631      c-13.261,10.324-34.522,39.884-27.882,59.564c6.256,18.538,36.426,22.741,60.633,23.002c3.79,0.042,6.828,3.144,6.787,6.934      C150.785,230.284,147.722,233.308,143.969,233.308z" style="fill:#4C8CF9;"/></g><g><polygon points="349.08,97.844 420.602,97.844 349.08,25.469           " style="fill-rule:evenodd;clip-rule:evenodd;fill:#D4E4FF;"/><path d="M420.602,104.704H349.08c-3.79,0-6.86-3.07-6.86-6.86V25.469c0-2.781,1.68-5.291,4.254-6.346      c2.574-1.065,5.529-0.455,7.483,1.523l71.526,72.375c1.946,1.969,2.515,4.915,1.45,7.466      C425.869,103.043,423.373,104.704,420.602,104.704z M355.939,90.984h48.239l-48.239-48.813V90.984z" style="fill:#4C8CF9;"/></g><g><path d="M239.339,493.395c-0.376,0-0.757-0.027-1.143-0.092l-22.509-3.766      c-3.306-0.557-5.727-3.414-5.727-6.77v-34.891c0-3.789,3.069-6.859,6.859-6.859c3.791,0,6.86,3.07,6.86,6.859v29.082      l16.782,2.809c3.738,0.629,6.259,4.162,5.633,7.9C245.536,491.023,242.629,493.395,239.339,493.395z" style="fill:#4C8CF9;"/></g><g><path d="M325.251,493.395c-0.376,0-0.762-0.027-1.146-0.092l-22.507-3.766      c-3.309-0.557-5.727-3.414-5.727-6.77v-34.891c0-3.789,3.069-6.859,6.859-6.859s6.86,3.07,6.86,6.859v29.082l16.78,2.809      c3.739,0.629,6.259,4.162,5.635,7.9C331.446,491.023,328.537,493.395,325.251,493.395z" style="fill:#4C8CF9;"/></g><g><path d="M290.874,65.289c6.259-1.749,13.188,0.808,16.519,6.86      c4.13,6.993,1.73,16.142-5.332,20.18c-7.057,4.033-15.978,1.615-19.979-5.382c-3.193-5.648-2.396-12.375,1.469-17.083      c1.331,1.881,3.726,2.422,5.727,1.344C291.277,69.996,292.076,67.307,290.874,65.289L290.874,65.289z" style="fill-rule:evenodd;clip-rule:evenodd;fill:#4C8CF9;"/></g><g><path d="M228.809,65.289c6.259-1.749,13.185,0.808,16.65,6.86      c3.994,6.993,1.597,16.142-5.463,20.18c-6.924,4.033-15.982,1.615-19.979-5.382c-3.196-5.648-2.397-12.375,1.466-17.083      c1.331,1.881,3.861,2.422,5.727,1.344C229.341,69.996,230.006,67.307,228.809,65.289L228.809,65.289z" style="fill-rule:evenodd;clip-rule:evenodd;fill:#4C8CF9;"/></g><g><path d="M314.987,436.842c-2.13,0-4.227-0.986-5.566-2.844l-22.91-31.744      c-2.217-3.074-1.523-7.361,1.546-9.576c3.069-2.221,7.36-1.529,9.581,1.545l22.906,31.744c2.221,3.074,1.523,7.361-1.547,9.576      C317.781,436.42,316.377,436.842,314.987,436.842z M212.687,436.842c-1.393,0-2.797-0.422-4.011-1.299      c-3.072-2.215-3.765-6.502-1.548-9.576l22.911-31.744c2.221-3.074,6.511-3.762,9.579-1.545c3.072,2.215,3.765,6.502,1.548,9.576      l-22.911,31.744C216.913,435.855,214.813,436.842,212.687,436.842z" style="fill:#4C8CF9;"/></g><g><path d="M263.838,324.514c-3.79,0-6.86-3.068-6.86-6.859v-19.639c0-3.791,3.07-6.859,6.86-6.859      s6.86,3.068,6.86,6.859v19.639C270.698,321.445,267.628,324.514,263.838,324.514z" style="fill:#4C8CF9;"/></g><g><polygon points="346.68,307.834 263.838,307.834 236.534,307.834       180.994,307.834 180.994,355.055 180.994,377.521 180.994,398.238 260.773,398.238 346.68,398.238 346.68,373.887     " style="fill-rule:evenodd;clip-rule:evenodd;fill:#D4E4FF;"/></g><g><path d="M346.68,405.098H180.994c-3.79,0-6.86-3.068-6.86-6.859v-90.404c0-3.789,3.07-6.859,6.86-6.859      H346.68c3.79,0,6.864,3.07,6.864,6.859v90.404C353.544,402.029,350.47,405.098,346.68,405.098z M187.854,391.379h151.972      v-76.684H187.854V391.379z" style="fill:#4C8CF9;"/></g></g></g></g><g id="Layer_1"/></svg>