<?xml version="1.0" ?><!DOCTYPE svg  PUBLIC '-//W3C//DTD SVG 1.1//EN'  'http://www.w3.org/Graphics/SVG/1.1/DTD/svg11.dtd'><svg height="512px" style="enable-background:new 0 0 512 512;" version="1.1" viewBox="0 0 512 512" width="512px" xml:space="preserve" xmlns="http://www.w3.org/2000/svg" xmlns:xlink="http://www.w3.org/1999/xlink"><g id="file__x2C__zip__x2C__compressed__x2C_"><g id="Layer_42"><g><g><polygon points="107.07,25.467 349.078,25.467 420.6,97.705       420.6,447.738 107.07,447.738     " style="fill-rule:evenodd;clip-rule:evenodd;fill:#FFFFFF;"/><path d="M420.6,454.598H107.07c-3.79,0-6.859-3.07-6.859-6.859V25.467c0-3.79,3.069-6.86,6.859-6.86      h242.008c1.831,0,3.583,0.729,4.877,2.033l71.522,72.237c1.271,1.285,1.986,3.02,1.986,4.827v350.034      C427.464,451.527,424.39,454.598,420.6,454.598z M113.931,440.879h299.813V100.527l-67.525-68.2H113.931V440.879z" style="fill:#4C8CF9;"/></g><g><rect height="105.6" style="fill-rule:evenodd;clip-rule:evenodd;fill:#4C8CF9;" width="313.531" x="129.979" y="177.615"/></g><g><path d="M230.938,258.332h-11.056v-9.82h11.056V258.332z M253.448,249.719h27.035v8.613h-40.489v-5.787      l26.375-41.435h-26.375v-8.741h39.824v5.648L253.448,249.719z M299.93,258.332h-11.054V202.37h11.054V258.332z M322.175,238.014      v20.318h-11.187V202.37h22.107c6.392,0,11.453,1.611,15.051,4.974c3.726,3.23,5.46,7.535,5.46,12.917      c0,5.383-1.734,9.687-5.46,12.913c-3.598,3.23-8.659,4.841-15.051,4.841H322.175z M322.175,229.406h10.921      c3.065,0,5.461-0.808,7.058-2.556c1.597-1.748,2.399-3.9,2.399-6.456c0-2.689-0.803-4.979-2.399-6.727      c-1.597-1.748-3.863-2.556-7.058-2.556h-10.921V229.406z" style="fill:#FEFEFE;"/></g><g><path d="M263.497,146.357c-14.012,0-26.189-5.075-32.584-13.587c-2.275-3.028-1.665-7.328,1.365-9.604      c3.021-2.28,7.328-1.67,9.606,1.363c3.758,5.001,12.038,8.108,21.612,8.108c0.004,0,0.009,0,0.018,0      c9.691-0.005,18.639-3.263,22.273-8.104c2.267-3.033,6.57-3.648,9.6-1.372c3.032,2.271,3.647,6.571,1.376,9.604      c-6.286,8.378-19.02,13.586-33.239,13.591C263.515,146.357,263.506,146.357,263.497,146.357z" style="fill:#4C8CF9;"/></g><g><path d="M143.968,233.173c-0.025,0-0.051,0-0.078,0c-41.683-0.455-66.408-11.325-73.488-32.308      c-9.214-27.302,17.032-62.661,32.452-74.674c2.99-2.322,7.303-1.79,9.63,1.198c2.328,2.992,1.791,7.3-1.195,9.631      c-13.252,10.32-34.507,39.838-27.888,59.458c6.248,18.51,36.424,22.709,60.641,22.975c3.787,0.041,6.825,3.147,6.784,6.933      C150.783,230.149,147.721,233.173,143.968,233.173z" style="fill:#4C8CF9;"/></g><g><polygon points="349.078,97.705 420.6,97.705 349.078,25.467           " style="fill-rule:evenodd;clip-rule:evenodd;fill:#D4E4FF;"/><path d="M420.6,104.565h-71.521c-3.79,0-6.86-3.07-6.86-6.86V25.467c0-2.781,1.68-5.286,4.249-6.346      c2.574-1.051,5.534-0.455,7.488,1.519l71.522,72.237c1.95,1.969,2.519,4.915,1.454,7.471      C425.867,102.904,423.371,104.565,420.6,104.565z M355.938,90.845h48.217l-48.217-48.699V90.845z" style="fill:#4C8CF9;"/></g><g><path d="M239.338,493.393c-0.376,0-0.757-0.027-1.143-0.092l-22.509-3.766      c-3.306-0.557-5.727-3.414-5.727-6.77v-35.027c0-3.791,3.069-6.859,6.859-6.859c3.791,0,6.86,3.068,6.86,6.859v29.219      l16.782,2.809c3.738,0.629,6.259,4.162,5.633,7.9C245.535,491.021,242.628,493.393,239.338,493.393z" style="fill:#4C8CF9;"/></g><g><path d="M325.249,493.393c-0.376,0-0.762-0.027-1.146-0.092l-22.507-3.766      c-3.309-0.557-5.727-3.414-5.727-6.77v-35.027c0-3.791,3.069-6.859,6.859-6.859s6.86,3.068,6.86,6.859v29.219l16.78,2.809      c3.739,0.629,6.259,4.162,5.635,7.9C331.444,491.021,328.535,493.393,325.249,493.393z" style="fill:#4C8CF9;"/></g><g><path d="M290.872,65.154c6.259-1.753,13.188,0.94,16.519,6.86      c4.13,7.13,1.73,16.143-5.332,20.176c-7.057,4.171-15.978,1.753-19.979-5.378c-3.193-5.515-2.396-12.38,1.469-16.95      c1.331,1.748,3.726,2.285,5.727,1.211C291.275,69.862,292.074,67.172,290.872,65.154L290.872,65.154z" style="fill-rule:evenodd;clip-rule:evenodd;fill:#4C8CF9;"/></g><g><path d="M228.808,65.154c6.259-1.753,13.185,0.94,16.649,6.86      c3.994,7.13,1.597,16.143-5.463,20.176c-6.924,4.171-15.981,1.753-19.979-5.378c-3.196-5.515-2.397-12.38,1.466-16.95      c1.331,1.748,3.861,2.285,5.727,1.211C229.34,69.862,230.005,67.172,228.808,65.154L228.808,65.154z" style="fill-rule:evenodd;clip-rule:evenodd;fill:#4C8CF9;"/></g><g><path d="M368.125,291.021c-1.175,0-2.35-0.451-3.239-1.35l-29.037-29.193      c-1.784-1.789-1.78-4.684,0.014-6.469c1.79-1.78,4.686-1.78,6.466,0.019l29.036,29.193c1.785,1.789,1.78,4.684-0.014,6.469      C370.456,290.576,369.29,291.021,368.125,291.021z" style="fill:#4C8CF9;"/></g><g><path d="M352.01,307.297c-1.175,0-2.35-0.451-3.244-1.35l-29.036-29.193      c-1.78-1.789-1.771-4.689,0.019-6.469c1.789-1.781,4.685-1.775,6.47,0.018l29.031,29.193c1.781,1.789,1.771,4.689-0.018,6.469      C354.341,306.852,353.176,307.297,352.01,307.297z" style="fill:#4C8CF9;"/></g><g><path d="M269.696,361.105c-1.161,0-2.327-0.439-3.222-1.326c-1.794-1.779-1.804-4.676-0.027-6.469      l104.155-105.064c1.78-1.785,4.672-1.813,6.47-0.027c1.79,1.78,1.809,4.676,0.028,6.469L272.944,359.752      C272.05,360.652,270.875,361.105,269.696,361.105z" style="fill:#4C8CF9;"/></g><g><path d="M335.895,323.576c-1.175,0-2.349-0.449-3.244-1.35l-29.036-29.191      c-1.785-1.789-1.775-4.686,0.014-6.471c1.79-1.779,4.689-1.775,6.47,0.02l29.037,29.191c1.78,1.789,1.775,4.686-0.019,6.471      C338.226,323.131,337.061,323.576,335.895,323.576z" style="fill:#4C8CF9;"/></g><g><path d="M319.775,339.852c-1.175,0-2.35-0.449-3.244-1.348l-29.032-29.193      c-1.784-1.789-1.775-4.689,0.014-6.471c1.79-1.779,4.689-1.775,6.471,0.02l29.036,29.191c1.78,1.791,1.771,4.689-0.019,6.471      C322.11,339.406,320.94,339.852,319.775,339.852z" style="fill:#4C8CF9;"/></g><g><path d="M303.66,356.127c-1.175,0-2.35-0.449-3.244-1.348L271.38,325.59      c-1.78-1.789-1.771-4.684,0.019-6.469c1.789-1.781,4.689-1.775,6.47,0.018l29.036,29.188c1.78,1.791,1.771,4.686-0.019,6.471      C305.996,355.682,304.83,356.127,303.66,356.127z" style="fill:#4C8CF9;"/></g><g><path d="M254.113,340.793c10.389,10.494,20.776,20.988,31.17,31.482      l-33.7,43.178c-9.724,12.379-29.037,11.168-40.091,0l0,0c-11.056-11.164-12.254-30.67,0-40.49L254.113,340.793z" style="fill-rule:evenodd;clip-rule:evenodd;fill:#FFFFFF;"/><path d="M232.609,428.865c-9.074,0-17.958-3.717-24.368-10.195c-6.825-6.893-10.569-16.771-10.017-26.43      c0.486-8.453,4.183-15.859,10.407-20.846l42.62-34.172c1.829-1.455,4.465-1.309,6.112,0.354l31.168,31.482      c1.615,1.633,1.771,4.217,0.357,6.029l-33.7,43.178C249.818,425.104,241.802,428.865,232.609,428.865z M253.76,346.938      l-39.406,31.596c-4.176,3.346-6.66,8.396-6.995,14.229c-0.408,7.113,2.352,14.391,7.383,19.475      c4.637,4.686,11.315,7.479,17.868,7.479c6.325,0,11.788-2.518,15.376-7.088l31.213-39.994L253.76,346.938z" style="fill:#4C8CF9;"/></g><g><path d="M231.604,374.156l20.644,20.988l-7.192,10.355      c-5.327,7.535-17.18,6.594-23.707,0l0,0c-6.527-6.594-7.459-18.564,0-23.947L231.604,374.156z" style="fill-rule:evenodd;clip-rule:evenodd;fill:#FFFFFF;"/><path d="M234.094,415.379c-5.888,0-11.866-2.49-15.996-6.662c-4.543-4.588-7.034-11.426-6.502-17.844      c0.452-5.434,2.964-10.064,7.075-13.027l10.258-7.396c1.831-1.332,4.354-1.111,5.936,0.5l20.644,20.988      c1.542,1.568,1.751,4.01,0.496,5.818l-7.192,10.355C245.537,412.74,240.183,415.379,234.094,415.379z M231.095,380.162      l-7.071,5.098c-2.445,1.768-3.149,4.438-3.311,6.369c-0.312,3.771,1.214,7.953,3.887,10.654      c2.445,2.469,5.995,3.947,9.494,3.947c1.81,0,5.152-0.436,7.227-3.369l5.009-7.213L231.095,380.162z" style="fill:#4C8CF9;"/></g></g></g></g><g id="Layer_1"/></svg>