<?xml version="1.0" ?><!DOCTYPE svg  PUBLIC '-//W3C//DTD SVG 1.1//EN'  'http://www.w3.org/Graphics/SVG/1.1/DTD/svg11.dtd'><svg height="512px" style="enable-background:new 0 0 512 512;" version="1.1" viewBox="0 0 512 512" width="512px" xml:space="preserve" xmlns="http://www.w3.org/2000/svg" xmlns:xlink="http://www.w3.org/1999/xlink"><g id="file__x2C__ppt__x2C__pptx__x2C__powerpoint__x2C_"><g id="Layer_12"><g><g><polygon points="107.071,25.468 349.079,25.468 420.601,97.71       420.601,447.746 107.071,447.746     " style="fill-rule:evenodd;clip-rule:evenodd;fill:#FFFFFF;"/><path d="M420.601,454.605H107.071c-3.79,0-6.859-3.07-6.859-6.859V25.468c0-3.791,3.069-6.86,6.859-6.86      h242.008c1.831,0,3.583,0.734,4.877,2.032l71.522,72.243c1.271,1.285,1.986,3.019,1.986,4.827v350.036      C427.465,451.535,424.391,454.605,420.601,454.605z M113.932,440.885h299.813V100.532L346.22,32.328H113.932V440.885z" style="fill:#4C8CF9;"/></g><g><rect height="105.604" style="fill-rule:evenodd;clip-rule:evenodd;fill:#4C8CF9;" width="313.532" x="129.98" y="177.615"/></g><g><path d="M191.648,258.332h-11.056v-9.824h11.056V258.332z M214.157,238.019v20.313h-11.189V202.37h22.11      c6.394,0,11.322,1.611,15.05,4.974c3.598,3.23,5.463,7.534,5.463,12.917c0,5.378-1.865,9.687-5.463,12.913      c-3.728,3.23-8.656,4.845-15.05,4.845H214.157z M214.157,229.406h10.92c3.065,0,5.463-0.808,7.06-2.556      c1.599-1.748,2.397-3.9,2.397-6.456c0-2.689-0.798-4.979-2.397-6.727c-1.597-1.748-3.995-2.556-7.06-2.556h-10.92V229.406z       M264.901,238.019v20.313h-11.187V202.37h22.107c6.396,0,11.453,1.611,15.051,4.974c3.73,3.23,5.46,7.534,5.46,12.917      c0,5.378-1.729,9.687-5.46,12.913c-3.598,3.23-8.654,4.845-15.051,4.845H264.901z M264.901,229.406h10.921      c3.065,0,5.461-0.808,7.063-2.556c1.597-1.748,2.399-3.9,2.399-6.456c0-2.689-0.803-4.979-2.399-6.727      c-1.602-1.748-3.864-2.556-7.063-2.556h-10.921V229.406z M342.82,211.111h-15.588v47.221h-11.187v-47.221h-15.583v-8.741h42.357      V211.111z M368.658,222.28l10.389-19.91h12.921l-16.519,27.843l17.45,28.119h-13.454l-10.654-20.18l-10.787,20.18h-12.922      l16.914-28.119l-16.51-27.843h12.916L368.658,222.28z" style="fill:#FEFEFE;"/></g><g><path d="M263.498,146.362c-14.012,0-26.189-5.08-32.584-13.591c-2.275-3.028-1.666-7.333,1.365-9.608      c3.028-2.271,7.328-1.661,9.606,1.367c3.758,5.001,12.038,8.108,21.612,8.108c0.004,0,0.009,0,0.018,0      c9.691-0.004,18.639-3.262,22.269-8.103c2.276-3.033,6.575-3.644,9.604-1.377c3.032,2.276,3.647,6.576,1.376,9.608      c-6.286,8.379-19.02,13.587-33.239,13.596C263.516,146.362,263.507,146.362,263.498,146.362z" style="fill:#4C8CF9;"/></g><g><path d="M143.968,233.173c-0.025,0-0.051,0-0.078,0c-41.683-0.45-66.41-11.32-73.49-32.308      c-9.211-27.307,17.035-62.662,32.457-74.669c2.992-2.327,7.303-1.79,9.627,1.197c2.329,2.992,1.792,7.3-1.198,9.627      c-13.25,10.319-34.504,39.838-27.885,59.458c6.248,18.51,36.424,22.713,60.64,22.975c3.788,0.041,6.826,3.147,6.784,6.938      C150.784,230.154,147.722,233.173,143.968,233.173z" style="fill:#4C8CF9;"/></g><g><polygon points="349.079,97.71 420.601,97.71 349.079,25.468           " style="fill-rule:evenodd;clip-rule:evenodd;fill:#D4E4FF;"/><path d="M420.601,104.57h-71.521c-3.79,0-6.86-3.07-6.86-6.86V25.468c0-2.781,1.68-5.286,4.249-6.346      c2.579-1.06,5.534-0.459,7.488,1.519l71.522,72.243c1.95,1.968,2.519,4.91,1.454,7.465S423.372,104.57,420.601,104.57z       M355.938,90.85h48.217l-48.217-48.698V90.85z" style="fill:#4C8CF9;"/></g><g><path d="M239.339,493.396c-0.376,0-0.757-0.033-1.143-0.098l-22.509-3.766      c-3.306-0.551-5.727-3.414-5.727-6.764v-35.023c0-3.791,3.069-6.861,6.859-6.861c3.791,0,6.86,3.07,6.86,6.861v29.213      l16.782,2.809c3.738,0.625,6.259,4.162,5.633,7.902C245.536,491.02,242.629,493.396,239.339,493.396z" style="fill:#4C8CF9;"/></g><g><path d="M325.25,493.396c-0.376,0-0.762-0.033-1.146-0.098l-22.507-3.766      c-3.309-0.551-5.727-3.414-5.727-6.764v-35.023c0-3.791,3.069-6.861,6.859-6.861s6.86,3.07,6.86,6.861v29.213l16.78,2.809      c3.739,0.625,6.259,4.162,5.635,7.902C331.445,491.02,328.536,493.396,325.25,493.396z" style="fill:#4C8CF9;"/></g><g><path d="M290.873,65.154c6.259-1.748,13.188,0.941,16.519,6.86      c4.13,7.13,1.73,16.142-5.332,20.18c-7.057,4.167-15.978,1.749-19.979-5.382c-3.193-5.516-2.396-12.375,1.469-16.95      c1.331,1.748,3.726,2.285,5.727,1.211C291.276,69.862,292.075,67.173,290.873,65.154L290.873,65.154z" style="fill-rule:evenodd;clip-rule:evenodd;fill:#4C8CF9;"/></g><g><path d="M228.808,65.154c6.259-1.748,13.185,0.941,16.65,6.86      c3.994,7.13,1.597,16.142-5.463,20.18c-6.924,4.167-15.982,1.749-19.979-5.382c-3.196-5.516-2.397-12.375,1.466-16.95      c1.331,1.748,3.861,2.285,5.727,1.211C229.34,69.862,230.006,67.173,228.808,65.154L228.808,65.154z" style="fill-rule:evenodd;clip-rule:evenodd;fill:#4C8CF9;"/></g><g><path d="M314.986,436.715c-2.125,0-4.218-0.986-5.558-2.836l-22.91-31.615      c-2.226-3.07-1.537-7.355,1.528-9.58c3.064-2.227,7.364-1.539,9.58,1.527l22.906,31.615c2.23,3.07,1.542,7.355-1.523,9.58      C317.789,436.287,316.386,436.715,314.986,436.715z M212.687,436.715c-1.397,0-2.806-0.428-4.022-1.309      c-3.067-2.225-3.753-6.516-1.528-9.58l22.91-31.615c2.228-3.07,6.519-3.75,9.581-1.527c3.067,2.225,3.753,6.516,1.528,9.58      l-22.911,31.615C216.903,435.729,214.809,436.715,212.687,436.715z" style="fill:#4C8CF9;"/></g><g><path d="M263.837,324.383c-3.79,0-6.859-3.07-6.859-6.861v-19.506c0-3.789,3.069-6.859,6.859-6.859      s6.86,3.07,6.86,6.859v19.506C270.697,321.313,267.627,324.383,263.837,324.383z" style="fill:#4C8CF9;"/></g><g><polygon points="346.679,307.836 263.837,307.836 236.533,307.836       180.993,307.836 180.993,355.057 180.993,377.389 180.993,398.24 260.772,398.24 346.679,398.24 346.679,373.889     " style="fill-rule:evenodd;clip-rule:evenodd;fill:#D4E4FF;"/></g><g><path d="M346.679,405.1H180.993c-3.79,0-6.86-3.07-6.86-6.859v-90.404c0-3.791,3.07-6.859,6.86-6.859      h165.686c3.79,0,6.864,3.068,6.864,6.859v90.404C353.543,402.029,350.469,405.1,346.679,405.1z M187.853,391.379h151.971      v-76.684H187.853V391.379z" style="fill:#4C8CF9;"/></g></g></g></g><g id="Layer_1"/></svg>