<?xml version="1.0" ?><!DOCTYPE svg  PUBLIC '-//W3C//DTD SVG 1.1//EN'  'http://www.w3.org/Graphics/SVG/1.1/DTD/svg11.dtd'><svg height="512px" style="enable-background:new 0 0 512 512;" version="1.1" viewBox="0 0 512 512" width="512px" xml:space="preserve" xmlns="http://www.w3.org/2000/svg" xmlns:xlink="http://www.w3.org/1999/xlink"><g id="file__x2C__dmg__x2C__apple__x2C__mac__x2C_"><g id="Layer_30"><g><g><polygon points="107.077,25.469 349.085,25.469 420.611,97.844       420.611,447.877 107.077,447.877     " style="fill-rule:evenodd;clip-rule:evenodd;fill:#FFFFFF;"/><path d="M420.611,454.738H107.077c-3.79,0-6.859-3.07-6.859-6.861V25.469c0-3.79,3.069-6.86,6.859-6.86      h242.008c1.836,0,3.589,0.734,4.883,2.038l71.526,72.375c1.267,1.285,1.973,3.02,1.973,4.823v350.033      C427.467,451.668,424.402,454.738,420.611,454.738z M113.938,441.018h299.81V100.662l-67.525-68.333H113.938V441.018z" style="fill:#4C8CF9;"/></g><g><rect height="105.463" style="fill-rule:evenodd;clip-rule:evenodd;fill:#4C8CF9;" width="313.529" x="129.988" y="177.754"/></g><g><path d="M263.5,146.497c-14.008,0-26.186-5.08-32.577-13.591c-2.276-3.028-1.666-7.328,1.362-9.604      c3.028-2.29,7.328-1.666,9.608,1.363c3.758,5.006,12.036,8.112,21.606,8.112c0.009,0,0.018,0,0.027,0      c9.682-0.005,18.629-3.263,22.264-8.108c2.275-3.038,6.58-3.648,9.608-1.372c3.028,2.271,3.644,6.571,1.376,9.604      c-6.286,8.378-19.023,13.591-33.239,13.596C263.518,146.497,263.509,146.497,263.5,146.497z" style="fill:#4C8CF9;"/></g><g><path d="M143.974,233.308c-0.022,0-0.05,0-0.073,0c-41.724-0.45-66.456-11.352-73.513-32.4      c-9.196-27.435,17.069-62.67,32.496-74.592c3.001-2.303,7.31-1.762,9.622,1.234c2.317,2.997,1.767,7.305-1.234,9.623      c-12.88,9.953-34.392,39.929-27.871,59.375c6.222,18.565,36.415,22.778,60.646,23.039c3.791,0.042,6.828,3.144,6.787,6.934      C150.792,230.284,147.728,233.308,143.974,233.308z" style="fill:#4C8CF9;"/></g><g><polygon points="349.085,97.844 420.611,97.844 349.085,25.469           " style="fill-rule:evenodd;clip-rule:evenodd;fill:#D4E4FF;"/><path d="M420.611,104.704h-71.526c-3.79,0-6.854-3.07-6.854-6.86V25.469c0-2.781,1.679-5.291,4.248-6.346      c2.579-1.065,5.534-0.455,7.489,1.523l71.526,72.375c1.945,1.969,2.515,4.915,1.45,7.466      C425.87,103.043,423.374,104.704,420.611,104.704z M355.95,90.984h48.234L355.95,42.171V90.984z" style="fill:#4C8CF9;"/></g><g><path d="M239.347,493.395c-0.367,0-0.733-0.027-1.101-0.086l-22.512-3.631      c-3.322-0.535-5.768-3.404-5.768-6.771v-35.029c0-3.789,3.069-6.859,6.859-6.859s6.86,3.07,6.86,6.859v29.188l16.743,2.699      c3.74,0.6,6.282,4.125,5.681,7.863C245.564,491,242.655,493.395,239.347,493.395z" style="fill:#4C8CF9;"/></g><g><path d="M325.252,493.395c-0.357,0-0.725-0.027-1.101-0.086l-22.503-3.631      c-3.331-0.535-5.771-3.404-5.771-6.771v-35.029c0-3.789,3.074-6.859,6.864-6.859s6.854,3.07,6.854,6.859v29.188l16.739,2.699      c3.745,0.6,6.286,4.125,5.681,7.863C331.475,491,328.565,493.395,325.252,493.395z" style="fill:#4C8CF9;"/></g><g><path d="M290.884,65.289c6.259-1.749,13.188,0.808,16.51,6.864      c4.13,6.993,1.734,16.143-5.322,20.176c-7.058,4.171-15.987,1.615-19.979-5.382c-3.194-5.648-2.396-12.375,1.468-17.083      c1.331,1.886,3.727,2.422,5.727,1.344C291.278,69.996,292.077,67.307,290.884,65.289L290.884,65.289z" style="fill-rule:evenodd;clip-rule:evenodd;fill:#4C8CF9;"/></g><g><path d="M228.816,65.289c6.259-1.749,13.183,0.808,16.647,6.864      c3.996,6.993,1.597,16.143-5.461,20.176c-6.924,4.171-15.981,1.615-19.979-5.382c-3.198-5.648-2.399-12.375,1.464-17.083      c1.331,1.886,3.863,2.422,5.727,1.344C229.349,69.996,230.014,67.307,228.816,65.289L228.816,65.289z" style="fill-rule:evenodd;clip-rule:evenodd;fill:#4C8CF9;"/></g><g><path d="M363.869,427.5H166.348c-7.117,0-12.907-5.828-12.907-12.986v-63.496      c0-4.309,0.422-10.994,0.825-14.973c0.078-0.734,0.294-1.445,0.639-2.096l40.352-76.047c1.403-6.218,7.158-10.935,13.582-10.935      h115.744c6.507,0,12.179,4.854,13.381,11.247l37.562,75.734c0.303,0.619,0.496,1.289,0.56,1.977      c0.441,4.391,0.698,11.119,0.698,15.092v63.496C376.782,421.672,370.991,427.5,363.869,427.5z M165.535,338.307      c-0.335,3.689-0.66,9.191-0.66,12.711v63.496c0,0.887,0.633,1.551,1.473,1.551h197.521c0.845,0,1.479-0.664,1.479-1.551v-63.496      c0-3.318-0.212-8.957-0.542-12.943l-37.488-75.584c-0.303-0.619-0.496-1.289-0.569-1.977c-0.109-1.125-1.129-2.111-2.166-2.111      H208.838c-1.092,0-2.309,1.084-2.46,2.18c-0.092,0.67-0.298,1.313-0.614,1.908L165.535,338.307z M344.157,407.586H186.061      c-7.117,0-12.908-5.824-12.908-12.977v-29.061c0-7.158,5.791-12.98,12.908-12.98h158.097c7.121,0,12.912,5.822,12.912,12.98      v29.061C357.069,401.762,351.278,407.586,344.157,407.586z M186.061,364.004c-0.84,0-1.474,0.664-1.474,1.545v29.061      c0,0.881,0.634,1.541,1.474,1.541h158.097c0.845,0,1.478-0.66,1.478-1.541v-29.061c0-0.881-0.633-1.545-1.478-1.545H186.061z" style="fill:#4C8CF9;"/></g><g><path d="M279.293,372.813h-78.715c-3.996,0-7.19,3.23-7.19,7.264      c0,4.039,3.194,7.264,7.19,7.264h78.715c4.002,0,7.195-3.225,7.195-7.264C286.488,376.043,283.295,372.813,279.293,372.813      L279.293,372.813z M305.265,387.34c-3.992,0-7.186-3.225-7.186-7.264c0-4.033,3.193-7.264,7.186-7.264      c4.001,0,7.194,3.23,7.194,7.264C312.459,384.115,309.266,387.34,305.265,387.34L305.265,387.34z M329.776,387.34      c-4.001,0-7.194-3.225-7.194-7.264c0-4.033,3.193-7.264,7.194-7.264c3.992,0,7.187,3.23,7.187,7.264      C336.963,384.115,333.769,387.34,329.776,387.34L329.776,387.34z" style="fill-rule:evenodd;clip-rule:evenodd;fill:#4C8CF9;"/></g><g><path d="M205.772,258.467h-11.054v-9.82h11.054V258.467z M217.093,258.467v-55.962h19.047      c6.796,0,12.389,2.152,16.785,6.594c4.392,4.304,6.525,9.953,6.525,16.813v9.283c0,6.865-2.134,12.38-6.525,16.817      c-4.396,4.304-9.989,6.457-16.785,6.457H217.093z M228.151,211.113v38.746h7.456c3.996,0,7.057-1.344,9.324-4.038      c2.262-2.822,3.331-6.323,3.331-10.76v-9.282c0-4.304-1.069-7.801-3.331-10.494c-2.268-2.822-5.328-4.171-9.324-4.171H228.151z       M282.763,202.504l14.114,41.297h0.128l14.253-41.297h14.518v55.962h-11.049v-16.68l1.064-24.755h-0.267l-14.784,41.435h-7.461      l-14.784-41.297h-0.267l1.064,24.618v16.68h-11.049v-55.962H282.763z M378.792,250.799c-1.597,2.29-4.268,4.171-7.728,5.919      c-3.46,1.749-7.855,2.555-13.188,2.555c-6.791,0-12.389-2.15-16.647-6.322c-4.267-4.304-6.396-9.82-6.396-16.679v-11.568      c0-6.865,2.001-12.38,6.131-16.546c4.13-4.309,9.452-6.461,15.978-6.461c6.8,0,11.994,1.615,15.454,4.979      c3.597,3.364,5.46,7.668,5.598,13.05l-0.138,0.271h-10.389c-0.266-2.964-1.202-5.25-2.928-6.998      c-1.597-1.748-4.129-2.693-7.322-2.693c-3.332,0-6.131,1.349-8.132,4.038c-2.129,2.688-3.193,6.052-3.193,10.223v11.706      c0,4.304,1.064,7.667,3.193,10.356c2.267,2.689,5.066,4.038,8.792,4.038c2.533,0,4.662-0.271,6.259-0.808      c1.597-0.542,2.661-1.211,3.598-2.019v-10.356h-9.856v-7.805h20.915V250.799z" style="fill:#FEFEFE;"/></g></g></g></g><g id="Layer_1"/></svg>