<?xml version="1.0" ?><!DOCTYPE svg  PUBLIC '-//W3C//DTD SVG 1.1//EN'  'http://www.w3.org/Graphics/SVG/1.1/DTD/svg11.dtd'><svg height="512px" style="enable-background:new 0 0 512 512;" version="1.1" viewBox="0 0 512 512" width="512px" xml:space="preserve" xmlns="http://www.w3.org/2000/svg" xmlns:xlink="http://www.w3.org/1999/xlink"><g id="file__x2C__document__x2C__doc_x2C__docx__x2C_"><g id="Layer_20"><g><g><polygon points="107.072,25.469 349.08,25.469 420.602,97.844       420.602,447.875 107.072,447.875     " style="fill-rule:evenodd;clip-rule:evenodd;fill:#FFFFFF;"/><path d="M420.602,454.736h-313.53c-3.79,0-6.859-3.07-6.859-6.861V25.469c0-3.791,3.069-6.86,6.859-6.86      H349.08c1.831,0,3.593,0.734,4.877,2.037l71.526,72.375c1.267,1.285,1.982,3.02,1.982,4.823v350.031      C427.466,451.666,424.392,454.736,420.602,454.736z M113.932,441.016h299.814V100.662l-67.534-68.333h-232.28V441.016z" style="fill:#4C8CF9;"/></g><g><rect height="105.599" style="fill-rule:evenodd;clip-rule:evenodd;fill:#4C8CF9;" width="313.532" x="129.98" y="177.616"/></g><g><path d="M187.652,258.463h-11.187v-9.82h11.187V258.463z M198.841,258.463v-56.091h19.045      c6.793,0,12.387,2.285,16.783,6.589c4.396,4.441,6.66,9.957,6.66,16.813v9.287c0,6.855-2.265,12.508-6.66,16.813      c-4.396,4.304-9.989,6.59-16.783,6.59H198.841z M210.028,211.113v38.608h7.326c3.997,0,7.192-1.344,9.324-4.033      c2.265-2.693,3.462-6.323,3.462-10.627v-9.287c0-4.438-1.197-7.938-3.462-10.627c-2.131-2.689-5.327-4.033-9.324-4.033H210.028z       M294.604,235.464c0,6.855-2.134,12.508-6.392,17.079c-4.396,4.442-9.989,6.727-16.785,6.727      c-6.924,0-12.385-2.285-16.648-6.727c-4.26-4.57-6.392-10.224-6.392-17.079v-10.095c0-6.855,2.131-12.508,6.259-16.95      c4.263-4.57,9.857-6.727,16.652-6.727c6.925,0,12.518,2.157,16.78,6.727c4.392,4.442,6.525,10.095,6.525,16.95V235.464z       M283.551,225.236c0-4.304-1.202-7.934-3.331-10.76c-2.13-2.827-5.062-4.171-8.921-4.171c-3.734,0-6.662,1.344-8.791,4.171      c-1.999,2.827-3.065,6.456-3.065,10.76v10.228c0,4.437,1.066,8.066,3.193,10.893c2.001,2.827,4.929,4.171,8.792,4.171      c3.73,0,6.796-1.344,8.93-4.171c2.129-2.827,3.193-6.456,3.193-10.893V225.236z M345.083,239.364l0.138,0.133      c0.129,6.052-1.734,10.898-5.465,14.394c-3.73,3.497-8.925,5.378-15.583,5.378s-12.118-2.285-16.248-6.589      s-6.259-9.82-6.259-16.684v-11.16c0-6.727,1.996-12.242,6.126-16.684c3.996-4.304,9.319-6.461,15.849-6.461      c6.796,0,12.118,1.753,15.982,5.25c3.863,3.634,5.727,8.475,5.727,14.527l-0.129,0.271h-10.792c0-3.767-0.932-6.594-2.661-8.475      c-1.735-2.019-4.534-2.959-8.127-2.959c-3.326,0-5.992,1.344-7.988,4.033c-2.001,2.827-2.933,6.19-2.933,10.499v11.16      c0,4.309,1.064,7.672,3.061,10.499c2.134,2.689,4.929,4.033,8.393,4.033c3.465,0,5.997-0.94,7.723-2.826      c1.602-1.882,2.4-4.708,2.4-8.338H345.083z M372.655,222.277l10.389-19.905h12.917l-16.381,27.843l17.317,28.248h-13.321      l-10.787-20.177l-10.655,20.177H349.08l16.918-28.248l-16.386-27.843H362.4L372.655,222.277z" style="fill:#FEFEFE;"/></g><g><path d="M263.425,146.414c-0.027,0-0.06,0-0.092,0c-13.954-0.023-26.079-5.13-32.434-13.665      c-2.265-3.038-1.636-7.337,1.404-9.599c3.038-2.267,7.335-1.634,9.599,1.404c3.729,5.001,11.949,8.122,21.45,8.136      c9.608-0.051,18.768-3.258,22.438-8.154c2.267-3.033,6.57-3.648,9.6-1.372c3.032,2.271,3.647,6.571,1.376,9.604      C290.452,141.188,277.682,146.414,263.425,146.414z" style="fill:#4C8CF9;"/></g><g><path d="M143.969,233.308c-0.025,0-0.051,0-0.078,0c-41.673-0.454-66.396-11.334-73.483-32.34      c-9.234-27.362,17.019-62.758,32.448-74.775c2.99-2.322,7.303-1.79,9.629,1.198c2.329,2.992,1.792,7.3-1.195,9.631      c-13.261,10.324-34.52,39.884-27.882,59.56c6.256,18.538,36.426,22.741,60.635,23.007c3.788,0.041,6.826,3.147,6.784,6.933      C150.785,230.284,147.722,233.308,143.969,233.308z" style="fill:#4C8CF9;"/></g><g><polygon points="349.08,97.844 420.602,97.844 349.08,25.469           " style="fill-rule:evenodd;clip-rule:evenodd;fill:#D4E4FF;"/><path d="M420.602,104.704H349.08c-3.79,0-6.86-3.069-6.86-6.86V25.469c0-2.781,1.68-5.291,4.254-6.346      c2.574-1.06,5.529-0.454,7.483,1.523l71.526,72.375c1.946,1.969,2.515,4.915,1.45,7.466      C425.869,103.043,423.373,104.704,420.602,104.704z M355.939,90.984h48.239l-48.239-48.813V90.984z" style="fill:#4C8CF9;"/></g><g><path d="M239.339,493.393c-0.378,0-0.759-0.027-1.143-0.092l-22.509-3.771      c-3.306-0.555-5.727-3.418-5.727-6.768v-34.887c0-3.789,3.069-6.859,6.859-6.859c3.791,0,6.86,3.07,6.86,6.859v29.082      l16.782,2.809c3.738,0.629,6.259,4.166,5.633,7.9C245.534,491.021,242.629,493.393,239.339,493.393z" style="fill:#4C8CF9;"/></g><g><path d="M325.251,493.393c-0.381,0-0.762-0.027-1.146-0.092l-22.507-3.771      c-3.309-0.555-5.727-3.418-5.727-6.768v-34.887c0-3.789,3.069-6.859,6.859-6.859s6.86,3.07,6.86,6.859v29.082l16.78,2.809      c3.739,0.629,6.259,4.166,5.635,7.9C331.446,491.021,328.537,493.393,325.251,493.393z" style="fill:#4C8CF9;"/></g><g><path d="M290.874,65.155c6.259-1.753,13.188,0.937,16.519,6.855      c4.13,7.131,1.73,16.143-5.332,20.318c-7.057,4.033-15.978,1.615-19.979-5.516c-3.193-5.516-2.396-12.38,1.469-16.95      c1.331,1.744,3.726,2.423,5.727,1.211C291.277,69.863,292.076,67.303,290.874,65.155L290.874,65.155z" style="fill-rule:evenodd;clip-rule:evenodd;fill:#4C8CF9;"/></g><g><path d="M228.809,65.155c6.259-1.753,13.185,0.937,16.65,6.855      c3.994,7.131,1.597,16.143-5.463,20.318c-6.924,4.033-15.982,1.615-19.979-5.516c-3.196-5.516-2.397-12.38,1.466-16.95      c1.331,1.744,3.861,2.423,5.727,1.211C229.341,69.863,230.006,67.303,228.809,65.155L228.809,65.155z" style="fill-rule:evenodd;clip-rule:evenodd;fill:#4C8CF9;"/></g><g><path d="M373.721,326.395H164.61c-3.791,0-6.86-3.07-6.86-6.861c0-3.789,3.069-6.859,6.86-6.859h209.11      c3.79,0,6.859,3.07,6.859,6.859C380.58,323.324,377.511,326.395,373.721,326.395z" style="fill:#4C8CF9;"/></g><g><path d="M373.721,361.908H164.61c-3.791,0-6.86-3.068-6.86-6.859c0-3.789,3.069-6.859,6.86-6.859h209.11      c3.79,0,6.859,3.07,6.859,6.859C380.58,358.84,377.511,361.908,373.721,361.908z" style="fill:#4C8CF9;"/></g><g><path d="M300.464,397.563H164.61c-3.791,0-6.86-3.07-6.86-6.859c0-3.791,3.069-6.861,6.86-6.861h135.854      c3.79,0,6.864,3.07,6.864,6.861C307.328,394.492,304.254,397.563,300.464,397.563z" style="fill:#4C8CF9;"/></g></g></g></g><g id="Layer_1"/></svg>