<?xml version="1.0" ?><!DOCTYPE svg  PUBLIC '-//W3C//DTD SVG 1.1//EN'  'http://www.w3.org/Graphics/SVG/1.1/DTD/svg11.dtd'><svg height="512px" style="enable-background:new 0 0 512 512;" version="1.1" viewBox="0 0 512 512" width="512px" xml:space="preserve" xmlns="http://www.w3.org/2000/svg" xmlns:xlink="http://www.w3.org/1999/xlink"><g id="file__x2C__mp3__x2C__audio__x2C_"><g id="Layer_66"><g><g><polygon points="107.072,25.469 349.08,25.469 420.602,97.844       420.602,447.875 107.072,447.875     " style="fill-rule:evenodd;clip-rule:evenodd;fill:#FFFFFF;"/><path d="M420.602,454.736h-313.53c-3.79,0-6.859-3.07-6.859-6.861V25.469c0-3.791,3.069-6.86,6.859-6.86      H349.08c1.831,0,3.593,0.734,4.877,2.037l71.526,72.375c1.267,1.285,1.982,3.02,1.982,4.823v350.031      C427.466,451.666,424.392,454.736,420.602,454.736z M113.932,441.016h299.814V100.662l-67.534-68.333h-232.28V441.016z" style="fill:#4C8CF9;"/></g><g><rect height="105.599" style="fill-rule:evenodd;clip-rule:evenodd;fill:#4C8CF9;" width="313.532" x="129.98" y="177.616"/></g><g><path d="M213.359,258.063h-11.056v-9.819h11.056V258.063z M239.197,202.505l14.119,40.893h0.267      l14.252-40.893h14.514v55.558h-11.188v-16.546l1.064-24.618h-0.128l-14.92,41.164h-7.459l-14.784-41.03h-0.133l1.067,24.484      v16.546h-11.189v-55.558H239.197z M303.795,237.882v20.18h-11.054v-55.558h22.107c6.393,0,11.32,1.61,15.051,4.841      c3.598,3.23,5.465,7.534,5.465,12.912c0,5.249-1.867,9.553-5.465,12.784c-3.73,3.23-8.658,4.841-15.051,4.841H303.795z       M303.795,229.274h11.054c3.065,0,5.466-0.808,7.063-2.556c1.597-1.615,2.395-3.768,2.395-6.461      c0-2.689-0.798-4.841-2.395-6.589c-1.597-1.748-3.997-2.556-7.063-2.556h-11.054V229.274z M353.343,225.507h6.259      c2.666,0,4.528-0.67,5.864-2.019c1.192-1.478,1.862-3.359,1.862-5.782c0-2.29-0.67-4.038-1.862-5.382      c-1.336-1.345-3.065-2.019-5.599-2.019c-1.996,0-3.726,0.537-5.194,1.749c-1.463,1.211-2.129,2.826-2.129,4.845h-10.792v-0.271      c-0.267-4.304,1.468-7.934,4.928-10.76c3.47-2.827,7.728-4.171,12.922-4.171c5.727,0,10.389,1.344,13.72,4.033      c3.46,2.827,5.194,6.727,5.194,11.838c0,2.423-0.799,4.708-2.267,6.865c-1.598,2.147-3.727,3.9-6.388,5.111      c3.061,1.074,5.46,2.822,7.058,4.974c1.597,2.29,2.395,4.979,2.395,7.938c0,5.112-1.862,9.15-5.46,11.972      c-3.726,2.959-8.525,4.442-14.252,4.442c-5.194,0-9.591-1.346-13.188-4.171c-3.727-2.689-5.589-6.589-5.461-11.573l0.138-0.266      h10.783c0,2.152,0.803,3.9,2.267,5.382c1.469,1.345,3.465,2.015,5.727,2.015c2.666,0,4.662-0.67,6.131-2.147      c1.464-1.349,2.262-3.368,2.262-5.786c0-2.96-0.798-4.979-2.262-6.323c-1.469-1.482-3.598-2.152-6.396-2.152h-6.259V225.507z" style="fill:#FEFEFE;"/></g><g><path d="M263.499,146.492c-14.012,0-26.19-5.075-32.584-13.587c-2.275-3.028-1.666-7.328,1.365-9.604      c3.021-2.285,7.328-1.67,9.606,1.363c3.758,5.001,12.038,8.108,21.613,8.108c0.004,0,0.009,0,0.018,0      c9.691-0.005,18.639-3.263,22.273-8.104c2.267-3.033,6.57-3.648,9.6-1.372c3.032,2.271,3.647,6.571,1.376,9.604      c-6.286,8.378-19.02,13.586-33.239,13.591C263.517,146.492,263.508,146.492,263.499,146.492z" style="fill:#4C8CF9;"/></g><g><path d="M143.969,233.308c-0.025,0-0.051,0-0.076,0c-41.673-0.45-66.399-11.329-73.486-32.335      c-9.234-27.362,17.019-62.762,32.448-74.78c2.99-2.322,7.303-1.79,9.629,1.198c2.329,2.992,1.792,7.3-1.195,9.631      c-13.261,10.324-34.522,39.884-27.882,59.564c6.256,18.538,36.426,22.741,60.633,23.002c3.79,0.041,6.828,3.143,6.787,6.933      C150.785,230.284,147.722,233.308,143.969,233.308z" style="fill:#4C8CF9;"/></g><g><polygon points="349.08,97.844 420.602,97.844 349.08,25.469           " style="fill-rule:evenodd;clip-rule:evenodd;fill:#D4E4FF;"/><path d="M420.602,104.704H349.08c-3.79,0-6.86-3.069-6.86-6.86V25.469c0-2.781,1.68-5.291,4.254-6.346      c2.574-1.06,5.529-0.454,7.483,1.523l71.526,72.375c1.946,1.969,2.515,4.915,1.45,7.466      C425.869,103.043,423.373,104.704,420.602,104.704z M355.939,90.984h48.239l-48.239-48.813V90.984z" style="fill:#4C8CF9;"/></g><g><path d="M239.339,493.393c-0.376,0-0.757-0.027-1.143-0.092l-22.509-3.766      c-3.306-0.557-5.727-3.414-5.727-6.77v-34.891c0-3.789,3.069-6.859,6.859-6.859c3.791,0,6.86,3.07,6.86,6.859v29.082      l16.782,2.809c3.738,0.629,6.259,4.162,5.633,7.9C245.536,491.021,242.629,493.393,239.339,493.393z" style="fill:#4C8CF9;"/></g><g><path d="M325.251,493.393c-0.376,0-0.762-0.027-1.146-0.092l-22.507-3.766      c-3.309-0.557-5.727-3.414-5.727-6.77v-34.891c0-3.789,3.069-6.859,6.859-6.859s6.86,3.07,6.86,6.859v29.082l16.78,2.809      c3.739,0.629,6.259,4.162,5.635,7.9C331.446,491.021,328.537,493.393,325.251,493.393z" style="fill:#4C8CF9;"/></g><g><path d="M290.874,65.155c6.259-1.753,13.188,0.941,16.519,6.86      c4.13,7.126,1.73,16.142-5.332,20.313c-7.057,4.033-15.978,1.615-19.979-5.383c-3.193-5.648-2.396-12.375,1.469-17.083      c1.331,1.881,3.726,2.423,5.727,1.211C291.277,69.863,292.076,67.308,290.874,65.155L290.874,65.155z" style="fill-rule:evenodd;clip-rule:evenodd;fill:#4C8CF9;"/></g><g><path d="M228.809,65.155c6.259-1.753,13.185,0.941,16.65,6.86      c3.994,7.126,1.597,16.142-5.463,20.313c-6.924,4.033-15.982,1.615-19.979-5.383c-3.196-5.648-2.397-12.375,1.466-17.083      c1.331,1.881,3.861,2.423,5.727,1.211C229.341,69.863,230.006,67.308,228.809,65.155L228.809,65.155z" style="fill-rule:evenodd;clip-rule:evenodd;fill:#4C8CF9;"/></g><g><path d="M303.929,304.07c-0.399-0.404-1.064-0.541-1.73-0.541      l-67.796,8.879c-1.064,0.133-1.865,1.078-1.865,2.289v80.043c-3.728-4.441-9.723-7.268-16.381-7.268      c-11.455,0-20.779,8.342-20.779,18.703c0,10.223,9.324,18.561,20.779,18.561c12.919,0,16.514-10.627,16.783-19.506      c0.133-4.438-0.402-7.398-0.402-10.49v-54.352l72.19-9.549v47.621c-11.054-12.646-41.554-10.898-41.554,10.492      c0,10.225,9.319,18.563,20.777,18.563c11.457,0,20.776-8.338,20.776-18.563c0-26.1,0-57.039,0-83.139      C304.727,305.145,304.461,304.607,303.929,304.07L303.929,304.07z" style="fill-rule:evenodd;clip-rule:evenodd;fill:#D4E4FF;"/><path d="M216.156,431.596c-15.241,0-27.639-11.402-27.639-25.42c0-14.098,12.398-25.564,27.639-25.564      c3.278,0,6.502,0.547,9.521,1.574v-67.488c0-4.625,3.384-8.535,7.874-9.1l67.758-8.873c0.294-0.037,0.587-0.055,0.89-0.055      c3.354,0,5.447,1.398,6.607,2.578c2.299,2.316,2.781,4.85,2.781,6.566v83.139c0,14.02-12.398,25.422-27.637,25.422      c-15.239,0-27.638-11.402-27.638-25.422c0-14.889,11.729-25.287,28.522-25.287c4.58,0,9.021,0.799,13.032,2.271v-27.27      l-58.47,7.732v48.34c0,1.111,0.087,2.203,0.172,3.377c0.147,2.043,0.316,4.359,0.227,7.318      C239.307,421.574,230.25,431.596,216.156,431.596z M216.156,394.332c-7.674,0-13.919,5.313-13.919,11.844      c0,6.451,6.245,11.699,13.919,11.699c2.358,0,9.537,0,9.925-12.852c0.067-2.254-0.066-4.115-0.197-5.914      c-0.037-0.492-0.071-0.973-0.101-1.451C223.259,395.547,219.801,394.332,216.156,394.332z M284.835,377.387      c-2.473,0-14.803,0.559-14.803,11.566c0,6.453,6.241,11.701,13.918,11.701c7.676,0,13.917-5.248,13.917-11.701v-7.561      C294.673,378.914,289.818,377.387,284.835,377.387z M239.397,318.672v13.889l58.47-7.732v-13.811L239.397,318.672z" style="fill:#4C8CF9;"/></g></g></g></g><g id="Layer_1"/></svg>