<?xml version="1.0" ?><!DOCTYPE svg  PUBLIC '-//W3C//DTD SVG 1.1//EN'  'http://www.w3.org/Graphics/SVG/1.1/DTD/svg11.dtd'><svg height="512px" style="enable-background:new 0 0 512 512;" version="1.1" viewBox="0 0 512 512" width="512px" xml:space="preserve" xmlns="http://www.w3.org/2000/svg" xmlns:xlink="http://www.w3.org/1999/xlink"><g id="file__x2C__apk__x2C__android__x2C_"><g id="Layer_36"><g><g><polygon points="107.07,25.535 349.078,25.535 420.6,97.777       420.6,447.809 107.07,447.809     " style="fill-rule:evenodd;clip-rule:evenodd;fill:#FFFFFF;"/><path d="M420.6,454.668H107.07c-3.79,0-6.859-3.07-6.859-6.859V25.535c0-3.791,3.069-6.86,6.859-6.86      h242.008c1.831,0,3.583,0.729,4.877,2.032l71.522,72.243c1.271,1.285,1.986,3.019,1.986,4.827v350.031      C427.464,451.598,424.39,454.668,420.6,454.668z M113.931,440.949h299.813v-340.35l-67.525-68.204H113.931V440.949z" style="fill:#4C8CF9;"/></g><g><rect height="105.598" style="fill-rule:evenodd;clip-rule:evenodd;fill:#4C8CF9;" width="313.531" x="129.979" y="177.687"/></g><g><path d="M213.491,258.4h-11.189v-9.82h11.189V258.4z M254.513,246.423h-19.446l-3.861,11.977h-11.189      l19.047-55.963h11.456L269.43,258.4h-11.187L254.513,246.423z M237.729,237.682h13.986l-6.927-22.062h-0.133L237.729,237.682z       M285.815,238.086V258.4h-11.191v-55.963h22.112c6.392,0,11.319,1.615,15.05,4.974c3.598,3.23,5.461,7.534,5.461,12.917      s-1.863,9.687-5.461,12.917c-3.73,3.226-8.658,4.841-15.05,4.841H285.815z M285.815,229.473h10.921      c3.061,0,5.46-0.803,7.057-2.551c1.597-1.752,2.396-3.905,2.396-6.46c0-2.689-0.799-4.974-2.396-6.727      c-1.597-1.748-3.996-2.689-7.057-2.689h-10.921V229.473z M342.686,235.126h-6.13V258.4h-11.187v-55.963h11.187v22.87h4.8      l14.784-22.87h13.582l-18.776,26.1L371.19,258.4h-13.587L342.686,235.126z" style="fill:#FEFEFE;"/></g><g><path d="M263.497,146.43c-14.012,0-26.189-5.08-32.584-13.591c-2.275-3.028-1.665-7.328,1.365-9.604      c3.028-2.28,7.328-1.666,9.606,1.363c3.761,5.006,12.038,8.113,21.612,8.113c0.004,0,0.009,0,0.018,0      c9.691-0.005,18.639-3.263,22.269-8.108c2.276-3.038,6.575-3.648,9.604-1.372c3.032,2.271,3.647,6.571,1.376,9.604      c-6.286,8.379-19.02,13.592-33.239,13.596C263.515,146.43,263.506,146.43,263.497,146.43z" style="fill:#4C8CF9;"/></g><g><path d="M143.968,233.241c-0.025,0-0.051,0-0.078,0c-41.683-0.455-66.408-11.325-73.488-32.308      c-9.214-27.302,17.032-62.657,32.452-74.669c2.99-2.322,7.303-1.785,9.63,1.197c2.328,2.992,1.791,7.3-1.195,9.631      c-13.252,10.32-34.507,39.833-27.888,59.454c6.248,18.51,36.424,22.708,60.641,22.975c3.787,0.041,6.825,3.147,6.784,6.933      C150.783,230.216,147.721,233.241,143.968,233.241z" style="fill:#4C8CF9;"/></g><g><polygon points="349.078,97.777 420.6,97.777 349.078,25.535           " style="fill-rule:evenodd;clip-rule:evenodd;fill:#D4E4FF;"/><path d="M420.6,104.637h-71.521c-3.79,0-6.86-3.07-6.86-6.86V25.535c0-2.781,1.68-5.286,4.249-6.346      c2.579-1.055,5.534-0.454,7.488,1.519l71.522,72.243c1.95,1.968,2.519,4.914,1.454,7.47      C425.867,102.976,423.371,104.637,420.6,104.637z M355.938,90.917h48.217l-48.217-48.703V90.917z" style="fill:#4C8CF9;"/></g><g><path d="M239.338,493.326c-0.364,0-0.731-0.027-1.104-0.088l-22.509-3.633      c-3.322-0.537-5.766-3.406-5.766-6.773v-35.023c0-3.791,3.069-6.859,6.859-6.859c3.791,0,6.86,3.068,6.86,6.859v29.182      l16.743,2.703c3.74,0.605,6.282,4.125,5.679,7.865C245.558,490.932,242.645,493.326,239.338,493.326z" style="fill:#4C8CF9;"/></g><g><path d="M325.249,493.326c-0.367,0-0.733-0.027-1.105-0.088l-22.507-3.633      c-3.322-0.537-5.768-3.406-5.768-6.773v-35.023c0-3.791,3.069-6.859,6.859-6.859s6.86,3.068,6.86,6.859v29.182l16.743,2.703      c3.74,0.605,6.282,4.125,5.681,7.865C331.467,490.932,328.554,493.326,325.249,493.326z" style="fill:#4C8CF9;"/></g><g><path d="M290.872,65.221c6.259-1.748,13.188,0.941,16.519,6.86      c4.13,7.13,1.73,16.142-5.332,20.18c-7.057,4.171-15.978,1.749-19.979-5.382c-3.193-5.516-2.396-12.375,1.469-16.95      c1.331,1.748,3.726,2.285,5.727,1.211C291.275,69.929,292.074,67.24,290.872,65.221L290.872,65.221z" style="fill-rule:evenodd;clip-rule:evenodd;fill:#4C8CF9;"/></g><g><path d="M228.808,65.221c6.259-1.748,13.185,0.941,16.649,6.86      c3.994,7.13,1.597,16.142-5.463,20.18c-6.924,4.171-15.981,1.749-19.979-5.382c-3.196-5.516-2.397-12.375,1.466-16.95      c1.331,1.748,3.861,2.285,5.727,1.211C229.34,69.929,230.005,67.24,228.808,65.221L228.808,65.221z" style="fill-rule:evenodd;clip-rule:evenodd;fill:#4C8CF9;"/></g><g><path d="M301.793,328.887l13.985-23.539c1.598-2.693,0.67-6.189-1.862-7.805      c-2.8-1.611-6.126-0.809-7.728,1.885l-14.784,24.889c-8.787-3.098-18.244-4.979-28.101-4.979c-9.855,0-19.18,1.881-28.104,4.979      l-14.648-24.889c-1.732-2.693-5.063-3.496-7.728-1.885c-2.664,1.615-3.595,5.111-1.996,7.805l13.983,23.539      c-27.038,14.123-45.551,42.508-45.551,75.334c0,3.23,2.531,5.648,5.594,5.648H341.75c3.203,0,5.598-2.418,5.598-5.648      C347.348,371.395,328.833,343.01,301.793,328.887L301.793,328.887z M190.716,398.572c2.797-37.938,34.361-67.938,72.588-67.938      c38.36,0,69.792,30,72.72,67.938H190.716z" style="fill:#4C8CF9;"/></g><g><path d="M341.75,415.656H184.854c-3.063,0-5.594,2.557-5.594,5.648v26.504h11.188v-20.852h145.714v20.852      h11.187v-26.504C347.348,418.213,344.953,415.656,341.75,415.656L341.75,415.656z" style="fill:#4C8CF9;"/></g><g><path d="M373.585,315.836c-10.787,0-19.579,8.885-19.579,19.777v107.758c0,1.479,0.133,3.092,0.532,4.438      h11.99c-0.799-1.211-1.331-2.826-1.331-4.438V335.613c0-4.574,3.859-8.475,8.521-8.475c4.528,0,8.392,3.9,8.392,8.475v107.758      c0,1.611-0.532,3.227-1.33,4.438h11.985c0.399-1.346,0.532-2.959,0.532-4.438V335.613      C393.298,324.721,384.506,315.836,373.585,315.836L373.585,315.836z" style="fill:#4C8CF9;"/></g><g><path d="M153.954,415.656c-10.79,0-19.579,8.879-19.579,19.777v12.375h11.187v-12.375      c0-4.709,3.864-8.477,8.525-8.477c4.529,0,8.391,3.768,8.391,8.477v12.375h11.189v-12.375      C173.667,424.535,164.875,415.656,153.954,415.656L153.954,415.656z" style="fill:#4C8CF9;"/></g><g><path d="M233.868,356.197c4.396,0,7.991,3.631,7.991,8.072      c0,4.438-3.595,8.07-7.991,8.07c-4.263,0-7.857-3.633-7.857-8.07C226.011,359.828,229.605,356.197,233.868,356.197      L233.868,356.197z" style="fill-rule:evenodd;clip-rule:evenodd;fill:#4C8CF9;"/></g><g><path d="M292.739,356.197c4.392,0,7.86,3.631,7.86,8.072      c0,4.438-3.469,8.07-7.86,8.07c-4.396,0-7.993-3.633-7.993-8.07C284.746,359.828,288.344,356.197,292.739,356.197      L292.739,356.197z" style="fill-rule:evenodd;clip-rule:evenodd;fill:#4C8CF9;"/></g></g></g></g><g id="Layer_1"/></svg>