<?xml version="1.0" ?><!DOCTYPE svg  PUBLIC '-//W3C//DTD SVG 1.1//EN'  'http://www.w3.org/Graphics/SVG/1.1/DTD/svg11.dtd'><svg height="512px" style="enable-background:new 0 0 512 512;" version="1.1" viewBox="0 0 512 512" width="512px" xml:space="preserve" xmlns="http://www.w3.org/2000/svg" xmlns:xlink="http://www.w3.org/1999/xlink"><g id="file__x2C__rar_x2C___compressesd__x2C_"><g id="Layer_2"><g><g><polygon points="107.074,25.467 349.079,25.467 420.601,97.838       420.601,447.871 107.074,447.871     " style="fill-rule:evenodd;clip-rule:evenodd;fill:#FFFFFF;"/><path d="M420.601,454.73H107.074c-3.79,0-6.86-3.068-6.86-6.859V25.467c0-3.79,3.07-6.86,6.86-6.86      h242.005c1.831,0,3.593,0.734,4.877,2.037l71.526,72.371c1.267,1.285,1.982,3.02,1.982,4.823v350.033      C427.465,451.662,424.391,454.73,420.601,454.73z M113.934,441.012h299.812V100.655l-67.534-68.328H113.934V441.012z" style="fill:#4C8CF9;"/></g><g><rect height="105.6" style="fill-rule:evenodd;clip-rule:evenodd;fill:#4C8CF9;" width="313.529" x="129.982" y="177.615"/></g><g><path d="M263.424,146.408c-0.027,0-0.06,0-0.092,0c-13.951-0.023-26.076-5.13-32.432-13.665      c-2.264-3.038-1.636-7.337,1.404-9.599c3.038-2.263,7.335-1.634,9.599,1.404c3.728,5.006,11.949,8.122,21.447,8.14      c0.028,0,0.051,0,0.073,0c9.719,0,18.703-3.276,22.36-8.158c2.276-3.029,6.575-3.644,9.604-1.372      c3.032,2.271,3.647,6.575,1.376,9.604C290.451,141.186,277.681,146.408,263.424,146.408z" style="fill:#4C8CF9;"/></g><g><path d="M143.971,233.168c-0.023,0-0.046,0-0.069,0c-41.671-0.399-66.396-11.242-73.49-32.226      c-9.243-27.339,17.012-62.73,32.446-74.752c2.99-2.326,7.303-1.794,9.629,1.198c2.328,2.987,1.792,7.3-1.195,9.627      c-13.264,10.329-34.527,39.879-27.88,59.536c6.254,18.501,36.419,22.663,60.624,22.897c3.788,0.037,6.83,3.139,6.793,6.929      C150.791,230.14,147.729,233.168,143.971,233.168z" style="fill:#4C8CF9;"/></g><g><polygon points="349.079,97.838 420.601,97.838 349.079,25.467           " style="fill-rule:evenodd;clip-rule:evenodd;fill:#D4E4FF;"/><path d="M420.601,104.698h-71.521c-3.79,0-6.86-3.07-6.86-6.86V25.467c0-2.785,1.68-5.291,4.254-6.346      c2.574-1.056,5.529-0.455,7.483,1.523l71.526,72.371c1.946,1.969,2.515,4.915,1.45,7.47      C425.868,103.037,423.372,104.698,420.601,104.698z M355.938,90.978h48.235l-48.235-48.809V90.978z" style="fill:#4C8CF9;"/></g><g><path d="M239.341,493.393c-0.376,0-0.757-0.031-1.143-0.096l-22.509-3.768      c-3.306-0.555-5.727-3.414-5.727-6.768v-34.891c0-3.791,3.07-6.859,6.86-6.859c3.791,0,6.86,3.068,6.86,6.859v29.086      l16.783,2.809c3.737,0.623,6.259,4.162,5.632,7.896C245.538,491.018,242.631,493.393,239.341,493.393z" style="fill:#4C8CF9;"/></g><g><path d="M325.25,493.393c-0.376,0-0.762-0.031-1.146-0.096l-22.507-3.768      c-3.309-0.555-5.727-3.414-5.727-6.768v-34.891c0-3.791,3.069-6.859,6.859-6.859s6.86,3.068,6.86,6.859v29.086l16.78,2.809      c3.739,0.623,6.259,4.162,5.635,7.896C331.445,491.018,328.536,493.393,325.25,493.393z" style="fill:#4C8CF9;"/></g><g><path d="M290.873,65.149c6.259-1.748,13.188,0.941,16.519,6.86      c4.13,7.131,1.73,16.143-5.332,20.314c-7.057,4.038-15.978,1.615-19.979-5.516c-3.193-5.516-2.396-12.375,1.469-16.95      c1.331,1.748,3.726,2.423,5.727,1.211C291.276,69.857,292.075,67.301,290.873,65.149L290.873,65.149z" style="fill-rule:evenodd;clip-rule:evenodd;fill:#4C8CF9;"/></g><g><path d="M228.811,65.149c6.259-1.748,13.185,0.941,16.649,6.86      c3.994,7.131,1.597,16.143-5.462,20.314c-6.924,4.038-15.982,1.615-19.979-5.516c-3.196-5.516-2.397-12.375,1.466-16.95      c1.331,1.748,3.861,2.423,5.727,1.211C229.343,69.857,230.008,67.301,228.811,65.149L228.811,65.149z" style="fill-rule:evenodd;clip-rule:evenodd;fill:#4C8CF9;"/></g><g><path d="M368.126,291.016c-1.175,0-2.35-0.449-3.239-1.35l-29.037-29.188      c-1.784-1.793-1.78-4.689,0.014-6.469c1.79-1.785,4.686-1.775,6.466,0.019l29.036,29.187c1.785,1.795,1.78,4.689-0.014,6.471      C370.457,290.57,369.291,291.016,368.126,291.016z" style="fill:#4C8CF9;"/></g><g><path d="M352.011,307.43c-1.184,0-2.358-0.455-3.253-1.354l-29.032-29.33      c-1.78-1.795-1.762-4.689,0.027-6.471c1.804-1.771,4.699-1.752,6.471,0.033l29.036,29.33c1.775,1.793,1.762,4.689-0.032,6.469      C354.333,306.988,353.172,307.43,352.011,307.43z" style="fill:#4C8CF9;"/></g><g><path d="M269.697,361.105c-1.161,0-2.327-0.445-3.222-1.326c-1.794-1.779-1.804-4.676-0.027-6.469      l104.155-105.064c1.78-1.794,4.672-1.803,6.47-0.027c1.79,1.776,1.809,4.676,0.028,6.469L272.945,359.752      C272.051,360.652,270.876,361.105,269.697,361.105z" style="fill:#4C8CF9;"/></g><g><path d="M335.896,323.709c-1.184,0-2.358-0.453-3.253-1.357l-29.036-29.326      c-1.776-1.799-1.763-4.693,0.032-6.469c1.799-1.771,4.693-1.758,6.47,0.031l29.036,29.326c1.775,1.799,1.762,4.693-0.032,6.469      C338.218,323.264,337.057,323.709,335.896,323.709z" style="fill:#4C8CF9;"/></g><g><path d="M319.776,339.984c-1.18,0-2.354-0.453-3.253-1.357l-29.032-29.326      c-1.775-1.793-1.762-4.689,0.032-6.469c1.799-1.771,4.694-1.758,6.47,0.031l29.036,29.326c1.771,1.799,1.763,4.693-0.036,6.469      C322.103,339.539,320.938,339.984,319.776,339.984z" style="fill:#4C8CF9;"/></g><g><path d="M303.661,356.26c-1.179,0-2.354-0.453-3.253-1.354l-29.037-29.324      c-1.771-1.799-1.762-4.695,0.037-6.471s4.689-1.758,6.47,0.033l29.036,29.324c1.771,1.795,1.763,4.689-0.036,6.471      C305.987,355.82,304.822,356.26,303.661,356.26z" style="fill:#4C8CF9;"/></g><g><path d="M254.116,340.926c10.387,10.494,20.774,20.85,31.168,31.344      l-33.698,43.184c-9.723,12.375-29.037,11.164-40.09,0l0,0c-11.056-11.164-12.254-30.674,0-40.494L254.116,340.926z" style="fill-rule:evenodd;clip-rule:evenodd;fill:#FFFFFF;"/><path d="M232.612,428.861c-9.074,0-17.955-3.717-24.368-10.191c-6.826-6.893-10.57-16.775-10.017-26.436      c0.487-8.451,4.183-15.854,10.407-20.846l42.627-34.037c1.829-1.459,4.458-1.303,6.105,0.354      c5.277,5.336,10.554,10.635,15.84,15.932c5.107,5.129,10.214,10.254,15.326,15.412c1.615,1.639,1.771,4.221,0.357,6.033      l-33.698,43.184C249.821,425.104,241.805,428.861,232.612,428.861z M253.761,347.061l-39.411,31.473      c-4.168,3.34-6.653,8.396-6.988,14.225c-0.408,7.113,2.352,14.395,7.383,19.475c4.637,4.684,11.315,7.479,17.868,7.479      c6.325,0,11.788-2.514,15.376-7.084l31.211-39.998c-4.156-4.189-8.314-8.361-12.476-12.537      C262.405,355.756,258.081,351.42,253.761,347.061z" style="fill:#4C8CF9;"/></g><g><path d="M231.607,374.289l20.644,20.85l-7.192,10.357      c-5.327,7.533-17.18,6.594-23.707,0l0,0c-6.527-6.59-7.458-18.561,0-23.943L231.607,374.289z" style="fill-rule:evenodd;clip-rule:evenodd;fill:#FFFFFF;"/><path d="M234.099,415.375c-5.887,0-11.868-2.492-15.998-6.658c-4.54-4.588-7.032-11.426-6.502-17.844      c0.45-5.434,2.964-10.064,7.076-13.033l10.29-7.285c1.824-1.295,4.32-1.074,5.894,0.514l20.644,20.85      c1.551,1.57,1.765,4.02,0.507,5.828l-7.193,10.361C245.542,412.736,240.186,415.375,234.099,415.375z M231.086,380.264      l-7.092,5.02c-2.416,1.744-3.12,4.414-3.278,6.346c-0.312,3.768,1.213,7.953,3.886,10.65c2.446,2.473,5.998,3.945,9.496,3.945      c1.808,0,5.153-0.436,7.225-3.367l5.002-7.203L231.086,380.264z" style="fill:#4C8CF9;"/></g><g><path d="M213.76,258.461h-11.056v-9.953h11.056V258.461z M236.136,235.995v22.466H225.08v-56.096h20.912      c6.259,0,11.32,1.478,14.78,4.437c3.597,2.827,5.331,6.998,5.331,12.109c0,2.959-0.67,5.382-2.133,7.534      c-1.602,2.019-3.729,3.768-6.658,4.979c3.331,1.074,5.594,2.689,7.057,4.974c1.469,2.29,2.129,4.979,2.129,8.342v4.171      c0,1.615,0.267,3.226,0.67,4.841c0.396,1.748,1.198,3.098,2.13,3.9v0.809h-11.451c-1.066-0.809-1.599-2.286-1.998-4.167      c-0.266-1.886-0.399-3.767-0.399-5.515v-3.905c0-2.822-0.801-4.974-2.264-6.456c-1.599-1.615-3.731-2.423-6.394-2.423H236.136z       M236.136,227.387h9.59c3.196,0,5.46-0.675,7.06-2.019c1.464-1.345,2.262-3.226,2.262-5.919c0-2.556-0.798-4.57-2.262-6.052      c-1.599-1.615-3.864-2.285-6.793-2.285h-9.856V227.387z M306.327,246.356h-19.446l-3.73,12.105h-11.191l19.052-56.096h11.315      l19.052,56.096H310.19L306.327,246.356z M289.676,237.743h13.985l-6.924-22.194H296.6L289.676,237.743z M337.626,235.995v22.466      h-11.054v-56.096h20.91c6.258,0,11.187,1.478,14.784,4.437c3.593,2.827,5.327,6.998,5.327,12.109      c0,2.959-0.67,5.382-2.267,7.534c-1.464,2.019-3.598,3.768-6.525,4.979c3.331,1.074,5.594,2.689,7.058,4.974      c1.468,2.29,2.134,4.979,2.134,8.342v4.171c0,1.615,0.266,3.226,0.665,4.841c0.399,1.748,1.064,3.098,2.129,3.9v0.809h-11.453      c-1.064-0.809-1.729-2.286-1.996-4.167c-0.271-1.886-0.398-3.767-0.398-5.515v-3.905c0-2.822-0.799-4.974-2.268-6.456      c-1.597-1.615-3.726-2.423-6.392-2.423H337.626z M337.626,227.387h9.585c3.203,0,5.465-0.675,7.063-2.019      c1.463-1.345,2.262-3.226,2.262-5.919c0-2.556-0.799-4.57-2.262-6.052c-1.598-1.615-3.859-2.285-6.791-2.285h-9.856V227.387z" style="fill:#FEFEFE;"/></g></g></g></g><g id="Layer_1"/></svg>