<?xml version="1.0" ?><!DOCTYPE svg  PUBLIC '-//W3C//DTD SVG 1.1//EN'  'http://www.w3.org/Graphics/SVG/1.1/DTD/svg11.dtd'><svg height="512px" style="enable-background:new 0 0 512 512;" version="1.1" viewBox="0 0 512 512" width="512px" xml:space="preserve" xmlns="http://www.w3.org/2000/svg" xmlns:xlink="http://www.w3.org/1999/xlink"><g id="file__x2C__txt__x2C__word__x2C_"><g id="Layer_57"><g><g><polygon points="107.07,25.467 349.078,25.467 420.6,97.705       420.6,447.738 107.07,447.738     " style="fill-rule:evenodd;clip-rule:evenodd;fill:#FFFFFF;"/><path d="M420.6,454.598H107.07c-3.79,0-6.859-3.07-6.859-6.859V25.467c0-3.79,3.069-6.86,6.859-6.86      h242.008c1.831,0,3.583,0.729,4.877,2.033l71.522,72.237c1.271,1.285,1.986,3.02,1.986,4.827v350.034      C427.464,451.527,424.39,454.598,420.6,454.598z M113.931,440.879h299.813V100.527l-67.525-68.2H113.931V440.879z" style="fill:#4C8CF9;"/></g><g><rect height="105.6" style="fill-rule:evenodd;clip-rule:evenodd;fill:#4C8CF9;" width="313.531" x="129.979" y="177.615"/></g><g><path d="M220.415,258.332h-11.054v-9.824h11.054V258.332z M269.962,210.978H254.38v47.354h-11.188      v-47.354h-15.585v-8.613h42.354V210.978z M295.8,222.275l10.389-19.91h12.922l-16.382,27.71l17.317,28.256h-13.453      l-10.655-20.181l-10.654,20.181h-13.06l16.918-28.256l-16.514-27.71h12.922L295.8,222.275z M364.128,210.978h-15.716v47.354      h-11.054v-47.354h-15.587v-8.613h42.356V210.978z" style="fill:#FEFEFE;"/></g><g><path d="M263.497,146.357c-14.012,0-26.189-5.08-32.584-13.591c-2.275-3.028-1.665-7.328,1.365-9.604      c3.028-2.285,7.328-1.666,9.606,1.363c3.761,5.006,12.038,8.113,21.612,8.113c0.004,0,0.009,0,0.018,0      c9.691-0.005,18.639-3.263,22.269-8.108c2.276-3.038,6.575-3.648,9.604-1.372c3.032,2.271,3.647,6.571,1.376,9.604      c-6.286,8.379-19.02,13.591-33.239,13.596C263.515,146.357,263.506,146.357,263.497,146.357z" style="fill:#4C8CF9;"/></g><g><path d="M143.968,233.173c-0.025,0-0.051,0-0.078,0c-41.683-0.455-66.408-11.325-73.488-32.308      c-9.214-27.302,17.032-62.661,32.452-74.674c2.99-2.322,7.303-1.785,9.63,1.198c2.328,2.992,1.791,7.3-1.195,9.631      c-13.252,10.32-34.507,39.838-27.888,59.458c6.248,18.51,36.424,22.709,60.641,22.975c3.787,0.041,6.825,3.147,6.784,6.933      C150.783,230.149,147.721,233.173,143.968,233.173z" style="fill:#4C8CF9;"/></g><g><polygon points="349.078,97.705 420.6,97.705 349.078,25.467           " style="fill-rule:evenodd;clip-rule:evenodd;fill:#D4E4FF;"/><path d="M420.6,104.565h-71.521c-3.79,0-6.86-3.07-6.86-6.86V25.467c0-2.781,1.68-5.286,4.249-6.346      c2.574-1.051,5.534-0.455,7.488,1.519l71.522,72.237c1.95,1.969,2.519,4.915,1.454,7.471      C425.867,102.904,423.371,104.565,420.6,104.565z M355.938,90.845h48.217l-48.217-48.699V90.845z" style="fill:#4C8CF9;"/></g><g><path d="M239.338,493.393c-0.376,0-0.757-0.027-1.143-0.092l-22.509-3.766      c-3.306-0.557-5.727-3.414-5.727-6.77v-35.027c0-3.791,3.069-6.859,6.859-6.859c3.791,0,6.86,3.068,6.86,6.859v29.219      l16.782,2.809c3.738,0.629,6.259,4.162,5.633,7.9C245.535,491.021,242.628,493.393,239.338,493.393z" style="fill:#4C8CF9;"/></g><g><path d="M325.249,493.393c-0.376,0-0.762-0.027-1.146-0.092l-22.507-3.766      c-3.309-0.557-5.727-3.414-5.727-6.77v-35.027c0-3.791,3.069-6.859,6.859-6.859s6.86,3.068,6.86,6.859v29.219l16.78,2.809      c3.739,0.629,6.259,4.162,5.635,7.9C331.444,491.021,328.535,493.393,325.249,493.393z" style="fill:#4C8CF9;"/></g><g><path d="M290.872,65.154c6.259-1.753,13.188,0.936,16.519,6.855      c4.13,7.131,1.73,16.147-5.332,20.181c-7.057,4.171-15.978,1.753-19.979-5.378c-3.193-5.515-2.396-12.38,1.469-16.95      c1.331,1.748,3.726,2.285,5.727,1.211C291.275,69.862,292.074,67.168,290.872,65.154L290.872,65.154z" style="fill-rule:evenodd;clip-rule:evenodd;fill:#4C8CF9;"/></g><g><path d="M228.808,65.154c6.259-1.753,13.185,0.936,16.649,6.855      c3.994,7.131,1.597,16.147-5.463,20.181c-6.924,4.171-15.981,1.753-19.979-5.378c-3.196-5.515-2.397-12.38,1.466-16.95      c1.331,1.748,3.861,2.285,5.727,1.211C229.34,69.862,230.005,67.168,228.808,65.154L228.808,65.154z" style="fill-rule:evenodd;clip-rule:evenodd;fill:#4C8CF9;"/></g><g><path d="M373.719,326.266H164.609c-3.791,0-6.86-3.07-6.86-6.859c0-3.791,3.069-6.861,6.86-6.861h209.109      c3.79,0,6.859,3.07,6.859,6.861C380.578,323.195,377.509,326.266,373.719,326.266z" style="fill:#4C8CF9;"/></g><g><path d="M373.719,361.908H270.095c-3.79,0-6.859-3.068-6.859-6.859c0-3.789,3.069-6.859,6.859-6.859      h103.624c3.79,0,6.859,3.07,6.859,6.859C380.578,358.84,377.509,361.908,373.719,361.908z" style="fill:#4C8CF9;"/></g><g><path d="M300.462,397.563H164.609c-3.791,0-6.86-3.07-6.86-6.859c0-3.791,3.069-6.861,6.86-6.861h135.853      c3.79,0,6.864,3.07,6.864,6.861C307.326,394.492,304.252,397.563,300.462,397.563z" style="fill:#4C8CF9;"/></g><g><path d="M241.327,361.908h-76.718c-3.791,0-6.86-3.068-6.86-6.859c0-3.789,3.069-6.859,6.86-6.859h76.718      c3.79,0,6.86,3.07,6.86,6.859C248.188,358.84,245.117,361.908,241.327,361.908z" style="fill:#4C8CF9;"/></g></g></g></g><g id="Layer_1"/></svg>