<?xml version="1.0" encoding="iso-8859-1"?>
<!-- Generator: Adobe Illustrator 16.0.0, SVG Export Plug-In . SVG Version: 6.00 Build 0)  -->
<!DOCTYPE svg PUBLIC "-//W3C//DTD SVG 1.1//EN" "http://www.w3.org/Graphics/SVG/1.1/DTD/svg11.dtd">
<svg version="1.1" id="Capa_1" xmlns="http://www.w3.org/2000/svg" xmlns:xlink="http://www.w3.org/1999/xlink" x="0px" y="0px"
	 width="588.6px" height="588.6px" viewBox="0 0 588.6 588.6" style="enable-background:new 0 0 588.6 588.6;" xml:space="preserve"
	>
<g>
	<path d="M177.936,240.181c-5.767,0.098-9.482,0.675-11.686,1.237v76.233c2.204,0.559,5.745,0.622,8.965,0.686
		c23.678,0.58,39.393-12.562,39.393-40.988C214.776,252.616,200.454,239.792,177.936,240.181z"/>
	<path d="M73.026,241.629c-15.834,0.274-24.954,16.485-24.954,37.945c0,21.635,9.429,37.038,25.109,37.317
		c16.076,0.285,25.387-15.988,25.387-37.971C98.573,258.638,89.413,241.352,73.026,241.629z"/>
	<path d="M359.036,537.78c0.771,0.048,1.551,0.111,2.342,0.111h178.2c20.84,0,37.8-16.96,37.8-37.801V86.994
		c0-20.838-16.96-37.8-37.8-37.8h-178.2c-0.786,0-1.571,0.077-2.342,0.113V0L11.222,46.417v494.564L359.036,588.6V537.78z
		 M359.036,71.042c0.771-0.114,1.54-0.243,2.342-0.243h178.2c8.933,0,16.199,7.27,16.199,16.2v413.103
		c0,8.934-7.267,16.2-16.199,16.2h-178.2c-0.797,0-1.571-0.127-2.342-0.232V71.042z M71.95,336.92
		c-30.509-0.812-47.978-25.751-47.978-56.861c0-32.729,19.267-57.705,49.663-58.503c32.569-0.852,50.759,24.964,50.759,56.523
		C124.4,315.583,102.866,337.753,71.95,336.92z M223.427,324.844c-12.508,10.156-31.271,14.597-53.802,14.006
		c-13.268-0.358-22.57-1.466-28.856-2.489V223.214c9.26-1.783,21.455-2.953,34.446-3.288c21.945-0.567,36.397,3.108,47.849,11.517
		c12.458,9.007,20.358,23.722,20.358,45.003C243.421,299.5,234.981,315.262,223.427,324.844z M339.461,239.868l-49.528,0.788v28.062
		l46.216-0.187v23.034l-46.216-0.232v49.415l-28.329-0.744V218.582l77.856-1.983V239.868z"/>
	<path d="M432.284,292.75l-63.671,57.924c-2.395,2.178-3.207,5.621-2.025,8.648c1.171,3.017,4.071,5.01,7.314,5.01h130.981
		c4.34,0,7.847-3.513,7.847-7.847c0-4.335-3.507-7.848-7.847-7.848H394.199l54.738-49.812c1.582-1.445,2.511-3.47,2.568-5.621
		c0.053-2.139-0.785-4.217-2.305-5.74l-57.248-57.251h112.936c4.335,0,7.848-3.509,7.848-7.847c0-4.345-3.513-7.854-7.848-7.854H373
		c-3.174,0-6.043,1.914-7.256,4.849c-1.213,2.933-0.549,6.308,1.698,8.554L432.284,292.75z"/>
</g>
<g>
</g>
<g>
</g>
<g>
</g>
<g>
</g>
<g>
</g>
<g>
</g>
<g>
</g>
<g>
</g>
<g>
</g>
<g>
</g>
<g>
</g>
<g>
</g>
<g>
</g>
<g>
</g>
<g>
</g>
</svg>
