<?xml version="1.0"?>
<svg xmlns:rdf="http://www.w3.org/1999/02/22-rdf-syntax-ns#" xmlns="http://www.w3.org/2000/svg" xmlns:cc="http://creativecommons.org/ns#" xmlns:xlink="http://www.w3.org/1999/xlink" xmlns:dc="http://purl.org/dc/elements/1.1/" xmlns:svg="http://www.w3.org/2000/svg" id="svg5430" viewBox="0 0 512 512" version="1.1">
  <defs id="defs5432">
    <linearGradient id="linearGradient6749-3">
      <stop id="stop6751-9" stop-color="#fff" offset="0"/>
      <stop id="stop6753-1" stop-color="#1cbeff" stop-opacity="0" offset="1"/>
    </linearGradient>
    <filter id="filter10073-9" color-interpolation-filters="sRGB">
      <feGaussianBlur id="feGaussianBlur10075-6" stdDeviation="0.84232564"/>
    </filter>
    <filter id="filter9927-4" color-interpolation-filters="sRGB">
      <feGaussianBlur id="feGaussianBlur9929-6" stdDeviation="0.89804012"/>
    </filter>
    <filter id="filter4887-7" color-interpolation-filters="sRGB">
      <feGaussianBlur id="feGaussianBlur4889-2" stdDeviation="1.6713647"/>
    </filter>
    <filter id="filter4879-9" color-interpolation-filters="sRGB">
      <feGaussianBlur id="feGaussianBlur4881-6" stdDeviation="0.82978208"/>
    </filter>
    <radialGradient id="radialGradient3115" gradientUnits="userSpaceOnUse" cy="-67.584" cx="490.68" gradientTransform="matrix(0 .46274 -1.5463 -7.0171e-7 324.37 -96.229)" r="99.813">
      <stop id="stop4767-2" stop-color="#fff" offset="0"/>
      <stop id="stop4769-7" stop-color="#fff" stop-opacity="0" offset="1"/>
    </radialGradient>
    <radialGradient id="radialGradient3117" gradientUnits="userSpaceOnUse" cy="-35.639" cx="867.01" gradientTransform="matrix(2.1114 0 0 .78798 -1389.2 189.39)" r="22.634">
      <stop id="stop3372" stop-color="#fff" offset="0"/>
      <stop id="stop3376" stop-color="#0093d9" stop-opacity="0" offset="1"/>
    </radialGradient>
    <radialGradient id="radialGradient3120" gradientUnits="userSpaceOnUse" cy="-11.461" cx="749.72" gradientTransform="matrix(.0000017704 1.6762 -1.5682 0 317.59 -1023)" r="99.813">
      <stop id="stop6774" stop-color="#fff" offset="0"/>
      <stop id="stop6776" stop-color="#0093d9" stop-opacity="0" offset="1"/>
    </radialGradient>
    <radialGradient id="radialGradient3122" gradientUnits="userSpaceOnUse" cy="20.762" cx="843.64" gradientTransform="matrix(.62714 -.16804 .48362 1.8049 -143.63 387.38)" r="58.715">
      <stop id="stop6766" stop-color="#fff" offset="0"/>
      <stop id="stop6768" stop-color="#fff" stop-opacity="0" offset="1"/>
    </radialGradient>
    <radialGradient id="radialGradient3126" fx="531.7" fy="149.89" xlink:href="#linearGradient6749-3" gradientUnits="userSpaceOnUse" cy="127.88" cx="605.59" gradientTransform="matrix(.15334 .52178 -3.1034 .912 365.42 -21.702)" r="99.813"/>
    <linearGradient id="linearGradient3130" x1="690.08" gradientUnits="userSpaceOnUse" y1="-.665" gradientTransform="matrix(2.1114 0 0 2.1114 -1199.2 57.834)" x2="770.26" y2="129.12">
      <stop id="stop7200-6" stop-color="#bfdce8" offset="0"/>
      <stop id="stop7202-7" stop-color="#0093d9" offset=".51309"/>
      <stop id="stop7204-5" stop-color="#005a85" offset="1"/>
    </linearGradient>
    <linearGradient id="linearGradient3134" x1="671.25" gradientUnits="userSpaceOnUse" y1="-33.83" gradientTransform="matrix(2.1114 0 0 2.1114 -1199.2 57.834)" x2="673.84" y2="103.32">
      <stop id="stop6745-5" stop-color="#fff" offset="0"/>
      <stop id="stop6747-6" stop-color="#1abdff" stop-opacity="0" offset="1"/>
    </linearGradient>
    <radialGradient id="radialGradient3136" gradientUnits="userSpaceOnUse" cy="1.4107" cx="798.11" gradientTransform="matrix(2.1114 0 0 .98155 -1389.2 222.21)" r="74.828">
      <stop id="stop6736" stop-color="#fff" stop-opacity=".45418" offset="0"/>
      <stop id="stop6738" stop-color="#fff" stop-opacity="0" offset="1"/>
    </radialGradient>
    <linearGradient id="linearGradient3139" x1="675.23" gradientUnits="userSpaceOnUse" y1="162.57" gradientTransform="matrix(2.1114 0 0 2.1114 -1199.2 57.834)" x2="675.23" y2="27.08">
      <stop id="stop9946-3" stop-color="#ace4fc" offset="0"/>
      <stop id="stop9948-3" stop-color="#0093d9" offset=".58488"/>
      <stop id="stop9950-8" stop-color="#0093d9" offset="1"/>
    </linearGradient>
    <radialGradient id="radialGradient3143" gradientUnits="userSpaceOnUse" cy="-49.945" cx="825.94" gradientTransform="matrix(1.5613 2.6152 -1.7599 1.0507 -1032.1 -1931.2)" r="28.721">
      <stop id="stop3293-4" stop-color="#fff" stop-opacity=".29947" offset="0"/>
      <stop id="stop3295-0" stop-color="#fff" stop-opacity="0" offset="1"/>
    </radialGradient>
    <linearGradient id="linearGradient3146" x1="680.73" gradientUnits="userSpaceOnUse" y1=".35355" gradientTransform="matrix(2.1114 0 0 2.1114 -1199.2 57.834)" x2="685.45" y2="98.033">
      <stop id="stop6018-1" stop-color="#bfdce8" offset="0"/>
      <stop id="stop6058-1" stop-color="#0093d9" offset=".5"/>
      <stop id="stop6020-0" stop-color="#005a85" offset="1"/>
    </linearGradient>
    <radialGradient id="radialGradient3148" gradientUnits="userSpaceOnUse" cy="31.353" cx="839.98" gradientTransform="matrix(.35966 .62295 -3.01 1.7378 624.05 -506.39)" r="99.813">
      <stop id="stop6739-2" stop-color="#8fdfff" offset="0"/>
      <stop id="stop6741-9" stop-color="#0093d9" stop-opacity="0" offset="1"/>
    </radialGradient>
    <radialGradient id="radialGradient3150" fx="760.16" fy="46.27" gradientUnits="userSpaceOnUse" cy="43.053" cx="760.11" gradientTransform="matrix(.19571 .19571 -.60860 .60860 664.49 -142.22)" r="99.813">
      <stop id="stop3372-9" stop-color="#fff" offset="0"/>
      <stop id="stop3376-8" stop-color="#0093d9" stop-opacity="0" offset="1"/>
    </radialGradient>
    <radialGradient id="radialGradient3152" fx="782.51" fy="-25.415" gradientUnits="userSpaceOnUse" cy="-5.7449" cx="793.35" gradientTransform="matrix(-.688 .84020 -1.1705 -.95850 1275.5 -725.46)" r="70.849">
      <stop id="stop3303-4" stop-color="#fff" offset="0"/>
      <stop id="stop3310-0" stop-color="#0093d9" offset=".5"/>
      <stop id="stop3305-0" stop-color="#066795" offset="1"/>
    </radialGradient>
    <radialGradient id="radialGradient3154" xlink:href="#linearGradient6749-3" gradientUnits="userSpaceOnUse" cy="-76.523" cx="791.32" gradientTransform="matrix(3.1508 -.94209 .80006 2.6758 -1622.6 875.75)" r="24.38"/>
  </defs>
  <g id="g3156">
    <path id="path6978" d="m361.04 237.22s-21.522 8.7182-21.522 8.7182c-11.74-34.61-49.949-78.831-77.94-93.149l121.29-94.204c-22.623 33.728-39.862 141.46-21.823 178.64z" fill="url(#linearGradient3146)"/>
    <path id="path6980" d="m261.58 152.79l121.29-94.204c-14.472 21.575-26.74 73.435-28.981 117.73-41.189-40.325-66.198-20.375-92.305-23.53z" fill="url(#radialGradient3143)"/>
    <path id="path6982" opacity=".53668" d="m833.56-81.875c-16.616 12.915-33.223 25.842-49.844 38.75 15.499 9.7829 27.628 24.614 35.01 41.345 0.85411 3.2124 7.7196-1.4364 8.5835-2.47-5.2164-15.739-2.7714-32.785-0.39695-48.836 1.8396-10.444 4.4892-20.717 8.7407-30.414-0.69792 0.54167-1.3958 1.0833-2.0938 1.625z" transform="matrix(2.1114 0 0 2.1114 -1389.2 243.64)" filter="url(#filter10073-9)" stroke="url(#radialGradient3154)" stroke-width=".47361" fill="none"/>
    <path id="path6984" d="m227.36 353.5c-40.64-69.25-118.63-98.81-191.37-77.51l122.46-138.62c87.012-24.057 174.38 24.669 191.42 105.29-44.863 30.854-93.286 154.75-122.52 110.84z" fill="url(#linearGradient3139)"/>
    <path id="path4521" stroke="url(#radialGradient3136)" stroke-width=".6" fill="url(#linearGradient3134)" d="m35.994 275.99l122.46-138.62c87.012-24.057 174.38 24.669 191.42 105.29-99.29-40.96-176.35-47.26-313.88 33.33z"/>
    <path id="path6986" opacity=".43508" d="m755.76-52.776c-7.3225-0.15561-14.789 1.0852-22.316 3.1365-0.47406 0.53664-52.198 58.978-56.472 63.816 33.64-8.2655 70.163 5.5788 89.122 37.166 8.22 14.61 20.83-12.66 29.29-22.969 8.46-10.315 16.93-21.707 27.47-29.191-6.69-30.14-35.2-51.282-67.09-51.96z" transform="matrix(2.1114 0 0 2.1114 -1389.2 243.64)" filter="url(#filter9927-4)" stroke="url(#radialGradient3152)" stroke-width=".47361" fill="none"/>
    <path id="path6988" d="m413.31 136.58s-22.643 3.293-35.137 39.953c-10.694 31.371-20.05 43.048-28.79 52.698l-124.56 129.67s-21.382 19.826-47.174 27.153c-35.41 10.063-105.53 21.419-127.31 24.02-21.774 2.6034-6.9261 15.171 16.32 29.013 23.245 13.845 26.711 20.69 73.134-4.396 46.421-25.088 90.877-2.0544 186.03-29.391 95.148-27.335 114.48-103.49 112.75-159.42-1.7356-55.931 5.304-68.1 10.901-72.839 5.5974-4.7362 26.532-11.229 26.532-11.229s-24.535-7.9779-24.535-7.9779-2.9708-4.4372-13.292-12.394c-10.323-7.957-24.869-4.8663-24.869-4.8663z" fill="url(#linearGradient3130)"/>
    <path id="path6992" filter="url(#filter4887-7)" fill="url(#radialGradient3150)" transform="matrix(2.1114 0 0 2.1114 -1389.2 243.64)" d="m856.5-49.016s-13.921 2.6301-19.638 19.822c-4.8934 14.712-8.1136 21.602-12.112 26.128 0 0-52.729 55.719-56.288 57.984-3.5589 2.2656-18.374 11.726-30.297 13.8-48.212 7.4975-21.534 22.338-8.8142 19.072 21.24-11.766 42.082 0.03653 85.62-12.784 43.536-12.819 51.251-44.029 50.589-70.261-0.79414-31.73 5.902-43.167 5.902-43.167s0.64067-4.0809-4.0817-7.8126c-4.7234-3.7316-10.879-2.7821-10.879-2.7821z"/>
    <path id="path3889" d="m419.23 140.15s-29.394 5.5533-41.464 41.854c-10.332 31.063-22.788 41.723-31.232 51.278l-118.85 122.43c-15.029 9.5673-33.352 27.561-58.314 33.027-53.359 11.684-101.03 18.792-122.07 21.368-21.037 2.5779 0.08467 17.328 22.544 31.035 22.457 13.709 36.066 12.706 80.916-12.134 44.848-24.842 88.854 0.0771 180.78-26.992 91.925-27.067 108.21-92.965 106.82-148.35-1.6768-66.996 12.462-91.144 12.462-91.144s1.3527-8.6166-8.6184-16.496c-9.9731-7.879-22.97-5.8743-22.97-5.8743z" fill="url(#radialGradient3126)"/>
    <path id="path6990" filter="url(#filter4879-9)" fill="url(#radialGradient3148)" transform="matrix(2.1114 0 0 2.1114 -1389.2 243.64)" d="m852.71-46.474s-11.421 0.13011-17.138 17.322c-4.8934 14.712-9.0609 19.353-13.06 23.878l-56.29 57.985c-6.1706 6.4256-17.427 13.975-29.35 16.05-55.106 12.609-58.333 44.408-8.8142 19.072 21.24-11.766 42.082 0.03653 85.62-12.784 43.536-12.819 51.251-44.029 50.589-70.261-0.79414-31.73 5.902-43.167 5.902-43.167s-1.3593-2.0809-6.0817-5.8126c-4.7234-3.7316-11.379-2.2821-11.379-2.2821z"/>
    <path id="path7002" opacity=".73485" d="m377.76 182c-10.331 31.064-21.946 41.063-30.389 50.618l-118.85 122.43c33.99-21.696 131.64-85.168 209.58-80.412 0.82895-29.869-0.95567-56.294 1.81-75.311 2.5712-17.679 7.4967-23.849 9.7218-26.453 3.9045-3.4539 18.984-9.2597 25.836-11.033-10.931-4.18-18.331-5.8243-23.699-8.0576-2.7518-2.8105-5.5804-3.6728-8.0017-6.976-9.6957-13.227-29.428-11.859-40.62-5.5373-11.193 6.322-19.352 22.58-25.388 40.73z" stroke-opacity=".45418" stroke="url(#radialGradient3122)" fill="url(#radialGradient3120)"/>
    <path id="path6996" opacity=".73206" d="m378.19 180.77c26.721-21.49 90.125-18.099 97.181-18.734-1.8942-0.74449-17.663-6.0302-23.951-8.1109-5.9247-7.1449-15.805-16.608-24.341-17.546-14.009-1.5384-23.307 0.85341-35.81 15.792-5.0519 6.0362-9.4646 18.479-13.08 28.599z" stroke="url(#radialGradient3117)" stroke-width=".6" fill="url(#radialGradient3115)"/>
  </g>
  <metadata>
    <rdf:RDF>
      <cc:Work>
        <dc:format>image/svg+xml</dc:format>
        <dc:type rdf:resource="http://purl.org/dc/dcmitype/StillImage"/>
        <cc:license rdf:resource="http://creativecommons.org/licenses/publicdomain/"/>
        <dc:publisher>
          <cc:Agent rdf:about="http://openclipart.org/">
            <dc:title>Openclipart</dc:title>
          </cc:Agent>
        </dc:publisher>
        <dc:title>ODF logo icon</dc:title>
        <dc:date>2011-06-06T12:36:47</dc:date>
        <dc:description>illustrative icon version of the ODF Logo</dc:description>
        <dc:source>http://openclipart.org/detail/142747/odf-logo-icon-by-andy</dc:source>
        <dc:creator>
          <cc:Agent>
            <dc:title>Andy</dc:title>
          </cc:Agent>
        </dc:creator>
        <dc:subject>
          <rdf:Bag>
            <rdf:li>ODF</rdf:li>
            <rdf:li>bird</rdf:li>
            <rdf:li>blue bird</rdf:li>
            <rdf:li>clip art</rdf:li>
            <rdf:li>clipart</rdf:li>
            <rdf:li>libre office</rdf:li>
            <rdf:li>logo</rdf:li>
            <rdf:li>oasis</rdf:li>
            <rdf:li>odf</rdf:li>
            <rdf:li>odf logo</rdf:li>
            <rdf:li>ooo</rdf:li>
            <rdf:li>open document</rdf:li>
            <rdf:li>open document format</rdf:li>
          </rdf:Bag>
        </dc:subject>
      </cc:Work>
      <cc:License rdf:about="http://creativecommons.org/licenses/publicdomain/">
        <cc:permits rdf:resource="http://creativecommons.org/ns#Reproduction"/>
        <cc:permits rdf:resource="http://creativecommons.org/ns#Distribution"/>
        <cc:permits rdf:resource="http://creativecommons.org/ns#DerivativeWorks"/>
      </cc:License>
    </rdf:RDF>
  </metadata>
</svg>
