<?xml version="1.0" encoding="utf-8"?>
<!-- Svg Vector Icons : http://www.onlinewebfonts.com/icon -->
<!DOCTYPE svg PUBLIC "-//W3C//DTD SVG 1.1//EN" "http://www.w3.org/Graphics/SVG/1.1/DTD/svg11.dtd">
<svg version="1.1" xmlns="http://www.w3.org/2000/svg" xmlns:xlink="http://www.w3.org/1999/xlink" x="0px" y="0px" viewBox="0 0 1000 1000" enable-background="new 0 0 1000 1000" xml:space="preserve">
<metadata> Svg Vector Icons : http://www.onlinewebfonts.com/icon </metadata>
<g><path d="M552.3,31.7C540.4,19.7,516.8,10,500,10H132.5c-16.8,0-30.6,13.8-30.6,30.6v918.8c0,16.8,13.8,30.6,30.6,30.6h735c16.8,0,30.6-13.8,30.6-30.6V408.1c0-16.8-9.7-40.4-21.7-52.3L552.3,31.7z M836.9,928.8H163.1V71.3h336.1c2.8,0.5,8.1,2.6,10.4,4.3l323.1,323.1c1.7,2.3,3.8,7.6,4.3,10.4L836.9,928.8z M867.5,10H683.8c-16.8,0-20.9,9.7-9,21.7l201.7,201.7c11.9,11.9,21.7,7.9,21.7-9V40.6C898.1,23.8,884.3,10,867.5,10z"/></g>
</svg>