<?xml version="1.0" encoding="UTF-8" standalone="no"?>
<!-- Created with Inkscape (http://www.inkscape.org/) -->

<svg
   xmlns:dc="http://purl.org/dc/elements/1.1/"
   xmlns:cc="http://creativecommons.org/ns#"
   xmlns:rdf="http://www.w3.org/1999/02/22-rdf-syntax-ns#"
   xmlns:svg="http://www.w3.org/2000/svg"
   xmlns="http://www.w3.org/2000/svg"
   xmlns:sodipodi="http://sodipodi.sourceforge.net/DTD/sodipodi-0.dtd"
   xmlns:inkscape="http://www.inkscape.org/namespaces/inkscape"
   width="60.679958mm"
   height="60.679958mm"
   viewBox="0 0 60.679959 60.679959"
   version="1.1"
   id="svg2157"
   sodipodi:docname="about.svg"
   inkscape:version="0.92.4 (5da689c313, 2019-01-14)">
  <defs
     id="defs2151">
    <clipPath
       id="clipEmfPath1"
       clipPathUnits="userSpaceOnUse">
      <path
         id="path818"
         d="  M 327.75757,165.27878   L 806.55403,165.27878   L 806.55403,241.51821   L 327.75757,241.51821   z" />
    </clipPath>
    <pattern
       y="0"
       x="0"
       height="6"
       width="6"
       patternUnits="userSpaceOnUse"
       id="EMFhbasepattern" />
    <clipPath
       clipPathUnits="userSpaceOnUse"
       id="clipPath6422-2-4-0-3">
      <rect
         style="display:inline;opacity:1;fill:#e6e6e6;fill-rule:evenodd;stroke:none;stroke-width:0.13645676px;stroke-linecap:butt;stroke-linejoin:miter;stroke-opacity:1"
         id="rect6424-9-2-1-1"
         width="65.232262"
         height="49.6987"
         x="249.37424"
         y="271.81693" />
    </clipPath>
    <clipPath
       clipPathUnits="userSpaceOnUse"
       id="clipPath11400-5-5-7-3-4">
      <rect
         style="opacity:1;fill:#ac9393;fill-opacity:1;fill-rule:nonzero;stroke:none;stroke-width:0.03386667;stroke-miterlimit:4;stroke-dasharray:none;stroke-dashoffset:0;stroke-opacity:1"
         id="rect11402-5-4-87-7-4"
         width="98.577835"
         height="49.797783"
         x="66.45697"
         y="135.42085"
         ry="0" />
    </clipPath>
    <clipPath
       clipPathUnits="userSpaceOnUse"
       id="clipPath1481-7-1-6-7-6-28-4-0-8-6-2">
      <path
         style="opacity:1;fill:#536c5d;fill-opacity:1;fill-rule:nonzero;stroke:none;stroke-width:0.1416602;stroke-miterlimit:4;stroke-dasharray:none;stroke-dashoffset:0;stroke-opacity:1"
         d="m -37.148736,566.3509 4.449874,5.92058 4.458811,5.91685 0.01085,-0.014 v -11.77174 z"
         id="path1483-6-1-9-4-8-9-7-2-4-4-4"
         inkscape:connector-curvature="0" />
    </clipPath>
    <clipPath
       clipPathUnits="userSpaceOnUse"
       id="clipPath1481-7-1-6-7-6-2-3-8-5-6-11-2">
      <path
         style="opacity:1;fill:#536c5d;fill-opacity:1;fill-rule:nonzero;stroke:none;stroke-width:0.1416602;stroke-miterlimit:4;stroke-dasharray:none;stroke-dashoffset:0;stroke-opacity:1"
         d="m -37.148736,566.3509 4.449874,5.92058 4.458811,5.91685 0.01085,-0.014 v -11.77174 z"
         id="path1483-6-1-9-4-8-0-2-5-5-5-03-3"
         inkscape:connector-curvature="0" />
    </clipPath>
  </defs>
  <sodipodi:namedview
     id="base"
     pagecolor="#ffffff"
     bordercolor="#666666"
     borderopacity="1.0"
     inkscape:pageopacity="0.0"
     inkscape:pageshadow="2"
     inkscape:zoom="0.73779951"
     inkscape:cx="-162.59422"
     inkscape:cy="254.36538"
     inkscape:document-units="mm"
     inkscape:current-layer="g1119"
     showgrid="false"
     inkscape:window-width="1920"
     inkscape:window-height="1051"
     inkscape:window-x="-9"
     inkscape:window-y="-9"
     inkscape:window-maximized="1"
     fit-margin-top="0"
     fit-margin-left="0"
     fit-margin-right="0"
     fit-margin-bottom="0" />
  <metadata
     id="metadata2154">
    <rdf:RDF>
      <cc:Work
         rdf:about="">
        <dc:format>image/svg+xml</dc:format>
        <dc:type
           rdf:resource="http://purl.org/dc/dcmitype/StillImage" />
        <dc:title />
      </cc:Work>
    </rdf:RDF>
  </metadata>
  <g
     inkscape:label="圖層 1"
     inkscape:groupmode="layer"
     id="layer1"
     transform="translate(-46.50589,-83.024796)">
    <g
       id="g1119"
       transform="matrix(1.1646624,0,0,1.1646624,14.902266,-222.96709)">
      <g
         id="g1511">
        <circle
           r="25.502413"
           cy="288.93594"
           cx="53.07032"
           id="path1121"
           style="opacity:1;fill:#ffffff;fill-opacity:1;fill-rule:nonzero;stroke:none;stroke-width:0.11505734;stroke-miterlimit:4;stroke-dasharray:none;stroke-dashoffset:0;stroke-opacity:1" />
        <g
           transform="translate(-0.2441402,0.03005286)"
           id="g1204">
          <path
             inkscape:connector-curvature="0"
             style="fill:#281c43;fill-opacity:1;fill-rule:nonzero;stroke:none;stroke-width:0.26458332"
             d="m 70.649033,273.41441 2.11665,4.93179 c 0.31749,0.8255 0.0635,1.67216 -0.14817,2.47648 -0.42333,1.65099 -1.46049,2.89982 -2.53998,4.10631 -1.90498,2.13782 -3.95814,4.12747 -6.18062,5.92662 -3.66181,2.83631 -6.476952,4.8683 -10.879587,6.92145 l -2.899812,-4.82597 c 3.852304,-1.82032 7.768108,-4.02163 10.858419,-6.07478 2.66698,-1.75682 5.10113,-3.72531 7.36595,-6.01129 3.09031,-3.09031 2.26481,-6.51929 2.30715,-7.45061 z"
             id="path896" />
          <path
             inkscape:connector-curvature="0"
             style="fill:#281c43;fill-opacity:1;fill-rule:nonzero;stroke:none;stroke-width:0.26458332"
             d="m 48.25486,281.73284 c -3.301973,1.98966 -7.069614,4.95297 -9.292098,7.61995 -2.264814,2.87864 -2.645812,3.83114 -3.344307,5.63029 -0.55033,1.39699 -0.380997,2.87865 0.232831,4.02164 1.121826,1.52398 2.836312,2.77281 4.444968,3.70414 -0.677328,-1.92616 -0.825494,-3.21731 0.126998,-5.14347 0.529164,-1.03716 1.164158,-2.01082 1.904987,-2.89981 2.30715,-2.79398 5.249293,-5.27046 8.106772,-7.40828 z"
             id="path898" />
          <path
             inkscape:connector-curvature="0"
             style="fill:#281c43;fill-opacity:1;fill-rule:nonzero;stroke:none;stroke-width:0.26458332"
             d="m 71.686193,284.31516 c 0.42333,0.86783 0.69849,1.46049 0.93132,2.09548 0.35983,0.84666 0.10583,2.26482 -0.93132,4.12747 -1.92616,2.98448 -4.38147,5.3763 -7.11195,7.51411 -2.53998,1.98965 -5.07996,3.61948 -7.641113,4.8048 l -1.947317,-3.25964 c 3.280806,-1.73565 6.62512,-3.66181 9.20743,-5.54563 2.05315,-1.48165 4.02164,-3.04797 5.65146,-5.05879 1.22766,-1.73566 1.86265,-2.34949 1.84149,-4.6778 z"
             id="path900" />
          <path
             inkscape:connector-curvature="0"
             style="fill:#a3bdde;fill-opacity:1;fill-rule:nonzero;stroke:none;stroke-width:0.26458332"
             d="m 65.018733,271.19192 c -0.29633,0 -1.58748,0.0212 -2.43415,0.14817 -2.85747,0.4445 -8.254934,1.98965 -11.324077,4.4238 l 0.634994,1.60865 c 0.275164,-0.10583 0.613828,-0.23283 1.079492,-0.42333 2.370651,-0.78316 6.265291,-2.45531 8.508941,-2.75164 4.08513,-0.508 8.63593,0.95249 8.6571,3.9793 0.88899,-2.15898 0.48683,-4.1063 0.508,-4.76246 -1.143,-2.01082 -2.77282,-2.18016 -5.6303,-2.22249 z"
             id="path902" />
          <path
             inkscape:connector-curvature="0"
             style="fill:#a3bdde;fill-opacity:1;fill-rule:nonzero;stroke:none;stroke-width:0.26458332"
             d="m 58.351283,283.024 c -1.523986,0.35983 -2.878642,0.762 -3.767634,1.14299 l 0.16933,0.4445 c 0.677328,-0.14817 1.608656,-0.23283 3.005646,-0.33866 1.883818,-0.0847 4.910628,-0.42333 7.704608,-0.1905 3.59831,0.29633 5.90546,1.67215 6.03246,2.05315 0.127,-0.46566 0.1905,-1.03716 0.1905,-1.75682 0,-0.0212 0,-0.0423 0,-0.0635 -1.143,-2.01082 -3.04798,-2.32832 -5.8843,-2.34948 -2.45531,0.0847 -5.05879,0.31749 -7.45061,1.05832 z"
             id="path904" />
          <path
             inkscape:connector-curvature="0"
             style="fill:#a3bdde;fill-opacity:1;fill-rule:nonzero;stroke:none;stroke-width:0.26458332"
             d="m 35.830119,299.00472 c 1.968487,4.38146 3.788807,6.68861 7.471778,8.80527 3.196143,1.41815 4.593133,1.58748 7.979775,1.69332 3.02681,0.127 8.551271,-0.4445 13.610071,-3.23848 l -2.81515,-5.14346 c -2.62465,1.10065 -9.546098,3.70414 -12.699907,3.7253 -2.815146,0.0635 -4.995297,-0.21166 -7.958606,-1.52399 -1.862654,-0.95249 -4.190971,-2.43414 -5.587961,-4.31796 z"
             id="path906" />
          <path
             inkscape:connector-curvature="0"
             style="fill:#0493db;fill-opacity:1;fill-rule:nonzero;stroke:none;stroke-width:0.26458332"
             d="m 62.394093,268.29211 -7.006119,18.1397 -6.942614,-17.5682 h -4.783632 c -1.185323,-0.127 -1.968484,0.86782 -1.968484,1.77798 0.02117,0.29633 0.08467,0.55033 0.211664,0.78316 -0.740828,0.14817 -1.26999,0.8255 -1.248823,1.62983 0.02117,0.35983 0.126997,0.67732 0.317497,0.93132 -0.02117,0 -0.02117,0 -0.02117,0 -0.761995,0.0212 -1.375823,0.6985 -1.354656,1.50282 0.02117,0.8255 0.677328,1.46049 1.439322,1.43933 0.465662,-0.0212 0.846659,-0.254 1.100659,-0.61383 0.253998,0.381 0.698495,0.63499 1.164156,0.61383 0.465664,-0.0212 0.867828,-0.254 1.100659,-0.61383 0.253997,0.381 0.698495,0.63499 1.185325,0.61383 0.232831,0 0.423331,-0.0635 0.613828,-0.1905 l 4.995297,12.6364 h 5.312793 l 8.022108,-21.08184 z"
             id="path908" />
          <path
             inkscape:connector-curvature="0"
             style="fill:#0293dc;fill-opacity:1;fill-rule:nonzero;stroke:none;stroke-width:0.26458332"
             d="m 38.391268,282.47367 c 0.02117,0.52916 -0.380998,0.99483 -0.888992,1.01599 -0.529164,0 -0.952495,-0.42333 -0.973662,-0.97365 -0.02117,-0.52917 0.380998,-0.99483 0.910162,-1.016 0.507994,0 0.952492,0.42333 0.952492,0.9525 z"
             id="path910" />
          <path
             inkscape:connector-curvature="0"
             style="fill:#0293dc;fill-opacity:1;fill-rule:nonzero;stroke:none;stroke-width:0.26458332"
             d="m 42.9209,282.47367 c 0.02117,0.52916 -0.402164,0.99483 -0.910159,1.01599 -0.507997,0 -0.952492,-0.42333 -0.952492,-0.97365 -0.02117,-0.52917 0.380995,-0.99483 0.888992,-1.016 0.529164,0 0.952492,0.42333 0.973659,0.9525 z"
             id="path912" />
          <path
             inkscape:connector-curvature="0"
             style="fill:#0293dc;fill-opacity:1;fill-rule:nonzero;stroke:none;stroke-width:0.26458332"
             d="m 40.740749,282.47367 c 0,0.52916 -0.402161,0.99483 -0.910159,1.01599 -0.529164,0 -0.952492,-0.42333 -0.973658,-0.97365 -0.02117,-0.52917 0.402164,-0.99483 0.910158,-1.016 0.507998,0 0.952492,0.42333 0.973659,0.9525 z"
             id="path914" />
          <path
             inkscape:connector-curvature="0"
             style="fill:#0293dc;fill-opacity:1;fill-rule:nonzero;stroke:none;stroke-width:0.26458332"
             d="m 41.439244,284.80199 c 0,0.46566 -0.338664,0.84666 -0.761992,0.84666 -0.444498,0.0212 -0.804328,-0.33866 -0.804328,-0.78316 -0.02117,-0.46567 0.317497,-0.84666 0.761994,-0.86783 0.423331,-0.0212 0.783162,0.33866 0.804326,0.80433 z"
             id="path916" />
          <path
             inkscape:connector-curvature="0"
             style="fill:#0293dc;fill-opacity:1;fill-rule:nonzero;stroke:none;stroke-width:0.26458332"
             d="m 36.930778,284.80199 c 0.02117,0.46566 -0.317497,0.84666 -0.761995,0.84666 -0.42333,0.0212 -0.783161,-0.33866 -0.804328,-0.78316 -0.02116,-0.46567 0.3175,-0.84666 0.761995,-0.86783 0.423331,-0.0212 0.783162,0.33866 0.804328,0.80433 z"
             id="path918" />
          <path
             inkscape:connector-curvature="0"
             style="fill:#0293dc;fill-opacity:1;fill-rule:nonzero;stroke:none;stroke-width:0.26458332"
             d="m 39.237929,284.80199 c 0.02117,0.46566 -0.317497,0.84666 -0.761995,0.84666 -0.42333,0.0212 -0.783161,-0.33866 -0.804328,-0.78316 -0.02117,-0.46567 0.317498,-0.84666 0.761995,-0.86783 0.423331,-0.0212 0.783161,0.33866 0.804328,0.80433 z"
             id="path920" />
          <path
             inkscape:connector-curvature="0"
             style="fill:#0293dc;fill-opacity:1;fill-rule:nonzero;stroke:none;stroke-width:0.26458332"
             d="m 39.280262,289.41629 c 0,0.35983 -0.254,0.65616 -0.592664,0.65616 -0.338664,0.0212 -0.613828,-0.254 -0.613828,-0.61383 -0.02117,-0.35983 0.232831,-0.65616 0.571495,-0.65616 0.338664,-0.0212 0.613831,0.254 0.634997,0.61383 z"
             id="path922" />
          <path
             inkscape:connector-curvature="0"
             style="fill:#0293dc;fill-opacity:1;fill-rule:nonzero;stroke:none;stroke-width:0.26458332"
             d="m 40.084588,287.13031 c 0.02117,0.35983 -0.232831,0.65616 -0.571495,0.65616 -0.338664,0.0212 -0.613828,-0.254 -0.634995,-0.61383 0,-0.35983 0.253998,-0.635 0.592662,-0.65617 0.338664,-0.0212 0.613828,0.254 0.613828,0.61384 z"
             id="path924" />
          <path
             inkscape:connector-curvature="0"
             style="fill:#0293dc;fill-opacity:1;fill-rule:nonzero;stroke:none;stroke-width:0.26458332"
             d="m 34.919961,289.41629 c 0.02117,0.35983 -0.232834,0.65616 -0.571498,0.65616 -0.338664,0.0212 -0.613828,-0.254 -0.634994,-0.61383 0,-0.35983 0.253997,-0.65616 0.592661,-0.65616 0.338667,-0.0212 0.613831,0.254 0.613831,0.61383 z"
             id="path926" />
          <path
             inkscape:connector-curvature="0"
             style="fill:#0293dc;fill-opacity:1;fill-rule:nonzero;stroke:none;stroke-width:0.26458332"
             d="m 35.597289,287.13031 c 0,0.35983 -0.253998,0.65616 -0.592664,0.65616 -0.338664,0.0212 -0.613828,-0.254 -0.613828,-0.61383 -0.02117,-0.35983 0.232833,-0.635 0.571497,-0.65617 0.338664,-0.0212 0.613828,0.254 0.634995,0.61384 z"
             id="path928" />
          <path
             inkscape:connector-curvature="0"
             style="fill:#0293dc;fill-opacity:1;fill-rule:nonzero;stroke:none;stroke-width:0.26458332"
             d="m 37.142445,289.41629 c 0.02116,0.35983 -0.254,0.65616 -0.592664,0.65616 -0.317498,0.0212 -0.592662,-0.254 -0.613828,-0.61383 0,-0.35983 0.253997,-0.65616 0.592661,-0.65616 0.317498,-0.0212 0.613831,0.254 0.613831,0.61383 z"
             id="path930" />
          <path
             inkscape:connector-curvature="0"
             style="fill:#0293dc;fill-opacity:1;fill-rule:nonzero;stroke:none;stroke-width:0.26458332"
             d="m 37.904437,287.13031 c 0,0.35983 -0.253997,0.65616 -0.592661,0.65616 -0.338664,0.0212 -0.613828,-0.254 -0.613828,-0.61383 -0.02117,-0.35983 0.253997,-0.635 0.571494,-0.65617 0.338664,-0.0212 0.613828,0.254 0.634995,0.61384 z"
             id="path932" />
          <path
             inkscape:connector-curvature="0"
             style="fill:#0293dc;fill-opacity:1;fill-rule:nonzero;stroke:none;stroke-width:0.26458332"
             d="m 39.788257,280.01836 c 0.02117,0.63499 -0.444497,1.16415 -1.058325,1.18532 -0.592662,0.0212 -1.100659,-0.48683 -1.121826,-1.12182 -0.02117,-0.635 0.465664,-1.16416 1.058326,-1.18533 0.592664,-0.0212 1.100658,0.46566 1.121825,1.10066 z"
             id="path934" />
          <path
             inkscape:connector-curvature="0"
             style="fill:#0293dc;fill-opacity:1;fill-rule:nonzero;stroke:none;stroke-width:0.26458332"
             d="m 42.095408,280.01836 c 0.02117,0.63499 -0.444498,1.16415 -1.058326,1.18532 -0.592664,0.0212 -1.100658,-0.48683 -1.121825,-1.12182 -0.02117,-0.635 0.465661,-1.16416 1.058325,-1.18533 0.592662,-0.0212 1.100659,0.46566 1.121826,1.10066 z"
             id="path936" />
          <path
             inkscape:connector-curvature="0"
             style="fill:#0293dc;fill-opacity:1;fill-rule:nonzero;stroke:none;stroke-width:0.26458332"
             d="m 44.317889,280.01836 c 0,0.63499 -0.465661,1.16415 -1.058325,1.18532 -0.613828,0.0212 -1.100659,-0.48683 -1.121823,-1.12182 -0.02117,-0.635 0.444495,-1.16416 1.037159,-1.18533 0.613828,-0.0212 1.121823,0.46566 1.142989,1.10066 z"
             id="path938" />
          <path
             inkscape:connector-curvature="0"
             style="fill:#0293dc;fill-opacity:1;fill-rule:nonzero;stroke:none;stroke-width:0.26458332"
             d="m 41.037082,277.83821 c 0.02117,0.69849 -0.507997,1.29115 -1.164158,1.31232 -0.656162,0.0212 -1.206492,-0.52916 -1.227659,-1.22766 -0.02117,-0.69849 0.486831,-1.29115 1.142992,-1.31232 0.677328,-0.0212 1.227659,0.52916 1.248825,1.22766 z"
             id="path940" />
          <path
             inkscape:connector-curvature="0"
             style="fill:#0293dc;fill-opacity:1;fill-rule:nonzero;stroke:none;stroke-width:0.26458332"
             d="m 43.323064,277.83821 c 0.02117,0.69849 -0.486828,1.29115 -1.142992,1.31232 -0.677328,0.0212 -1.227656,-0.52916 -1.248823,-1.22766 -0.02117,-0.69849 0.507995,-1.29115 1.164159,-1.31232 0.656161,-0.0212 1.206489,0.52916 1.227656,1.22766 z"
             id="path942" />
          <path
             inkscape:connector-curvature="0"
             style="fill:#0293dc;fill-opacity:1;fill-rule:nonzero;stroke:none;stroke-width:0.26458332"
             d="m 45.609048,277.83821 c 0.02117,0.69849 -0.507997,1.29115 -1.164159,1.31232 -0.656161,0.0212 -1.206492,-0.52916 -1.227656,-1.22766 -0.02117,-0.69849 0.486828,-1.29115 1.14299,-1.31232 0.656161,-0.0212 1.227658,0.52916 1.248825,1.22766 z"
             id="path944" />
        </g>
      </g>
    </g>
  </g>
</svg>
