<?xml version="1.0" ?><svg id="Layer_1" style="enable-background:new 0 0 512 512;" version="1.1" viewBox="0 0 512 512" xml:space="preserve" xmlns="http://www.w3.org/2000/svg" xmlns:xlink="http://www.w3.org/1999/xlink"><style type="text/css">
	.st0{fill:#FFFFFF;}
	.st1{fill:#C60C30;}
	.st2{fill:#003478;}
	.st3{fill:#FF9933;}
	.st4{fill:#128807;}
	.st5{fill:#000088;}
	.st6{fill:#032774;}
	.st7{fill:#DF0333;}
	.st8{fill:#EE2B2C;}
	.st9{fill:#032767;}
	.st10{fill:#006747;}
	.st11{fill:#CD1225;}
	.st12{fill:#FBC942;}
	.st13{fill:#BD9B37;}
	.st14{fill:#9BA068;}
	.st15{fill:#707633;}
	.st16{fill:#006748;}
	.st17{fill:#CC2029;}
	.st18{fill:#30C1DB;}
	.st19{fill:#F7C740;}
	.st20{fill:#0C72A6;}
	.st21{fill:#F8A952;}
	.st22{fill:#943120;}
	.st23{fill:#231F20;}
	.st24{fill:#0B8388;}
	.st25{fill:#8BBDBE;}
	.st26{fill:#05534E;}
	.st27{fill:none;stroke:#39B54A;stroke-width:0.25;stroke-miterlimit:10;}
	.st28{fill:none;stroke:#00A651;stroke-miterlimit:10;}
	.st29{fill:none;stroke:#00A651;stroke-width:0.5;stroke-miterlimit:10;}
	.st30{fill:url(#SVGID_1_);}
	.st31{fill:url(#SVGID_2_);}
	.st32{fill:url(#SVGID_3_);}
	.st33{fill:url(#SVGID_4_);}
	.st34{fill:url(#SVGID_5_);}
	.st35{fill:url(#SVGID_6_);}
	.st36{fill:url(#SVGID_7_);}
	.st37{fill:url(#SVGID_8_);}
	.st38{fill:url(#SVGID_9_);}
	.st39{fill:url(#SVGID_10_);}
	.st40{fill:url(#SVGID_11_);}
	.st41{fill:url(#SVGID_12_);}
	.st42{fill:url(#SVGID_13_);}
	.st43{fill:url(#SVGID_14_);}
	.st44{fill:url(#SVGID_15_);}
	.st45{fill:#F8C73E;}
	.st46{fill:#77722F;}
	.st47{fill:#A7AB71;}
	.st48{fill:#949457;}
	.st49{fill:#AE6F2A;}
	.st50{fill:#FFF200;}
	.st51{fill:#C5C6A6;}
	.st52{fill:#A3A395;}
	.st53{fill:#4C2915;}
	.st54{fill:#8E4520;}
	.st55{fill:#D1A467;}
	.st56{fill:#AA6C2A;}
	.st57{fill:#DAAC6D;}
	.st58{fill:#8F4620;}
	.st59{fill:#BC7E2F;}
	.st60{fill:#E6E7E8;}
	.st61{fill:#F06D19;}
	.st62{fill:#19B43D;}
	.st63{fill:#07A3DC;}
	.st64{fill:#FBD023;}
	.st65{fill:#EC2938;}
	.st66{fill:#F9DF47;}
	.st67{fill:#0967C4;}
	.st68{fill:#C5A310;}
	.st69{clip-path:url(#SVGID_17_);}
	.st70{fill:#6FD7F2;}
	.st71{clip-path:url(#SVGID_19_);}
	.st72{fill:#FF0303;}
	.st73{fill:#FF6407;}
	.st74{fill:#FDFE1F;}
	.st75{fill:#00FE1E;}
	.st76{fill:#08CCFE;}
	.st77{fill:#120FFD;}
	.st78{fill:#810480;}
	.st79{fill:#0642A1;}
	.st80{fill:#02275F;}
	.st81{fill:#80A0D1;}
	.st82{fill:#FB3B3A;}
	.st83{fill:#FF0302;}
	.st84{fill:#520200;}
	.st85{fill:#940101;}
	.st86{clip-path:url(#SVGID_21_);}
	.st87{fill:#91BB35;}
	.st88{fill:#ECE62B;}
	.st89{fill:#C5CA2C;}
	.st90{fill:#95C82B;}
	.st91{fill:#009D4A;}
	.st92{fill:#BF0A30;}
	.st93{fill:#002868;}
	.st94{fill:#028832;}
	.st95{fill:#FBDC1D;}
	.st96{fill:#D91219;}
	.st97{fill:#0738A6;}
	.st98{fill:#FD0302;}
	.st99{fill:#060593;}
	.st100{fill:#115EAD;}
	.st101{fill:#C50C1E;}
	.st102{fill:#FEC315;}
	.st103{fill:#C7B011;}
	.st104{fill:#AC1518;}
	.st105{fill:#028E6E;}
	.st106{fill:#CBCBCB;}
	.st107{fill:#095BBD;}
	.st108{fill:#C7B013;}
	.st109{fill:#00AEEF;}
	.st110{fill:#C7B112;}
	.st111{fill:#FED592;}
	.st112{fill:#028D6E;}
	.st113{fill:#C7B012;}
	.st114{fill:#C6B011;}
	.st115{fill:#103BEE;}
	.st116{fill:#DB4445;}
	.st117{fill:#EC72A9;}
	.st118{fill:#006133;}
	.st119{fill:#D11133;}
	.st120{fill:#042B7D;}
	.st121{fill:#FEC527;}
	.st122{fill:#BF920D;}
</style><g id="XMLID_5157_"><g id="XMLID_5167_"><path class="st97" d="M512,256H0c0-62.8,22.7-120.4,60.5-165.1C107.5,35.4,177.7,0,256,0    C397.1,0,512,114.8,512,256z" id="XMLID_5169_"/><path class="st11" d="M512,256c0,141.1-114.9,256-256,256c-78.4,0-148.5-35.4-195.5-91C22.7,376.4,0,318.8,0,256    H512z" id="XMLID_5168_"/></g><g id="XMLID_5158_"><path class="st0" d="M346.2,256L60.5,421C22.7,376.4,0,318.8,0,256S22.7,135.6,60.5,90.9L346.2,256z" id="XMLID_5166_"/><g id="XMLID_5159_"><path class="st64" d="M222.4,260.6l4.4-4.6l-4.4-4.7l-34.8,2.4c-0.1-0.8-0.1-1.6-0.2-2.4l31.3-4l-3.9-4.1     l-27.7,6c-0.9-4.7-2.7-9-5.3-12.8l23.9-15.3l-0.2-5.7l-24.9,19.3c-0.5-0.6-1-1.2-1.5-1.8l26.2-23l-0.2-6.4l-6.3-0.2l-23,26.2     c-0.6-0.5-1.2-1-1.8-1.4l19.3-24.9l-5.7-0.2l-15.3,23.8c-3.8-2.5-8.1-4.4-12.8-5.2l6-27.7l-4.1-3.9l-4,31.3     c-0.8-0.1-1.6-0.2-2.4-0.2l2.3-34.8l-4.6-4.4l-4.6,4.4l2.3,34.8c-0.7,0.1-1.6,0.1-2.3,0.2l-4-31.3l-4.1,3.9l6,27.7     c-4.7,0.9-9,2.7-12.8,5.2l-15.3-23.8l-5.6,0.2l19.3,24.9c-0.6,0.5-1.2,0.9-1.8,1.4l-23-26.2l-6.3,0.2l-0.2,6.4l26.3,23     c-0.5,0.6-1,1.2-1.5,1.8l-24.9-19.3l-0.1,5.7l23.8,15.3c-2.6,3.8-4.4,8.1-5.3,12.8l-27.7-6l-3.9,4.1l31.2,4     c-0.1,0.8-0.2,1.6-0.2,2.4l-34.8-2.4L79,256l4.4,4.6l34.8-2.3c0.1,0.7,0.1,1.6,0.2,2.3l-31.2,4l3.9,4.1l27.7-6     c0.9,4.7,2.7,9,5.3,12.8l-23.8,15.3l0.1,5.6l24.9-19.3c0.5,0.6,1,1.2,1.5,1.8l-26.3,23l0.2,6.4l6.3,0.2l23-26.2     c0.6,0.5,1.2,1,1.8,1.5l-19.3,24.9l5.6,0.1l15.3-23.8c3.8,2.5,8.1,4.4,12.8,5.3l-6,27.7l4.1,3.9l4-31.2c0.7,0.1,1.6,0.2,2.3,0.2     l-2.3,34.8l4.6,4.4l4.6-4.4l-2.3-34.8c0.8-0.1,1.6-0.2,2.4-0.2l4,31.2l4.1-3.9l-6-27.7c4.7-0.9,9-2.8,12.8-5.3l15.3,23.8l5.7-0.1     L174,283.6c0.6-0.5,1.2-1,1.8-1.5l23,26.2l6.3-0.2l0.2-6.4l-26.2-23c0.5-0.6,1-1.1,1.5-1.8l24.9,19.3l0.2-5.6l-23.9-15.3     c2.6-3.8,4.4-8.1,5.3-12.8l27.7,6l3.9-4.1l-31.3-4c0.1-0.7,0.2-1.6,0.2-2.3L222.4,260.6z" id="XMLID_5165_"/><g id="XMLID_5160_"><polygon class="st64" id="XMLID_5164_" points="298,237.7 298,251.7 311.3,256 298,260.3 298,274.3 289.8,262.9 276.5,267.3       284.7,255.9 276.5,244.7 289.8,249     "/><g id="XMLID_5161_"><polygon class="st64" id="XMLID_5163_" points="89.1,375.6 78.7,384.8 84.3,397.6 72.3,390.6 61.8,399.9 64.8,386.3        52.7,379.2 66.6,377.8 69.6,364.2 75.2,377      "/><polygon class="st64" id="XMLID_5162_" points="61.9,112.1 72.3,121.4 84.3,114.4 78.7,127.2 89.1,136.5 75.2,135 69.6,147.8        66.6,134.2 52.7,132.7 64.8,125.7      "/></g></g></g></g></g></svg>