<?xml version="1.0" ?><svg id="Layer_1" style="enable-background:new 0 0 512 512;" version="1.1" viewBox="0 0 512 512" xml:space="preserve" xmlns="http://www.w3.org/2000/svg" xmlns:xlink="http://www.w3.org/1999/xlink"><style type="text/css">
	.st0{fill:#FFFFFF;}
	.st1{fill:#C60C30;}
	.st2{fill:#003478;}
	.st3{fill:#FF9933;}
	.st4{fill:#128807;}
	.st5{fill:#000088;}
	.st6{fill:#032774;}
	.st7{fill:#DF0333;}
	.st8{fill:#EE2B2C;}
	.st9{fill:#032767;}
	.st10{fill:#006747;}
	.st11{fill:#CD1225;}
	.st12{fill:#FBC942;}
	.st13{fill:#BD9B37;}
	.st14{fill:#9BA068;}
	.st15{fill:#707633;}
	.st16{fill:#006748;}
	.st17{fill:#CC2029;}
	.st18{fill:#30C1DB;}
	.st19{fill:#F7C740;}
	.st20{fill:#0C72A6;}
	.st21{fill:#F8A952;}
	.st22{fill:#943120;}
	.st23{fill:#231F20;}
	.st24{fill:#0B8388;}
	.st25{fill:#8BBDBE;}
	.st26{fill:#05534E;}
	.st27{fill:none;stroke:#39B54A;stroke-width:0.25;stroke-miterlimit:10;}
	.st28{fill:none;stroke:#00A651;stroke-miterlimit:10;}
	.st29{fill:none;stroke:#00A651;stroke-width:0.5;stroke-miterlimit:10;}
	.st30{fill:url(#SVGID_1_);}
	.st31{fill:url(#SVGID_2_);}
	.st32{fill:url(#SVGID_3_);}
	.st33{fill:url(#SVGID_4_);}
	.st34{fill:url(#SVGID_5_);}
	.st35{fill:url(#SVGID_6_);}
	.st36{fill:url(#SVGID_7_);}
	.st37{fill:url(#SVGID_8_);}
	.st38{fill:url(#SVGID_9_);}
	.st39{fill:url(#SVGID_10_);}
	.st40{fill:url(#SVGID_11_);}
	.st41{fill:url(#SVGID_12_);}
	.st42{fill:url(#SVGID_13_);}
	.st43{fill:url(#SVGID_14_);}
	.st44{fill:url(#SVGID_15_);}
	.st45{fill:#F8C73E;}
	.st46{fill:#77722F;}
	.st47{fill:#A7AB71;}
	.st48{fill:#949457;}
	.st49{fill:#AE6F2A;}
	.st50{fill:#FFF200;}
	.st51{fill:#C5C6A6;}
	.st52{fill:#A3A395;}
	.st53{fill:#4C2915;}
	.st54{fill:#8E4520;}
	.st55{fill:#D1A467;}
	.st56{fill:#AA6C2A;}
	.st57{fill:#DAAC6D;}
	.st58{fill:#8F4620;}
	.st59{fill:#BC7E2F;}
	.st60{fill:#E6E7E8;}
	.st61{fill:#F06D19;}
	.st62{fill:#19B43D;}
	.st63{fill:#07A3DC;}
	.st64{fill:#FBD023;}
	.st65{fill:#EC2938;}
	.st66{fill:#F9DF47;}
	.st67{fill:#0967C4;}
	.st68{fill:#C5A310;}
	.st69{clip-path:url(#SVGID_17_);}
	.st70{fill:#6FD7F2;}
	.st71{clip-path:url(#SVGID_19_);}
	.st72{fill:#FF0303;}
	.st73{fill:#FF6407;}
	.st74{fill:#FDFE1F;}
	.st75{fill:#00FE1E;}
	.st76{fill:#08CCFE;}
	.st77{fill:#120FFD;}
	.st78{fill:#810480;}
	.st79{fill:#0642A1;}
	.st80{fill:#02275F;}
	.st81{fill:#80A0D1;}
	.st82{fill:#FB3B3A;}
	.st83{fill:#FF0302;}
	.st84{fill:#520200;}
	.st85{fill:#940101;}
	.st86{clip-path:url(#SVGID_21_);}
	.st87{fill:#91BB35;}
	.st88{fill:#ECE62B;}
	.st89{fill:#C5CA2C;}
	.st90{fill:#95C82B;}
	.st91{fill:#009D4A;}
	.st92{fill:#BF0A30;}
	.st93{fill:#002868;}
	.st94{fill:#028832;}
	.st95{fill:#FBDC1D;}
	.st96{fill:#D91219;}
	.st97{fill:#0738A6;}
	.st98{fill:#FD0302;}
	.st99{fill:#060593;}
	.st100{fill:#115EAD;}
	.st101{fill:#C50C1E;}
	.st102{fill:#FEC315;}
	.st103{fill:#C7B011;}
	.st104{fill:#AC1518;}
	.st105{fill:#028E6E;}
	.st106{fill:#CBCBCB;}
	.st107{fill:#095BBD;}
	.st108{fill:#C7B013;}
	.st109{fill:#00AEEF;}
	.st110{fill:#C7B112;}
	.st111{fill:#FED592;}
	.st112{fill:#028D6E;}
	.st113{fill:#C7B012;}
	.st114{fill:#C6B011;}
	.st115{fill:#103BEE;}
	.st116{fill:#DB4445;}
	.st117{fill:#EC72A9;}
	.st118{fill:#006133;}
	.st119{fill:#D11133;}
	.st120{fill:#042B7D;}
	.st121{fill:#FEC527;}
	.st122{fill:#BF920D;}
</style><g id="XMLID_4365_"><g id="XMLID_4452_"><path class="st11" d="M497.3,170.7H14.7c5.3-14.9,11.9-29.2,19.7-42.7C78.7,51.6,161.5,0,256,0    c94.5,0,177.3,51.5,221.6,128C485.5,141.5,492.1,155.7,497.3,170.7z" id="XMLID_4455_"/><path d="M497.3,341.3c-5.3,14.9-11.9,29.1-19.7,42.6C433.3,460.4,350.5,512,256,512    c-94.6,0-177.3-51.5-221.7-128c-7.8-13.5-14.4-27.8-19.7-42.6H497.3z" id="XMLID_4454_"/><path class="st0" d="M512,256c0,29.9-5.2,58.7-14.7,85.3H14.7C5.2,314.7,0,285.9,0,256s5.2-58.7,14.7-85.3h482.7    C506.8,197.3,512,226.1,512,256z" id="XMLID_4453_"/></g><g id="XMLID_4366_"><path class="st122" d="M226.2,321.6c-0.2-0.1-0.5-0.2-0.7-0.1l-1,0.3c-0.3,0.1-0.5,0.5-0.4,0.8    c0,0,0.4,0.5,0.7,0.5l-0.5,1.8l-2.8-0.7l1-3c0.1-0.2,0-0.5,0-0.5l-0.9-0.3l-1,0.3c0,0-0.6,0.5-0.5,0.9c0.1,0.3,0.3,0.5,0.3,0.5    l-0.3,1.9l-1.9-0.5l2-6.7c0,0,0-0.6-0.3-0.7l-0.8,0.1c-0.2,0.2-1.4,0.3-2.4,0.2c-0.3,0-0.7,0.2-0.7,0.2c-0.1,0.7,0.2,1.1,0.2,1.1    c0.7,0.1,1.5,0.1,2.3,0l-1,3.2c-2.2,0.1-3.1,2-3.1,2c-0.1,0.3-0.1,0.5-0.1,0.6l0.4,0.4l2.3,0.7h0.1v0.1l2.9,0.7    c0.1,0.1,0.1,0.1,0.1,0.1l0.3,0.1h0.1l3.8,1h0.2c0.3,0,0.6-0.2,0.7-0.5l1-3.6L226.2,321.6z M217,322.9l-0.8-0.3    c0.2-0.2,0.6-0.5,0.6-0.5L217,322.9z" id="XMLID_4448_"/><path class="st122" d="M240.1,319.9c-0.2-0.3-0.6-0.3-0.9,0l-0.5,0.5c-0.1,0.1-0.2,0.3-0.2,0.3v3.2    c0,2.6-0.9,4.8-1.1,5.1c0,0-0.3,0.2-0.5,0.2c0,0,0-0.7,0.1-1.1c0,0,0-0.2-0.1-0.3c-0.1-0.3-0.6-0.8-1.4-0.8h-0.2    c-0.1-0.3-0.2-0.6-0.4-1l1.6-0.5c0,0,0.3-0.3,0.4-0.5c0.1-0.2,0-0.5-0.1-0.6l-1-1.1l-1.1-1.4c-0.1-0.2-0.3-0.2-0.3-0.2    c-0.4-0.1-0.6,0-0.6,0l-0.9,0.9c-0.2,0.2-1,0.6-1.7,1c-0.2,0.1-0.3,0.3-0.3,0.5l0.2,0.6l1.4,1.2c-0.3,0.3-0.6,0.6-1,0.7    c-0.6,0.1-1.7-0.2-2.5-0.3c0.2-1.3-0.4-2.4-0.4-2.4s-0.6-0.5-0.9-0.3c-0.3,0.2-0.5,0.6-0.5,0.6s0.7,1.6,0.3,2.6    c-0.3,0.7-1.1,1.1-2.3,1.4l-0.5,0.8c0.1,0.3,0.4,0.5,0.7,0.5l0.1-0.1c1.5-0.3,2.5-0.9,3.1-1.9c0.7,0.2,2.1,0.5,3,0.4    c0.9-0.1,1.6-0.7,2-1.3c0.2,0.3,0.3,0.5,0.3,0.5c0,1.3,0.9,1.3,1.5,1.3h0.1c-0.1,0.9-0.1,1.8,0.6,2.1c0.2,0.1,0.5,0.2,0.5,0.2    c0.7,0,1.3-0.2,1.7-0.6c0.6-0.6,1.5-3.3,1.5-6.1v-2.7l0.3-0.3C240.3,320.5,240.3,320.1,240.1,319.9z M233.7,324.9l-1-0.8    c0.5-0.3,1-0.6,1-0.6l0.4-0.3l0.6,0.8v0.1l0.3,0.4L233.7,324.9z" id="XMLID_4444_"/><path class="st122" d="M242,328.3l0.5-6.3c0.2,0.1,0.5,0,0.7-0.2c0.3-0.2,0.3-0.7,0-1l-0.7-0.7l-0.7-0.2    c-0.3,0.1-0.5,0.3-0.5,0.3l-0.6,7.9c-0.1,0.4,0.2,0.7,0.6,0.7l0,0C241.7,329,242,328.7,242,328.3z" id="XMLID_4443_"/><path class="st122" d="M261.9,329l-0.7-2.9c-0.1-0.2-0.2-0.3-0.3-0.4c0,0-0.4-0.1-0.6-0.1c0,0-2.4,0.9-2.7,2.9    h-1l-0.2-1.8c-0.1-0.3-0.3-0.6-0.6-0.6l-6.8-0.3v-0.8l-0.3-0.5l-0.6-0.1l-0.8,0.3c-0.3,0.1-0.5,0.5-0.4,0.9c0,0,0.5,0.5,0.7,0.4    v2.2l-1.1-0.1c-0.2-1.1-1-2.1-1-2.1c-0.3-0.3-0.7-0.3-0.7-0.3c-0.5,0.5-0.6,0.9-0.3,1.2c0.2,0.3,1,1.4,0.8,2.2    c-0.2,0.7-1.3,1.3-3.1,1.5c-0.4,0.1-0.6,0.4-0.6,0.7c0,0,0.3,0.6,0.6,0.6h0.1c2.3-0.3,3.7-1.1,4.1-2.4l0.1-0.1l6.3,0.5    c0.1,0.5,0.2,1.2,0.7,1.6c0.2,0.2,0.6,0.5,1.1,0.5c0.1,0,0.2-0.1,0.2-0.1c1.3-0.2,1.8-1.2,1.8-2.1h4.6l0.5-0.2L261.9,329z     M254.7,330.6c-0.2,0-0.3-0.1-0.3-0.1s-0.3-0.9-0.3-1.2c0,0-0.2-0.7-0.6-0.7l-4.4-0.3v-1.1l6.1,0.3l0.2,1.8    C255.3,329.3,255.5,330.5,254.7,330.6z M259,328.6c0.2-0.6,0.7-1,1.1-1.3l0.3,1.3H259z" id="XMLID_4438_"/><path class="st122" d="M270.5,324.5h-0.6c-0.3,0.2-0.7,0.3-0.9,0.4c0,0-0.6,0.3-0.6,0.6l0.7,0.7    c0.1,0,0.2,0,0.2,0l0.3,1.7l-2,0.3l-0.8-7.2c0-0.2-0.2-0.5-0.2-0.5c-0.5-0.2-0.7-0.1-1,0.1l-0.6,0.6c-0.3,0.2-0.3,0.7-0.1,0.9    c0.2,0.2,0.4,0.3,0.4,0.3l0.6,3.4c-1.5,0.7-2.3,1.7-2.3,3.2v0.1c0,0,0,0.3,0.1,0.5c0,0,0.2,0.3,0.7,0.3c0.5,0,1.2-0.1,2.6-0.2    l3.2-0.5l0.6-0.7v-3.4C270.8,324.8,270.7,324.6,270.5,324.5z M265,328.5c0.1-0.4,0.3-0.9,1.1-1.3l0.1,1.1    C265.7,328.5,265.3,328.5,265,328.5z" id="XMLID_4434_"/><path class="st122" d="M273.2,325c-0.3-0.2-0.7-0.2-0.9,0.1c0,0-0.2,0.7,0.1,1c0,0,1.8,1.4,1.3,2.8    c-0.6,1.4-2,1.6-2,1.6c-0.5,0.1-0.8,0.3-0.7,0.7c0,0,0.3,0.6,0.7,0.6l0,0c0,0,2.4-0.2,3.2-2.5C275.7,327.1,273.3,325.1,273.2,325z    " id="XMLID_4433_"/><path class="st122" d="M297.4,322.9l-2.7,0.5c-0.3-1.1-1-3.6-1.8-5.1c-0.6-1.3-1.4-1.6-2.1-1.7    c-0.9-0.2-1.8,0.3-1.8,0.3c-0.6,0.6-0.6,1-0.3,1.3h0.9c0,0,0.6-0.3,1-0.2c0.5,0.1,0.8,0.5,1,0.9c0.7,1.6,1.4,3.8,1.7,4.9l-1.3,0.6    c0-0.1-0.1-0.1-0.1-0.1c-2.5-1.1-2.8-0.9-3-0.6c-0.2,0.2-0.8,1-1.1,1.5l-0.7,0.2c-0.2-1-0.9-2.5-2.1-2.5c0,0-0.9,0-1.4,0.1    c-0.1-0.6-0.2-1.1-0.4-1.7c0,0-0.4-0.6-0.8-0.5c-0.3,0.1-0.6,0.4-0.5,0.8c0.1,0.5,0.2,1.1,0.3,1.7c-0.2,0.1-0.4,0.2-0.4,0.2    c-0.6,0.4-1.2,1-1.3,2.9l-1,0.2c-0.2-1.7-0.4-2-0.4-2c-0.6-0.2-0.9-0.2-0.9-0.2l-2.5,1.8c-0.2,0.2-0.3,0.4-0.3,0.4l0.3,1.3    c0.1,0.3,0.5,0.6,0.8,0.5l1.7-0.3c-0.2,1.3-1.5,1.6-1.5,1.6c-0.5,0.1-0.7,0.3-0.7,0.3c0,0.7,0.3,1,0.7,1c0.2,0,1.3-0.3,2-1.1    c0.6-0.6,0.9-1.3,0.9-2.1l3.6-0.6c0.3,0.8,0.5,1.4,0.7,1.6c0,0,0.7,0.5,1.1,0.5c0,0,0.7-0.1,1.1-0.2c0,0,1.1-0.5,1.1-1.3v-1.3    l0.6-0.2l0.2,0.1c0.6,0.2,2.2,0.7,2.9,0.5c0.7-0.2,0.9-0.9,1-1.5l2.1-0.8l3.2-0.6c0.4-0.1,0.6-0.5,0.6-0.8    C298.1,323.1,297.8,322.9,297.4,322.9z M277.2,327.1l1.1-0.8l0.1,0.6L277.2,327.1z M282.1,326.3c0.1-1.2,0.4-1.4,0.4-1.4l0.2-0.2    c0.1,0.5,0.2,1,0.3,1.4L282.1,326.3z M284,324.3c0.3,0,0.7-0.1,0.7-0.1c0.6,0,0.9,0.6,1.1,1.3l-1.5,0.3    C284.2,325.4,284.1,324.9,284,324.3z M286.3,327.8c0,0-0.5,0.3-0.9,0.3l-0.2-0.1c-0.1-0.1-0.2-0.5-0.4-0.9l1.5-0.2V327.8z     M290.8,325.8c0,0-0.9-0.1-1.6-0.3c0.2-0.2,0.4-0.5,0.5-0.7c0.3,0.1,0.7,0.3,1.2,0.5C291,325.5,290.8,325.8,290.8,325.8z" id="XMLID_4425_"/><path class="st122" d="M264.2,322.4c0-0.5-0.4-0.9-0.4-0.9c-0.9,0-1.3,0.4-1.3,0.9c0,0.4,0.4,0.8,0.9,0.8    C263.4,323.2,264.2,322.8,264.2,322.4z" id="XMLID_4424_"/><path class="st122" d="M216.2,319.8c0,0,0.8-0.3,0.8-0.8s-0.4-0.8-0.4-0.8c-0.9,0-1.3,0.3-1.3,0.8    S215.8,319.8,216.2,319.8z" id="XMLID_4423_"/><path class="st122" d="M216.6,324.9c-0.4,0-0.8,0.4-0.8,0.8c0,0.5,0.4,0.8,0.8,0.8c0.5,0,0.8-0.3,0.8-0.8    C217.4,325.4,217,324.9,216.6,324.9z" id="XMLID_4422_"/><path class="st122" d="M218.9,325.7c-0.5,0-0.8,0.3-0.8,0.3c0,0.9,0.3,1.3,0.8,1.3c0.5,0,0.8-0.3,0.8-0.8    C219.7,326.5,219.3,325.7,218.9,325.7z" id="XMLID_4421_"/><path class="st122" d="M222.4,326.7c-0.5,0-0.8,0.3-0.8,0.8s0.3,0.8,0.8,0.8s0.8-0.3,0.8-0.8    S222.8,326.7,222.4,326.7z" id="XMLID_4420_"/><path class="st122" d="M264.5,324.5c0-0.4-0.4-0.8-0.8-0.8c-0.5,0-0.9,0.4-0.9,0.8c0,0.5,0.4,0.9,0.9,0.9    C264.1,325.4,264.5,325,264.5,324.5z" id="XMLID_4419_"/><path class="st122" d="M266.2,330.5c-0.5,0-0.9,0.3-0.9,0.8s0.4,0.8,0.9,0.8c0,0,0.8-0.3,0.8-0.8    S266.6,330.5,266.2,330.5z" id="XMLID_4418_"/><path class="st122" d="M268.2,330.3c-0.5,0-0.9,0.3-0.9,0.3c0,0.9,0.4,1.3,0.9,1.3c0.4,0,0.8-0.3,0.8-0.8    C269,331.2,268.6,330.3,268.2,330.3z" id="XMLID_4417_"/><path class="st122" d="M295,326c-0.4,0-0.8,0.4-0.8,0.9c0,0.4,0.4,0.8,0.8,0.8c0.5,0,0.9-0.4,0.9-0.8    C295.9,326.4,295.5,326,295,326z" id="XMLID_4416_"/><path class="st122" d="M315.8,312.7v-0.3c-0.1-1.3-0.1-2.5-0.1-3.7l-0.3-7.1c-0.1-3.2-0.3-6.3-0.4-9.5l-2.2-49    c-0.1-3.8-0.3-7.6-0.5-11.4l-0.9-19c-0.2-3.3-2.1-8.9-6.5-9.8c-7.1-1.3-13.3,2-18.7,5c-1.2,0.6-2.4,1.3-3.4,1.8    c-2.4,1.1-7,1.8-11.8,2.1c-0.6-1-1.3-2.2-1.8-3.7c-0.6-1.4-1.1-3-1.4-4.9c-0.7-4.4-0.6-8.2-0.5-11.1c0-1,0.1-2,0.1-2.9    c0-3.7-0.6-6.7-1.8-8.8c0,0-0.1-0.3-0.2-0.4c-1.2-2-2.9-3.2-5.1-3.7c-1.9-0.3-3.3-0.7-4.3-0.9c-2.5-0.6-3-0.7-3.8-0.3    c-0.5,0.2-0.7,0.5-0.7,0.5c-1.6-0.1-4.9-0.9-7.1-0.4c-1.6,0.3-3,0.9-3.7,2.7l-0.1,0.3l-0.1,0.3c-0.3,0.9-0.3,2.1-0.2,3.6v0.1v0.1    v0.1l0.1,0.1l0.1,0.1v0.1l0.1,0.1l0.1,0.1l0,0l0.1,0.1l0,0h0.1h0.1l0,0h0.1h0.1h0.1l0.1-0.1l0,0l0.1-0.1l0.1-0.1l0.1-0.1    c0-0.1,0-0.1,0-0.1c0.1-0.1,0.3-0.1,0.7-0.3l0.7-0.3c0.5-0.2,1-0.2,1-0.2c1.8,0.4,2.9,1.8,3.7,3c0.5,0.7,0.7,1.4,0.9,2.4    c0.2,0.7,0.2,1.4,0.3,2.2c0.1,2.1,0,3.8-0.4,5.3l-0.1,0.6c-0.9,3.5-2.8,11-7,16.8c-4.9-0.3-9.7-0.9-12.1-2.1    c-1.1-0.5-2.2-1.1-3.4-1.8c-5.5-3-11.7-6.3-18.7-5c-4.5,0.9-6.4,6.4-6.6,9.8l-0.8,19c-0.2,3.8-0.3,7.6-0.5,11.4l-2.1,49    c-0.1,3.2-0.3,6.3-0.4,9.5l-0.3,7.1c-0.1,1.3-0.1,2.5-0.1,3.7v0.3c-0.1,0.2-0.1,0.4-0.1,0.4s0.5,0.3,0.6,0.3l0.3-0.1l0.1-0.1    l7-6.3c0.8-0.6,1.6-1.4,2.4-2.1l0.4-0.3l9.1-8.2l0.1-0.1l0.3-0.3l4.6-4.1c1-0.9,2-1.8,3-2.8l0.4-0.4c1.1-1,2.2-2,3.3-2.9    l-6.2,21.9c-1-0.3-2.1-0.7-3.1-1.1c-0.8-0.3-1.7-0.2-2.4,0.3l-0.1,0.1l-0.1,0.1c-0.6,0.1-3.5,0.7-4.8,2.9c-0.6,1-0.8,2.4-0.4,3.8    c-0.2,0.5-0.3,1.1-0.5,1.8c-1.1,0.1-3,0.9-4.8,4.2h-1.4c0,0-0.7,0.3-0.7,0.7l0.6,0.8l1.1,0.3c0.2,1.3,0.7,4.4,2.8,5.5    c0,0,0.1,0.6,0.2,1c0.2,1.5,0.5,3.5,3.1,4.5c3.2,1.3,23.7,4.8,40.7,4.7c2.8,0,5.6,0,8.3,0h1.2c16.8,0,36.4-3.4,39.6-4.7    c2.6-1,2.9-3,3.1-4.5c0.1-0.4,0.1-0.8,0.1-0.8c2.1-1.3,2.7-4.4,2.9-5.7l1.1-0.3c0.3-0.1,0.6-0.5,0.6-0.8c-0.1-0.4-0.4-0.7-0.8-0.7    h-1.4c-1.8-3.3-3.7-4.1-4.8-4.2c-0.1-0.7-0.3-1.3-0.5-1.8c0.4-1.4,0.2-2.8-0.4-3.8c-1.3-2.2-4.2-2.8-4.8-2.9v-0.1l-0.1-0.1    c-0.6-0.5-1.6-0.6-2.3-0.3c-1.1,0.4-2.1,0.8-3.1,1.1l-6.2-21.9c1.2,1.1,2.5,2.2,3.7,3.3c0.9,0.8,1.7,1.6,2.6,2.4    c0.2,0.1,0.3,0.2,0.3,0.2l5.1,4.6l0.1,0.1l2.6,2.4l6.8,6.1c0.8,0.7,1.6,1.5,2.4,2.1l7,6.3v0.1c0.1,0.1,0.2,0.1,0.2,0.1l0.6-0.2    C315.7,313.2,315.9,312.8,315.8,312.7z M255,178.5c0.6,0,1.2,0.5,1.2,1.1c0,0.6-0.6,1.1-1.2,1.1c-0.6,0-1.1-0.5-1.1-1.1    C253.8,179.1,254.4,178.5,255,178.5z M241.8,213c0.3-0.3,0.6-0.7,0.8-1.1c0.2-0.4,0.5-0.7,0.7-1.1s0.5-0.7,0.7-1.1    c0,0,0.2-0.4,0.3-0.6l0.3-0.6c0.2-0.5,0.4-0.9,0.4-0.9c0.3-0.6,0.3-0.7,0.4-0.8l0.3-0.7c0.1-0.3,0.2-0.5,0.3-0.7    c0-0.1,0-0.1,0-0.1l0.2-0.4c0.1-0.3,0.2-0.6,0.3-0.9c0,0,0.2-0.3,0.2-0.5c0,0,0.2-0.6,0.3-0.8c0.2-0.6,0.4-1.3,0.6-1.8    c0.1-0.2,0.1-0.3,0.1-0.3l0.2-0.7l0.1-0.5c0.5-1.7,0.9-3.1,1.2-4.1l0.1-0.6c0.4-1.6,0.5-3.4,0.4-5.6c-0.1-0.8-0.1-1.6-0.3-2.4    l-0.1-0.6c0.6-0.5,1.7-0.2,3.5-0.2c-3.8-5.7-6-6.2-8-6.7c-1.7-0.3-2.5,0.8-2.9,1.6c-0.1,0.1-0.3,0.2-0.3,0.2s-0.3,0.1-0.4,0.2    c-0.1-0.6,0-1.3,0.1-1.8l0.1-0.5v-0.2l0.3-0.6c0.4-0.4,1-0.6,1.5-0.7c0.8-0.1,1.5-0.2,2.3-0.2c0.6,0,1.1,0.1,1.7,0.6    c1,0.9,2.1,1.7,3.2,2.4c0.7,0.5,1.8,1.1,2.6,1.1c0,0,0.5,0.5,0.7,0.7c0.3,0.3,0.6,0.5,1,0.5c0.7,0.1,1.3-0.3,1.5-0.9    c0.2-0.3,0.8-0.6,1.1-0.7c0.6-0.2,1.3-0.5,1.9-0.6c0.7-0.2,1.5-0.3,2.3-0.3c0.8,0,1.9,0,2.5,0.7c0,0,0.2,0.2,0.2,0.3    c0,0,0.3,0.7,0.5,1.1c0.2,0.6,0.4,1.2,0.6,1.8c0.4,1.6,0.5,3.2,0.6,4.8v0.6c0,0.9-0.1,1.8-0.1,2.8c-0.2,3-0.3,6.8,0.5,11.4    c0.6,3.7,1.9,6.4,3.1,8.5c0.2,0.4,0.4,0.8,0.6,1.1c0.3,0.4,0.6,0.8,0.8,1.1c-1.7-0.1-2.9-0.5-3.7-1c-0.7-0.3-1.1-0.7-1.1-0.7    c-0.2-0.2-0.2-0.3-0.2-0.3c-0.2-0.5-0.4-1-0.6-1.4c-0.6-1.5-1.3-3.1-1.8-4.7c-1.1-3.8-1.6-10.8-1.6-10.8c0-0.4-0.3-0.6-0.3-0.6    c-0.6,0-0.9,0.3-0.8,0.6c0,0,0.3,7.2,1.6,11.1c0.5,1.6,1.1,3.2,1.8,4.8l0.3,0.9c0.2,0.4,0.3,0.8,0.3,0.8c0.5,1.3,0.8,2.2,1,2.9    c-1.6-0.3-3.8-1.4-5.3-2.5c-0.5-0.3-0.9-0.7-1.1-1v-0.2c-1-4.1-0.9-17.3-0.9-17.3c0-0.5-0.2-0.7-0.2-0.7c-0.6,0-0.9,0.2-0.9,0.6    c0,0.6,0,12.9,0.9,17.4c0,0.1,0.1,0.2,0.1,0.2s-0.3,0.6-0.6,1s-0.7,0.8-1.4,1.5c-0.2,0.2-0.4,0.5-0.4,0.5    c-0.4,0.2-0.6,0.1-0.6,0.1c-0.7-0.6-1.4-1.3-2-2c-0.3-0.4-0.6-0.8-0.9-1.1l0,0c2.8-4.3,3.3-10.2,3.6-17.8c0,0-0.2-0.6-0.5-0.6    l-0.6,0.6c-0.3,7.8-0.9,13.7-3.9,17.8c-0.3,0.4-0.6,0.8-0.6,0.8c-1.2,1.3-2.3,2.1-3.6,2.8c0.1-0.7,0.3-1.6,0.5-2.5    c0,0,0.2-0.7,0.2-1.1l0.1-0.3c2.1-2.9,4.2-7.9,5.5-16.8c0,0-0.1-0.6-0.5-0.7c0,0-0.6,0.2-0.6,0.5c-1.5,10-3.8,14.9-6.1,17.3    c-0.5,0.5-0.9,0.9-1.3,1.1c-0.7,0.5-1.4,0.8-2.1,1c-0.7,0.2-1.3,0.3-1.9,0.3C241.1,214.1,241.5,213.5,241.8,213z M233.8,283.6    l2.5,6.6l0.3,0.2c0.1,0.1,0.3,0,0.3,0l4.3-5.8l2.1,10.5c-2.1,3-3.8,5.6-4.7,6.8c-0.4-1.2-1.2-3.6-2.5-7.1c0,0-0.2-0.2-0.3-0.3    c-0.2,0-0.3,0.1-0.3,0.1l-4.5,6.7l-3.4-11.5L233.8,283.6z M278.4,310.4l-3.6-4.9c-0.1-0.1-0.2-0.2-0.2-0.2l-0.5,0.3l-2.1,5.3    c-1.4,0.1-2.7,0.1-3.8,0l-1.4-6.3l1.7-8.4c4.9,7,4.9,7,5.3,6.9l0.3-0.4c0.1-0.4,1.4-4.2,2.4-7l4.3,6.4L278.4,310.4z M281.4,303.1    l4.1,6.1c-2.2,0.5-4.3,0.9-6.3,1.1L281.4,303.1z M277.5,310.6c-1.6,0.2-3.2,0.3-4.5,0.3l1.7-4.3L277.5,310.6z M260.2,312.1    c-1.3,0-2.3,0.4-2.9,1.2c-0.3,0.4-0.5,0.9-0.6,1.5h-1.6c-0.1-0.6-0.2-1.1-0.5-1.5c-0.6-0.8-1.6-1.2-2.9-1.2    c-0.3-0.5-1-1.1-2.4-1.3c-0.5-0.1-1.4-0.1-2.7,0c-0.6,0.1-1.2,0.1-2,0.1l1-4.6l2,3.2c0.1,0.2,0.4,0.3,0.4,0.3l3.4-3l0.1-0.2    l2.5-19.4l-1.2,19.5l0.1,0.3l2.8,3.3c0.2,0.2,0.5,0.2,0.5,0.2l2.9-3.4l0.1-0.3l-1.2-19.5l2.5,19.4l0.1,0.2l3.2,2.9    c0.2,0.2,0.5,0.1,0.5,0.1l2.1-3.4l1,4.6c-0.7-0.1-1.3-0.1-1.9-0.1c-1.3-0.1-2.1-0.1-2.6,0C261.3,311,260.6,311.6,260.2,312.1z     M260.7,314.8L260.7,314.8c0.1,0,0.2,0.3,0.3,0.5c0,0,0.4,0.6,0.7,0.8l-0.1,0.3c-0.2,0.6-0.8,1-1.5,1.4l-0.6,0.5    c-0.7,0.4-0.9,0.7-1.1,1.1c-0.5-1.3-0.7-2.2-0.9-3c-0.1-0.6-0.1-1.1,0-1.6c0.1-0.5,0.2-0.7,0.4-1c0.5-0.7,1.3-0.9,1.9-0.9    c-0.1,0.5,0,0.9,0.3,1.1L260.7,314.8z M254.4,316.3c-0.1,0.8-0.4,1.8-0.9,3c-0.2-0.4-0.4-0.7-1.1-1.1c-0.2-0.2-0.5-0.3-0.7-0.5    c-0.6-0.4-1.3-0.7-1.4-1.4l-0.1-0.3l0.7-0.8l0.3-0.5c0.1,0,0.1,0,0.1,0l0.5-0.7c0.3-0.3,0.4-0.7,0.4-1.1c0.6,0,1.4,0.2,1.9,0.9    c0.2,0.2,0.3,0.5,0.4,1C254.4,315.2,254.4,315.7,254.4,316.3z M237.9,305.6l-0.3-0.3c-0.2,0-0.3,0.1-0.3,0.1l-3.7,5l-2.4-8.2    l4.4-6.4c1,2.8,2.3,6.6,2.4,7l0.4,0.4c0.3,0.1,0.4,0.1,5.3-6.9l1.7,8.4l-1.4,6.3c-1.1,0.1-2.5,0.1-3.8,0L237.9,305.6z     M239.1,310.9c-1.4-0.1-3-0.2-4.6-0.3l2.9-4L239.1,310.9z M232.8,310.4c-1.9-0.2-4.1-0.6-6.3-1.1l4.1-6.1L232.8,310.4z     M244.2,295.2l0.1-0.1c1.6-2.3,3.2-4.6,4.3-6.1l-2.9,13.6L244.2,295.2z M248.5,273.2c0.9,0.9,1.8,1.8,2.8,2.7l-2,9.4l-3-9.4    L248.5,273.2z M242.2,279.6l-0.6-6.2c1.3-1.3,2.6-2.4,3.9-3.5c0.8,0.9,1.6,1.8,2.5,2.7L242.2,279.6z M265.7,275.9l-3,9.4l-2-9.4    c1-0.9,1.9-1.8,2.8-2.7L265.7,275.9z M264.1,272.6c0.9-0.9,1.7-1.8,2.5-2.8c1.3,1.1,2.5,2.2,3.9,3.5l-0.6,6.2L264.1,272.6z     M263.4,288.9c1,1.6,2.6,3.8,4.3,6.1l0.1,0.1l-1.5,7.3L263.4,288.9z M268,294.1c-1.7-2.5-3.4-5.1-5-7.2l3.3-10.2l3.4,4.3    c0,0,0.3,0.2,0.4,0.1l0.3-0.3l0.7-6.6c2.8,2.5,5.8,5.2,8.9,8c0.3,0.3,0.7,0.7,1.1,1c0,0,0.7,0.6,1,0.9l0.3,0.3    c0,0,0.3,0.3,0.5,0.4l0.9,3.4l-5.7-5.6c-0.1-0.1-0.2-0.2-0.2-0.2s-0.4,0.2-0.5,0.3l-2.5,6.4l-4.3-5.8l-0.4-0.2l-0.4,0.3L268,294.1    z M282,282.1c-0.3-0.3-0.7-0.6-1-1c0,0-0.3-0.2-0.5-0.3l-1.4-34c0.9-2.9,1.5-5.9,2-9l1.8,45.2C282.6,282.8,282.3,282.4,282,282.1z     M279,244.1c-2.4,9.3-6.8,17.8-13.1,25.2c-1.8,2.1-3.8,4.1-5.9,6v0.1c-0.1,0.1-0.3,0.3-0.3,0.3l-0.6,0.5l-0.9,0.7    c-0.7,0.6-1.5,1.2-2.2,1.8c-0.7-0.6-1.5-1.2-2.2-1.8c-0.3-0.2-0.6-0.5-0.9-0.7l-0.5-0.4c-0.2-0.1-0.3-0.3-0.5-0.4l-0.1-0.1    c-2.1-1.9-4.1-4-5.9-6c-6.3-7.4-10.7-15.9-13.1-25.2c-1-3.8-1.6-7.7-1.9-11.8l0.2-5.2c14.1-0.5,21.7-5.1,24.1-6.8    c0.3-0.2,0.5-0.3,0.5-0.3s0.5,0.2,0.7,0.3c2.4,1.7,10.1,6.3,24.1,6.8l0.2,5.2C280.6,236.4,280,240.3,279,244.1z M232.9,246.9    l-1.4,34c0,0-0.3,0.3-0.4,0.3c-0.3,0.3-0.7,0.6-0.7,0.6c-0.7,0.6-1,1-1.3,1.3l1.8-45.2C231.3,240.9,232,243.9,232.9,246.9z     M229.3,284.3l0.4-0.3c0.3-0.3,0.7-0.6,1-0.9s0.7-0.6,1-1c3.1-2.8,6.1-5.5,9-8l0.7,6.6l0.3,0.3l0.5-0.1l3.4-4.3l3.3,10.2    c-1.6,2.2-3.3,4.8-5,7.2l-2.1-10.6l-0.3-0.3c-0.2-0.1-0.3,0-0.3,0l-4.4,6l-2.5-6.4l-0.3-0.2c-0.2-0.1-0.3,0-0.3,0l-5.9,5.7l1-3.4    C229,284.6,229.2,284.4,229.3,284.3z M227.1,291.1l3.2,10.9l-4.6,7c-1.1-0.3-2.2-0.6-3.3-1L227.1,291.1z M216.3,307.8l0.1-0.1    c0.1-0.1,0.1-0.1,0.1-0.1c0.5-0.4,1.1-0.5,1.6-0.2c1,0.5,2.1,0.8,3.2,1.1c4.2,1.4,8,2.2,11.6,2.8c1.6,0.2,3.2,0.3,4.7,0.4    c0.6,0.1,1.2,0.1,1.8,0.1c0,0,0.6,0,0.9,0c1.2,0,2.4,0,3.3,0c0.3,0,0.6,0,0.9,0c0.8-0.1,1.6-0.1,2.2-0.1c1.2-0.1,2.1-0.1,2.5-0.1    c1.3,0.2,1.7,0.7,1.7,0.7c0.3,0.7,0.3,1.1,0.2,1.1c0,0-0.4,0.5-0.6,0.9c-0.1,0.1-0.2,0.2-0.2,0.2l-0.1,0.2    c-0.2,0.2-0.4,0.5-0.4,0.5c-0.6,0.4-1.1,0.6-1.6,0.6c-2.2,0.2-4.7,0.2-7.2,0.1c-1.9-0.1-3.8-0.2-5.9-0.5l0.1-0.1    c0.2-0.6,0.2-1.1,0.2-1.1c-0.2-1.5-0.9-2.2-1.5-2.7l-0.2-0.1c-0.2-0.2-0.5-0.3-0.9-0.3h-0.2l-0.6,0.1h-0.1c-0.9,0.3-1.6,1-1.9,1.9    c-0.1,0.1-0.1,0.2-0.1,0.2c-0.1,0.6-0.1,0.9-0.1,1.3v0.1c-1.7-0.3-3.3-0.6-4.8-0.9c-4.7-1-8-2-8.5-2.2c0,0-0.1-0.1-0.1-0.2    l-0.1-0.1c0,0-0.2-0.6-0.2-1.1c-0.1-0.5-0.1-1.2-0.1-1.8C215.9,308.6,216,308.1,216.3,307.8z M234.4,315.5    c-0.1,0.4-0.3,0.8-0.5,1.2v0.1c-0.1,0.1-0.3,0.3-0.5,0.5c-0.3,0.3-0.7,0.7-1.1,1.3c-0.1-0.3-0.3-0.6-0.5-0.9    c-0.5-0.8-1.1-1.6-1.1-2.7c0,0,0-0.7,0.1-1.1l0.1-0.5c0.2-0.6,0.7-1,1.3-1.2c0.1-0.1,0.2-0.1,0.2-0.1l0.8,0.2    c0.7,0.5,1.1,1,1.2,1.6C234.5,314.4,234.5,315,234.4,315.5z M211.9,310.2c0.8-1.3,2.3-1.9,3.3-2.2c-0.1,0.2-0.1,0.4-0.1,0.4    c0,0.6,0.1,1.2,0.1,1.7c0.1,0.5,0.1,0.9,0.2,1.3l-0.6,0.2c-0.5,0.2-1,0.4-1,0.4c-1.4,0.6-1.9,1-2.3,1.4c-0.1-0.4-0.2-0.8-0.2-0.8    C211.3,311.6,211.5,310.8,211.9,310.2z M296.8,308c1,0.3,2.5,1,3.3,2.2c0.3,0.6,0.5,1.3,0.5,2c0,0-0.1,0.8-0.2,1.2    c-0.5-0.4-1-0.8-2-1.3c-0.3-0.2-0.8-0.4-1.3-0.6c0,0-0.4-0.1-0.6-0.2c0.1-0.4,0.2-0.9,0.2-1.3c0.1-0.5,0.1-1.1,0.1-1.6    C296.9,308.6,296.9,308.2,296.8,308z M296.2,312.2c2.1,0.7,2.9,1.3,3.4,1.8c0.3,0.6,0.5,1.3,0.6,2.3l0.3,0.5    c0.2,0.1,0.4,0.2,0.4,0.2s2.4-0.3,4.4,3.7l0.2,0.2c-0.1,1.2-0.7,4.1-2.2,4.7c0,0-0.3,0.2-0.4,0.4c-0.3,0.5-0.3,1.1-0.4,1.8    c-0.2,1.3-0.4,2.6-2.2,3.3c-2.5,1-22.8,4.7-40.2,4.5h-8.3c-17.4,0.2-37.6-3.5-40.2-4.5c-1.8-0.7-2-2-2.2-3.3    c-0.1-0.6-0.2-1.3-0.4-1.8c0,0-0.2-0.3-0.4-0.4c-1.5-0.6-2.1-3.4-2.2-4.7l0.2-0.2c2-4,4.1-3.8,4.1-3.8s0.4,0,0.6-0.1l0.3-0.5    c0.1-1,0.3-1.7,0.5-2.3c0.6-0.5,1.4-1.1,3.4-1.8c0.1,0.1,0.1,0.2,0.1,0.2c0.5,0.5,6.7,2.2,14.1,3.4c0.2,1,0.7,1.7,1.1,2.4    c0.5,0.6,0.8,1.1,0.7,1.7c0,0,0.2,0.4,0.4,0.5h0.1c0.2,0,0.3-0.2,0.3-0.2c0.2-1.1,0.9-1.8,1.4-2.3c0.3-0.2,0.5-0.5,0.5-0.5    l0.2-0.3l0.3-0.6c3,0.3,6,0.5,8.7,0.5c1.7,0,3.2-0.1,4.8-0.1c0.3-0.1,0.7-0.2,0.7-0.2c0.6,0.9,1.5,1.4,2.2,1.8    c0.2,0.1,0.4,0.2,0.6,0.3c0.6,0.5,0.7,0.7,0.9,1.1l0.3,0.6l0.3,0.2h0.1l0.3-0.3c0.7-1.6,1.1-3,1.3-4.2h1.6    c0.2,1.1,0.6,2.6,1.3,4.2c0.1,0.2,0.2,0.3,0.2,0.3h0.2l0.3-0.2l0.4-0.6c0.2-0.4,0.3-0.6,0.9-1.1c0,0,0.4-0.2,0.6-0.3    c0.7-0.5,1.6-1,1.9-2c0.3,0.1,0.7,0.2,1,0.3c1.5,0.1,3.1,0.1,4.8,0.1c2.7,0,5.6-0.1,8.7-0.5c0.1,0.2,0.2,0.4,0.2,0.4l0.1,0.2    l0.6,0.7c0.5,0.5,1.1,1.2,1.3,2.1c0.1,0.2,0.2,0.3,0.2,0.3h0.2c0.2-0.1,0.4-0.2,0.4-0.2c-0.1-0.7,0.2-1.3,0.7-1.9    c0.5-0.6,1-1.4,1.2-2.4c7.3-1.2,13.6-3,14-3.4C296.1,312.4,296.2,312.3,296.2,312.2z M277.5,313.9c0.2-0.6,0.6-1.1,1.2-1.6    c0.2-0.1,0.5-0.2,0.7-0.2c0,0,0.3,0,0.4,0.1c0.6,0.2,1.1,0.6,1.3,1.2l0.1,0.5c0.1,0.4,0.1,0.7,0.1,0.7c-0.1,1.4-0.6,2.2-1.1,3    c-0.2,0.3-0.4,0.6-0.5,0.9c-0.3-0.6-0.8-1-1.1-1.3c0,0-0.4-0.4-0.5-0.5v-0.1c0,0-0.4-0.8-0.5-1.2    C277.5,315,277.4,314.4,277.5,313.9z M290.7,308.5c1.1-0.3,2.1-0.7,3.2-1.1c0.5-0.2,1.1-0.2,1.1-0.2c0.5,0.4,0.5,0.4,0.6,0.5    l0.1,0.1l0.4,0.8c0,0.6-0.1,1.3-0.2,1.8c-0.1,0.5-0.1,0.8-0.1,0.8l-0.1,0.4c-0.1,0.1-0.1,0.2-0.1,0.2c-0.5,0.3-3.8,1.3-8.5,2.3    c-1.5,0.3-3.1,0.6-4.8,0.9v-0.1c0-0.3-0.1-0.7-0.1-1.1c0,0-0.1-0.2-0.1-0.3c-0.3-0.9-1-1.6-1.9-1.9H280c-0.2-0.1-0.4-0.1-0.4-0.1    h-0.5c0,0-0.6,0.2-0.8,0.3l-0.2,0.1c-0.6,0.5-1.3,1.1-1.4,2.2c0,0-0.1,1,0.1,1.6v0.1c-2,0.2-4,0.4-5.9,0.5c-2.5,0.1-5,0.1-7.2-0.1    c-0.4-0.1-0.9-0.2-1.2-0.5c0,0-0.5-0.4-0.7-0.6l-0.1-0.1c0,0-0.1-0.3-0.2-0.4c0,0-0.4-0.7-0.6-0.9c0,0-0.2-0.4,0-0.8    c0.2-0.3,0.6-0.9,1.9-1.1c0,0,1.3,0,2.5,0.1c0.6,0.1,1.4,0.1,2.1,0.1h0.9c1,0,2.1,0,3.3,0c0.3,0,0.6,0,0.9,0    c0.6,0,1.2-0.1,1.8-0.1c1.5-0.1,3-0.2,4.7-0.4C282.6,310.8,286.5,310,290.7,308.5z M289.6,308c-1.1,0.4-2.2,0.7-3.3,1l-4.7-7    l3.2-10.9L289.6,308z M284.5,289.7l-3.4,11.5l-4.4-6.6l-0.4-0.2c-0.2,0.1-0.3,0.2-0.3,0.3c-1.3,3.5-2.1,5.9-2.5,7.1    c-0.9-1.1-2.7-3.7-4.8-6.8l2.1-10.5l4.2,5.6c0,0,0.3,0.2,0.4,0.2c0.2,0,0.3-0.1,0.3-0.1l2.6-6.7L284.5,289.7z M308.3,305.8    c-0.6-0.6-1.3-1.1-2-1.8l-0.3-0.3l-3.8-91.5c-1.3,1.4-3.3,3.4-6,5.6l3.3,80.2l-2.6-2.4h-0.1l-0.4-0.4l-3.2-75.2    c-1.4,1-2.9,2.1-4.7,3.2l2.8,67.5c-0.9-0.8-1.8-1.6-2.6-2.4l-0.4-0.3l-2.6-63.2c-1.2,0.6-2.5,1.3-3.8,1.8c0,0-0.2-0.2-0.3-0.2    c-15.5-0.4-23.4-5.9-25-7.1c-0.2-0.1-0.2-0.2-0.2-0.2s-0.5-0.1-0.6,0c0,0-0.1,0.1-0.3,0.2c-1.6,1.2-9.4,6.7-24.9,7.1l-0.3,0.2    c-1.4-0.6-2.6-1.2-3.8-1.8l-2.6,63.2l-0.4,0.3c-0.9,0.8-1.8,1.6-2.6,2.4l2.8-67.5c-1.7-1-3.3-2.1-4.6-3.2l-3.2,75.2l-0.4,0.4h-0.1    l-2.6,2.4l3.3-80.2c-2.7-2.2-4.7-4.2-6-5.6l-3.8,91.5l-0.4,0.3c-0.6,0.6-1.3,1.2-2,1.8l4-95.4c-1.8,0.5-4.8,2.3-6.1,3l0.1-0.7    c0.1-3.2,2-8,5.5-8.7c1-0.2,2-0.3,3-0.3c5.5,0,10.5,2.7,15,5.2c1.2,0.6,2.4,1.2,3.5,1.8c2.4,1.2,7.1,1.9,11.8,2.2    c-0.5,0.7-1.1,1.4-1.8,2c-0.2,0.2-0.2,0.5-0.1,0.7c0.1,0.2,0.3,0.3,0.3,0.3c0.3,0,0.3,0,0.3,0s0.7-0.2,1.2-0.2    c1.6-0.1,3.7-0.3,5.9-2.3c-0.2,1.3-0.5,2.8-0.5,3.3c0,0.2,0.1,0.4,0.1,0.4c0.3,0.2,0.3,0.2,0.3,0.2l0.3-0.1c2.2-1,4-2.4,5.2-4    c0.1-0.1,0.1-0.1,0.1-0.1l0.2,0.1c0.9,1,2.2,2.7,3.3,3.3l0.4,0.2c0.1,0.1,0.1,0.1,0.1,0.1s0.4-0.1,0.5-0.2l0.1-0.2    c1.7-1.7,2.3-2.4,2.8-3c1.6,1.6,5.3,3.5,7.5,3.5l0.6-0.6c0-0.5-0.2-1.3-0.5-2.2c1.1,0.6,3,1.2,5.5,1.2c0.2,0,0.4-0.1,0.5-0.3    c0,0,0.1-0.4-0.1-0.6l-0.1-0.1c-0.3-0.3-0.6-0.8-1-1.3c2.3-0.2,4.6-0.5,6.6-0.8c2-0.4,3.7-0.9,4.9-1.4c1.1-0.6,2.2-1.1,3.5-1.8    c4.5-2.5,9.5-5.2,15-5.2c1,0,2,0.1,2.9,0.3c3.6,0.6,5.5,5.5,5.6,8.7l0.1,0.7c-1.3-0.7-4.3-2.5-6.1-3L308.3,305.8z" id="XMLID_4379_"/><path class="st122" d="M217.2,309.4c0,0,2.8,0.6,3.8,1.4l0.2,0.1c0.2,0,0.3-0.1,0.3-0.1c0.2-0.3,0.2-0.6,0.2-0.6    c-1.4-1-4.3-1.6-4.3-1.6c-0.3-0.1-0.6,0.1-0.6,0.3C217,308.9,217,309.3,217.2,309.4z" id="XMLID_4378_"/><path class="st122" d="M224.1,311.5c0.9,0.2,3.4,0.7,4.3,1.1l0.2,0.1l0.4-0.2c0,0,0-0.5-0.2-0.6    c-1.2-0.6-4.4-1.2-4.4-1.2c-0.3-0.1-0.6,0.1-0.6,0.1C223.8,311.2,223.9,311.4,224.1,311.5z" id="XMLID_4377_"/><path class="st122" d="M236.6,314c0,0,0.2-0.1,0.5-0.1c0.8-0.1,2.7-0.3,4,0l0.1,0.1l0.4-0.3c0,0,0-0.2-0.1-0.3    c-0.1-0.1-0.2-0.1-0.2-0.1c-0.6-0.2-1.1-0.2-1.7-0.3c-1.1,0-2.1,0.1-2.7,0.2c-0.2,0.1-0.3,0.1-0.3,0.1s-0.5,0.2-0.5,0.4L236.6,314    z" id="XMLID_4376_"/><path class="st122" d="M244,314.4L244,314.4c0.1,0,2.8-0.4,4.5-0.4l0.4-0.5c0-0.2-0.2-0.4-0.2-0.4    c-1.7,0-3.8,0.3-4.6,0.4l-0.2,0.1l-0.3,0.2l-0.1,0.3L244,314.4z" id="XMLID_4375_"/><path class="st122" d="M290.6,310.8c0,0,0.2,0,0.3-0.1c1.1-0.8,3.8-1.4,3.8-1.4c0.2-0.1,0.4-0.2,0.4-0.2    c-0.1-0.5-0.3-0.6-0.3-0.6s-3.2,0.6-4.4,1.6c-0.2,0.1-0.2,0.4-0.1,0.6C290.4,310.8,290.5,310.8,290.6,310.8z" id="XMLID_4374_"/><path class="st122" d="M283.4,312.7l0.2-0.1c0.9-0.5,3.3-1,4.3-1.1c0.2-0.1,0.3-0.3,0.3-0.5l-0.5-0.3    c0,0-3.3,0.6-4.5,1.3l-0.2,0.6C283,312.5,283.3,312.7,283.4,312.7z" id="XMLID_4373_"/><path class="st122" d="M275.4,313.2l-0.3-0.1c-0.6-0.1-1.6-0.2-2.6-0.2l0,0h-0.1c-0.6,0.1-1.1,0.1-1.7,0.2    l-0.2,0.2c-0.1,0.1-0.1,0.2-0.1,0.2s0.2,0.5,0.4,0.5l0.1-0.1c1.3-0.3,3.2-0.1,4,0c0,0,0.3,0.1,0.5,0.1l0.4-0.5    C275.9,313.3,275.7,313.2,275.4,313.2z" id="XMLID_4372_"/><path class="st122" d="M268.1,313.6c0,0-0.1-0.1-0.3-0.1c-0.7-0.1-2.9-0.4-4.3-0.4c-0.2,0-0.4,0.2-0.4,0.4    c0,0,0.2,0.5,0.4,0.5c1.7,0,4.4,0.4,4.4,0.4h0.1l0.4-0.3l-0.1-0.3L268.1,313.6z" id="XMLID_4371_"/><path class="st122" d="M279.2,228.5l-0.8-0.1c-0.5,0-0.9-0.1-1.3-0.1c-4.4-0.3-8.4-1.1-12.2-2.4    c-0.7-0.2-1.3-0.4-1.9-0.6c-2.9-1.1-5.1-2.3-6.5-3.2c-0.1-0.1-0.2-0.1-0.2-0.1s-0.5-0.2-0.6-0.1c0,0-0.2,0.2-0.3,0.2    c-1.7,1.1-4.4,2.6-8.3,3.8c-3.7,1.3-7.8,2.1-12.2,2.4c-0.4,0.1-0.8,0.1-1.2,0.1c-0.3,0-0.6,0.1-0.9,0.1c0,0-0.3,0.2-0.3,0.5    c0.1,3.2,0.3,6.2,0.8,9.3c1.8,11.1,6.4,21.1,13.7,29.7c0.1,0.1,0.2,0.3,0.2,0.3c1,1.1,2,2.2,2.9,3.2c0.8,0.8,1.6,1.6,2.4,2.3    c1.1,1,2.2,2.1,3.4,3l0.2,0.1l0.3-0.1c1.2-0.9,2.3-2,3.4-2.9c1.8-1.7,3.5-3.6,5.1-5.4c0,0,0.2-0.3,0.3-0.4    c4.7-5.5,8.2-11.5,10.6-18c1.4-3.7,2.4-7.7,3-11.7c0.5-3,0.8-6.1,0.9-9.3C279.6,228.7,279.4,228.5,279.2,228.5z M264.8,267    l-0.3,0.4c-0.1,0.1-0.2,0.2-0.2,0.2c-1.3,1.5-2.5,2.8-3.8,4.1c-0.3,0.3-0.6,0.6-1,0.9c-1.1,1.1-2.3,2.1-3.5,3.1    c-1.1-1-2.4-2-3.4-3c-0.7-0.6-1.3-1.3-2-2c-1-1-1.9-2-2.8-3c-0.1-0.1-0.2-0.2-0.3-0.3c0,0-0.2-0.2-0.3-0.4v-40.2    c0.1,0,0.1-0.1,0.1-0.1c3.7-1.2,6.4-2.6,8.1-3.6c0,0,0.4-0.3,0.6-0.4c0,0,0.4,0.3,0.6,0.4c1.5,0.9,3.5,2,6.2,3    c0.6,0.2,1.3,0.5,1.9,0.6l0.2,0.1V267z" id="XMLID_4367_"/></g></g></svg>