<?xml version="1.0" ?><svg id="Layer_1" style="enable-background:new 0 0 512 512;" version="1.1" viewBox="0 0 512 512" xml:space="preserve" xmlns="http://www.w3.org/2000/svg" xmlns:xlink="http://www.w3.org/1999/xlink"><style type="text/css">
	.st0{fill:#FFFFFF;}
	.st1{fill:#C60C30;}
	.st2{fill:#003478;}
	.st3{fill:#FF9933;}
	.st4{fill:#128807;}
	.st5{fill:#000088;}
	.st6{fill:#032774;}
	.st7{fill:#DF0333;}
	.st8{fill:#EE2B2C;}
	.st9{fill:#032767;}
	.st10{fill:#006747;}
	.st11{fill:#CD1225;}
	.st12{fill:#FBC942;}
	.st13{fill:#BD9B37;}
	.st14{fill:#9BA068;}
	.st15{fill:#707633;}
	.st16{fill:#006748;}
	.st17{fill:#CC2029;}
	.st18{fill:#30C1DB;}
	.st19{fill:#F7C740;}
	.st20{fill:#0C72A6;}
	.st21{fill:#F8A952;}
	.st22{fill:#943120;}
	.st23{fill:#231F20;}
	.st24{fill:#0B8388;}
	.st25{fill:#8BBDBE;}
	.st26{fill:#05534E;}
	.st27{fill:none;stroke:#39B54A;stroke-width:0.25;stroke-miterlimit:10;}
	.st28{fill:none;stroke:#00A651;stroke-miterlimit:10;}
	.st29{fill:none;stroke:#00A651;stroke-width:0.5;stroke-miterlimit:10;}
	.st30{fill:url(#SVGID_1_);}
	.st31{fill:url(#SVGID_2_);}
	.st32{fill:url(#SVGID_3_);}
	.st33{fill:url(#SVGID_4_);}
	.st34{fill:url(#SVGID_5_);}
	.st35{fill:url(#SVGID_6_);}
	.st36{fill:url(#SVGID_7_);}
	.st37{fill:url(#SVGID_8_);}
	.st38{fill:url(#SVGID_9_);}
	.st39{fill:url(#SVGID_10_);}
	.st40{fill:url(#SVGID_11_);}
	.st41{fill:url(#SVGID_12_);}
	.st42{fill:url(#SVGID_13_);}
	.st43{fill:url(#SVGID_14_);}
	.st44{fill:url(#SVGID_15_);}
	.st45{fill:#F8C73E;}
	.st46{fill:#77722F;}
	.st47{fill:#A7AB71;}
	.st48{fill:#949457;}
	.st49{fill:#AE6F2A;}
	.st50{fill:#FFF200;}
	.st51{fill:#C5C6A6;}
	.st52{fill:#A3A395;}
	.st53{fill:#4C2915;}
	.st54{fill:#8E4520;}
	.st55{fill:#D1A467;}
	.st56{fill:#AA6C2A;}
	.st57{fill:#DAAC6D;}
	.st58{fill:#8F4620;}
	.st59{fill:#BC7E2F;}
	.st60{fill:#E6E7E8;}
	.st61{fill:#F06D19;}
	.st62{fill:#19B43D;}
	.st63{fill:#07A3DC;}
	.st64{fill:#FBD023;}
	.st65{fill:#EC2938;}
	.st66{fill:#F9DF47;}
	.st67{fill:#0967C4;}
	.st68{fill:#C5A310;}
	.st69{clip-path:url(#SVGID_17_);}
	.st70{fill:#6FD7F2;}
	.st71{clip-path:url(#SVGID_19_);}
	.st72{fill:#FF0303;}
	.st73{fill:#FF6407;}
	.st74{fill:#FDFE1F;}
	.st75{fill:#00FE1E;}
	.st76{fill:#08CCFE;}
	.st77{fill:#120FFD;}
	.st78{fill:#810480;}
	.st79{fill:#0642A1;}
	.st80{fill:#02275F;}
	.st81{fill:#80A0D1;}
	.st82{fill:#FB3B3A;}
	.st83{fill:#FF0302;}
	.st84{fill:#520200;}
	.st85{fill:#940101;}
	.st86{clip-path:url(#SVGID_21_);}
	.st87{fill:#91BB35;}
	.st88{fill:#ECE62B;}
	.st89{fill:#C5CA2C;}
	.st90{fill:#95C82B;}
	.st91{fill:#009D4A;}
	.st92{fill:#BF0A30;}
	.st93{fill:#002868;}
	.st94{fill:#028832;}
	.st95{fill:#FBDC1D;}
	.st96{fill:#D91219;}
	.st97{fill:#0738A6;}
	.st98{fill:#FD0302;}
	.st99{fill:#060593;}
	.st100{fill:#115EAD;}
	.st101{fill:#C50C1E;}
	.st102{fill:#FEC315;}
	.st103{fill:#C7B011;}
	.st104{fill:#AC1518;}
	.st105{fill:#028E6E;}
	.st106{fill:#CBCBCB;}
	.st107{fill:#095BBD;}
	.st108{fill:#C7B013;}
	.st109{fill:#00AEEF;}
	.st110{fill:#C7B112;}
	.st111{fill:#FED592;}
	.st112{fill:#028D6E;}
	.st113{fill:#C7B012;}
	.st114{fill:#C6B011;}
	.st115{fill:#103BEE;}
	.st116{fill:#DB4445;}
	.st117{fill:#EC72A9;}
	.st118{fill:#006133;}
	.st119{fill:#D11133;}
	.st120{fill:#042B7D;}
	.st121{fill:#FEC527;}
	.st122{fill:#BF920D;}
</style><g id="XMLID_6638_"><path class="st6" d="M459.1,100.3C412.2,39.3,338.6,0,256,0C173.4,0,99.8,39.3,53,100.3   c-3.2,4.1-6.3,8.4-9.3,12.8c-2.9,4.3-5.7,8.7-8.3,13.2c-1.8,3-3.5,6-5.1,9.1c-0.9,1.5-1.6,3-2.4,4.5c-2.1,4-4,8.1-5.9,12.3   c-1.6,3.4-3,6.8-4.4,10.3c-4,10.1-7.3,20.5-9.9,31.1c-0.9,3.4-1.7,6.8-2.4,10.3c-1.7,8.3-3,16.9-3.9,25.5c-0.6,5.9-1,11.9-1.2,17.9   C0.1,250.3,0,253.1,0,256c0,58.6,19.8,112.6,53,155.7C99.8,472.6,173.4,512,256,512c82.6,0,156.2-39.4,203-100.3   c33.3-43.2,53-97.2,53-155.7S492.3,143.4,459.1,100.3z" id="XMLID_6660_"/><g id="XMLID_6645_"><path class="st6" d="M52.4,204.1l-51,25.5c0.9-8.6,2.2-17.2,3.9-25.5H52.4z" id="XMLID_6659_"/><path class="st6" d="M113,100.3v47.5L43.7,113c2.9-4.4,6-8.6,9.3-12.8H113z" id="XMLID_6658_"/><path class="st6" d="M52.4,152.2H22c1.8-4.2,3.8-8.3,5.9-12.3L52.4,152.2z" id="XMLID_6657_"/><polygon class="st6" id="XMLID_6656_" points="294.7,152.2 294.7,117.6 225.5,152.2   "/><polygon class="st6" id="XMLID_6655_" points="259.7,100.2 164.9,100.2 164.9,147.7   "/><polygon class="st6" id="XMLID_6654_" points="294.7,238.6 294.7,204.1 225.5,204.1   "/><polygon class="st6" id="XMLID_6653_" points="18.2,256 113,256 113,208.5   "/><polygon class="st6" id="XMLID_6652_" points="164.9,256 259.7,256 164.9,208.5   "/><path class="st0" d="M294.7,117.6l-69.2,34.7h69.2v51.8h-69.2l69.2,34.6v5.9l-80.9-40.5h-23.2L294.4,256h-34.7    l-94.9-47.5V256H113v-47.5L18.2,256H6.5l103.8-51.9H87.1L0.2,247.5c0.2-6,0.6-12,1.2-17.9l51-25.5H5.3c0.7-3.5,1.6-7,2.4-10.3    c2.6-10.7,6-21.1,9.9-31.1c1.4-3.5,2.8-7,4.4-10.3h30.4l-24.5-12.3c0.8-1.6,1.6-3,2.4-4.5l33.6,16.8h23.3l-51.8-26    c2.6-4.5,5.4-8.9,8.3-13.2l69.3,34.7v-47.5h51.8v47.5l94.9-47.5h11.6l-103.8,51.9h23.3l103.8-51.9h0.2V117.6z" id="XMLID_6651_"/><path class="st7" d="M87.2,152.2H63.9l-33.6-16.8c1.6-3.1,3.3-6.1,5.1-9.1L87.2,152.2z" id="XMLID_6650_"/><polygon class="st7" id="XMLID_6649_" points="190.6,204.1 294.4,256 294.7,256 294.7,244.5 213.9,204.1   "/><polygon class="st7" id="XMLID_6648_" points="167.4,152.2 190.7,152.2 294.6,100.2 271.3,100.2   "/><path class="st7" d="M110.3,204.1L6.5,256H0c0-2.9,0.1-5.7,0.2-8.5l86.9-43.4H110.3z" id="XMLID_6647_"/><path class="st7" d="M294.7,162.6v31.1H154.5V256h-31.1v-62.3H7.7c2.6-10.7,6-21.1,9.9-31.1h105.7v-62.3h31.1    v62.3H294.7z" id="XMLID_6646_"/></g><polygon class="st0" id="XMLID_6644_" points="138.9,355.1 118.7,376 122.3,347.1 93.4,344.3 118.3,329.2 102.4,304.8 129.7,314.8    138.9,287.2 148.1,314.8 175.4,304.8 159.6,329.2 184.4,344.3 155.5,347.1 159.2,376  "/><polygon class="st0" id="XMLID_6643_" points="394.1,370.1 384.4,380.1 386.2,366.2 372.3,364.9 384.2,357.7 376.6,346    389.7,350.8 394.1,337.5 398.5,350.8 411.6,346 404,357.7 415.9,364.9 402,366.2 403.8,380.1  "/><polygon class="st0" id="XMLID_6642_" points="338.8,246.7 329.1,256.7 330.8,242.9 317,241.5 328.9,234.3 321.3,222.6    334.4,227.4 338.8,214.2 343.2,227.4 356.3,222.6 348.7,234.3 360.6,241.5 346.7,242.9 348.5,256.7  "/><polygon class="st0" id="XMLID_6641_" points="394.1,162.4 384.4,172.3 386.1,158.5 372.3,157.2 384.1,150 376.6,138.3    389.7,143.1 394.1,129.9 398.5,143.1 411.6,138.3 404,150 415.9,157.2 402,158.5 403.7,172.3  "/><polygon class="st0" id="XMLID_6640_" points="463.2,225.9 453.5,235.9 455.2,222.1 441.4,220.8 453.3,213.5 445.7,201.9    458.8,206.6 463.2,193.4 467.6,206.6 480.6,201.9 473.1,213.5 485,220.8 471.1,222.1 472.9,235.9  "/><polygon class="st0" id="XMLID_6639_" points="425.2,274.6 417.4,279.8 419.9,270.7 412.5,264.8 422,264.4 425.2,255.6    428.5,264.4 438,264.8 430.6,270.7 433.1,279.8  "/></g></svg>