<?xml version="1.0" ?><svg id="Layer_1" style="enable-background:new 0 0 512 512;" version="1.1" viewBox="0 0 512 512" xml:space="preserve" xmlns="http://www.w3.org/2000/svg" xmlns:xlink="http://www.w3.org/1999/xlink"><style type="text/css">
	.st0{fill:#FFFFFF;}
	.st1{fill:#C60C30;}
	.st2{fill:#003478;}
	.st3{fill:#FF9933;}
	.st4{fill:#128807;}
	.st5{fill:#000088;}
	.st6{fill:#032774;}
	.st7{fill:#DF0333;}
	.st8{fill:#EE2B2C;}
	.st9{fill:#032767;}
	.st10{fill:#006747;}
	.st11{fill:#CD1225;}
	.st12{fill:#FBC942;}
	.st13{fill:#BD9B37;}
	.st14{fill:#9BA068;}
	.st15{fill:#707633;}
	.st16{fill:#006748;}
	.st17{fill:#CC2029;}
	.st18{fill:#30C1DB;}
	.st19{fill:#F7C740;}
	.st20{fill:#0C72A6;}
	.st21{fill:#F8A952;}
	.st22{fill:#943120;}
	.st23{fill:#231F20;}
	.st24{fill:#0B8388;}
	.st25{fill:#8BBDBE;}
	.st26{fill:#05534E;}
	.st27{fill:none;stroke:#39B54A;stroke-width:0.25;stroke-miterlimit:10;}
	.st28{fill:none;stroke:#00A651;stroke-miterlimit:10;}
	.st29{fill:none;stroke:#00A651;stroke-width:0.5;stroke-miterlimit:10;}
	.st30{fill:url(#SVGID_1_);}
	.st31{fill:url(#SVGID_2_);}
	.st32{fill:url(#SVGID_3_);}
	.st33{fill:url(#SVGID_4_);}
	.st34{fill:url(#SVGID_5_);}
	.st35{fill:url(#SVGID_6_);}
	.st36{fill:url(#SVGID_7_);}
	.st37{fill:url(#SVGID_8_);}
	.st38{fill:url(#SVGID_9_);}
	.st39{fill:url(#SVGID_10_);}
	.st40{fill:url(#SVGID_11_);}
	.st41{fill:url(#SVGID_12_);}
	.st42{fill:url(#SVGID_13_);}
	.st43{fill:url(#SVGID_14_);}
	.st44{fill:url(#SVGID_15_);}
	.st45{fill:#F8C73E;}
	.st46{fill:#77722F;}
	.st47{fill:#A7AB71;}
	.st48{fill:#949457;}
	.st49{fill:#AE6F2A;}
	.st50{fill:#FFF200;}
	.st51{fill:#C5C6A6;}
	.st52{fill:#A3A395;}
	.st53{fill:#4C2915;}
	.st54{fill:#8E4520;}
	.st55{fill:#D1A467;}
	.st56{fill:#AA6C2A;}
	.st57{fill:#DAAC6D;}
	.st58{fill:#8F4620;}
	.st59{fill:#BC7E2F;}
	.st60{fill:#E6E7E8;}
	.st61{fill:#F06D19;}
	.st62{fill:#19B43D;}
	.st63{fill:#07A3DC;}
	.st64{fill:#FBD023;}
	.st65{fill:#EC2938;}
	.st66{fill:#F9DF47;}
	.st67{fill:#0967C4;}
	.st68{fill:#C5A310;}
	.st69{clip-path:url(#SVGID_17_);}
	.st70{fill:#6FD7F2;}
	.st71{clip-path:url(#SVGID_19_);}
	.st72{fill:#FF0303;}
	.st73{fill:#FF6407;}
	.st74{fill:#FDFE1F;}
	.st75{fill:#00FE1E;}
	.st76{fill:#08CCFE;}
	.st77{fill:#120FFD;}
	.st78{fill:#810480;}
	.st79{fill:#0642A1;}
	.st80{fill:#02275F;}
	.st81{fill:#80A0D1;}
	.st82{fill:#FB3B3A;}
	.st83{fill:#FF0302;}
	.st84{fill:#520200;}
	.st85{fill:#940101;}
	.st86{clip-path:url(#SVGID_21_);}
	.st87{fill:#91BB35;}
	.st88{fill:#ECE62B;}
	.st89{fill:#C5CA2C;}
	.st90{fill:#95C82B;}
	.st91{fill:#009D4A;}
	.st92{fill:#BF0A30;}
	.st93{fill:#002868;}
	.st94{fill:#028832;}
	.st95{fill:#FBDC1D;}
	.st96{fill:#D91219;}
	.st97{fill:#0738A6;}
	.st98{fill:#FD0302;}
	.st99{fill:#060593;}
	.st100{fill:#115EAD;}
	.st101{fill:#C50C1E;}
	.st102{fill:#FEC315;}
	.st103{fill:#C7B011;}
	.st104{fill:#AC1518;}
	.st105{fill:#028E6E;}
	.st106{fill:#CBCBCB;}
	.st107{fill:#095BBD;}
	.st108{fill:#C7B013;}
	.st109{fill:#00AEEF;}
	.st110{fill:#C7B112;}
	.st111{fill:#FED592;}
	.st112{fill:#028D6E;}
	.st113{fill:#C7B012;}
	.st114{fill:#C6B011;}
	.st115{fill:#103BEE;}
	.st116{fill:#DB4445;}
	.st117{fill:#EC72A9;}
	.st118{fill:#006133;}
	.st119{fill:#D11133;}
	.st120{fill:#042B7D;}
	.st121{fill:#FEC527;}
	.st122{fill:#BF920D;}
</style><g id="XMLID_5766_"><g id="XMLID_5771_"><g id="XMLID_5797_"><path d="M460.7,409.5C414,471.7,339.6,512,256,512c-61.7,0-118.4-22-162.7-58.4c-1.6-1.3-3.1-2.6-4.7-4     c-38.3-33.2-66.8-77.5-80.1-127.9c-0.2-0.7-0.5-1.5-0.6-2.3l0,0c-2.5-9.5-4.4-19.2-5.6-29.1v-0.1c-0.3-1.9-0.5-3.9-0.7-5.8     C0.5,275.1,0,265.6,0,256c0-57.6,19.1-110.7,51.3-153.5L460.7,409.5z" id="XMLID_5818_"/><path class="st11" d="M512,256c0,57.5-19.1,110.7-51.3,153.5L51.3,102.5C98,40.3,172.4,0,256,0     C397.1,0,512,114.9,512,256z" id="XMLID_5798_"/></g><g id="XMLID_5772_"><polygon class="st0" id="XMLID_5783_" points="105.8,161 113.6,184.8 138.7,184.8 118.4,199.5 126.1,223.4 105.8,208.7      85.6,223.4 93.3,199.5 73.1,184.8 98.1,184.8    "/><path class="st0" d="M39.5,299.2l7.8,23.8L27,308.2L8.6,321.7c-0.2-0.7-0.5-1.5-0.6-2.3l0,0l6.6-20.2l-12.2-8.8     v-0.1c-0.3-1.9-0.5-3.9-0.7-5.8h17.7l7.8-23.8l7.8,23.8h25L39.5,299.2z" id="XMLID_5782_"/><polygon class="st0" id="XMLID_5775_" points="183.3,254.1 191.1,277.9 216.1,277.9 195.8,292.6 203.6,316.5 183.3,301.7      163,316.5 170.8,292.6 150.5,277.9 175.6,277.9    "/><polygon class="st0" id="XMLID_5774_" points="140.3,339.7 144.3,352.1 157.4,352.1 146.8,359.8 150.8,372.3 140.3,364.6      129.7,372.3 133.7,359.8 123.1,352.1 136.2,352.1    "/><path class="st0" d="M118.4,435.3l7.8,23.8l-20.3-14.7l-12.5,9.1c-1.6-1.3-3.1-2.6-4.7-4l4.7-14.3l-20.2-14.7     h25l7.8-23.8l7.8,23.8h25.1L118.4,435.3z" id="XMLID_5773_"/></g></g><path class="st64" d="M440.4,237.8c-1.7-2.5-3.6-5-5.5-7.5c-0.5-14.9-6.3-28.5-11.7-38.9c0.6-2.8,0.9-5.8,3.7-4.8   c4.2,1.5,5.5,9.1,8.2,5.3c2.6-3.9-1.4-15.5-6.1-20.5c-4.7-5,5.6,0.2,5.7-2.6c0.1-2.8-18.2-23.6-22.6-26.3c-4.5-2.8,4.1-3,4.2-4.3   c0-1.3-16.8-13-21.6-15.2c-4.8-2.2,7.6-2.2,4.7-5.3c-2.9-3-31.8-6.1-42.6-2.8c-10.7,3.4,0.2-6.8,2.1-8.7c2-1.8-1.1-4.7-1-7.2   c0.1-2.5-0.3-0.3,3.9-4.3c4.2-3.9-1.9-5.1-4.5-5.1c-2.6-0.1,5.9-4.3,6-8.2s-9,0.5-7.9-0.6c1.1-1,7.7-11.1,3.3-11.3   c-4.4-0.1-5.6,0.6-5.6-1.1c0-1.7,10.2-12.6,6.2-12.8c-1.4,0-3,0.9-4.3,1.4c-2.8,1.3-5.4,2.8-7.9,4.4c-7.4,4.8-13.8,11-18.7,18.3   c-4,6.1-6.8,13-8.2,20.2c-0.7,3.7-1,7.5-0.9,11.3c0.1,3.9,1.1,7.5,1.3,11.3c0.1,2.4-0.3,5-1.7,7.1c-2.9,4.4-8,4-11.2,0.1   c-2.8-3.4-5.9-7-9.5-9.6c-2-1.4-4.4-2.9-6.8-3.2c-2.7-0.3-5.6,0.2-8.3,0.7c-4.9,1-9.9,2.5-15,1.6c-3.1-0.6-7.1-2-10.3-0.9   c2.2,1.7,5.2,2.8,7.6,4.1c3.6,2,7.2,3.7,10.5,6.3c3.1,2.5,6.3,5.3,10.3,6c1.4,0.3,2.9,0.3,4.4,0.5c4.1,0.6,6.7,4.1,9.3,7   c0.2,0.2,0.4,0.5,0.5,0.8c0,0-0.1,0.7-0.3,1c-1.7,3.4-3.7,7.5-8.1,7.4c-5.4-0.2-9.9-8-21.2-8.4c-11.3-0.3-20.2,4-26.4,9.8   c-6.2,5.8-24.1,29.2-24.2,34.5c-0.2,5.2,6,0.3,8.7-2.1c2.7-2.5,0.4,4.1,0.4,4.1s-0.5,6.3,8.6-3.8c2-1.8,3.4,0.3,3.3,4.1   c-0.1,3.9,1.3,4.8,7-2.8c3.4,0.1,1,4.8,0.9,7.7c-0.1,2.9,7.9-7,11.2-6.8s-0.7,3.6,2,4.9c2.6,1.4,10.3-9,13.6-8.9s-0.7,8.8,1.1,9.4   c1.9,0.6,9.7-16.1,13.2-12.4c3.6,3.7-3.7,16.6,17,35.2c20.7,18.6,17.1,12.8,17.2,10.1c0.1-2.7-1.4-9.6,2.7-6.4   c4.1,3.3,6.6,11.8,9.7,9c3-2.8,3.6-6.7,3.6-6.7s29,29.9,39.9,30.3c2.3-2.1,0.6-6.6-1.1-8.3s8.9,4.1,7.6-0.8   c-1.2-4.9-15.9-16.3-11.2-16.2c4.7,0.2,8.3-0.5,3.4-5.6c-4.8-5.2-13.2-17.3-8.8-17.2c3.4,0.1-0.9-9.2-1.3-10.5   c-0.3-0.8-0.6-1.6-0.9-2.4c-0.1-0.3-0.2-0.7-0.2-0.7c0-0.9,0.7-2.1,1.4-2c0.3,0.1,0.5,0.2,0.7,0.5c2.1,1.7,4.3,3.3,6.5,4.8   c2.1,1.4,4.6,3.1,7.1,3.6c0.6,0.1,1.2,0.1,1.2,0.1c2.1-0.9,3-2.1,3.6-3.5c7.1,5.9,24.7,21.3,37.1,37.6c0.6,0.8,0,4.3-0.1,5.4   c-0.1,1.9-0.3,3.9-0.7,5.7c-0.7,3.7-2,7.4-3.9,10.7c-4,7.1-11.2,13.4-19,16c-8,2.5-16.8,2.2-25.1,1.7c-0.5-0.1-1.8,0.1-2.4-0.1   c2.4,1.6,36.4,22.3,53.5-10.4c2.9-5.6,4.7-11.1,5.7-16.5c0.9,1.7,1.8,3.4,2.5,5.1c10.4,25.8-3.7,43.5-3.7,43.5   c-8.2,10.2-23.3,13.3-35.6,13.3c14.9,5.6,34.1,3.8,45-8.8c4.8-5.6,7-12.9,7.8-20C451.5,263.2,448.3,249.3,440.4,237.8z M407,200.8   c-3.8-3.2-7.8-6.3-11.8-9.1c-1.8-1.3-3.7-2.5-5.7-3.8c0.2-4,4.7-3.4,7.5-0.5c2.7,2.9,8.2,4,10.3,3.2c4-1.7,7,1.3,9.2,4.4   c4.8,6.7,6.4,14.5,7.8,22.5C418.7,211.5,412.9,205.9,407,200.8z" id="XMLID_5767_"/></g></svg>