<?xml version="1.0" ?><svg id="Layer_1" style="enable-background:new 0 0 512 512;" version="1.1" viewBox="0 0 512 512" xml:space="preserve" xmlns="http://www.w3.org/2000/svg" xmlns:xlink="http://www.w3.org/1999/xlink"><style type="text/css">
	.st0{fill:#FFFFFF;}
	.st1{fill:#C60C30;}
	.st2{fill:#003478;}
	.st3{fill:#FF9933;}
	.st4{fill:#128807;}
	.st5{fill:#000088;}
	.st6{fill:#032774;}
	.st7{fill:#DF0333;}
	.st8{fill:#EE2B2C;}
	.st9{fill:#032767;}
	.st10{fill:#006747;}
	.st11{fill:#CD1225;}
	.st12{fill:#FBC942;}
	.st13{fill:#BD9B37;}
	.st14{fill:#9BA068;}
	.st15{fill:#707633;}
	.st16{fill:#006748;}
	.st17{fill:#CC2029;}
	.st18{fill:#30C1DB;}
	.st19{fill:#F7C740;}
	.st20{fill:#0C72A6;}
	.st21{fill:#F8A952;}
	.st22{fill:#943120;}
	.st23{fill:#231F20;}
	.st24{fill:#0B8388;}
	.st25{fill:#8BBDBE;}
	.st26{fill:#05534E;}
	.st27{fill:none;stroke:#39B54A;stroke-width:0.25;stroke-miterlimit:10;}
	.st28{fill:none;stroke:#00A651;stroke-miterlimit:10;}
	.st29{fill:none;stroke:#00A651;stroke-width:0.5;stroke-miterlimit:10;}
	.st30{fill:url(#SVGID_1_);}
	.st31{fill:url(#SVGID_2_);}
	.st32{fill:url(#SVGID_3_);}
	.st33{fill:url(#SVGID_4_);}
	.st34{fill:url(#SVGID_5_);}
	.st35{fill:url(#SVGID_6_);}
	.st36{fill:url(#SVGID_7_);}
	.st37{fill:url(#SVGID_8_);}
	.st38{fill:url(#SVGID_9_);}
	.st39{fill:url(#SVGID_10_);}
	.st40{fill:url(#SVGID_11_);}
	.st41{fill:url(#SVGID_12_);}
	.st42{fill:url(#SVGID_13_);}
	.st43{fill:url(#SVGID_14_);}
	.st44{fill:url(#SVGID_15_);}
	.st45{fill:#F8C73E;}
	.st46{fill:#77722F;}
	.st47{fill:#A7AB71;}
	.st48{fill:#949457;}
	.st49{fill:#AE6F2A;}
	.st50{fill:#FFF200;}
	.st51{fill:#C5C6A6;}
	.st52{fill:#A3A395;}
	.st53{fill:#4C2915;}
	.st54{fill:#8E4520;}
	.st55{fill:#D1A467;}
	.st56{fill:#AA6C2A;}
	.st57{fill:#DAAC6D;}
	.st58{fill:#8F4620;}
	.st59{fill:#BC7E2F;}
	.st60{fill:#E6E7E8;}
	.st61{fill:#F06D19;}
	.st62{fill:#19B43D;}
	.st63{fill:#07A3DC;}
	.st64{fill:#FBD023;}
	.st65{fill:#EC2938;}
	.st66{fill:#F9DF47;}
	.st67{fill:#0967C4;}
	.st68{fill:#C5A310;}
	.st69{clip-path:url(#SVGID_17_);}
	.st70{fill:#6FD7F2;}
	.st71{clip-path:url(#SVGID_19_);}
	.st72{fill:#FF0303;}
	.st73{fill:#FF6407;}
	.st74{fill:#FDFE1F;}
	.st75{fill:#00FE1E;}
	.st76{fill:#08CCFE;}
	.st77{fill:#120FFD;}
	.st78{fill:#810480;}
	.st79{fill:#0642A1;}
	.st80{fill:#02275F;}
	.st81{fill:#80A0D1;}
	.st82{fill:#FB3B3A;}
	.st83{fill:#FF0302;}
	.st84{fill:#520200;}
	.st85{fill:#940101;}
	.st86{clip-path:url(#SVGID_21_);}
	.st87{fill:#91BB35;}
	.st88{fill:#ECE62B;}
	.st89{fill:#C5CA2C;}
	.st90{fill:#95C82B;}
	.st91{fill:#009D4A;}
	.st92{fill:#BF0A30;}
	.st93{fill:#002868;}
	.st94{fill:#028832;}
	.st95{fill:#FBDC1D;}
	.st96{fill:#D91219;}
	.st97{fill:#0738A6;}
	.st98{fill:#FD0302;}
	.st99{fill:#060593;}
	.st100{fill:#115EAD;}
	.st101{fill:#C50C1E;}
	.st102{fill:#FEC315;}
	.st103{fill:#C7B011;}
	.st104{fill:#AC1518;}
	.st105{fill:#028E6E;}
	.st106{fill:#CBCBCB;}
	.st107{fill:#095BBD;}
	.st108{fill:#C7B013;}
	.st109{fill:#00AEEF;}
	.st110{fill:#C7B112;}
	.st111{fill:#FED592;}
	.st112{fill:#028D6E;}
	.st113{fill:#C7B012;}
	.st114{fill:#C6B011;}
	.st115{fill:#103BEE;}
	.st116{fill:#DB4445;}
	.st117{fill:#EC72A9;}
	.st118{fill:#006133;}
	.st119{fill:#D11133;}
	.st120{fill:#042B7D;}
	.st121{fill:#FEC527;}
	.st122{fill:#BF920D;}
</style><g id="XMLID_6546_"><path class="st8" d="M512,256c0,9.5-0.5,18.8-1.6,28c-1.1,10.2-2.8,20.2-5.1,30C479,427.3,377.2,512,256,512   h-12.9v-0.3c-10.2-0.5-20.2-1.6-30-3.3c-19.5-3.3-38.3-8.8-56.1-16.3c-10.3-4.4-20.4-9.4-30-15.1C67.2,442,22.8,383.4,6.6,314   c-2.2-9.8-4-19.8-5.1-30c-1-9.3-1.6-18.6-1.6-28s0.5-18.8,1.6-28c1.1-10.2,2.8-20.2,5.1-30c16.1-69.4,60.6-128,120.4-163   c9.6-5.7,19.7-10.7,30-15.1c17.8-7.5,36.6-13,56.1-16.3c9.8-1.7,19.8-2.8,30-3.3V0H256c121.2,0,223,84.6,249.4,198   c2.2,9.8,4,19.8,5.1,30C511.5,237.2,512,246.5,512,256z" id="XMLID_6550_"/><g id="XMLID_6547_"><path class="st0" d="M512,256c0,9.5-0.5,18.8-1.6,28c-1.1,10.2-2.8,20.2-5.1,30H243.1v197.6    c-10.2-0.5-20.2-1.6-30-3.3c-19.5-3.3-38.3-8.8-56.1-16.3c-10.3-4.4-20.4-9.4-30-15.1V314H6.6c-2.2-9.8-4-19.8-5.1-30    c-1-9.3-1.6-18.6-1.6-28s0.5-18.8,1.6-28c1.1-10.2,2.8-20.2,5.1-30h120.4v-163c9.6-5.7,19.7-10.7,30-15.1    c17.8-7.5,36.6-13,56.1-16.3c9.8-1.7,19.8-2.8,30-3.3V198h262.3c2.2,9.8,4,19.8,5.1,30C511.5,237.2,512,246.5,512,256z" id="XMLID_6549_"/><path class="st9" d="M512,256c0,9.5-0.5,18.8-1.6,28H213.1v224.3c-19.5-3.3-38.3-8.8-56.1-16.3V284H1.6    c-1-9.3-1.6-18.6-1.6-28s0.5-18.8,1.6-28H157V19.9c17.8-7.5,36.6-13,56.1-16.3V228h297.3C511.5,237.2,512,246.5,512,256z" id="XMLID_6548_"/></g></g></svg>