<?xml version="1.0" ?><svg id="Layer_1" style="enable-background:new 0 0 512 512;" version="1.1" viewBox="0 0 512 512" xml:space="preserve" xmlns="http://www.w3.org/2000/svg" xmlns:xlink="http://www.w3.org/1999/xlink"><style type="text/css">
	.st0{fill:#FFFFFF;}
	.st1{fill:#C60C30;}
	.st2{fill:#003478;}
	.st3{fill:#FF9933;}
	.st4{fill:#128807;}
	.st5{fill:#000088;}
	.st6{fill:#032774;}
	.st7{fill:#DF0333;}
	.st8{fill:#EE2B2C;}
	.st9{fill:#032767;}
	.st10{fill:#006747;}
	.st11{fill:#CD1225;}
	.st12{fill:#FBC942;}
	.st13{fill:#BD9B37;}
	.st14{fill:#9BA068;}
	.st15{fill:#707633;}
	.st16{fill:#006748;}
	.st17{fill:#CC2029;}
	.st18{fill:#30C1DB;}
	.st19{fill:#F7C740;}
	.st20{fill:#0C72A6;}
	.st21{fill:#F8A952;}
	.st22{fill:#943120;}
	.st23{fill:#231F20;}
	.st24{fill:#0B8388;}
	.st25{fill:#8BBDBE;}
	.st26{fill:#05534E;}
	.st27{fill:none;stroke:#39B54A;stroke-width:0.25;stroke-miterlimit:10;}
	.st28{fill:none;stroke:#00A651;stroke-miterlimit:10;}
	.st29{fill:none;stroke:#00A651;stroke-width:0.5;stroke-miterlimit:10;}
	.st30{fill:url(#SVGID_1_);}
	.st31{fill:url(#SVGID_2_);}
	.st32{fill:url(#SVGID_3_);}
	.st33{fill:url(#SVGID_4_);}
	.st34{fill:url(#SVGID_5_);}
	.st35{fill:url(#SVGID_6_);}
	.st36{fill:url(#SVGID_7_);}
	.st37{fill:url(#SVGID_8_);}
	.st38{fill:url(#SVGID_9_);}
	.st39{fill:url(#SVGID_10_);}
	.st40{fill:url(#SVGID_11_);}
	.st41{fill:url(#SVGID_12_);}
	.st42{fill:url(#SVGID_13_);}
	.st43{fill:url(#SVGID_14_);}
	.st44{fill:url(#SVGID_15_);}
	.st45{fill:#F8C73E;}
	.st46{fill:#77722F;}
	.st47{fill:#A7AB71;}
	.st48{fill:#949457;}
	.st49{fill:#AE6F2A;}
	.st50{fill:#FFF200;}
	.st51{fill:#C5C6A6;}
	.st52{fill:#A3A395;}
	.st53{fill:#4C2915;}
	.st54{fill:#8E4520;}
	.st55{fill:#D1A467;}
	.st56{fill:#AA6C2A;}
	.st57{fill:#DAAC6D;}
	.st58{fill:#8F4620;}
	.st59{fill:#BC7E2F;}
	.st60{fill:#E6E7E8;}
	.st61{fill:#F06D19;}
	.st62{fill:#19B43D;}
	.st63{fill:#07A3DC;}
	.st64{fill:#FBD023;}
	.st65{fill:#EC2938;}
	.st66{fill:#F9DF47;}
	.st67{fill:#0967C4;}
	.st68{fill:#C5A310;}
	.st69{clip-path:url(#SVGID_17_);}
	.st70{fill:#6FD7F2;}
	.st71{clip-path:url(#SVGID_19_);}
	.st72{fill:#FF0303;}
	.st73{fill:#FF6407;}
	.st74{fill:#FDFE1F;}
	.st75{fill:#00FE1E;}
	.st76{fill:#08CCFE;}
	.st77{fill:#120FFD;}
	.st78{fill:#810480;}
	.st79{fill:#0642A1;}
	.st80{fill:#02275F;}
	.st81{fill:#80A0D1;}
	.st82{fill:#FB3B3A;}
	.st83{fill:#FF0302;}
	.st84{fill:#520200;}
	.st85{fill:#940101;}
	.st86{clip-path:url(#SVGID_21_);}
	.st87{fill:#91BB35;}
	.st88{fill:#ECE62B;}
	.st89{fill:#C5CA2C;}
	.st90{fill:#95C82B;}
	.st91{fill:#009D4A;}
	.st92{fill:#BF0A30;}
	.st93{fill:#002868;}
	.st94{fill:#028832;}
	.st95{fill:#FBDC1D;}
	.st96{fill:#D91219;}
	.st97{fill:#0738A6;}
	.st98{fill:#FD0302;}
	.st99{fill:#060593;}
	.st100{fill:#115EAD;}
	.st101{fill:#C50C1E;}
	.st102{fill:#FEC315;}
	.st103{fill:#C7B011;}
	.st104{fill:#AC1518;}
	.st105{fill:#028E6E;}
	.st106{fill:#CBCBCB;}
	.st107{fill:#095BBD;}
	.st108{fill:#C7B013;}
	.st109{fill:#00AEEF;}
	.st110{fill:#C7B112;}
	.st111{fill:#FED592;}
	.st112{fill:#028D6E;}
	.st113{fill:#C7B012;}
	.st114{fill:#C6B011;}
	.st115{fill:#103BEE;}
	.st116{fill:#DB4445;}
	.st117{fill:#EC72A9;}
	.st118{fill:#006133;}
	.st119{fill:#D11133;}
	.st120{fill:#042B7D;}
	.st121{fill:#FEC527;}
	.st122{fill:#BF920D;}
</style><g id="XMLID_5691_"><g id="XMLID_5693_"><path class="st0" d="M256,325.8H9.7c4.6,16.2,10.7,31.8,18.3,46.5h228h228c7.6-14.8,13.7-30.3,18.3-46.5H256z" id="XMLID_5705_"/><path class="st92" d="M256,372.4H28c8.5,16.7,18.8,32.2,30.6,46.5H256h197.3c11.8-14.3,22.1-29.9,30.7-46.5H256z    " id="XMLID_5704_"/><path class="st92" d="M256,465.5H109c41.7,29.3,92.4,46.5,147,46.5l0,0c54.7,0,105.4-17.2,147-46.5H256z" id="XMLID_5703_"/><path class="st0" d="M256,418.9H58.7c14.6,17.6,31.5,33.3,50.3,46.5h147h147c18.8-13.2,35.7-28.9,50.3-46.5H256z    " id="XMLID_5702_"/><path class="st92" d="M256,279.3H1.1c1.4,16,4.4,31.5,8.6,46.5H256h246.3c4.3-15,7.2-30.6,8.6-46.5H256z" id="XMLID_5701_"/><path class="st92" d="M403,46.5C361.4,17.2,310.7,0,256,0l0,0v46.5H403z" id="XMLID_5700_"/><path class="st0" d="M256,186.2h246.3c-4.6-16.2-10.7-31.8-18.3-46.5H256V186.2z" id="XMLID_5699_"/><path class="st92" d="M256,139.6h228c-8.6-16.7-18.8-32.2-30.6-46.5H256V139.6z" id="XMLID_5698_"/><path class="st0" d="M256,93.1h197.4c-14.6-17.6-31.5-33.3-50.3-46.5H256V93.1z" id="XMLID_5697_"/><path class="st92" d="M256,232.7h255c-1.4-16-4.4-31.5-8.6-46.5H256V232.7z" id="XMLID_5696_"/><path class="st93" d="M109,46.5C90.2,59.8,73.3,75.4,58.7,93.1C46.8,107.4,36.5,123,28,139.6    c-7.6,14.8-13.7,30.3-18.3,46.5c-4.3,15-7.2,30.6-8.6,46.5H256v-46.5v-46.5V93.1V46.5V0C201.4,0,150.6,17.2,109,46.5z" id="XMLID_5695_"/><path class="st0" d="M511,232.7H256H1.1C0.4,240.4,0,248.1,0,256s0.4,15.6,1.1,23.3H256h255    c0.7-7.6,1-15.4,1-23.3S511.7,240.4,511,232.7z" id="XMLID_5694_"/></g><polygon class="st0" id="XMLID_5692_" points="146,65.3 161.5,112.9 211.6,112.9 171.1,142.4 186.5,190 146,160.6 105.4,190    121,142.4 80.4,112.9 130.5,112.9  "/></g></svg>