<?xml version="1.0" ?><svg id="Layer_1" style="enable-background:new 0 0 512 512;" version="1.1" viewBox="0 0 512 512" xml:space="preserve" xmlns="http://www.w3.org/2000/svg" xmlns:xlink="http://www.w3.org/1999/xlink"><style type="text/css">
	.st0{fill:#FFFFFF;}
	.st1{fill:#C60C30;}
	.st2{fill:#003478;}
	.st3{fill:#FF9933;}
	.st4{fill:#128807;}
	.st5{fill:#000088;}
	.st6{fill:#032774;}
	.st7{fill:#DF0333;}
	.st8{fill:#EE2B2C;}
	.st9{fill:#032767;}
	.st10{fill:#006747;}
	.st11{fill:#CD1225;}
	.st12{fill:#FBC942;}
	.st13{fill:#BD9B37;}
	.st14{fill:#9BA068;}
	.st15{fill:#707633;}
	.st16{fill:#006748;}
	.st17{fill:#CC2029;}
	.st18{fill:#30C1DB;}
	.st19{fill:#F7C740;}
	.st20{fill:#0C72A6;}
	.st21{fill:#F8A952;}
	.st22{fill:#943120;}
	.st23{fill:#231F20;}
	.st24{fill:#0B8388;}
	.st25{fill:#8BBDBE;}
	.st26{fill:#05534E;}
	.st27{fill:none;stroke:#39B54A;stroke-width:0.25;stroke-miterlimit:10;}
	.st28{fill:none;stroke:#00A651;stroke-miterlimit:10;}
	.st29{fill:none;stroke:#00A651;stroke-width:0.5;stroke-miterlimit:10;}
	.st30{fill:url(#SVGID_1_);}
	.st31{fill:url(#SVGID_2_);}
	.st32{fill:url(#SVGID_3_);}
	.st33{fill:url(#SVGID_4_);}
	.st34{fill:url(#SVGID_5_);}
	.st35{fill:url(#SVGID_6_);}
	.st36{fill:url(#SVGID_7_);}
	.st37{fill:url(#SVGID_8_);}
	.st38{fill:url(#SVGID_9_);}
	.st39{fill:url(#SVGID_10_);}
	.st40{fill:url(#SVGID_11_);}
	.st41{fill:url(#SVGID_12_);}
	.st42{fill:url(#SVGID_13_);}
	.st43{fill:url(#SVGID_14_);}
	.st44{fill:url(#SVGID_15_);}
	.st45{fill:#F8C73E;}
	.st46{fill:#77722F;}
	.st47{fill:#A7AB71;}
	.st48{fill:#949457;}
	.st49{fill:#AE6F2A;}
	.st50{fill:#FFF200;}
	.st51{fill:#C5C6A6;}
	.st52{fill:#A3A395;}
	.st53{fill:#4C2915;}
	.st54{fill:#8E4520;}
	.st55{fill:#D1A467;}
	.st56{fill:#AA6C2A;}
	.st57{fill:#DAAC6D;}
	.st58{fill:#8F4620;}
	.st59{fill:#BC7E2F;}
	.st60{fill:#E6E7E8;}
	.st61{fill:#F06D19;}
	.st62{fill:#19B43D;}
	.st63{fill:#07A3DC;}
	.st64{fill:#FBD023;}
	.st65{fill:#EC2938;}
	.st66{fill:#F9DF47;}
	.st67{fill:#0967C4;}
	.st68{fill:#C5A310;}
	.st69{clip-path:url(#SVGID_17_);}
	.st70{fill:#6FD7F2;}
	.st71{clip-path:url(#SVGID_19_);}
	.st72{fill:#FF0303;}
	.st73{fill:#FF6407;}
	.st74{fill:#FDFE1F;}
	.st75{fill:#00FE1E;}
	.st76{fill:#08CCFE;}
	.st77{fill:#120FFD;}
	.st78{fill:#810480;}
	.st79{fill:#0642A1;}
	.st80{fill:#02275F;}
	.st81{fill:#80A0D1;}
	.st82{fill:#FB3B3A;}
	.st83{fill:#FF0302;}
	.st84{fill:#520200;}
	.st85{fill:#940101;}
	.st86{clip-path:url(#SVGID_21_);}
	.st87{fill:#91BB35;}
	.st88{fill:#ECE62B;}
	.st89{fill:#C5CA2C;}
	.st90{fill:#95C82B;}
	.st91{fill:#009D4A;}
	.st92{fill:#BF0A30;}
	.st93{fill:#002868;}
	.st94{fill:#028832;}
	.st95{fill:#FBDC1D;}
	.st96{fill:#D91219;}
	.st97{fill:#0738A6;}
	.st98{fill:#FD0302;}
	.st99{fill:#060593;}
	.st100{fill:#115EAD;}
	.st101{fill:#C50C1E;}
	.st102{fill:#FEC315;}
	.st103{fill:#C7B011;}
	.st104{fill:#AC1518;}
	.st105{fill:#028E6E;}
	.st106{fill:#CBCBCB;}
	.st107{fill:#095BBD;}
	.st108{fill:#C7B013;}
	.st109{fill:#00AEEF;}
	.st110{fill:#C7B112;}
	.st111{fill:#FED592;}
	.st112{fill:#028D6E;}
	.st113{fill:#C7B012;}
	.st114{fill:#C6B011;}
	.st115{fill:#103BEE;}
	.st116{fill:#DB4445;}
	.st117{fill:#EC72A9;}
	.st118{fill:#006133;}
	.st119{fill:#D11133;}
	.st120{fill:#042B7D;}
	.st121{fill:#FEC527;}
	.st122{fill:#BF920D;}
</style><g id="XMLID_5098_"><g id="XMLID_5106_"><path class="st0" d="M510.4,284.4c-2.2,19.7-6.6,38.8-13.1,56.9H14.7c-6.5-18.1-10.9-37.1-13.1-56.9l0,0H510.4z" id="XMLID_5115_"/><path class="st100" d="M497.3,341.3c-7.1,20.3-16.8,39.4-28.6,56.9H43.3c-11.8-17.5-21.5-36.6-28.6-56.9H497.3z" id="XMLID_5114_"/><path class="st0" d="M468.8,398.2c-14.4,21.5-32,40.7-52.1,56.9H95.3c-20.1-16.2-37.6-35.4-52-56.9H468.8z" id="XMLID_5113_"/><path class="st100" d="M416.7,455.1c-44,35.6-99.9,56.9-160.7,56.9c-60.9,0-116.8-21.3-160.7-56.9H416.7z" id="XMLID_5112_"/><path class="st100" d="M416.7,56.9H95.3c14.8-12,30.9-22.3,48.1-30.7C177.4,9.4,215.6,0,256,0h1.1l0,0    C317.5,0.3,373,21.5,416.7,56.9z" id="XMLID_5111_"/><path class="st100" d="M512,256c0,9.6-0.5,19.1-1.6,28.4H1.6C0.5,275.1,0,265.6,0,256c0-9.6,0.5-19.1,1.6-28.4    h508.9C511.5,236.9,512,246.4,512,256z" id="XMLID_5110_"/><path class="st0" d="M468.8,113.8H43.3c12.2-18.3,26.8-34.9,43.2-49.4c2.9-2.6,5.8-5.1,8.8-7.5h321.4    C436.8,73.1,454.4,92.3,468.8,113.8z" id="XMLID_5109_"/><path class="st100" d="M497.4,170.7H14.6c7.2-20.2,16.8-39.3,28.7-56.8v-0.1h425.5    C480.6,131.3,490.2,150.4,497.4,170.7z" id="XMLID_5108_"/><path class="st0" d="M510.4,227.6H1.6c2.2-19.7,6.6-38.7,13-56.9h482.8C503.8,188.8,508.3,207.8,510.4,227.6z" id="XMLID_5107_"/></g><g id="XMLID_5099_"><g id="XMLID_5104_"><path class="st100" d="M257.2,0v284.5H1.6l0,0C0.5,275.1,0,265.6,0,256c0-9.6,0.5-19.1,1.6-28.4     c2.2-19.7,6.6-38.7,13-56.9c7.2-20.2,16.8-39.3,28.7-56.8v-0.1c12.2-18.3,26.8-34.9,43.2-49.4c2.9-2.6,5.8-5.1,8.8-7.5     c14.8-12,30.9-22.3,48.1-30.7C177.4,9.4,215.6,0,256,0H257.2z" id="XMLID_5105_"/></g><g id="XMLID_5102_"><path class="st0" d="M257.2,113.8v56.8H14.6c7.2-20.2,16.8-39.3,28.7-56.8H257.2z" id="XMLID_5103_"/></g><g id="XMLID_5100_"><path class="st0" d="M143.4,26.1v258.3H86.5V64.3c2.9-2.6,5.8-5.1,8.8-7.5C110.1,44.9,126.2,34.6,143.4,26.1z" id="XMLID_5101_"/></g></g></g></svg>