<?xml version="1.0" ?><svg id="Layer_1" style="enable-background:new 0 0 512 512;" version="1.1" viewBox="0 0 512 512" xml:space="preserve" xmlns="http://www.w3.org/2000/svg" xmlns:xlink="http://www.w3.org/1999/xlink"><style type="text/css">
	.st0{fill:#FFFFFF;}
	.st1{fill:#C60C30;}
	.st2{fill:#003478;}
	.st3{fill:#FF9933;}
	.st4{fill:#128807;}
	.st5{fill:#000088;}
	.st6{fill:#032774;}
	.st7{fill:#DF0333;}
	.st8{fill:#EE2B2C;}
	.st9{fill:#032767;}
	.st10{fill:#006747;}
	.st11{fill:#CD1225;}
	.st12{fill:#FBC942;}
	.st13{fill:#BD9B37;}
	.st14{fill:#9BA068;}
	.st15{fill:#707633;}
	.st16{fill:#006748;}
	.st17{fill:#CC2029;}
	.st18{fill:#30C1DB;}
	.st19{fill:#F7C740;}
	.st20{fill:#0C72A6;}
	.st21{fill:#F8A952;}
	.st22{fill:#943120;}
	.st23{fill:#231F20;}
	.st24{fill:#0B8388;}
	.st25{fill:#8BBDBE;}
	.st26{fill:#05534E;}
	.st27{fill:none;stroke:#39B54A;stroke-width:0.25;stroke-miterlimit:10;}
	.st28{fill:none;stroke:#00A651;stroke-miterlimit:10;}
	.st29{fill:none;stroke:#00A651;stroke-width:0.5;stroke-miterlimit:10;}
	.st30{fill:url(#SVGID_1_);}
	.st31{fill:url(#SVGID_2_);}
	.st32{fill:url(#SVGID_3_);}
	.st33{fill:url(#SVGID_4_);}
	.st34{fill:url(#SVGID_5_);}
	.st35{fill:url(#SVGID_6_);}
	.st36{fill:url(#SVGID_7_);}
	.st37{fill:url(#SVGID_8_);}
	.st38{fill:url(#SVGID_9_);}
	.st39{fill:url(#SVGID_10_);}
	.st40{fill:url(#SVGID_11_);}
	.st41{fill:url(#SVGID_12_);}
	.st42{fill:url(#SVGID_13_);}
	.st43{fill:url(#SVGID_14_);}
	.st44{fill:url(#SVGID_15_);}
	.st45{fill:#F8C73E;}
	.st46{fill:#77722F;}
	.st47{fill:#A7AB71;}
	.st48{fill:#949457;}
	.st49{fill:#AE6F2A;}
	.st50{fill:#FFF200;}
	.st51{fill:#C5C6A6;}
	.st52{fill:#A3A395;}
	.st53{fill:#4C2915;}
	.st54{fill:#8E4520;}
	.st55{fill:#D1A467;}
	.st56{fill:#AA6C2A;}
	.st57{fill:#DAAC6D;}
	.st58{fill:#8F4620;}
	.st59{fill:#BC7E2F;}
	.st60{fill:#E6E7E8;}
	.st61{fill:#F06D19;}
	.st62{fill:#19B43D;}
	.st63{fill:#07A3DC;}
	.st64{fill:#FBD023;}
	.st65{fill:#EC2938;}
	.st66{fill:#F9DF47;}
	.st67{fill:#0967C4;}
	.st68{fill:#C5A310;}
	.st69{clip-path:url(#SVGID_17_);}
	.st70{fill:#6FD7F2;}
	.st71{clip-path:url(#SVGID_19_);}
	.st72{fill:#FF0303;}
	.st73{fill:#FF6407;}
	.st74{fill:#FDFE1F;}
	.st75{fill:#00FE1E;}
	.st76{fill:#08CCFE;}
	.st77{fill:#120FFD;}
	.st78{fill:#810480;}
	.st79{fill:#0642A1;}
	.st80{fill:#02275F;}
	.st81{fill:#80A0D1;}
	.st82{fill:#FB3B3A;}
	.st83{fill:#FF0302;}
	.st84{fill:#520200;}
	.st85{fill:#940101;}
	.st86{clip-path:url(#SVGID_21_);}
	.st87{fill:#91BB35;}
	.st88{fill:#ECE62B;}
	.st89{fill:#C5CA2C;}
	.st90{fill:#95C82B;}
	.st91{fill:#009D4A;}
	.st92{fill:#BF0A30;}
	.st93{fill:#002868;}
	.st94{fill:#028832;}
	.st95{fill:#FBDC1D;}
	.st96{fill:#D91219;}
	.st97{fill:#0738A6;}
	.st98{fill:#FD0302;}
	.st99{fill:#060593;}
	.st100{fill:#115EAD;}
	.st101{fill:#C50C1E;}
	.st102{fill:#FEC315;}
	.st103{fill:#C7B011;}
	.st104{fill:#AC1518;}
	.st105{fill:#028E6E;}
	.st106{fill:#CBCBCB;}
	.st107{fill:#095BBD;}
	.st108{fill:#C7B013;}
	.st109{fill:#00AEEF;}
	.st110{fill:#C7B112;}
	.st111{fill:#FED592;}
	.st112{fill:#028D6E;}
	.st113{fill:#C7B012;}
	.st114{fill:#C6B011;}
	.st115{fill:#103BEE;}
	.st116{fill:#DB4445;}
	.st117{fill:#EC72A9;}
	.st118{fill:#006133;}
	.st119{fill:#D11133;}
	.st120{fill:#042B7D;}
	.st121{fill:#FEC527;}
	.st122{fill:#BF920D;}
</style><g><g><path class="st67" d="M497.4,341.3c-17,47.8-47.6,89-87.4,119C367.2,492.8,313.8,512,256,512c-57.8,0-111.1-19.3-154-51.6    c-39.7-30-70.4-71.3-87.4-119.1H497.4z"/><path class="st67" d="M497.4,170.7H14.6C31.5,122.9,62.2,81.6,102,51.6C144.9,19.2,198.2,0,256,0C313.8,0,367.2,19.2,410,51.6    C449.8,81.6,480.4,122.9,497.4,170.7z"/><path class="st0" d="M512,256c0,29.9-5.1,58.6-14.6,85.3H14.6C5.1,314.6,0,285.9,0,256s5.1-58.6,14.6-85.3h482.8    C506.9,197.4,512,226.1,512,256z"/></g><g><g><g><path class="st68" d="M182.8,245c0.9,0.1,1.5,0.5,1.7,1.3c0.3-0.7,0.9-1,1.8-0.9l2.2,0.2l-0.1,1.7l-2.3-0.2      c-0.4-0.1-0.7,0.2-0.9,0.7c-0.1,0.2-0.1,0.6-0.2,1.2l-0.4,4.9l3.2,0.2l-0.1,1.7l-8.7-0.7l0.6-6.9c0.1-1.3,0.3-2.1,0.3-2.1      c0.7-1,1.4-1.2,2.5-1.1L182.8,245z M182.8,246.7l-0.5-0.1c-0.6,0-0.9,0.1-0.9,0.1c-0.2,0.6-0.3,1.1-0.3,2l-0.4,4.9l2.6,0.2      l0.4-4.9c0.1-0.7,0.1-1.1,0.1-1.1C183.6,247,183.2,246.7,182.8,246.7z"/><path class="st68" d="M190.7,236.1l-2,8.7l-8.6-2l2.1-8.7l1.4,0.3l-1.7,7.1l2,0.5l1.6-6.7l1.4,0.3l-1.6,6.8l2.2,0.5l1.7-7.1      L190.7,236.1z"/><path class="st68" d="M189.3,224.2c1,0.3,1.5,0.9,1.7,1.6c0.1,0.5-0.1,1.4-0.5,2.5l-1.8,4.7l2.9,1.1l-0.6,1.6l-8.2-3.2l2.4-6.1      c0.5-1.1,0.9-1.9,1.3-2.2c0.6-0.5,1.3-0.5,2.4-0.1L189.3,224.2z M188.8,225.8l-0.6-0.3c-0.5-0.2-0.9-0.1-1.1,0.2      c0,0-0.3,0.6-0.7,1.4l-1.7,4.3l2.5,1l1.7-4.3c0.2-0.7,0.4-1.1,0.4-1.1C189.4,226.3,189.2,226,188.8,225.8z"/><path class="st68" d="M197.4,215.1c1.2,0.7,1.8,1.4,1.8,2.2c0.1,0.6-0.3,1.6-1.1,2.9l-1.3,2.2c-0.8,1.4-1.5,2.2-2,2.5      c-0.6,0.3-1.6,0.1-2.8-0.6l-4.8-2.8l0.9-1.4l4.5,2.6c0.8,0.5,1.4,0.7,1.7,0.6c0,0,0.8-0.7,1.4-1.8l1-1.6      c0.6-1.1,0.9-1.8,0.9-2.1c-0.1-0.3-0.5-0.7-1.3-1.3l-4.5-2.6l0.9-1.5L197.4,215.1z"/><path class="st68" d="M205.4,206.5c0.7,0.6,1.1,1.2,1,1.8c0,0.7-0.5,1.6-1.5,2.8l-4.3,5.1l-6.7-5.6l4.2-5c0.7-0.9,1.4-1.4,2-1.7      c0.7-0.3,1.4-0.2,2.1,0.4c0.6,0.6,1,1.2,0.9,1.8C203.8,205.7,204.6,205.8,205.4,206.5z M201.3,205.8c-0.5-0.5-1-0.3-1.6,0.3      l-3.5,4.1l1.6,1.4l3.6-4.3C201.8,206.7,201.8,206.2,201.3,205.8z M204.3,207.9c-0.3-0.3-0.6-0.5-0.6-0.5      c-0.5,0.1-0.9,0.3-1.2,0.8l-3.6,4.3l1.7,1.4l3.3-3.9c0.4-0.5,0.6-0.8,0.6-0.8C204.8,208.6,204.7,208.2,204.3,207.9z"/><path class="st68" d="M214.2,202.2l-6.3,5.6l-5.8-6.6l1.3-1.1l4.8,5.5l5.1-4.5L214.2,202.2z"/><path class="st68" d="M216,201l-1.4,1l-5.2-7l1.3-1L216,201z"/><path class="st68" d="M224.3,192.7c0.6,0.9,0.7,1.6,0.4,2.2c-0.3,0.6-1.1,1.3-2.5,2.1l-2,1.2c-1.3,0.8-2.4,1.1-3,1.1      c-0.8-0.1-1.6-0.7-2.4-2.1l-0.6-1c-0.8-1.3-1.1-2.4-0.9-3.1c0.2-0.7,1-1.6,2.6-2.5l1.6-0.9c1.3-0.8,2.3-1.2,3.1-1.3      c0.7,0,1.4,0.3,1.8,1.1l0.2,0.4l-1.4,0.9l-0.2-0.3c-0.2-0.5-0.7-0.6-1.3-0.4c-0.3,0.1-0.9,0.5-1.8,1l-1,0.6      c-1.2,0.7-1.8,1.3-2,1.7c0,0,0.2,1.1,0.8,2.2l0.4,0.6c0.5,0.9,0.9,1.3,1.3,1.4c0.5,0.2,1.3-0.1,2.5-0.9l1.1-0.7      c1.1-0.6,1.7-1.1,2-1.4c0.2-0.3,0.2-0.7,0-1.1l-0.2-0.3l1.4-0.8L224.3,192.7z"/><path class="st68" d="M236.8,190.5l-1.8,0.7l-1.5-1.3l-6.2,2.4l-0.3,2l-1.7,0.7l1.5-10l2-0.8L236.8,190.5z M232.1,188.8      l-3.7-2.9l-0.1,0.1l-0.8,4.7L232.1,188.8z"/><path class="st68" d="M253.3,184.2c0.2,1.5-0.1,2.5-0.6,3c-0.5,0.5-1.5,0.8-3,1l-7,0.9l-1-8.7l6.8-0.8c1.7-0.2,2.9-0.1,3.6,0.5      c0.6,0.4,1,1.4,1.1,3L253.3,184.2z M251.5,184.2l-0.1-0.7c-0.1-1.2-0.3-2-0.6-2.2c-0.3-0.3-1.2-0.3-2.6-0.2l-4.8,0.6l0.6,5.8      l4.8-0.6c1.4-0.2,2.2-0.5,2.5-0.8C251.6,185.8,251.7,185.1,251.5,184.2z"/><path class="st68" d="M263.4,188.2l-9-0.3l0.3-8.7l9,0.3l-0.1,1.4l-7.3-0.2l-0.1,2l7,0.2l-0.1,1.5l-7-0.3l-0.1,2.4l7.3,0.2      L263.4,188.2z"/><path class="st68" d="M280.7,192.2l-2.2-0.6l-5.1-8.9l-2,6.8l-1.6-0.5l2.4-8.4l2.2,0.6l5.1,8.9l2-6.8l1.6,0.5L280.7,192.2z"/><path class="st68" d="M283.1,193.5l-1.6-0.6l3.3-8.1l1.6,0.6L283.1,193.5z"/><path class="st68" d="M294.4,196.3c-0.5,0.9-1,1.4-1.7,1.5c-0.7,0.1-1.7-0.3-3.2-1.1l-2-1.1c-1.4-0.7-2.2-1.4-2.5-2.1      c-0.3-0.7-0.2-1.7,0.5-3l0.6-1.1c0.7-1.4,1.5-2.2,2.2-2.4c0.8-0.2,2,0.1,3.5,0.9l1.6,0.9c1.3,0.7,2.2,1.4,2.6,2      c0.5,0.7,0.5,1.4,0.1,2.1l-0.2,0.5l-1.4-0.7l0.2-0.3c0.2-0.5,0.1-0.9-0.4-1.4c-0.2-0.2-0.8-0.5-1.8-1l-1-0.6      c-1.2-0.6-2-0.9-2-0.9c-0.8,0.2-1.3,0.9-1.8,2l-0.3,0.6c-0.5,0.9-0.7,1.4-0.6,1.8c0.1,0.5,0.8,1,2,1.7l1.1,0.6      c1.1,0.6,1.8,0.9,2.2,1c0.3,0,0.7-0.2,0.9-0.6l0.1-0.3l1.4,0.7L294.4,196.3z"/><path class="st68" d="M302.8,205.9l-1.5-1.1l0.3-2l-5.2-4l-1.9,0.7l-1.5-1.1l9.4-3.8l1.7,1.3L302.8,205.9z M301.8,201.1l0.6-4.7      l-0.1-0.1l-4.4,1.7L301.8,201.1z"/><path class="st68" d="M313.9,209.6c-0.7,0.6-1.4,0.7-2.1,0.4c0.3,0.6,0.2,1.3-0.5,1.9l-1.6,1.6l-1.1-1.3l1.7-1.6      c0.3-0.3,0.3-0.6,0.1-1.1c-0.1-0.2-0.4-0.6-0.8-1l-3.3-3.6l-2.4,2.2l-1.1-1.2l6.4-6l4.8,5.1c0.9,0.9,1.3,1.6,1.4,2.1      c0.2,0.7-0.1,1.4-0.9,2.1L313.9,209.6z M312.8,208.4l0.3-0.3c0,0,0.5-0.7,0.3-1.1c0,0-0.4-0.6-1-1.2l-3.3-3.6l-2,1.8l3.4,3.6      c0.5,0.5,0.8,0.8,0.8,0.8C311.9,208.8,312.3,208.8,312.8,208.4z"/><path class="st68" d="M316.5,223.6l-1-1.6l0.9-1.8l-3.7-5.5l-2,0.1l-1-1.6l10.1-0.6l1.2,1.8L316.5,223.6z M317.1,218.8l2.1-4.3      l-0.1-0.1l-4.8,0.2L317.1,218.8z"/><path class="st68" d="M324.1,232.1c-1.3,0.6-2.4,0.7-3,0.3c-0.6-0.3-1.2-1.1-1.8-2.5l-1.2-2.8c-0.6-1.4-0.9-2.5-0.7-3.2      c0.2-0.8,0.9-1.5,2.2-2.1l1.1-0.5c1.4-0.6,2.5-0.8,3.2-0.5c0.7,0.3,1.5,1.3,2.2,2.9l1.1,2.4c0.6,1.4,0.9,2.5,0.7,3.2      c-0.2,0.7-0.7,1.3-1.7,1.7l-0.7-1.6c0.5-0.2,0.7-0.5,0.8-0.9c0.1-0.5-0.1-1.1-0.6-2.1l-0.8-1.8c-0.5-1.2-1-1.9-1-1.9      c-0.7-0.3-1.5-0.2-2.6,0.3l-0.6,0.3c-0.9,0.4-1.4,0.9-1.6,1.3c-0.2,0.5,0.1,1.2,0.6,2.4l0.8,1.9c0.5,1.1,0.9,1.7,0.9,1.7      c0.6,0.4,1.1,0.3,1.8,0l-1.8-4.1l1.3-0.6l2.5,5.6L324.1,232.1z"/><path class="st68" d="M326.8,243.6c-1.3,0.3-2.3,0.3-2.9-0.2c-0.5-0.4-0.9-1.4-1.3-2.9L322,238c-0.4-1.6-0.5-2.6-0.3-3.2      c0.3-0.7,1.1-1.2,2.5-1.6l5.3-1.4l0.4,1.7l-5.1,1.3c-0.9,0.3-1.4,0.5-1.4,0.5c-0.3,0.6-0.2,1.4,0.1,2.6l0.5,1.8      c0.3,1.2,0.6,2,0.6,2s1.1,0.4,2,0.2l5.1-1.3l0.4,1.7L326.8,243.6z"/><path class="st68" d="M324.8,256.6l-0.2-1.9l1.7-1.1l-0.6-6.6l-1.8-0.9l-0.2-1.9l9.2,4.4l0.2,2.1L324.8,256.6z M327.6,252.6      l3.9-2.8v-0.1l-4.3-2.1L327.6,252.6z"/></g><g><path class="st68" d="M186.5,280.9l-1.4-4.4l1.2-0.4l1.4,4.4L186.5,280.9z"/><path class="st68" d="M193,299.9l-1-1.7l1-1.7l-3.3-5.7h-2l-0.9-1.6l10.1,0.1l1.1,1.8L193,299.9z M193.9,295l2.3-4.1l-0.1-0.1      l-4.7-0.1L193.9,295z"/><path class="st68" d="M203.4,312.1l-1.1-1.3l5.5-4.8l-0.1-0.1l-8.6,1.1l-0.9-0.9l2.2-8.4l-0.1-0.1l-5.4,4.8l-1.1-1.3l6.6-5.8      l1.8,2.1l-2.1,7.8l8-1.1l1.8,2.1L203.4,312.1z"/><path class="st68" d="M212.4,319.2l-7-5.6l5.4-6.8l7,5.6l-0.9,1.1l-5.7-4.5l-1.3,1.6l5.5,4.3l-0.9,1.1l-5.4-4.3l-1.5,1.8      l5.7,4.5L212.4,319.2z"/><path class="st68" d="M225.7,320.4c-0.5,0.8-1.1,1.1-1.9,1c0.5,0.5,0.5,1.2,0.1,2l-1.1,2l-1.4-0.9l1.1-2c0,0,0.1-0.7-0.3-1      c-0.2-0.2-0.5-0.4-1-0.7l-4.3-2.5l-1.6,2.8l-1.4-0.9l4.3-7.6l6,3.4c1.1,0.6,1.8,1.2,2.1,1.6c0.3,0.6,0.2,1.4-0.3,2.4      L225.7,320.4z M224.3,319.7l0.2-0.5c0.3-0.5,0.3-0.9,0-1.1c-0.1-0.2-0.6-0.5-1.3-0.9l-4.3-2.4l-1.3,2.3l4.3,2.4      c0.6,0.3,1,0.6,1,0.6C223.7,320.3,224,320.1,224.3,319.7z"/><path class="st68" d="M226.2,326.7l-1.6-0.7l3.5-8l1.6,0.7L226.2,326.7z"/><path class="st68" d="M238.6,328.3c-0.4,1-0.8,1.6-1.4,1.7c-0.6,0.2-1.7,0-3.3-0.5l-2.2-0.7c-1.5-0.5-2.4-1-2.8-1.6      c-0.5-0.6-0.5-1.7,0-3.1l0.4-1.2c0.5-1.4,1-2.4,1.7-2.7c0.8-0.3,2-0.3,3.6,0.3l1.7,0.6c1.4,0.5,2.5,0.9,3,1.5      c0.6,0.6,0.7,1.3,0.4,2.1l-0.1,0.5l-1.5-0.5l0.1-0.3c0.2-0.5-0.1-0.9-0.6-1.3c0,0-0.9-0.4-2-0.7l-1.1-0.3      c-1.3-0.4-2.2-0.5-2.5-0.3c0,0-0.7,0.9-1.1,2l-0.2,0.7c-0.3,0.9-0.4,1.6-0.2,1.8c0.2,0.5,1,0.9,2.2,1.3l1.3,0.4      c1.2,0.4,2,0.6,2.4,0.6c0.4-0.1,0.7-0.3,0.7-0.3l0.2-0.7l1.6,0.5L238.6,328.3z"/><path class="st68" d="M251.3,332.9l-1.9-0.3l-0.7-1.8l-6.6-1l-1.3,1.6l-1.8-0.3l6.3-7.9l2.1,0.3L251.3,332.9z M248,329.2      l-1.8-4.4h-0.1l-3,3.7L248,329.2z"/><path class="st68" d="M269.6,329.2c0.1,1-0.1,1.8-0.6,2.2c-0.5,0.4-1.6,0.7-3.2,0.9l-2.3,0.2c-1.6,0.2-2.6,0.1-3.2-0.2      c-0.7-0.4-1.1-1.4-1.3-2.9l-0.1-1.2c-0.2-1.6,0-2.6,0.5-3.2c0.5-0.6,1.7-1,3.4-1.3l1.8-0.2c1.5-0.2,2.6-0.1,3.3,0.2      c0.7,0.3,1.1,0.9,1.2,1.7l0.1,0.5l-1.6,0.2v-0.3c-0.1-0.5-0.4-0.8-1.1-0.9c-0.3-0.1-1,0-2.1,0.1l-1.1,0.1      c-1.4,0.2-2.2,0.4-2.2,0.4c-0.5,0.6-0.6,1.4-0.5,2.6l0.1,0.7c0.1,1,0.4,1.6,0.6,1.8c0.4,0.3,1.3,0.4,2.6,0.2l1.3-0.2      c1.3-0.1,2-0.3,2-0.3c0.7-0.3,0.9-0.7,0.8-1.1l-0.1-0.3l1.6-0.2L269.6,329.2z"/><path class="st68" d="M280.5,329l-8.7,2.4l-2.2-8.5l8.7-2.3l0.3,1.4l-7,1.9l0.5,1.9l6.7-1.8l0.4,1.4l-6.7,1.8l0.6,2.2l7-1.8      L280.5,329z"/><path class="st68" d="M292.7,323.8l-2.1,1l-9.6-3.4l2.9,6.4l-1.5,0.7l-3.6-7.9l2.1-1l9.6,3.4l-2.9-6.4l1.6-0.7L292.7,323.8z"/><path class="st68" d="M298.8,311.1l-3.6,2.4l4,6.1l-1.4,0.9l-4-6l-3.6,2.4l-0.8-1.2l8.5-5.7L298.8,311.1z"/><path class="st68" d="M307.9,304.9c0.6,0.7,0.7,1.4,0.3,2.1c0.7-0.3,1.3-0.1,1.9,0.5l1.6,1.7l-1.3,1.1l-1.6-1.7      c0,0-0.6-0.3-1.1-0.1l-1,0.8l-3.6,3.3l2.1,2.4l-1.2,1.1l-5.9-6.4l5.1-4.7c1-0.9,1.7-1.4,2.2-1.5c0.7-0.1,1.4,0.2,2.1,1      L307.9,304.9z M306.7,306.1l-0.3-0.3c-0.4-0.4-0.7-0.5-1.1-0.3c0,0-0.6,0.4-1.3,1l-3.6,3.3l1.8,2l3.6-3.3c0.5-0.5,0.9-0.8,0.9-1      C307.1,306.9,307.1,306.5,306.7,306.1z"/><path class="st68" d="M320.4,298.4l-1.2,1.5l-2-0.3l-4.1,5.2l0.8,1.9l-1.1,1.4l-3.7-9.4l1.3-1.7L320.4,298.4z M315.5,299.4      l-4.7-0.6l-0.1,0.1l1.7,4.4L315.5,299.4z"/><path class="st68" d="M325.1,289.8l-4.1,7.4l-7.6-4.3l0.8-1.4l6.3,3.6l3.3-5.9L325.1,289.8z"/><path class="st68" d="M327.1,277.1l-1.4,4.4l-1.3-0.4l1.5-4.4L327.1,277.1z"/></g></g><g><g><defs><path d="M202.8,286.9h106.5L256,194.7L202.8,286.9z" id="SVGID_16_"/></defs><use style="overflow:visible;fill:#C5A310;" xlink:href="#SVGID_16_"/><clipPath id="SVGID_1_"><use style="overflow:visible;" xlink:href="#SVGID_16_"/></clipPath><g style="clip-path:url(#SVGID_1_);"><path class="st70" d="M253.2,328.7c-1.9-0.1-3.8-0.2-5.7-0.4l8.4-77.1h0.1L253.2,328.7z M258.8,328.7l-2.8-77.5h0.1l8.4,77.1       C262.6,328.5,260.7,328.6,258.8,328.7z M241.9,327.5c-1.8-0.3-3.7-0.7-5.6-1.2l19.5-75.1l0,0L241.9,327.5z M270.2,327.5       l-14-76.3l0,0l19.6,75.1C273.9,326.7,272.1,327.1,270.2,327.5z M230.9,324.6c-1.8-0.6-3.6-1.3-5.4-2.1l30.3-71.4l0,0       L230.9,324.6z M281.3,324.6l-25.1-73.4l0,0l30.4,71.4C284.8,323.3,283,324,281.3,324.6z M220.3,320.1c-1.7-0.9-3.3-1.8-4.9-2.8       l40.4-66.1h0.1L220.3,320.1z M291.8,320.1l-35.6-69h0.1l40.5,66.1C295.1,318.3,293.4,319.2,291.8,320.1z M210.6,314.2       c-1.6-1.1-3-2.3-4.5-3.5l49.6-59.6l0,0L210.6,314.2z M301.5,314.2l-45.2-63h0.1l49.7,59.6C304.5,311.9,303,313.1,301.5,314.2z        M201.8,306.9c-1.4-1.3-2.7-2.7-4-4.1l57.7-51.8c0.1,0.1,0.1,0.1,0.1,0.1L201.8,306.9z M310.2,306.9l-53.8-55.8l0.1-0.1       l57.7,51.8C312.9,304.2,311.5,305.6,310.2,306.9z M194.2,298.5c-1.1-1.5-2.3-3-3.3-4.7l64.6-42.9l0.1,0.1L194.2,298.5z        M317.8,298.4L256.4,251l0.1-0.1l64.7,42.9C320.1,295.4,319,296.9,317.8,298.4z M187.9,289c-0.9-1.7-1.8-3.4-2.6-5.1l70.2-33       l0,0L187.9,289z M324.1,288.9l-67.6-38l0,0l70.2,32.9C325.9,285.5,325.1,287.3,324.1,288.9z M183.1,278.6       c-0.7-1.8-1.3-3.6-1.9-5.4l74.3-22.4v0.1L183.1,278.6z M329,278.6l-72.5-27.7l0.1-0.1l74.3,22.3       C330.3,275,329.6,276.8,329,278.6z M179.8,267.7c-0.4-1.9-0.7-3.8-1-5.6l76.7-11.3l0,0L179.8,267.7z M332.2,267.6l-75.7-16.8       v-0.1l76.7,11.2C333,263.9,332.6,265.8,332.2,267.6z M178.1,256.4c-0.1-1.8-0.2-3.7-0.2-5.6l77.5-0.1c0,0,0,0.1,0,0.1       L178.1,256.4z M333.9,256.3l-77.4-5.6c0-0.1,0-0.1,0-0.1v-0.1l77.5-0.2v0.2C334.1,252.6,334,254.4,333.9,256.3z M255.5,250.6       l-77.4-5.5c0.1-1.8,0.3-3.8,0.6-5.6L255.5,250.6L255.5,250.6z M256.5,250.6L256.5,250.6l76.7-11.4c0.2,1.9,0.5,3.8,0.6,5.7       L256.5,250.6z M256.5,250.5L256.5,250.5l74.2-22.5c0.6,1.8,1,3.7,1.4,5.5L256.5,250.5z M255.5,250.5l-75.7-16.7       c0.4-1.8,0.9-3.7,1.4-5.5L255.5,250.5L255.5,250.5z M255.5,250.5L183,222.8c0.7-1.8,1.4-3.5,2.2-5.2L255.5,250.5L255.5,250.5z        M256.5,250.5L256.5,250.5l70.2-33.2c0.8,1.7,1.6,3.5,2.2,5.3L256.5,250.5z M255.5,250.4l-67.6-37.9c0.9-1.7,1.9-3.3,2.9-4.9       L255.5,250.4L255.5,250.4z M256.5,250.4L256.5,250.4l64.5-43c1,1.6,2.1,3.2,3,4.8L256.5,250.4z M255.6,250.4L194.1,203       c1.1-1.5,2.4-3,3.6-4.4L255.6,250.4L255.6,250.4z M256.4,250.4L256.4,250.4l57.6-52c1.3,1.4,2.5,2.9,3.6,4.4L256.4,250.4z        M255.6,250.3l-53.9-55.7c1.4-1.3,2.8-2.6,4.3-3.8L255.6,250.3L255.6,250.3z M256.4,250.3L256.4,250.3l49.5-59.7       c1.4,1.2,2.9,2.5,4.2,3.8L256.4,250.3z M255.7,250.2l-45.2-63c1.5-1.1,3.1-2.1,4.7-3.1L255.7,250.2L255.7,250.2z M256.3,250.2       L256.3,250.2l40.3-66.3c1.6,1,3.2,2.1,4.8,3.2L256.3,250.2z M255.8,250.2l-35.6-68.9c1.7-0.9,3.4-1.7,5.2-2.5L255.8,250.2       C255.8,250.1,255.8,250.1,255.8,250.2z M256.2,250.2C256.2,250.1,256.2,250.1,256.2,250.2l30.2-71.5c1.7,0.7,3.5,1.6,5.2,2.5       L256.2,250.2z M256.2,250.1C256.1,250.1,256.1,250.1,256.2,250.1l19.4-75.1c1.8,0.5,3.7,1,5.5,1.6L256.2,250.1z M255.8,250.1       l-25.2-73.3c1.8-0.6,3.7-1.2,5.5-1.7L255.8,250.1L255.8,250.1z M255.9,250.1l-14.1-76.3c1.8-0.3,3.7-0.6,5.6-0.8L255.9,250.1       L255.9,250.1z M256.1,250.1L256.1,250.1l8.2-77.1c1.9,0.2,3.8,0.5,5.6,0.8L256.1,250.1z M256,250.1l-2.9-77.5       c1,0,2-0.1,2.9-0.1c0.9,0,1.8,0.1,2.7,0.1L256,250.1L256,250.1z"/></g></g><g><defs><path d="M202.8,286.9h106.5L256,194.7L202.8,286.9z" id="SVGID_18_"/></defs><clipPath id="SVGID_2_"><use style="overflow:visible;" xlink:href="#SVGID_18_"/></clipPath><g id="XMLID_5739_" style="clip-path:url(#SVGID_2_);"><g><path class="st72" d="M294.3,265.1h-0.7c0-10.1-3.9-19.5-11-26.6c-7.1-7.1-16.5-11-26.6-11c-10,0-19.4,3.9-26.5,11        c-7.1,7.1-11,16.5-11,26.6h-0.7c0-10.2,4-19.9,11.2-27.1c7.2-7.2,16.8-11.3,27.1-11.3c10.2,0,19.9,4,27.1,11.3        C290.3,245.3,294.3,254.9,294.3,265.1z"/><path class="st73" d="M293.6,265.1h-0.7c0-9.8-3.9-19.1-10.8-26c-7-7-16.2-10.8-26-10.8c-9.8,0-19,3.9-26,10.8        c-7,7-10.8,16.2-10.8,26h-0.7c0-10.1,3.9-19.5,11-26.6c7.1-7.1,16.5-11,26.5-11c10.1,0,19.5,3.9,26.6,11        C289.6,245.7,293.6,255.1,293.6,265.1z"/><path class="st74" d="M292.8,265.1h-0.7c0-9.7-3.7-18.7-10.6-25.5c-6.8-6.8-15.9-10.6-25.5-10.6c-9.6,0-18.7,3.8-25.5,10.6        c-6.8,6.8-10.6,15.9-10.6,25.5h-0.7c0-9.8,3.9-19.1,10.8-26c6.9-7,16.1-10.8,26-10.8c9.8,0,19.1,3.9,26,10.8        C289,246.1,292.8,255.3,292.8,265.1z"/><path class="st75" d="M292.1,265.1h-0.8c0-9.4-3.7-18.3-10.3-25s-15.5-10.3-25-10.3c-9.4,0-18.3,3.7-24.9,10.3        s-10.3,15.6-10.3,25h-0.7c0-9.7,3.7-18.7,10.6-25.5c6.8-6.8,15.9-10.6,25.5-10.6c9.7,0,18.7,3.8,25.5,10.6        C288.3,246.5,292.1,255.5,292.1,265.1z"/><path class="st76" d="M291.3,265.1h-0.7c0-9.3-3.6-17.9-10.1-24.5c-6.6-6.5-15.2-10.1-24.5-10.1c-9.2,0-17.9,3.6-24.4,10.1        c-6.6,6.6-10.1,15.2-10.1,24.5h-0.7c0-9.4,3.7-18.3,10.3-25s15.5-10.3,24.9-10.3c9.5,0,18.3,3.7,25,10.3        S291.3,255.7,291.3,265.1z"/><path class="st77" d="M290.6,265.1h-0.7c0-9.1-3.5-17.5-9.9-24c-6.4-6.4-14.9-9.9-24-9.9c-9,0-17.5,3.5-23.9,9.9        c-6.4,6.4-9.9,14.9-9.9,24h-0.7c0-9.3,3.6-17.9,10.1-24.5c6.6-6.5,15.2-10.1,24.4-10.1c9.3,0,17.9,3.6,24.5,10.1        C286.9,247.2,290.6,255.9,290.6,265.1z"/><path class="st78" d="M289.8,265.1h-0.7c0-18.3-14.8-33.1-33.1-33.1c-18.3,0-33,14.8-33,33.1h-0.7c0-9.1,3.5-17.5,9.9-24        c6.4-6.4,14.9-9.9,23.9-9.9c9.1,0,17.5,3.5,24,9.9C286.3,247.6,289.8,256.1,289.8,265.1z"/></g></g></g><g><g id="XMLID_5738_"><g><path class="st0" d="M309,286.5l0.2,0.4h-2.8C307.3,286.8,308,286.6,309,286.5z"/><path class="st79" d="M256,273c4.5,0,4.5,0.9,9.1,0.9c4.5,0,4.5-0.9,9-0.9s4.5,0.9,9,0.9c4.5,0,4.5-0.9,9.1-0.9        c4.5,0,4.5,0.9,9,0.9c0,0,0.3,0,0.5,0l0.5,0.9c-0.7,0.1-1.5,0.1-2.6,0.1c-4.5,0-4.5-0.9-9-0.9c-4.5,0-4.5,0.9-9.1,0.9        c-4.5,0-4.5-0.9-9-0.9c-4.5,0-4.5,0.9-9,0.9c-4.5,0-4.5-0.9-9-0.9c-4.5,0-4.5,0.9-9.1,0.9c-4.5,0-4.5-0.9-9-0.9        c-4.5,0-4.5,0.9-9,0.9c-4.5,0-4.5-0.9-9.1-0.9c-4.3,0-4.5,0.8-8.5,0.9l0.6-1c0,0,0.3,0,0.5,0c4.5,0,4.5-0.9,9-0.9        c4.5,0,4.5,0.9,9.1,0.9c4.5,0,4.5-0.9,9-0.9s4.5,0.9,9,0.9C251.5,273.9,251.5,273,256,273z"/><path class="st80" d="M256,275.1c4.5,0,4.5,0.9,9.1,0.9c4.5,0,4.5-0.9,9-0.9s4.5,0.9,9,0.9c4.5,0,4.5-0.9,9.1-0.9        c4.5,0,4.5,0.9,9,0.9c0.6,0,1.2-0.1,1.7-0.1l0.5,0.8c-0.9,0.1-2,0.3-3.7,0.3c-4.5,0-4.5-0.9-9-0.9c-4.5,0-4.5,0.9-9.1,0.9        c-4.5,0-4.5-0.9-9-0.9c-4.5,0-4.5,0.9-9,0.9c-4.5,0-4.5-0.9-9-0.9c-4.5,0-4.5,0.9-9.1,0.9c-4.5,0-4.5-0.9-9-0.9        c-4.5,0-4.5,0.9-9,0.9c-4.5,0-4.5-0.9-9.1-0.9c-4.5,0-4.5,0.9-9,0.9c-0.2,0-0.5,0-0.5,0l0.4-1.1c0,0,1,0.1,1.7,0.1        c4.5,0,4.5-0.9,9-0.9c4.5,0,4.5,0.9,9.1,0.9c4.5,0,4.5-0.9,9-0.9s4.5,0.9,9,0.9C251.5,275.9,251.5,275.1,256,275.1z"/><path class="st80" d="M210.8,278c4.5,0,4.5-0.8,9-0.8c4.5,0,4.5,0.8,9.1,0.8c4.5,0,4.5-0.8,9-0.8s4.5,0.8,9,0.8        c4.5,0,4.5-0.8,9-0.8c4.5,0,4.5,0.8,9.1,0.8c4.5,0,4.5-0.8,9-0.8s4.5,0.8,9,0.8c4.5,0,4.5-0.8,9.1-0.8c4.5,0,4.5,0.8,9,0.8        c1.2,0,2.1-0.1,2.8-0.1l0.4,0.7c-1.3,0.2-2.4,0.5-4.8,0.5c-4.5,0-4.5-0.9-9-0.9c-4.5,0-4.5,0.9-9.1,0.9c-4.5,0-4.5-0.9-9-0.9        c-4.5,0-4.5,0.9-9,0.9c-4.5,0-4.5-0.9-9-0.9c-4.5,0-4.5,0.9-9.1,0.9c-4.5,0-4.5-0.9-9-0.9c-4.5,0-4.5,0.9-9,0.9        c-4.5,0-4.5-0.9-9.1-0.9c-4.5,0-4.5,0.9-9,0.9c-0.7,0-1.3,0-1.3,0l0.1-1.1C208.7,277.9,209.6,278,210.8,278z"/><path class="st80" d="M210.8,280c4.5,0,4.5-0.9,9-0.9c4.5,0,4.5,0.9,9.1,0.9c4.5,0,4.5-0.9,9-0.9s4.5,0.9,9,0.9        c4.5,0,4.5-0.9,9-0.9c4.5,0,4.5,0.9,9.1,0.9c4.5,0,4.5-0.9,9-0.9s4.5,0.9,9,0.9c4.5,0,4.5-0.9,9.1-0.9c4.5,0,4.5,0.9,9,0.9        c1.8,0,2.9-0.1,3.9-0.3l0.3,0.6c-1.8,0.3-2.8,0.7-5.9,0.7c-4.5,0-4.5-0.9-9-0.9c-4.5,0-4.5,0.9-9.1,0.9c-4.5,0-4.5-0.9-9-0.9        c-4.5,0-4.5,0.9-9,0.9c-4.5,0-4.5-0.9-9-0.9c-4.5,0-4.5,0.9-9.1,0.9c-4.5,0-4.5-0.9-9-0.9c-4.5,0-4.5,0.9-9,0.9        c-4.5,0-4.5-0.9-9.1-0.9c-4.5,0-4.5,0.9-9,0.9c-1.3,0-2.2-0.1-2.9-0.2l0.6-1.1C207.9,279.9,209,280,210.8,280z"/><path class="st80" d="M210.8,282.1c4.5,0,4.5-0.9,9-0.9c4.5,0,4.5,0.9,9.1,0.9c4.5,0,4.5-0.9,9-0.9s4.5,0.9,9,0.9        c4.5,0,4.5-0.9,9-0.9c4.5,0,4.5,0.9,9.1,0.9c4.5,0,4.5-0.9,9-0.9s4.5,0.9,9,0.9c4.5,0,4.5-0.9,9.1-0.9c4.5,0,4.5,0.9,9,0.9        c2.5,0,3.7-0.3,4.9-0.5l0.5,0.7c-2.6,0.2-3.3,0.8-7,0.8c-4.5,0-4.5-0.9-9-0.9c-4.5,0-4.5,0.9-9.1,0.9c-4.5,0-4.5-0.9-9-0.9        c-4.5,0-4.5,0.9-9,0.9c-4.5,0-4.5-0.9-9-0.9c-4.5,0-4.5,0.9-9.1,0.9c-4.5,0-4.5-0.9-9-0.9c-4.5,0-4.5,0.9-9,0.9        c-4.5,0-4.5-0.9-9.1-0.9c-4.5,0-4.5,0.9-9,0.9c-2,0-3-0.2-4-0.3l0.7-1.2C207.1,281.8,208.3,282.1,210.8,282.1z"/><path class="st80" d="M256,283.3c4.5,0,4.5,0.9,9.1,0.9c4.5,0,4.5-0.9,9-0.9s4.5,0.9,9,0.9c4.5,0,4.5-0.9,9.1-0.9        c4.5,0,4.5,0.9,9,0.9c3.2,0,4.1-0.5,6-0.7l0.5,0.9c-3.7,0.1-4,0.8-8.2,0.8c-4.5,0-4.5-0.8-9-0.8c-4.5,0-4.5,0.8-9.1,0.8        c-4.5,0-4.5-0.8-9-0.8c-4.5,0-4.5,0.8-9,0.8c-4.5,0-4.5-0.8-9-0.8c-4.5,0-4.5,0.8-9.1,0.8c-4.5,0-4.5-0.8-9-0.8        c-4.5,0-4.5,0.8-9,0.8c-4.5,0-4.5-0.8-9.1-0.8c-4.5,0-4.5,0.8-9,0.8c-2.6,0-3.7-0.3-5.1-0.5l0.7-1.1c1.9,0.2,2.8,0.7,6,0.7        c4.5,0,4.5-0.9,9-0.9c4.5,0,4.5,0.9,9.1,0.9c4.5,0,4.5-0.9,9-0.9s4.5,0.9,9,0.9C251.5,284.2,251.5,283.3,256,283.3z"/><path class="st80" d="M210.8,286.2c4.5,0,4.5-0.9,9-0.9c4.5,0,4.5,0.9,9.1,0.9c4.5,0,4.5-0.9,9-0.9s4.5,0.9,9,0.9        c4.5,0,4.5-0.9,9-0.9c4.5,0,4.5,0.9,9.1,0.9c4.5,0,4.5-0.9,9-0.9s4.5,0.9,9,0.9c4.5,0,4.5-0.9,9.1-0.9c4.5,0,4.5,0.9,9,0.9        c3.8,0,4.4-0.6,7.2-0.8l0.6,1.1c-1,0.1-1.7,0.3-2.6,0.4h-7.2c-1.6-0.2-2.6-0.6-5.5-0.6c-2.8,0-3.9,0.3-5.4,0.6h-7.2        c-1.5-0.2-2.6-0.6-5.4-0.6c-2.9,0-3.9,0.3-5.4,0.6H263c-1.6-0.2-2.6-0.6-5.5-0.6c-2.8,0-3.9,0.3-5.4,0.6h-7.2        c-1.5-0.2-2.6-0.6-5.4-0.6c-2.9,0-3.9,0.3-5.5,0.6h-7.2c-1.5-0.2-2.5-0.6-5.4-0.6c-2.8,0-3.9,0.3-5.4,0.6h-7.2        c-1.6-0.2-2.9-0.6-5.7-0.6l0.5-1C206.4,285.6,207,286.2,210.8,286.2z"/><path class="st81" d="M218.2,270c4.5,0,4.5,0.8,9.1,0.8c4.5,0,4.5-0.8,9-0.8c4.5,0,4.5,0.8,9,0.8c4.5,0,4.5-0.8,9.1-0.8        c4.5,0,4.5,0.8,9,0.8c4.5,0,4.5-0.8,9-0.8c4.5,0,4.5,0.8,9,0.8c4.5,0,4.5-0.8,9.1-0.8c4.5,0,4.5,0.8,9,0.8c0,0,0.2,0,0.3,0        l0.6,1c-3.8-0.1-4.1-0.9-8.3-0.9c-4.5,0-4.5,0.9-9.1,0.9c-4.5,0-4.5-0.9-9-0.9s-4.5,0.9-9,0.9c-4.5,0-4.5-0.9-9.1-0.9        c-4.5,0-4.5,0.9-9,0.9c-4.5,0-4.5-0.9-9-0.9s-4.5,0.9-9,0.9c-4.5,0-4.5-0.9-9.1-0.9c-4.3,0-4.5,0.8-8.3,0.9l0.7-1.1        C214.1,270.4,215,270,218.2,270z"/><path class="st0" d="M254.4,274c4.5,0,4.5,0.9,9,0.9c4.5,0,4.5-0.9,9-0.9c4.5,0,4.5,0.9,9,0.9c4.5,0,4.5-0.9,9.1-0.9        c4.5,0,4.5,0.9,9,0.9c1.1,0,2-0.1,2.6-0.1l0.6,1.1c-0.5,0-1,0.1-1.7,0.1c-4.5,0-4.5-0.9-9-0.9c-4.5,0-4.5,0.9-9.1,0.9        c-4.5,0-4.5-0.9-9-0.9s-4.5,0.9-9,0.9c-4.5,0-4.5-0.9-9.1-0.9c-4.5,0-4.5,0.9-9,0.9c-4.5,0-4.5-0.9-9-0.9s-4.5,0.9-9,0.9        c-4.5,0-4.5-0.9-9.1-0.9c-4.5,0-4.5,0.9-9,0.9c-0.6,0-1.2-0.1-1.2-0.1l0.1-1c4-0.1,4.2-0.9,8.5-0.9c4.5,0,4.5,0.9,9.1,0.9        c4.5,0,4.5-0.9,9-0.9c4.5,0,4.5,0.9,9,0.9C249.9,274.9,249.9,274,254.4,274z"/><path class="st0" d="M254.4,276.1c4.5,0,4.5,0.9,9,0.9c4.5,0,4.5-0.9,9-0.9c4.5,0,4.5,0.9,9,0.9c4.5,0,4.5-0.9,9.1-0.9        c4.5,0,4.5,0.9,9,0.9c1.7,0,2.8-0.2,3.7-0.3l0.7,1.1c-0.7,0.1-1.6,0.1-2.8,0.1c-4.5,0-4.5-0.8-9-0.8c-4.5,0-4.5,0.8-9.1,0.8        c-4.5,0-4.5-0.8-9-0.8s-4.5,0.8-9,0.8c-4.5,0-4.5-0.8-9.1-0.8c-4.5,0-4.5,0.8-9,0.8c-4.5,0-4.5-0.8-9-0.8s-4.5,0.8-9,0.8        c-4.5,0-4.5-0.8-9.1-0.8c-4.5,0-4.5,0.8-9,0.8c-1.2,0-2.1-0.1-2.8-0.1l0.5-0.9c0,0,0.5,0.1,0.7,0.1c4.5,0,4.5-0.9,9-0.9        c4.5,0,4.5,0.9,9.1,0.9c4.5,0,4.5-0.9,9-0.9c4.5,0,4.5,0.9,9,0.9C249.9,277,249.9,276.1,254.4,276.1z"/><path class="st0" d="M254.4,278.1c4.5,0,4.5,0.9,9,0.9c4.5,0,4.5-0.9,9-0.9c4.5,0,4.5,0.9,9,0.9c4.5,0,4.5-0.9,9.1-0.9        c4.5,0,4.5,0.9,9,0.9c2.5,0,3.6-0.2,4.8-0.5l0.7,1.2c-1,0.2-2.1,0.3-3.9,0.3c-4.5,0-4.5-0.9-9-0.9c-4.5,0-4.5,0.9-9.1,0.9        c-4.5,0-4.5-0.9-9-0.9s-4.5,0.9-9,0.9c-4.5,0-4.5-0.9-9.1-0.9c-4.5,0-4.5,0.9-9,0.9c-4.5,0-4.5-0.9-9-0.9s-4.5,0.9-9,0.9        c-4.5,0-4.5-0.9-9.1-0.9c-4.5,0-4.5,0.9-9,0.9c-1.8,0-2.9-0.1-3.9-0.3l0.5-0.8c0,0,1.1,0.1,1.8,0.1c4.5,0,4.5-0.9,9-0.9        c4.5,0,4.5,0.9,9.1,0.9c4.5,0,4.5-0.9,9-0.9c4.5,0,4.5,0.9,9,0.9C249.9,279,249.9,278.1,254.4,278.1z"/><path class="st0" d="M254.4,280.2c4.5,0,4.5,0.9,9,0.9c4.5,0,4.5-0.9,9-0.9c4.5,0,4.5,0.9,9,0.9c4.5,0,4.5-0.9,9.1-0.9        c4.5,0,4.5,0.9,9,0.9c3.1,0,4.1-0.4,5.9-0.7l0.7,1.2c-1.3,0.2-2.4,0.5-4.9,0.5c-4.5,0-4.5-0.9-9-0.9c-4.5,0-4.5,0.9-9.1,0.9        c-4.5,0-4.5-0.9-9-0.9s-4.5,0.9-9,0.9c-4.5,0-4.5-0.9-9.1-0.9c-4.5,0-4.5,0.9-9,0.9c-4.5,0-4.5-0.9-9-0.9s-4.5,0.9-9,0.9        c-4.5,0-4.5-0.9-9.1-0.9c-4.5,0-4.5,0.9-9,0.9c-2.5,0-3.7-0.3-4.9-0.5l0.4-0.7c0.8,0.1,1.7,0.2,2.9,0.2c4.5,0,4.5-0.9,9-0.9        c4.5,0,4.5,0.9,9.1,0.9c4.5,0,4.5-0.9,9-0.9c4.5,0,4.5,0.9,9,0.9C249.9,281.1,249.9,280.2,254.4,280.2z"/><path class="st0" d="M205.2,282.8c1,0.2,2.1,0.3,4,0.3c4.5,0,4.5-0.9,9-0.9c4.5,0,4.5,0.9,9.1,0.9c4.5,0,4.5-0.9,9-0.9        c4.5,0,4.5,0.9,9,0.9c4.5,0,4.5-0.9,9.1-0.9c4.5,0,4.5,0.9,9,0.9c4.5,0,4.5-0.9,9-0.9c4.5,0,4.5,0.9,9,0.9        c4.5,0,4.5-0.9,9.1-0.9c4.5,0,4.5,0.9,9,0.9c3.7,0,4.4-0.6,7-0.8l0.6,1.1c-1.9,0.2-2.8,0.7-6,0.7c-4.5,0-4.5-0.9-9-0.9        c-4.5,0-4.5,0.9-9.1,0.9c-4.5,0-4.5-0.9-9-0.9s-4.5,0.9-9,0.9c-4.5,0-4.5-0.9-9.1-0.9c-4.5,0-4.5,0.9-9,0.9        c-4.5,0-4.5-0.9-9-0.9s-4.5,0.9-9,0.9c-4.5,0-4.5-0.9-9.1-0.9c-4.5,0-4.5,0.9-9,0.9c-3.2,0-4.1-0.5-6-0.7L205.2,282.8z"/><path class="st0" d="M254.4,284.3c4.5,0,4.5,0.8,9,0.8c4.5,0,4.5-0.8,9-0.8c4.5,0,4.5,0.8,9,0.8c4.5,0,4.5-0.8,9.1-0.8        c4.5,0,4.5,0.8,9,0.8c4.2,0,4.5-0.7,8.2-0.8l0.6,1c-2.8,0.2-3.4,0.8-7.2,0.8c-4.5,0-4.5-0.9-9-0.9c-4.5,0-4.5,0.9-9.1,0.9        c-4.5,0-4.5-0.9-9-0.9s-4.5,0.9-9,0.9c-4.5,0-4.5-0.9-9.1-0.9c-4.5,0-4.5,0.9-9,0.9c-4.5,0-4.5-0.9-9-0.9s-4.5,0.9-9,0.9        c-4.5,0-4.5-0.9-9.1-0.9c-4.5,0-4.5,0.9-9,0.9c-3.8,0-4.4-0.6-7.2-0.8l0.5-0.7c1.4,0.2,2.5,0.5,5.1,0.5c4.5,0,4.5-0.8,9-0.8        c4.5,0,4.5,0.8,9.1,0.8c4.5,0,4.5-0.8,9-0.8c4.5,0,4.5,0.8,9,0.8C249.9,285.1,249.9,284.3,254.4,284.3z"/><path class="st81" d="M297.3,266.3l0.7,1.2c-1.8-0.3-2.8-0.7-5.9-0.7c-4.5,0-4.5,0.9-9.1,0.9c-4.5,0-4.5-0.9-9-0.9        s-4.5,0.9-9,0.9c-4.5,0-4.5-0.9-9.1-0.9c-4.5,0-4.5,0.9-9,0.9c-4.5,0-4.5-0.9-9-0.9s-4.5,0.9-9,0.9c-4.5,0-4.5-0.9-9.1-0.9        c-3.1,0-4.1,0.4-5.9,0.7l0.6-1.2H297.3z"/><polygon class="st79" points="296.7,265.3 297.3,266.3 214.6,266.3 215.3,265.3       "/><path class="st0" d="M293.7,286.3c2.9,0,3.9,0.3,5.5,0.6h-10.9C289.9,286.7,290.9,286.3,293.7,286.3z"/><polygon class="st81" points="296.2,264.3 296.7,265.3 215.3,265.3 215.8,264.3       "/><path class="st79" d="M256,270.9c4.5,0,4.5,0.9,9.1,0.9c4.5,0,4.5-0.9,9-0.9s4.5,0.9,9,0.9c4.5,0,4.5-0.9,9.1-0.9        c4.3,0,4.5,0.8,8.3,0.9l0.6,1c-0.4,0-0.9,0-1.5,0c-4.5,0-4.5-0.9-9-0.9c-4.5,0-4.5,0.9-9.1,0.9c-4.5,0-4.5-0.9-9-0.9        c-4.5,0-4.5,0.9-9,0.9c-4.5,0-4.5-0.9-9-0.9c-4.5,0-4.5,0.9-9.1,0.9c-4.5,0-4.5-0.9-9-0.9c-4.5,0-4.5,0.9-9,0.9        c-4.5,0-4.5-0.9-9.1-0.9c-3.9,0-4.4,0.6-7.3,0.8l0.6-1c3.9-0.1,4.1-0.9,8.3-0.9c4.5,0,4.5,0.9,9.1,0.9c4.5,0,4.5-0.9,9-0.9        s4.5,0.9,9,0.9C251.5,271.8,251.5,270.9,256,270.9z"/><path class="st79" d="M256,268.9c4.5,0,4.5,0.9,9.1,0.9c4.5,0,4.5-0.9,9-0.9s4.5,0.9,9,0.9c4.5,0,4.5-0.9,9.1-0.9        c3.7,0,4.4,0.6,7.1,0.8l0.6,1c-0.1,0-0.2,0-0.2,0c-4.7,0-4.7-0.8-9.1-0.8c-4.5,0-4.5,0.8-9.1,0.8c-4.5,0-4.5-0.8-9-0.8        c-4.5,0-4.5,0.8-9,0.8c-4.5,0-4.5-0.8-9-0.8c-4.5,0-4.5,0.8-9.1,0.8c-4.5,0-4.5-0.8-9-0.8c-4.5,0-4.5,0.8-9,0.8        c-4.5,0-4.5-0.8-9.1-0.8c-3.2,0-4.1,0.4-6,0.7l0.5-0.9c2.8-0.2,3.3-0.8,7.1-0.8c4.5,0,4.5,0.9,9.1,0.9c4.5,0,4.5-0.9,9-0.9        s4.5,0.9,9,0.9C251.5,269.8,251.5,268.9,256,268.9z"/><polygon class="st79" points="295.8,263.6 296.2,264.3 215.8,264.3 216.2,263.6       "/><polygon class="st81" points="295.5,263.2 295.8,263.6 216.2,263.6 216.5,263.2       "/><polygon class="st79" points="295.3,262.8 295.5,263.2 216.5,263.2 216.7,262.8       "/><polygon class="st81" points="295.3,262.8 216.7,262.8 216.8,262.6 295.2,262.6       "/><path class="st81" d="M218.2,272c4.5,0,4.5,0.9,9.1,0.9c4.5,0,4.5-0.9,9-0.9c4.5,0,4.5,0.9,9,0.9c4.5,0,4.5-0.9,9.1-0.9        c4.5,0,4.5,0.9,9,0.9c4.5,0,4.5-0.9,9-0.9c4.5,0,4.5,0.9,9,0.9c4.5,0,4.5-0.9,9.1-0.9c4.5,0,4.5,0.9,9,0.9c0.6,0,1.1,0,1.5,0        l0.6,1c-0.2,0-0.3,0-0.3,0c-4.7,0-4.7-0.9-9.2-0.9c-4.5,0-4.5,0.9-9.1,0.9c-4.5,0-4.5-0.9-9-0.9s-4.5,0.9-9,0.9        c-4.5,0-4.5-0.9-9.1-0.9c-4.5,0-4.5,0.9-9,0.9c-4.5,0-4.5-0.9-9-0.9s-4.5,0.9-9,0.9c-4.5,0-4.5-0.9-9.1-0.9        c-4.5,0-4.5,0.9-9,0.9c-0.2,0-0.3,0-0.3,0l0.5-1.1C213.8,272.6,214.4,272,218.2,272z"/><path class="st81" d="M218.2,267.9c4.5,0,4.5,0.9,9.1,0.9c4.5,0,4.5-0.9,9-0.9c4.5,0,4.5,0.9,9,0.9c4.5,0,4.5-0.9,9.1-0.9        c4.5,0,4.5,0.9,9,0.9c4.5,0,4.5-0.9,9-0.9c4.5,0,4.5,0.9,9,0.9c4.5,0,4.5-0.9,9.1-0.9c4.2,0,4.5,0.7,8.2,0.9l0.6,1        c-2.8-0.2-3.4-0.8-7.1-0.8c-4.5,0-4.5,0.9-9.1,0.9c-4.5,0-4.5-0.9-9-0.9s-4.5,0.9-9,0.9c-4.5,0-4.5-0.9-9.1-0.9        c-4.5,0-4.5,0.9-9,0.9c-4.5,0-4.5-0.9-9-0.9s-4.5,0.9-9,0.9c-4.5,0-4.5-0.9-9.1-0.9c-3.8,0-4.4,0.6-7.1,0.8l0.7-1.4        C214.7,268.1,215.8,267.9,218.2,267.9z"/><path class="st79" d="M256,266.9c4.5,0,4.5,0.9,9.1,0.9c4.5,0,4.5-0.9,9-0.9s4.5,0.9,9,0.9c4.5,0,4.5-0.9,9.1-0.9        c3.1,0,4.1,0.4,5.9,0.7l0.7,1.2c-3.7-0.1-4-0.9-8.2-0.9c-4.5,0-4.5,0.9-9.1,0.9c-4.5,0-4.5-0.9-9-0.9c-4.5,0-4.5,0.9-9,0.9        c-4.5,0-4.5-0.9-9-0.9c-4.5,0-4.5,0.9-9.1,0.9c-4.5,0-4.5-0.9-9-0.9c-4.5,0-4.5,0.9-9,0.9c-4.5,0-4.5-0.9-9.1-0.9        c-2.4,0-3.5,0.2-4.8,0.5l0.5-0.8c1.8-0.3,2.8-0.7,5.9-0.7c4.5,0,4.5,0.9,9.1,0.9c4.5,0,4.5-0.9,9-0.9s4.5,0.9,9,0.9        C251.5,267.7,251.5,266.9,256,266.9z"/><path class="st0" d="M275.7,286.3c2.8,0,3.9,0.3,5.4,0.6h-10.8C271.8,286.7,272.8,286.3,275.7,286.3z"/><path class="st0" d="M257.6,286.3c2.9,0,3.9,0.3,5.5,0.6h-10.9C253.7,286.7,254.8,286.3,257.6,286.3z"/><path class="st0" d="M239.5,286.3c2.8,0,3.9,0.3,5.4,0.6h-10.9C235.6,286.7,236.7,286.3,239.5,286.3z"/><path class="st0" d="M221.4,286.3c2.9,0,3.9,0.3,5.4,0.6H216C217.5,286.7,218.6,286.3,221.4,286.3z"/><path class="st0" d="M208.8,286.9h-6l0.3-0.6C205.9,286.3,207.2,286.7,208.8,286.9z"/></g></g></g><g id="XMLID_5737_"><g><path class="st82" d="M258.7,241.3c0,0.5-0.2,0.7-0.2,0.9c-0.2,0.3-0.5,0.6-0.5,0.6c-0.2-0.1-0.1-0.2-0.1-0.2       c0-0.6-0.3-0.7-0.6-1.1c-0.5-0.6-0.6-1.3-0.6-1.8l-0.1-0.7C257.5,239.3,258.2,240.3,258.7,241.3z"/><path class="st82" d="M260.2,247.5L260.2,247.5c-0.6,0.3-1.3,0.1-2,0.4l-0.7,0.9c-0.1,0.3-0.2,0.5-0.2,0.8l0,0l-0.1,0.4       c-0.2,0.4-0.3,0.7-0.7,1l-0.2,0.1l-0.1-0.2c-0.1-0.2,0-0.4,0-0.4c0.2-0.3,0.4-0.5,0.4-0.5c0.3-0.6,0.3-1,0.3-1       c0.2-0.7,0.3-0.9,0.4-1.1c0,0,0.8-0.5,1.3-0.5l0.9,0.1c0.2,0,0.4-0.1,0.4-0.1L260.2,247.5z"/><path class="st83" d="M259.5,248l-0.8,0.1l-0.8,0.3c-0.2,0.2-0.3,0.5-0.3,0.7l0,0c0,0-0.2,0.3-0.2,0.6l-0.2-0.1       c0.1-0.3,0.1-0.5,0.2-0.8l0.7-0.9c0.6-0.3,1.4-0.1,2-0.3l-0.3,0.5C259.9,248.1,259.6,248,259.5,248z"/><path class="st84" d="M259.9,248.1c-0.4,0.2-0.9,0.2-0.9,0.2c-0.6,0.1-1,0.4-1.3,0.9c0-0.2,0.1-0.5,0.3-0.7l0.8-0.3l0.8-0.1       C259.6,248,259.8,248,259.9,248.1z"/><path class="st84" d="M255.6,249.3c0,0.5-0.1,0.7,0,1.2c0,0,0.1,0.2,0.1,0.3l0.1,0.4c-0.2-0.1-0.3-0.3-0.4-0.5v-0.2       c0-0.4,0.1-0.9,0-1.3c-0.1-0.6-0.5-1-0.9-1.4c-0.5-0.4-1-0.6-1.6-0.9c-0.4-0.2-0.8-0.6-1-1c0.3,0,0.7,0.1,1.1,0.2       c0.5,0.1,1,0.3,1.4,0.6l0.5,0.5c0.4,0.5,0.5,1.2,0.5,1.4L255.6,249.3z"/><path class="st85" d="M255.1,243.9c0.1,0.6-0.1,1.1-0.2,1.6c-0.1,0.4-0.2,0.9-0.4,1.3c-0.5-0.3-1-0.5-1.4-0.6       c-0.4-0.2-0.8-0.2-1.1-0.2c0,0-0.1-0.3-0.1-0.4c0,0,0.1-0.8,0.3-1.1c0.7-1.1,1.3-2,1.3-2l0.1-0.1l0,0c0,0-0.8,0.7-1.3,0.4       c0.2-0.5,0.6-1.2,1.2-1.3c0.9-0.2,1.6-0.5,1.8-0.7c-0.1,0.3-0.2,0.6-0.2,0.6c0,0.7,0,1.1,0.1,1.5       C254.9,242.7,255.1,243.5,255.1,243.9z"/><path class="st83" d="M257.4,249.7c-0.1,0.5-0.3,1-0.3,1c-0.6,0.5-1,0.5-1,0.5l-0.3-0.1l-0.1-0.4c0-0.1-0.1-0.2-0.1-0.2       c-0.1-0.6,0-0.9,0-1.3l-0.1-0.7c0-0.2-0.1-0.9-0.5-1.4l-0.5-0.5c0.2-0.4,0.3-0.9,0.4-1.3c0.1-0.5,0.2-1,0.2-1.6       c0-0.3-0.1-0.7-0.1-0.7c-0.1-0.8-0.1-1.2-0.1-1.6c0,0,0.1-0.6,0.2-0.9c-0.2,0.3-0.9,0.6-1.8,0.7c-0.6,0.1-1,0.9-1.2,1.3       c-0.1-0.1-0.2-0.2-0.2-0.2c-0.4-1.2,1.9-4,4.1-3.8c0.2,0,0.5,0.1,0.5,0.1l0.3,0.9c0.1,0.6,0.2,1.3,0.6,1.8       c0.3,0.3,0.6,0.5,0.6,0.9c0,0-0.1,0.3-0.1,0.3c0,0,0.4-0.2,0.6-0.5c0.1-0.1,0.2-0.4,0.2-0.9c0.7,1.4,1.3,3.2,1.3,4.1       c0.1,0.3,0.1,0.7,0.1,1l-0.1,0.6l0.1,0.1c0,0-0.4,0.1-0.6,0.1l-0.9-0.1c-0.5,0.1-1,0.2-1,0.2c-0.4,0.6-0.5,0.8-0.6,1       c0,0-0.1,0.9-0.3,1.3c0,0-0.3,0.3-0.4,0.5c0,0-0.2,0.4-0.1,0.6l0.1,0.2l0.2-0.1c0.3-0.2,0.5-0.6,0.7-1l0.1-0.4l0,0L257.4,249.7       L257.4,249.7z"/></g></g><g><defs><path d="M202.8,286.9h106.5L256,194.7L202.8,286.9z" id="SVGID_20_"/></defs><clipPath id="SVGID_3_"><use style="overflow:visible;" xlink:href="#SVGID_20_"/></clipPath><g style="clip-path:url(#SVGID_3_);"><g id="XMLID_5736_"><g><path class="st87" d="M228.6,256c-0.9,7-2.6,10.3-5.4,15c-2.8,4.7-6,4-9.4,4.4C224.8,270.3,228.6,256,228.6,256z"/><path class="st88" d="M282.3,253.9c1,7,0.1,13.2-1.7,15.4c-0.7-0.5-1.3-1-1.9-1.6c1.5-2.8,2.5-8.4,2.6-12.4         c-0.7,4.9-3.4,8.8-4.7,10.3c-0.1-0.1-0.2-0.2-0.2-0.2c0.2-0.7,0.4-1.4,0.4-1.4s-0.5,0.7-0.8,1c-0.4-0.5-0.6-0.7-0.6-0.7         c1.5-1.7,2.8-3.6,3.7-5.7c0.4-0.9,0.7-1.8,1-2.8c0.2-0.7,0.3-1.3,1-1.7C281.5,253.9,281.9,253.8,282.3,253.9z"/><path class="st89" d="M281.4,255.4c-0.1,4-1.1,9.6-2.6,12.4c-0.9-0.7-1.6-1.4-2.1-2C277.9,264.2,280.6,260.3,281.4,255.4z"/><path class="st90" d="M233.9,262.6c2.8,4.3,7.8,9.8,11,10.6c1.5-0.1,2.7-0.3,2.7-0.3c-2.6-1-5.1-2.4-7.2-4.2         c-0.6-0.5-1.1-1-1.6-1.5c0.7-2.1,3-8.7,2.9-11.9c0,0-1.5,5.9-4.4,10.3c-0.3-0.5-0.7-0.9-1.1-1.4c1-1.3,1.8-2.8,2.6-4.3         c0.5-1,1-2.1,1.6-3.2c0.6-1.3,0.9-2.6,2.2-2.8c-0.1,2.6-0.2,5.3-0.1,7.9c0.1,1.8,0.1,3.9,0.9,5.6c0.7,2,2.3,3.5,4,4.6         c2.2,1.4,4.8,2.1,7.2,2.5c1.4,0.2,2.8,0.3,4.2,0.3c-2.4-1.4-10.6-7.4-12-12.6c2.8,3.7,7.2,10.4,13.7,10.5         c-1.5-0.5-2.9-1.2-4.2-2.1c-1.1-0.6-2.1-1.3-3-2.1c-0.5-0.4-1-0.8-1.4-1.3c2-2.5,2.7-6.6,3-9.8l0,0c0.1-1.4,0.1-2.6,0.2-3.5         c0.3-0.1,0.7-0.1,1.1,0l0.4,0.1c-0.1,3.7,0.7,20,16.8,18.7c-2.1-0.8-4.2-1.9-6-3.3c2.3-3.7,2-11.8,1.7-15.6l0.1,0.1         c1.6,0.3,1.7,2,2.2,3.3c0.5,1.1,1,2.3,1.6,3.4c0.6,1.2,1.3,2.4,2.1,3.4c0,0,0.2,0.3,0.6,0.7c0.1,0.1,0.2,0.2,0.3,0.3         c0,0,0.2,0.2,0.3,0.3c0.5,0.6,1.2,1.3,2.1,2c0.6,0.5,1.2,1,1.9,1.6c1.8-2.2,2.7-8.4,1.7-15.4c0.6,0.1,1.2,0.4,1.5,0.9         c0.2,0.5,0.3,0.9,0.5,1.4c0.7,2,1.7,3.9,2.6,5.7c5.2,10.2,16.2,11,16.2,11l2.3,4.9c-4.9-0.8-8.9-0.6-11.5-0.3         c-3.9,0.5-4.5,1.3-7.8,1.3c-4.7-0.1-5.3-1.5-9.9-1.3c-3,0.2-3,0.8-6.9,1.1c-1.4,0.1-1.7,0-6.8-0.2c-4.9-0.2-7.3-0.2-8.6-0.1         c-3.4,0.4-3.4,1.1-6.7,1.3c-1.2,0.1-1.3,0-6.1-0.2c-3.6-0.2-5.4-0.3-6.3-0.2c-3.6,0.2-3.6,1-7.1,1.3c-0.6,0.1-0.7,0-7.2-0.3         c-4-0.2-4.8-0.3-6.2-0.3c-2.2,0.1-3.7,0.1-5.6,0.6c-2.2,0.5-4,1.4-5.1,2l1.6-7.2c0.5,0,7.2,0,11.6-3.8c2.2-2,4.3-4.1,6-6.5         c1.1-1.6,2-3.2,2.9-4.8c0.6-1,1.1-2.1,1.6-3.2c0.6-1.3,0.9-2.6,2.2-2.8c-0.2,2.1-0.6,7.1,0.1,9.7c0.9,3.3,1,10.4,16.2,11.3         C242.4,272.6,236.7,268.2,233.9,262.6z M223.2,271c2.8-4.7,4.5-8,5.4-15c0,0-3.8,14.3-14.8,19.4         C217.2,275,220.3,275.7,223.2,271z"/><path class="st87" d="M276,265c0.3-0.3,0.6-0.6,0.6-0.6s0,0.4-0.3,1C276.2,265.3,276.1,265.1,276,265z"/><path class="st88" d="M269.4,254.1c0.3,3.8,0.6,11.9-1.7,15.6c-0.4-0.3-0.7-0.6-0.7-0.6c-1-0.8-1.5-1.3-2-1.8         c0.9-1.4,2.8-5.1,3.6-12c-1.3,4-3,8.3-4.7,10.7c-0.2-0.3-0.4-0.5-0.4-0.5l-0.2-0.2l0.6-1.4L263,265c0,0-0.4-0.5-0.6-0.7         c0.9-1.4,1.8-2.8,2.5-4.3c0.6-1,1.1-2.1,1.6-3.2C267.2,255.4,267.5,253.8,269.4,254.1z"/><path class="st89" d="M263.8,266.1c1.7-2.5,3.4-6.8,4.7-10.7c-0.7,6.8-2.6,10.5-3.6,12C264.6,266.9,264.2,266.5,263.8,266.1z         "/><path class="st88" d="M257.3,255.4c0,0,1.5,15.7,10.2,16C265.6,270.4,258.4,263,257.3,255.4z M263.3,265.4L263.3,265.4         c0,0,0.3,0.5,0.6,0.7c0.3,0.4,0.7,0.8,1.1,1.2c0.5,0.5,1,1,1.6,1.4c0,0,0.7,0.6,1.1,0.9c1.8,1.4,3.9,2.5,6,3.3         c-16.1,1.3-16.9-15-16.8-18.7c1.3,0.5,1.4,2,1.8,3.2c0.5,1.1,1,2.3,1.5,3.4c0.6,1.2,1.3,2.4,2.1,3.4c0.2,0.3,0.4,0.5,0.4,0.5         C263.1,265.1,263.2,265.3,263.3,265.4z"/><path class="st87" d="M263.9,263.9l-0.6,1.4c0,0-0.2-0.2-0.3-0.3L263.9,263.9z"/><path class="st89" d="M257.3,255.4c1.1,7.6,8.3,15,10.2,16C258.8,271.1,257.3,255.4,257.3,255.4z"/><path class="st88" d="M243.3,255.4c0,0,1.4,14.8,10.1,17.2C252.7,271.6,246.1,266.7,243.3,255.4z M258.9,275.1         c-1.4-0.1-2.8-0.2-4.2-0.3c-2.5-0.4-5.1-1.1-7.2-2.5c-1.7-1.1-3.3-2.6-4-4.6c-0.7-1.8-0.8-3.8-0.9-5.6         c-0.1-2.6-0.1-5.3,0.1-7.9l0.8,0.1c1.6,0.3,1.7,2,2.2,3.3c0.5,1.1,1,2.3,1.6,3.4c0.6,1.2,1.3,2.4,2.1,3.5         c0.2,0.2,0.3,0.4,0.5,0.6c0.2,0.2,0.3,0.5,0.3,0.5c0.3,0.3,0.4,0.5,0.4,0.5c0.5,0.6,1,1.1,1.5,1.6c0.4,0.5,0.9,0.9,1.4,1.3         c0.9,0.8,1.9,1.5,3,2.1c1.3,0.9,2.7,1.6,4.2,2.1c-6.5-0.1-10.9-6.8-13.7-10.5C248.3,267.7,256.5,273.7,258.9,275.1z"/><path class="st88" d="M255.3,254.2c-0.1,0.9-0.1,2.1-0.2,3.5l0,0c-1.2,3.5-3.7,7.2-4.4,8.3c0,0-0.2-0.2-0.3-0.3         c0.1-0.4,0.3-1,0.6-2c-0.2,0.6-0.8,1-0.8,1c-0.5,0-0.7-0.2-0.9-0.4c1-1.4,1.8-2.8,2.6-4.3c0.6-1,1-2.1,1.6-3.2         C254,255.8,254.3,254.6,255.3,254.2z"/><path class="st89" d="M255.2,257.7c-0.3,3.2-1.1,7.3-3,9.8c-0.5-0.5-1-1-1.4-1.5C251.5,264.9,254,261.2,255.2,257.7z"/><path class="st87" d="M249.9,265c0,0,0.9-0.6,1.1-1.3c-0.3,0.9-0.5,1.6-0.6,2C250.4,265.7,250.1,265.2,249.9,265z"/><path class="st89" d="M243.3,255.4c2.8,11.3,9.4,16.3,10.1,17.2C244.7,270.1,243.3,255.4,243.3,255.4z"/><path class="st88" d="M247.6,273c0,0-1.2,0.2-2.7,0.3c-3.2-0.9-8.2-6.4-11-10.6c2.8,5.6,8.5,10,12,12.5         c-15.2-0.9-15.3-8-16.2-11.3c-0.7-2.6-0.3-7.6-0.1-9.7c0.2-0.1,0.5,0,0.9,0.1c1.6,0.3,1.7,2,2.2,3.3c0.5,1.1,1,2.3,1.6,3.4         c0.6,1.2,1.4,2.4,2.1,3.4c0.4,0.5,0.7,1,1.1,1.4c0.5,0.5,0.9,1,1.4,1.6c0.5,0.5,1,1,1.6,1.5C242.6,270.5,245.1,272,247.6,273         z M233.8,267.7c2.2,3.4,4.4,4.8,7.1,4.8c-1.2-1-6.4-4.4-10.5-17.2C230.4,255.4,231.5,264.4,233.8,267.7z"/><path class="st87" d="M241.8,255.4c0.1,3.2-2.2,9.8-2.9,11.9c-0.5-0.5-1-1-1.4-1.6C240.3,261.2,241.8,255.4,241.8,255.4z"/><path class="st89" d="M240.9,272.6c-2.6-0.1-4.8-1.4-7.1-4.8c-2.2-3.3-3.4-12.4-3.4-12.4         C234.4,268.2,239.6,271.5,240.9,272.6z"/></g></g></g></g></g></g></g></svg>