<?xml version="1.0" ?><svg id="Layer_1" style="enable-background:new 0 0 512 512;" version="1.1" viewBox="0 0 512 512" xml:space="preserve" xmlns="http://www.w3.org/2000/svg" xmlns:xlink="http://www.w3.org/1999/xlink"><style type="text/css">
	.st0{fill:#FFFFFF;}
	.st1{fill:#C60C30;}
	.st2{fill:#003478;}
	.st3{fill:#FF9933;}
	.st4{fill:#128807;}
	.st5{fill:#000088;}
	.st6{fill:#032774;}
	.st7{fill:#DF0333;}
	.st8{fill:#EE2B2C;}
	.st9{fill:#032767;}
	.st10{fill:#006747;}
	.st11{fill:#CD1225;}
	.st12{fill:#FBC942;}
	.st13{fill:#BD9B37;}
	.st14{fill:#9BA068;}
	.st15{fill:#707633;}
	.st16{fill:#006748;}
	.st17{fill:#CC2029;}
	.st18{fill:#30C1DB;}
	.st19{fill:#F7C740;}
	.st20{fill:#0C72A6;}
	.st21{fill:#F8A952;}
	.st22{fill:#943120;}
	.st23{fill:#231F20;}
	.st24{fill:#0B8388;}
	.st25{fill:#8BBDBE;}
	.st26{fill:#05534E;}
	.st27{fill:none;stroke:#39B54A;stroke-width:0.25;stroke-miterlimit:10;}
	.st28{fill:none;stroke:#00A651;stroke-miterlimit:10;}
	.st29{fill:none;stroke:#00A651;stroke-width:0.5;stroke-miterlimit:10;}
	.st30{fill:url(#SVGID_1_);}
	.st31{fill:url(#SVGID_2_);}
	.st32{fill:url(#SVGID_3_);}
	.st33{fill:url(#SVGID_4_);}
	.st34{fill:url(#SVGID_5_);}
	.st35{fill:url(#SVGID_6_);}
	.st36{fill:url(#SVGID_7_);}
	.st37{fill:url(#SVGID_8_);}
	.st38{fill:url(#SVGID_9_);}
	.st39{fill:url(#SVGID_10_);}
	.st40{fill:url(#SVGID_11_);}
	.st41{fill:url(#SVGID_12_);}
	.st42{fill:url(#SVGID_13_);}
	.st43{fill:url(#SVGID_14_);}
	.st44{fill:url(#SVGID_15_);}
	.st45{fill:#F8C73E;}
	.st46{fill:#77722F;}
	.st47{fill:#A7AB71;}
	.st48{fill:#949457;}
	.st49{fill:#AE6F2A;}
	.st50{fill:#FFF200;}
	.st51{fill:#C5C6A6;}
	.st52{fill:#A3A395;}
	.st53{fill:#4C2915;}
	.st54{fill:#8E4520;}
	.st55{fill:#D1A467;}
	.st56{fill:#AA6C2A;}
	.st57{fill:#DAAC6D;}
	.st58{fill:#8F4620;}
	.st59{fill:#BC7E2F;}
	.st60{fill:#E6E7E8;}
	.st61{fill:#F06D19;}
	.st62{fill:#19B43D;}
	.st63{fill:#07A3DC;}
	.st64{fill:#FBD023;}
	.st65{fill:#EC2938;}
	.st66{fill:#F9DF47;}
	.st67{fill:#0967C4;}
	.st68{fill:#C5A310;}
	.st69{clip-path:url(#SVGID_17_);}
	.st70{fill:#6FD7F2;}
	.st71{clip-path:url(#SVGID_19_);}
	.st72{fill:#FF0303;}
	.st73{fill:#FF6407;}
	.st74{fill:#FDFE1F;}
	.st75{fill:#00FE1E;}
	.st76{fill:#08CCFE;}
	.st77{fill:#120FFD;}
	.st78{fill:#810480;}
	.st79{fill:#0642A1;}
	.st80{fill:#02275F;}
	.st81{fill:#80A0D1;}
	.st82{fill:#FB3B3A;}
	.st83{fill:#FF0302;}
	.st84{fill:#520200;}
	.st85{fill:#940101;}
	.st86{clip-path:url(#SVGID_21_);}
	.st87{fill:#91BB35;}
	.st88{fill:#ECE62B;}
	.st89{fill:#C5CA2C;}
	.st90{fill:#95C82B;}
	.st91{fill:#009D4A;}
	.st92{fill:#BF0A30;}
	.st93{fill:#002868;}
	.st94{fill:#028832;}
	.st95{fill:#FBDC1D;}
	.st96{fill:#D91219;}
	.st97{fill:#0738A6;}
	.st98{fill:#FD0302;}
	.st99{fill:#060593;}
	.st100{fill:#115EAD;}
	.st101{fill:#C50C1E;}
	.st102{fill:#FEC315;}
	.st103{fill:#C7B011;}
	.st104{fill:#AC1518;}
	.st105{fill:#028E6E;}
	.st106{fill:#CBCBCB;}
	.st107{fill:#095BBD;}
	.st108{fill:#C7B013;}
	.st109{fill:#00AEEF;}
	.st110{fill:#C7B112;}
	.st111{fill:#FED592;}
	.st112{fill:#028D6E;}
	.st113{fill:#C7B012;}
	.st114{fill:#C6B011;}
	.st115{fill:#103BEE;}
	.st116{fill:#DB4445;}
	.st117{fill:#EC72A9;}
	.st118{fill:#006133;}
	.st119{fill:#D11133;}
	.st120{fill:#042B7D;}
	.st121{fill:#FEC527;}
	.st122{fill:#BF920D;}
</style><g id="XMLID_6908_"><g id="XMLID_6943_"><path class="st0" d="M512,256c0,141.1-114.8,256-256,256C114.9,512,0,397.1,0,256C0,114.8,114.9,0,256,0    C397.2,0,512,114.8,512,256z" id="XMLID_6944_"/></g><g id="XMLID_6940_"><path class="st1" d="M256,167.7c-35.3,0-65.8,20.8-79.9,50.8l0,0c-0.2,9.3,0.6,37.6,18.3,48.8    c15.9,10.1,36.6,14.4,61.6-11.3s46.2-20.8,57.4-15.5c11.2,5.3,26.1,18.2,22.5,53h0.1c5.3-11.4,8.3-24.1,8.3-37.5    C344.3,207.2,304.8,167.7,256,167.7z" id="XMLID_6942_"/><path class="st2" d="M335.9,293.5c3.7-34.7-11.3-47.7-22.5-53c-11.2-5.3-32.5-10.3-57.4,15.5    s-45.7,21.4-61.6,11.3c-17.7-11.2-18.6-39.5-18.3-48.8l0,0c-5.3,11.4-8.4,24.1-8.4,37.5c0,48.8,39.5,88.3,88.3,88.3    C291.3,344.3,321.8,323.5,335.9,293.5L335.9,293.5L335.9,293.5z" id="XMLID_6941_"/></g><g id="XMLID_6923_"><g id="XMLID_6931_"><g id="XMLID_6937_"><rect height="88.3" id="XMLID_6939_" transform="matrix(0.8321 -0.5547 0.5547 0.8321 -161.6849 133.475)" width="14.5" x="132.3" y="289.6"/><rect height="88.3" id="XMLID_6938_" transform="matrix(0.8321 -0.5547 0.5547 0.8321 -181.3755 117.2636)" width="14.5" x="95.7" y="314"/></g><g id="XMLID_6932_"><rect height="40.4" id="XMLID_6936_" transform="matrix(0.8321 -0.5547 0.5547 0.8321 -162.7217 114.6574)" width="14.5" x="100.7" y="305.9"/><polygon id="XMLID_6935_" points="117.3,353.1 139.7,386.7 151.8,378.7 129.3,345     "/></g></g><g id="XMLID_6924_"><polygon id="XMLID_6930_" points="439.6,325.3 427.5,317.3 405.2,351 417.2,359    "/><polygon id="XMLID_6929_" points="378.7,390.9 390.7,398.9 413.1,365.2 401,357.2    "/><polygon id="XMLID_6928_" points="421.2,313.2 409.1,305.2 386.8,338.8 398.9,346.9    "/><polygon id="XMLID_6927_" points="360.4,378.7 372.4,386.7 394.8,353.1 382.7,345.1    "/><polygon id="XMLID_6926_" points="342,366.6 354.1,374.6 376.4,341 364.3,332.9    "/><rect height="14.5" id="XMLID_6925_" transform="matrix(0.5529 -0.8333 0.8333 0.5529 -89.0581 461.7103)" width="40.4" x="365.5" y="306.6"/></g></g><g id="XMLID_6909_"><g id="XMLID_6916_"><polygon id="XMLID_6922_" points="421.2,198.6 409.1,206.7 360.4,133 372.5,125    "/><g id="XMLID_6917_"><polygon id="XMLID_6921_" points="427.5,194.5 439.6,186.5 417.3,152.8 405.2,160.8     "/><polygon id="XMLID_6920_" points="390.9,112.9 378.7,120.8 401,154.6 413.1,146.6     "/><rect height="40.4" id="XMLID_6919_" transform="matrix(0.8339 -0.5519 0.5519 0.8339 -45.1752 245.7638)" width="14.5" x="378.5" y="177.7"/><polygon id="XMLID_6918_" points="354.2,137.1 342.1,145.1 364.4,178.8 376.4,170.8     "/></g></g><g id="XMLID_6910_"><polygon id="XMLID_6913_" points="121.1,218.8 109,210.7 158.1,137.3 170.1,145.4    "/><polygon id="XMLID_6912_" points="102.8,206.5 90.7,198.4 139.8,125.1 151.9,133.1    "/><polygon id="XMLID_6911_" points="84.5,194.3 72.4,186.2 121.5,112.9 133.6,120.9    "/></g></g></g></svg>