<?xml version="1.0" ?><svg id="Layer_1" style="enable-background:new 0 0 512 512;" version="1.1" viewBox="0 0 512 512" xml:space="preserve" xmlns="http://www.w3.org/2000/svg" xmlns:xlink="http://www.w3.org/1999/xlink"><style type="text/css">
	.st0{fill:#00ADEE;}
	.st1{fill:#FFFFFF;}
</style><g><path class="st0" d="M488.5,256c0,128.4-104.1,232.5-232.5,232.5S23.5,384.4,23.5,256C23.5,127.6,127.6,23.5,256,23.5   S488.5,127.6,488.5,256z"/><g><path class="st1" d="M380.5,254.8c0-27.4-10.3-53.5-29-73.5l11.2-11.7l-18.8-18l3.8-3.9l18.8,18c12.4-13,12-33.5-1-45.9    c-12.9-12.4-33.5-12-45.9,1l18.7,17.9l-3.8,3.9l-18.7-17.9L250,193.3l18.6,17.8l-4,4.1L251.8,203l-13.3,13.9l17.6,16.9l4.5,4.3    l0,0l13.1,12.6l13.3-13.9L274,224.3l4-4.1l18.9,18.1l40.8-42.6c14.8,16.2,22.9,37.1,22.9,59.1c0,31.9-17.3,61.2-45.1,76.7    c-4.9-4.1-11.2-6.6-17.9-6.6c-16.2,0-29.3,14-29.3,31.2v26c0,0.4,0,0.7,0,1H231v-65h64.2v-10.4h-5.8v-3.6H149.9v3.6H144v10.4h64.2    v65h-76.7v18.2h206.8v-18.2h-11.5c0-0.3,0-0.7,0-1v-26c0-2.7-0.4-5.3-0.9-7.7C359.6,329.2,380.5,293.5,380.5,254.8z"/></g></g></svg>