<?xml version="1.0" ?><svg id="Layer_1" style="enable-background:new 0 0 512 512;" version="1.1" viewBox="0 0 512 512" xml:space="preserve" xmlns="http://www.w3.org/2000/svg" xmlns:xlink="http://www.w3.org/1999/xlink"><style type="text/css">
	.st0{fill:#00ADEE;}
	.st1{fill:#FFFFFF;}
</style><g><path class="st0" d="M488.5,256c0,128.4-104.1,232.5-232.5,232.5S23.5,384.4,23.5,256C23.5,127.6,127.6,23.5,256,23.5   S488.5,127.6,488.5,256z"/><path class="st1" d="M394.6,390.7c-31.5,0.9-46.9-17.8-57.9-32c-15.2-19.7-6.1-49.1-6-49.4l0.5-2.9c1.4-28.6-4.1-45.9-16.8-52.8   c-11.4-6.2-22.9-1.1-27.3,1.4c-28.6,8.6-38.3,3.9-41.1,1.4c-4.6-4-3.3-12.3-3.3-12.3l0,0l0.3-8.9c0-22.4-12.2-38.9-22.8-49.1   c6.7-20.4-1.3-45.3-21.9-61.3c-25.6-19.9-60.4-18.5-77.8,3.1c-17.5,21.6-10.9,55.3,14.7,75.2c20.3,15.8,46.4,17.9,65.1,7.3   c6.2,4.9,14.2,14.8,14.5,33.7c-1.3,8,3,27.1,13.9,36.8c13,11.6,36.1,4.8,66.8-4.8l3.1-1.5c1-0.7,4-1.8,4.8-1.3   c0.1,0,6.1,4.1,5.1,30.7c-2.2,7.9-10.2,42,9.9,68.2c14.8,19.2,40.4,29,76.3,29c2.3,0,6.8,1.3,6.8-3.9   C401.3,392.1,394.6,390.7,394.6,390.7z"/></g></svg>