<?xml version="1.0" ?><svg id="Layer_1" style="enable-background:new 0 0 512 512;" version="1.1" viewBox="0 0 512 512" xml:space="preserve" xmlns="http://www.w3.org/2000/svg" xmlns:xlink="http://www.w3.org/1999/xlink"><style type="text/css">
	.st0{fill:#F16D6A;}
	.st1{fill:#FFFFFF;}
</style><g><path class="st0" d="M488.5,256c0,128.4-104.1,232.5-232.5,232.5S23.5,384.4,23.5,256C23.5,127.6,127.6,23.5,256,23.5   S488.5,127.6,488.5,256z"/><path class="st1" d="M395.8,116.4c-7.2-8.3-20.8-6.9-28,0.3l-11.9,11.9l-23,23c-11.9-5.5-25.5-3.1-35.9,5.3   c-1.7,1.4-3.2,3.1-4.8,4.7l-25.3,25.3L181,272.6l-59.4,59.4c-5.1,5.1-8.8,11.1-10.3,18.3c-2.7,13.1,3.5,23.9,12.4,32.8   c8,8,15.4,16.2,27.4,17.8c10.5,1.4,20.7-2.2,28.2-9.7l141.8-141.8l28.7-28.7l4.3-4.3c9.8-9.8,12.2-24.9,6.5-37.2l23-23l11.7-11.7   C403.5,136.5,403,124.8,395.8,116.4z M345.5,172.5c-0.3,0.3-0.6,0.6-0.8,0.9c-2,2.1-2.7,5.2-0.5,8.4c5.5,7.8,5.4,17.2-1.5,24.2   l-6.3,6.2l-6.7,6.7l-20.5-20.5c-2.1-2.1-5.6-2.1-7.8,0c-2.1,2.1-2.1,5.6,0,7.8l20.5,20.5l-10.7,10.7l-13.6-13.6   c-1.6-1.6-4.6-1.1-6.7,1c-2.2,2.1-2.6,5.2-1,6.7l13.6,13.6l-9.6,9.6l-13.6-13.6c-1.6-1.6-4.6-1.1-6.7,1c-2.1,2.1-2.6,5.2-1,6.7   l13.6,13.6l-8.3,8.3l-20.5-20.5c-2.1-2.1-5.6-2.1-7.8,0c-2.1,2.1-2.2,5.6,0,7.8l20.5,20.5l-10.7,10.7L246.1,276   c-1.6-1.6-4.6-1.1-6.7,1.1c-2.2,2.1-2.6,5.1-1.1,6.7l13.3,13.3l-9.6,9.6l-13.3-13.3c-1.6-1.6-4.6-1.1-6.7,1.1   c-2.1,2.1-2.6,5.1-1.1,6.7l13.3,13.3l-9.1,9.1L204.8,303c-2.1-2.1-5.6-2.1-7.8,0c-2.1,2.1-2.1,5.6,0,7.7l20.5,20.5l-10.7,10.7   l-13.3-13.3c-1.6-1.6-4.6-1.1-6.7,1.1c-2.1,2.1-2.6,5.1-1.1,6.7l13.3,13.3l-9.6,9.6L176.1,346c-1.6-1.6-4.6-1.1-6.7,1.1   c-2.2,2.1-2.6,5.1-1.1,6.7l13.3,13.3L168,380.7c-7.7,7.7-18.8,6.1-26-1.1c-6.9-6.9-15.7-13.2-15.7-23.8c0-8.9,9.4-15.8,15.2-21.6   l153.2-153.2c9.9-9.9,20.3-23.8,35.7-13c2.8,1.9,7,1,9.3-1.3l14.8-14.8l5.9,5.9L345.5,172.5z"/></g></svg>