<?xml version="1.0" ?><svg id="Layer_1" style="enable-background:new 0 0 512 512;" version="1.1" viewBox="0 0 512 512" xml:space="preserve" xmlns="http://www.w3.org/2000/svg" xmlns:xlink="http://www.w3.org/1999/xlink"><style type="text/css">
	.st0{fill:#80C3D5;}
	.st1{fill:#FFFFFF;}
</style><g><path class="st0" d="M488.5,256c0,128.4-104.1,232.5-232.5,232.5S23.5,384.4,23.5,256C23.5,127.6,127.6,23.5,256,23.5   S488.5,127.6,488.5,256z"/><g><path class="st1" d="M292.8,115.6L115.6,292.8c-6.3,6.3-6.5,16.3-0.5,22.4l81.7,81.7c6.1,6.1,16.1,5.9,22.4-0.5l177.2-177.2    c6.3-6.3,6.5-16.3,0.5-22.4l-81.7-81.7C309.1,109,299.1,109.2,292.8,115.6 M227.7,361.5c-8.3,8.3-21.9,8.3-30.2,0    c-8.3-8.3-8.3-21.9,0-30.2c8.3-8.3,21.9-8.3,30.2,0C236,339.6,236,353.2,227.7,361.5 M180.7,314.5c-8.3,8.3-21.9,8.3-30.2,0    c-8.3-8.3-8.3-21.9,0-30.2c8.3-8.3,21.9-8.3,30.2,0C189,292.7,189,306.2,180.7,314.5 M271.9,317.3c-8.3,8.3-21.9,8.3-30.2,0    c-8.3-8.3-8.3-21.9,0-30.2c8.3-8.3,21.9-8.3,30.2,0C280.2,295.4,280.2,308.9,271.9,317.3 M224.9,270.3c-8.3,8.3-21.9,8.3-30.2,0    c-8.3-8.3-8.3-21.9,0-30.2c8.3-8.3,21.9-8.3,30.2,0C233.2,248.5,233.3,262,224.9,270.3 M314.4,274.8c-8.3,8.3-21.9,8.3-30.2,0    c-8.3-8.3-8.4-21.9,0-30.2c8.3-8.3,21.9-8.3,30.2,0C322.7,253,322.7,266.5,314.4,274.8 M267.4,227.9c-8.3,8.3-21.9,8.3-30.2,0    c-8.3-8.3-8.3-21.9,0-30.2c8.3-8.3,21.9-8.3,30.2,0C275.7,206,275.7,219.5,267.4,227.9 M358.3,230.9c-8.3,8.3-21.8,8.3-30.2,0    c-8.3-8.3-8.3-21.9,0-30.2c8.4-8.3,21.9-8.3,30.2,0C366.6,209,366.6,222.6,358.3,230.9 M311.3,183.9c-8.3,8.3-21.9,8.3-30.2,0    c-8.3-8.3-8.3-21.9,0-30.2c8.4-8.3,21.9-8.3,30.2,0C319.6,162.1,319.6,175.6,311.3,183.9"/></g></g></svg>