<?xml version="1.0" ?><svg id="Layer_1" style="enable-background:new 0 0 512 512;" version="1.1" viewBox="0 0 512 512" xml:space="preserve" xmlns="http://www.w3.org/2000/svg" xmlns:xlink="http://www.w3.org/1999/xlink"><style type="text/css">
	.st0{fill:#A7D088;}
	.st1{fill:#FFFFFF;}
</style><g><path class="st0" d="M488.5,256c0,128.4-104.1,232.5-232.5,232.5S23.5,384.4,23.5,256C23.5,127.6,127.6,23.5,256,23.5   S488.5,127.6,488.5,256z"/><g><g><path class="st1" d="M258.8,401.3c-80.1,1.3-146.5-62.9-148.1-143c-1.6-80.1,62.4-146.3,142.5-147.6     c80.1-1.3,146.5,62.9,148.1,143C402.8,333.8,338.9,400,258.8,401.3L258.8,401.3z M253.5,126.2c-71.6,1.1-128.7,60.3-127.3,131.9     c1.4,71.6,60.8,128.9,132.3,127.8c71.6-1.1,128.7-60.3,127.3-131.9C384.4,182.4,325.1,125,253.5,126.2L253.5,126.2z"/></g><g><path class="st1" d="M254,152.8c-57,0.9-102.3,47.8-101.2,104.8c1.1,57,48.2,102.4,105.2,101.5c57-0.9,102.2-47.8,101.1-104.8     C358,197.4,311,151.9,254,152.8z M287.4,184.3c5.4-2.4,12.4-0.9,14.6,3.1c2.2,4,1.1,11-2.2,14.6c-3.3,3.5-10.3,2-14.7-3     C281,194,282.1,186.9,287.4,184.3z M201.9,281.3c-3.5,3.6-10.9,2.2-15.5-3.1c-4.5-5.4-3.3-12.9,2.4-15.6     c5.7-2.6,13.1-0.9,15.4,3.3C206.5,270.2,205.4,277.6,201.9,281.3z M243.9,324.3c-4.3,4.5-13.6,2.7-19.3-3.9     c-5.6-6.7-4.1-16.1,3-19.4c7.1-3.2,16.3-1.1,19.2,4.1C249.6,310.4,248.2,319.6,243.9,324.3z M241.3,251     c-22.5,2.2-40.7-12.6-37.8-30.1c3.4-17.6,21-32.3,36.6-31.3c15.6,1.3,33.5,15.6,37.4,29.7C281.1,233.3,263.8,248.5,241.3,251z      M302.2,312.9c-8.1,8.5-25.4,5-36-7.3c-10.4-12.4-7.6-30,5.5-36.3c13.3-6,30.4-2.1,35.9,7.7C312.9,287,310.2,304.1,302.2,312.9z      M328.9,258.6c-6.3,6.5-19.6,3.9-27.8-5.6c-8-9.6-5.8-23.2,4.3-28c10.3-4.6,23.5-1.6,27.7,5.9     C337.1,238.6,335.1,251.9,328.9,258.6z"/></g></g></g></svg>