<?xml version="1.0" ?><svg id="Layer_1" style="enable-background:new 0 0 512 512;" version="1.1" viewBox="0 0 512 512" xml:space="preserve" xmlns="http://www.w3.org/2000/svg" xmlns:xlink="http://www.w3.org/1999/xlink"><style type="text/css">
	.st0{fill:#1070B7;}
	.st1{fill:#FFFFFF;}
</style><g><path class="st0" d="M488.5,256c0,128.4-104.1,232.5-232.5,232.5S23.5,384.4,23.5,256C23.5,127.6,127.6,23.5,256,23.5   S488.5,127.6,488.5,256z"/><g><path class="st1" d="M292.9,231.3c0-15.7-10.2-28.9-24.2-33.7l-0.1-54.8v-8l0,0l0-1.7l0-0.3l0-7.9c0-7.7-5.6-13.9-12.5-14.2    c-6.9,0.3-12.5,6.5-12.5,14.2l0,7.9l0,0.3l0,1.7l0,0v8l-0.1,54.8c-14.1,4.8-24.2,18-24.2,33.7l-0.4,134.2    c0,19.8,15.9,35.8,35.7,35.9l1.6,0l1.6,0c19.8-0.1,35.7-16.1,35.7-35.9L292.9,231.3z M276.7,375l-13.4,0l0,3.3    c0,3.9-3.2,7.2-7.1,7.2c-0.1,0-0.2,0-0.2,0c-0.1,0-0.1,0-0.2,0c-3.9,0-7.1-3.2-7.1-7.2l0-3.3l-13.4,0c-1.5,0-2.7-1.2-2.7-2.7    c0-1.5,1.2-2.7,2.7-2.7l13.4,0l0.1-25.6l-13.4,0c-1.5,0-2.7-1.2-2.7-2.7c0-1.5,1.2-2.7,2.7-2.7l13.4,0l0.1-25.6l-13.4,0    c-1.5,0-2.7-1.2-2.7-2.7c0-1.5,1.2-2.7,2.7-2.7l13.4,0l0.1-25.6l-13.4,0c-1.5,0-2.7-1.2-2.7-2.7c0-1.5,1.2-2.7,2.7-2.7l13.4,0    L249,251l-13.4,0c-1.5,0-2.7-1.2-2.7-2.7c0-1.5,1.2-2.7,2.7-2.7l13.4,0.1l0.2-90.9c0-3.8,3-6.9,6.8-7.1c3.7,0.2,6.7,3.3,6.8,7.1    l0.2,90.9l13.4-0.1c1.5,0,2.7,1.2,2.7,2.7c0,1.5-1.2,2.7-2.7,2.7l-13.4,0l0.1,25.6l13.4,0c1.5,0,2.7,1.2,2.7,2.7    c0,1.5-1.2,2.7-2.7,2.7l-13.4,0l0.1,25.6l13.4,0c1.5,0,2.7,1.2,2.7,2.7c0,1.5-1.2,2.7-2.7,2.7l-13.4,0l0.1,25.6l13.4,0    c1.5,0,2.7,1.2,2.7,2.7c0,1.5-1.2,2.7-2.7,2.7l-13.4,0l0.1,25.6l13.4,0c1.5,0,2.7,1.2,2.7,2.7C279.4,373.8,278.2,375,276.7,375z"/></g></g></svg>