<?xml version="1.0" ?><svg id="Layer_1" style="enable-background:new 0 0 512 512;" version="1.1" viewBox="0 0 512 512" xml:space="preserve" xmlns="http://www.w3.org/2000/svg" xmlns:xlink="http://www.w3.org/1999/xlink"><style type="text/css">
	.st0{fill:#1070B7;}
	.st1{fill:#FFFFFF;}
</style><g><path class="st0" d="M488.5,256c0,128.4-104.1,232.5-232.5,232.5S23.5,384.4,23.5,256C23.5,127.6,127.6,23.5,256,23.5   S488.5,127.6,488.5,256z"/><path class="st1" d="M400.9,149.8c0,0-123.2-11.4-123.1,9c0.1,17.1-9.4,23-12.4,24.4l0.6-15.4c5.2-3.3,8.7-9.2,8.7-15.8   c0-10.4-8.4-18.7-18.7-18.7c-10.4,0-18.7,8.4-18.7,18.7c0,6.6,3.5,12.5,8.7,15.8l0.5,15.3c-3.1-1.5-12.4-7.3-12.3-24.4   c0.1-20.4-123.1-9-123.1-9s-3.8,13.6,13.3,15.3c0,0,1.4,15,13.3,16.4c0,0-0.5,18.9,28.4,17.1c0,0-11.4,20.8,81.5,16.5l0.6,19   l0.2,2.9l-20.1,6.3c-5.5,1.7-8.5,7.5-6.8,13c1.4,4.4,5.3,7.3,9.9,7.3c1.1,0,2.1-0.2,3.1-0.5l14.9-4.7l0.7,13.3l-18,5.6   c-2.4,0.7-4.3,2.4-5.5,4.6c-1.2,2.2-1.4,4.7-0.6,7.1c1.2,3.9,4.8,6.5,8.9,6.5c0.9,0,1.9-0.1,2.8-0.4l13.5-4.2l0.8,15.6l-16,5   c-4.3,1.4-6.7,6-5.4,10.3c1.1,3.5,4.2,5.8,7.8,5.8c0.8,0,1.7-0.1,2.5-0.4l12-3.7l0.9,17.8l-14,4.4c-3.7,1.2-5.8,5.2-4.7,8.9   c1,3,3.7,5,6.8,5c0.7,0,1.4-0.1,2.1-0.3l10.5-3.3l1.2,22.8l1.3-23.5l14.6-4.6c1.8-0.6,3.3-1.8,4.2-3.5c0.9-1.7,1.1-3.6,0.5-5.4   c-0.9-3-3.7-5-6.8-5c-0.7,0-1.4,0.1-2.1,0.3l-9.6,3l1-18.4l16.6-5.2c2.1-0.6,3.8-2.1,4.8-4c1-2,1.2-4.2,0.6-6.3   c-1.1-3.5-4.2-5.8-7.8-5.8c-0.8,0-1.7,0.1-2.5,0.4l-10.7,3.4l0.9-16.1l18.6-5.8c4.9-1.5,7.6-6.8,6.1-11.6c-1.2-3.9-4.8-6.5-8.9-6.5   c-0.9,0-1.9,0.1-2.8,0.4l-11.9,3.7l0.8-13.8l20.5-6.4c2.7-0.8,4.8-2.6,6.1-5.1c1.3-2.5,1.5-5.3,0.7-7.9c-1.4-4.4-5.3-7.3-9.9-7.3   c-1,0-2.1,0.2-3.1,0.5l-13.1,4.1l0.2-3l0.5-14.1c93.2,4.4,81.7-16.4,81.7-16.4c28.9,1.9,28.4-17.1,28.4-17.1   c11.9-1.4,13.3-16.4,13.3-16.4C404.7,163.5,400.9,149.8,400.9,149.8z"/></g></svg>