<?xml version="1.0" ?><svg id="Layer_1" style="enable-background:new 0 0 512 512;" version="1.1" viewBox="0 0 512 512" xml:space="preserve" xmlns="http://www.w3.org/2000/svg" xmlns:xlink="http://www.w3.org/1999/xlink"><style type="text/css">
	.st0{fill:#F17069;}
	.st1{fill:#FFFFFF;}
</style><g><path class="st0" d="M488.5,256c0,128.4-104.1,232.5-232.5,232.5C127.6,488.5,23.5,384.4,23.5,256C23.5,127.6,127.6,23.5,256,23.5   C384.4,23.5,488.5,127.6,488.5,256z"/><g><path class="st1" d="M193.6,208.6c-4.5,0-8.1,3.6-8.1,8.1c0,4.5,3.6,8.1,8.1,8.1c4.5,0,8.1-3.6,8.1-8.1    C201.7,212.3,198.1,208.6,193.6,208.6z"/><rect class="st1" height="3.9" width="114.6" x="211.9" y="214.8"/><path class="st1" d="M193.6,235.6c-4.5,0-8.1,3.6-8.1,8.1c0,4.5,3.6,8.1,8.1,8.1c4.5,0,8.1-3.6,8.1-8.1    C201.7,239.2,198.1,235.6,193.6,235.6z"/><rect class="st1" height="3.9" width="114.6" x="211.9" y="241.7"/><path class="st1" d="M193.6,262.6c-4.5,0-8.1,3.6-8.1,8.1c0,4.5,3.6,8.1,8.1,8.1c4.5,0,8.1-3.6,8.1-8.1    C201.7,266.2,198.1,262.6,193.6,262.6z"/><rect class="st1" height="3.9" width="114.6" x="211.9" y="268.7"/><path class="st1" d="M193.6,289.6c-4.5,0-8.1,3.6-8.1,8.1c0,4.5,3.6,8.1,8.1,8.1c4.5,0,8.1-3.6,8.1-8.1    C201.7,293.2,198.1,289.6,193.6,289.6z"/><rect class="st1" height="3.9" width="114.6" x="211.9" y="295.7"/><path class="st1" d="M193.6,316.5c-4.5,0-8.1,3.6-8.1,8.1c0,4.5,3.6,8.1,8.1,8.1c4.5,0,8.1-3.6,8.1-8.1    C201.7,320.1,198.1,316.5,193.6,316.5z"/><rect class="st1" height="3.9" width="114.6" x="211.9" y="322.6"/><path class="st1" d="M345.5,140h-6.7h-36.3v-29.3h-93V140h-36.3h-1.9h-4.8c-8.7,0-15.7,7-15.7,15.7v229.8c0,8.7,7,15.7,15.7,15.7    h179.1c8.7,0,15.7-7,15.7-15.7V155.8C361.3,147.1,354.3,140,345.5,140z M222.1,122.3h67.8V140h-67.8V122.3z M338.8,317.2v15.2    v22.3H173.2v-22.3v-15.2v-161H190h19.5h93H322h16.8V317.2z"/></g></g></svg>