<?xml version="1.0" ?><svg id="Layer_1" style="enable-background:new 0 0 512 512;" version="1.1" viewBox="0 0 512 512" xml:space="preserve" xmlns="http://www.w3.org/2000/svg" xmlns:xlink="http://www.w3.org/1999/xlink"><style type="text/css">
	.st0{fill:#F16D6A;}
	.st1{fill:#FFFFFF;}
</style><g><path class="st0" d="M488.5,256c0,128.4-104.1,232.5-232.5,232.5S23.5,384.4,23.5,256C23.5,127.6,127.6,23.5,256,23.5   S488.5,127.6,488.5,256z"/><path class="st1" d="M386.6,277.5c-16.3-16.2-42.7-16.2-58.9,0c-2.3,2.3-4.2,4.8-5.9,7.4c0,0,0,0,0,0c-0.1,0.2-0.1,0.3-0.2,0.5   c-21.4-2.3-53.7,4.9-74.4,44.4c-13.7,26-35.8,44.3-57.9,47.7c-9.4,1.4-22.9,0.7-34.4-10.7c-14.8-14.7-21.6-37.1-16.7-54.4   c1.8-6.4,6.2-14.5,16.4-16.8c21.2-4.9,38.3-13,48.7-18.9c0.3,0.3,0.6,0.5,0.9,0.8c5.5,4,11.7,7.1,18.6,9.1   c6.3,1.9,12.8,0.5,17.6-3.2c37.1,1.9,77.8-20.8,80.1-22.1c4.8-2.8,7-8.4,5.4-13.5c0,0,0,0,0,0l-3-4.2l3,4.2   c26.4-21,29.7-41.6,29.2-51.8c0,0,0,0,0,0c2.7-1.9,4.2-5.2,3.5-8.5l-3.4-16.1c-0.9-4.2-4.9-6.6-9-5.2l-13.7,4.3   c-4.1,1.3-5.8,5.4-3.7,9.2l7.8,14.2c2,3.6,6.7,5.6,10.7,4.8c0,0.1,0,0.1,0,0.2c-0.3,9-4.3,25.5-26,42.8c0,0,0,0-0.1,0   c-3.6-2.4-8.3-2.8-12.4-0.5c-12.2,6.8-39.5,18.8-62.7,19.2c-2.2-5-6.4-9.1-12.1-10.8c-3.7-1.1-6.7-2.8-9.2-5.2l-0.5-0.5   c-2.5-2.6-4.3-5.8-5.4-9.7c-1.6-5.6-5.5-9.9-10.4-12.2c0.7-22.9,12.5-49.5,19.3-61.4c2.2-3.9,1.9-8.5-0.4-12l-0.7-0.5l0.7,0.5   c-0.1-0.1-0.1-0.2-0.2-0.3c17.5-21.8,34.1-25.7,43.2-26v0c0,0,0,0,0,0c-0.9,4,1.1,8.7,4.8,10.7l14.3,7.8c3.8,2,7.9,0.4,9.3-3.7   l4.3-13.6c1.3-4.1-1-8.1-5.3-9l-16.1-3.4c-3.2-0.7-6.5,0.8-8.4,3.3c-0.1,0.1-0.1,0.1-0.2,0.2c-10.2-0.4-31,2.7-52.1,29.1l-0.1,0.1   c-5.1-1.6-10.8,0.6-13.6,5.4c-1.3,2.3-23.3,41.5-22.2,77.9c-4,4.8-5.7,11.3-3.8,17.7c1.3,4.4,2.9,8.5,4.9,12.3   c0.4,0.6,0.9,1.2,1.3,1.9c-9,4.6-22.6,10.4-38.4,14c-16.4,3.8-28.7,15.8-33.7,33.1c-7.3,25.5,1.8,56.6,22.6,77.3   c14.3,14.3,33.7,20.4,54.5,17.2c29.7-4.6,57.8-27,75.1-59.9c15.2-29,36-32.9,48.2-32.2c0.4,9,3.4,18,9.4,25.4   c0.7,0.8,1.4,1.6,2.2,2.4c16.3,16.2,42.7,16.2,58.9,0C402.9,319.9,402.9,293.7,386.6,277.5z M368.7,318.2c-6.4,6.3-16.7,6.3-23,0   c-6.3-6.3-6.3-16.6,0-22.9c6.4-6.3,16.7-6.3,23,0C375,301.7,375,311.9,368.7,318.2z"/></g></svg>