<?xml version="1.0" ?><svg id="Layer_1" style="enable-background:new 0 0 512 512;" version="1.1" viewBox="0 0 512 512" xml:space="preserve" xmlns="http://www.w3.org/2000/svg" xmlns:xlink="http://www.w3.org/1999/xlink"><style type="text/css">
	.st0{fill:#FDCC5D;}
	.st1{fill:#FFFFFF;}
</style><g><path class="st0" d="M488.5,256c0,128.4-104.1,232.5-232.5,232.5S23.5,384.4,23.5,256C23.5,127.6,127.6,23.5,256,23.5   S488.5,127.6,488.5,256z"/><g><polygon class="st1" points="257,284 242.7,298.4 246.4,302.2 260.8,287.8   "/><rect class="st1" height="5.3" transform="matrix(0.7072 -0.707 0.707 0.7072 -121.149 254.1844)" width="40.6" x="226" y="270.7"/><polygon class="st1" points="231.9,258.9 217.5,273.3 221.3,277 235.7,262.7   "/><polygon class="st1" points="233.7,232 205,260.7 208.7,264.5 237.4,235.8   "/><rect class="st1" height="5.3" transform="matrix(0.707 -0.7072 0.7072 0.707 -112.7063 213.6252)" width="20.3" x="191.3" y="240.2"/><polygon class="st1" points="208.5,206.9 179.8,235.6 183.6,239.3 212.3,210.6   "/><path class="st1" d="M228.9,140.4l-27.3,27.3l-31.4-31.4l16.5-16.5c2.1-2.1,2.1-5.5,0-7.5c-2.1-2.1-5.4-2.1-7.5,0l-65.1,65.1    c-2.1,2.1-2.1,5.5,0,7.5c2.1,2.1,5.5,2.1,7.5,0l16.5-16.5l31.4,31.4l-27.3,27.3c-2.1,2.1-2.1,5.5,0,7.5c2.1,2.1,5.5,2.1,7.6,0    l7-7.1L279,349.8l30.5-9.2c4.6,4.6,12.1,4.6,16.8,0l6.3-6.3l67,67l-5.8-13.1l-57.6-57.6l6.3-6.3c4.6-4.6,4.6-12.1,0-16.8l9.2-30.4    L229.4,155l7.1-7.1c2.1-2.1,2.1-5.5,0-7.5C234.4,138.3,231,138.3,228.9,140.4 M341.1,277.3l-62,62L165.4,225.6l62-62L341.1,277.3z    "/><polygon class="st1" points="254.4,310.1 278.7,334.4 336.1,277   "/></g></g></svg>