<?xml version="1.0" ?><svg id="Layer_1" style="enable-background:new 0 0 512 512;" version="1.1" viewBox="0 0 512 512" xml:space="preserve" xmlns="http://www.w3.org/2000/svg" xmlns:xlink="http://www.w3.org/1999/xlink"><style type="text/css">
	.st0{fill:#0071BB;}
	.st1{fill:#FFFFFF;}
</style><g><path class="st0" d="M488.5,256c0,128.4-104.1,232.5-232.5,232.5S23.5,384.4,23.5,256C23.5,127.6,127.6,23.5,256,23.5   S488.5,127.6,488.5,256z"/><path class="st1" d="M151.4,401.3h209.2c0-53.2-33.6-84.6-89.1-89.4V302c26-6.9,45.3-30.4,45.3-58.5c0-12.1-3.6-23.3-9.8-32.8   l33.7-26c0,0-7.5-69.8-84.8-74c-77.3,3.1-84.6,74.1-84.6,74.1l33.6,26c-6.1,9.5-9.7,20.6-9.7,32.7c0,28.1,19.3,51.6,45.2,58.5v9.8   C185,316.5,151.4,346.5,151.4,401.3z M229.6,141.3H248V123h16v18.4h18.4v16H264v18.4h-16v-18.4h-18.4V141.3z"/></g></svg>