<?xml version="1.0" ?><svg id="Layer_1" style="enable-background:new 0 0 512 512;" version="1.1" viewBox="0 0 512 512" xml:space="preserve" xmlns="http://www.w3.org/2000/svg" xmlns:xlink="http://www.w3.org/1999/xlink"><style type="text/css">
	.st0{fill:#00ADEE;}
	.st1{fill:#FFFFFF;}
</style><g><path class="st0" d="M488.5,256c0,128.4-104.1,232.5-232.5,232.5S23.5,384.4,23.5,256C23.5,127.6,127.6,23.5,256,23.5   S488.5,127.6,488.5,256z"/><path class="st1" d="M277,280.1v-6.3v-6.4v-4.9c26-8.8,44.8-33.3,44.8-62.3c0-4.5-0.6-8.8-1.5-13.1h6v-8.9H324v-51.4   c0-8.8-7.2-16.1-16.1-16.1H204c-8.8,0-16.1,7.2-16.1,16.1v51.4h-2.2v8.9h6c-0.9,4.2-1.5,8.6-1.5,13.1c0,29,18.8,53.5,44.8,62.3v5   v6.4v6.3c-75.2,6.2-120.7,47-120.7,121.3h283.3C397.7,329.3,352.2,286.7,277,280.1z M231.3,139.2h17.2V122h15v17.2h17.2v15h-17.2   v17.2h-15v-17.2h-17.2V139.2z"/></g></svg>