<?xml version="1.0" ?><svg id="Layer_1" style="enable-background:new 0 0 512 512;" version="1.1" viewBox="0 0 512 512" xml:space="preserve" xmlns="http://www.w3.org/2000/svg" xmlns:xlink="http://www.w3.org/1999/xlink"><style type="text/css">
	.st0{fill:#F16D6A;}
	.st1{fill:#FFFFFF;}
</style><g><path class="st0" d="M488.5,256c0,128.4-104.1,232.5-232.5,232.5C127.6,488.5,23.5,384.4,23.5,256C23.5,127.6,127.6,23.5,256,23.5   C384.4,23.5,488.5,127.6,488.5,256z"/><g><path class="st1" d="M346,279c-1.9,0-3.5-1.3-3.9-3.2l-11.8-55.1l-20.4,65c-0.6,1.8-2.3,2.9-4.2,2.8c-1.9-0.2-3.4-1.6-3.6-3.5    l-11.8-86.8l-17.8,147.6c-0.2,2-1.9,3.5-3.9,3.5l0,0c-2,0-3.7-1.5-4-3.5l-14.8-115.3l-14.7,67.7c-0.4,1.8-2,3.1-3.8,3.1    c-2,0-3.5-1.3-4-3.1l-22.8-96.8L188.1,275c-0.4,1.8-2,3.1-3.9,3.1h-35.5c11.1,11.8,24.7,23.9,40.9,36.6    c35.2,27.5,56.3,55.2,66.3,70.2c10.1-15,31.2-42.7,66.4-70.2c15.8-12.4,29.1-24.2,40.1-35.7H346z"/><path class="st1" d="M181,270.1l19.5-87.2c0.4-1.8,2-3.1,3.9-3.1c2,0,3.5,1.3,3.9,3.1l22.7,96.5l16-73.1c0.4-1.9,2-3.2,4.1-3.2    c1.9,0.1,3.5,1.6,3.8,3.5l13.7,106.4l17.6-146.7c0.3-2,1.9-3.5,3.9-3.5h0c2,0,3.7,1.5,4,3.5l13.6,100l19.6-62.4    c0.6-1.7,2.2-2.9,4-2.8c1.8,0.1,3.3,1.4,3.7,3.2l14.3,66.8h20.5c21.3-24.5,31.5-47.5,31.5-70.3c0-54.3-35-73.6-65.1-73.6    c-27.9,0-54.4,15.3-70.7,40.9l-0.2,0.2l-0.2,0.2c-2,2.7-5.2,4.3-8.7,4.5l-0.4,0l-0.3,0c-3.5-0.2-6.7-1.8-8.7-4.4l-0.3-0.3    l-0.2-0.3c-16.3-25.6-42.8-40.9-70.7-40.9c-30,0-65.1,19.3-65.1,73.6c0,22.5,10,45.2,30.8,69.4H181z"/></g></g></svg>