<?xml version="1.0" ?><svg id="Layer_1" style="enable-background:new 0 0 512 512;" version="1.1" viewBox="0 0 512 512" xml:space="preserve" xmlns="http://www.w3.org/2000/svg" xmlns:xlink="http://www.w3.org/1999/xlink"><style type="text/css">
	.st0{fill:#FDCC5D;}
	.st1{fill:#FFFFFF;}
</style><g><path class="st0" d="M488.5,256c0,128.4-104.1,232.5-232.5,232.5S23.5,384.4,23.5,256C23.5,127.6,127.6,23.5,256,23.5   S488.5,127.6,488.5,256z"/><g><path class="st1" d="M275.5,110.7h-38.9c-5.5,0-10,4.5-10,10c0,3.8,2.3,7.4,5.6,9v247.8c0,13.1,10.7,23.8,23.8,23.8    c13.2,0,23.8-10.7,23.8-23.8V129.7c3.4-1.6,5.6-5.2,5.6-9C285.5,115.2,281,110.7,275.5,110.7z M250,360.3c0,2.9-2.3,5.3-5.2,5.3    c-2.9,0-5.3-2.3-5.3-5.3V170.8H250V360.3z M256.3,223.9c-2.3,0-4.1-1.8-4.1-4.1c0-2.2,1.8-4.1,4.1-4.1c2.2,0,4.1,1.8,4.1,4.1    C260.4,222,258.6,223.9,256.3,223.9z M252.5,177c0-2.9,2.4-5.3,5.3-5.3c2.9,0,5.3,2.4,5.3,5.3c0,2.9-2.4,5.3-5.3,5.3    C254.8,182.3,252.5,179.9,252.5,177z M266.3,246.9c-1.9,0-3.5-1.6-3.5-3.5c0-1.9,1.6-3.5,3.5-3.5c1.9,0,3.5,1.6,3.5,3.5    C269.8,245.3,268.2,246.9,266.3,246.9z M265.6,204.1c-2.5,0-4.5-2-4.5-4.5c0-2.5,2-4.5,4.5-4.5c2.5,0,4.5,2,4.5,4.5    C270.1,202.1,268.1,204.1,265.6,204.1z M277.1,126.2l-1.6,0.5v41.6h-39v-37.6l39-4l-40.5-0.5c-2.4-0.7-4.1-2.9-4.1-5.5    c0-3.1,2.6-5.7,5.7-5.7h38.9c3.1,0,5.7,2.5,5.7,5.7C281.2,123.2,279.4,125.5,277.1,126.2z"/><path class="st1" d="M236.8,115.3c-3,0-5.4,2.1-5.4,4.7c0,2.6,30.9-4.7,27.9-4.7H236.8z"/></g></g></svg>