<?xml version="1.0" ?><svg id="Layer_1" style="enable-background:new 0 0 512 512;" version="1.1" viewBox="0 0 512 512" xml:space="preserve" xmlns="http://www.w3.org/2000/svg" xmlns:xlink="http://www.w3.org/1999/xlink"><style type="text/css">
	.st0{fill:#A7D088;}
	.st1{fill:#FFFFFF;}
</style><g><path class="st0" d="M488.5,256c0,128.4-104.1,232.5-232.5,232.5C127.6,488.5,23.5,384.4,23.5,256C23.5,127.6,127.6,23.5,256,23.5   C384.4,23.5,488.5,127.6,488.5,256z"/><path class="st1" d="M335.1,178.4h-47.7v-12h3.3c5.5,0,10-4.5,10-10v-4.7c0-5.5-4.5-10-10-10h-9v-3.3h19c5.5,0,10-4.5,10-10v-7.7   c0-5.5-4.5-10-10-10h-89.4c-5.5,0-10,4.5-10,10v7.7c0,5.5,4.5,10,10,10h19v3.3h-9c-5.5,0-10,4.5-10,10v4.7c0,5.5,4.5,10,10,10h3.3   v12h-47.7c-11,0-20,9-20,20v182.8c0,11,9,20,20,20h158.2c11,0,20-9,20-20V198.4C355.1,187.4,346.1,178.4,335.1,178.4z M303,297.3   c0,0.9-0.8,1.7-1.7,1.7h-32.6v32.6c0,1-0.8,1.7-1.7,1.7h-21.9c-1,0-1.7-0.8-1.7-1.7v-32.6h-32.6c-1,0-1.7-0.8-1.7-1.7v-21.9   c0-1,0.8-1.7,1.7-1.7h32.6v-32.6c0-0.9,0.8-1.7,1.7-1.7h21.9c1,0,1.7,0.8,1.7,1.7v32.6h32.6c1,0,1.7,0.8,1.7,1.7V297.3z"/></g></svg>