<?xml version="1.0" ?><svg id="Layer_1" style="enable-background:new 0 0 512 512;" version="1.1" viewBox="0 0 512 512" xml:space="preserve" xmlns="http://www.w3.org/2000/svg" xmlns:xlink="http://www.w3.org/1999/xlink"><style type="text/css">
	.st0{fill:#F16D6A;}
	.st1{fill:#FFFFFF;}
</style><g><path class="st0" d="M488.5,256c0,128.4-104.1,232.5-232.5,232.5S23.5,384.4,23.5,256C23.5,127.6,127.6,23.5,256,23.5   S488.5,127.6,488.5,256z"/><g><path class="st1" d="M265.6,348.3c-3,0-5.7-2-6.6-4.8l-9.1-30.9c-2.7-9.2-11.4-15.7-21.1-15.7c-1.9,0-3.9,0.3-5.7,0.7l-28.8,8.1    c-0.5,0.1-1,0.2-1.6,0.2c-2.8,0-5.2-1.9-5.9-4.6l-30.4-114.4c-0.9-3.4,1.1-6.9,4.5-7.8l5.1-1.3l2.5,9.5l124-32.9l-2.5-9.5l8.9-2.4    c0.6-0.1,1.1-0.2,1.7-0.2c2.9,0,5.4,1.9,6.2,4.8l45.6,171.9c0.5,1.6,0.2,3.4-0.6,4.9c-0.9,1.5-2.3,2.5-3.9,2.9L267.3,348    C266.7,348.2,266.1,348.3,265.6,348.3L265.6,348.3z M247.5,289.5l31.7-8.4l-7.7-29l29-7.7l-8.4-31.7l-29,7.7l-7.7-29l-31.7,8.4    l7.7,29l-29,7.7l8.4,31.7l29-7.7L247.5,289.5z"/><path class="st1" d="M387.3,327.6l-51.8-195.3c-3.4-12.7-16.9-20.3-30-16.8l-22.1,5.9v0l-10.2,2.7l-0.3-1.2    c-1.7-6.2-8.1-9.9-14.3-8.3l-19.5,5.2c-2.9-7.5-16.1-10.5-24.1-8.4c-8,2.1-17.9,11.2-16.8,19.2l-19.4,5.2    c-6.2,1.6-9.9,8.1-8.3,14.3l0.3,1.1l-7.9,2.1v0l-4.9,1.3l0,0l0,0l-15.6,4.2c-13.1,3.4-21.1,16.7-17.7,29.5l51.8,195.3    c3.4,12.8,16.9,20.4,30,16.9l163.1-43.3C382.7,353.7,390.6,340.4,387.3,327.6z M216.7,119c4.7-1.2,9.4,1.5,10.6,6.2    c1.3,4.6-1.5,9.4-6.1,10.6c-4.6,1.2-9.4-1.5-10.6-6.2C209.3,125,212.1,120.2,216.7,119z M244.7,351.6L244.7,351.6    c0,0,0.1,0.1,0.2,0.1L244.7,351.6z M350.9,338.2l-80.6,21.4c-9.7,2.6-19.9-3.1-22.8-12.8l-9.1-30.9c-1.5-5.1-6.9-8.2-12.1-6.8    l-28.7,8.1c-9.9,2.6-19.9-3.1-22.4-12.8l-30.4-114.4c-2.6-9.8,3.3-19.9,13-22.5l8.3-2.2l0,0l7.9-2.1l2.8,10.5l102.4-27.2    l-2.8-10.5l9.9-2.6l9.6-2.5c9.8-2.6,19.8,3.2,22.4,13l45.6,172C366.5,325.6,360.7,335.6,350.9,338.2z"/></g></g></svg>