<?xml version="1.0" ?><svg baseProfile="tiny" id="Layer_1" version="1.2" viewBox="0 0 512 512" xml:space="preserve" xmlns="http://www.w3.org/2000/svg" xmlns:xlink="http://www.w3.org/1999/xlink"><g id="XMLID_345_"><g id="XMLID_364_"><path d="M268.9,412.4h-25.7c-21.9,0-39.6-17.7-39.6-39.6v-57.3c0-21.9,17.7-39.6,39.6-39.6h25.7    c21.9,0,39.6,17.7,39.6,39.6v57.3C308.4,394.6,290.7,412.4,268.9,412.4z" fill="#EDBB98" id="XMLID_366_"/><path d="M308.4,371.9v0.9c0,21.9-17.7,39.6-39.6,39.6h-25.7c-21.9,0-39.6-17.7-39.6-39.6v-0.9    C121.1,389.7,57,444.6,39.8,511.6c-0.2,1,109.2,0,216.2,0c107.1,0,216.5,1,216.2,0C455,444.6,390.9,389.7,308.4,371.9z" fill="#2B00FF" id="XMLID_365_"/></g><ellipse cx="389.8" cy="205.1" fill="#F4C5A2" id="XMLID_363_" rx="30.2" ry="41.8" transform="matrix(0.9772 0.2124 -0.2124 0.9772 52.4566 -78.1282)"/><ellipse cx="122.2" cy="207.8" fill="#F4C5A2" id="XMLID_362_" rx="30.2" ry="41.8" transform="matrix(-0.9772 0.2124 -0.2124 -0.9772 285.6545 384.8752)"/><ellipse cx="256.3" cy="202.5" fill="#F4C5A2" id="XMLID_361_" rx="129.9" ry="151.6"/><path d="M394.2,100.2c-1.2-12.6-4.8-32.9-9.9-44.7C369,19.8,314.3,4.4,277.5,0.9   c-68.1-5.1-91.8,11.7-99.5,25.7l0,0c0,0-84.4,10.8-68.6,119.1l18.3,67c0,0,33-90.4,76.1-113l-9.4-20.3c3.2,4.2,6.5,8.3,9.9,12.3   c1.9,2.2,3.8,4.4,5.7,6.5c10.3,11.5,22.1,22.4,37.7,27.6c15.7,5.2,33.3,4,49.2,0.1c14.5-3.6,31.2-15.6,46.5-13.1   c11.1,1.8,18.3,11.5,23,20.8c12.4,24.7,16.2,52.1,19.9,79.1C391.9,174.8,397.7,138.2,394.2,100.2z" fill="#3F2820" id="XMLID_348_"/><path d="M310.3,313.5c-21.6,14.4-40.9-23.9-40.9-23.9h-25.9c0,0-19.3,38.3-40.9,23.9l-65.3-50.1   c0,0,24.6,83.4,114,90.7h10.2c89.5-7.3,113.4-89.6,113.4-89.6L310.3,313.5z" fill="#3F2820" id="XMLID_347_"/></g></svg>