<?xml version="1.0" ?><svg id="Layer_1" style="enable-background:new 0 0 512 512;" version="1.1" viewBox="0 0 512 512" xml:space="preserve" xmlns="http://www.w3.org/2000/svg" xmlns:xlink="http://www.w3.org/1999/xlink"><style type="text/css">
	.st0{fill:#64B7B2;}
	.st1{fill:#00A79D;}
	.st2{fill:#DCC5A1;}
	.st3{fill:#EDD9B4;}
	.st4{fill-rule:evenodd;clip-rule:evenodd;fill:#BC9F82;}
	.st5{fill-rule:evenodd;clip-rule:evenodd;fill:#4B1F0D;}
	.st6{fill-rule:evenodd;clip-rule:evenodd;fill:#DCC5A1;}
	.st7{fill-rule:evenodd;clip-rule:evenodd;fill:#EDD9B4;}
	.st8{fill:#010101;}
	.st9{opacity:0.3;}
	.st10{clip-path:url(#SVGID_2_);fill:#5C3915;}
	.st11{clip-path:url(#SVGID_4_);fill:#5C3915;}
	.st12{fill-rule:evenodd;clip-rule:evenodd;fill:#EDEDED;}
	.st13{opacity:0.1;}
	.st14{clip-path:url(#SVGID_6_);fill-rule:evenodd;clip-rule:evenodd;fill:#010101;}
	.st15{fill:#342214;}
	.st16{fill:#FFFFFF;}
	.st17{fill:#BE1E2D;}
	.st18{fill:#200D45;}
</style><g><path class="st0" d="M90.4,379.5c10.5-9.3,37.1-30,125.5-68.8l81,0.5c88.5,38.8,114.1,58.9,124.6,68.2c4.1,3.6,7.7,9.6,10.9,17.4   c24.7-35.1,39.2-77.9,39.2-124.1C471.7,153.6,375.1,57,256,57C136.9,57,40.3,153.6,40.3,272.8c0,46.2,14.5,89,39.2,124.1   C82.8,389.1,86.4,383,90.4,379.5z"/><path class="st1" d="M142.9,456.5c1.2-9.6,2-15.4,2-15.4s0,6.2,0,16.7c26.5,15.9,56.6,26.3,88.9,29.6l14.1-98.6l-11.1-16.3   l19.4-19.7l18.5,19.5l-10.7,16.5l14.1,98.6c32.2-3.3,62.3-13.7,88.7-29.5c0-10.5,0-16.8,0-16.8s0.8,5.9,2,15.5   c25-15.4,46.7-35.8,63.6-59.8c-3.3-7.7-6.9-13.8-10.9-17.4c-10.5-9.3-36.1-29.4-124.6-68.2l-81-0.5   c-88.5,38.8-115.1,59.5-125.5,68.8c-4.1,3.6-7.6,9.6-10.9,17.4C96.4,420.8,117.9,441.1,142.9,456.5z"/><g><path class="st2" d="M213.3,236.5v97.2c11.7,13.8,27.1,21,42.6,21.1V197.1C234.6,197.1,213.3,210.2,213.3,236.5z"/><path class="st3" d="M255.9,197.1v157.7c15.4,0.1,30.9-6.8,42.6-21.1v-97.2C298.5,210.2,277.2,197.1,255.9,197.1z"/></g><path class="st4" d="M298.5,232.6v65.1c-16.1,11.7-31.6,18.3-42.6,18.3c-10.9,0-26.5-6.6-42.6-18.3v-65.1   C213.3,180.1,298.5,180.1,298.5,232.6"/><path class="st5" d="M318.8,111.5c18.7,0,33.9-15.2,33.9-33.9c0-18.7-15.2-33.9-33.9-33.9c-18.7,0-33.9,15.3-33.9,33.9   C284.9,96.3,300.1,111.5,318.8,111.5"/><path class="st5" d="M285.5,96.6c18.7,0,33.9-15.2,33.9-33.9c0-18.7-15.2-33.9-33.9-33.9c-18.7,0-33.9,15.2-33.9,33.9   C251.6,81.4,266.8,96.6,285.5,96.6"/><path class="st5" d="M234.6,91.4c18.7,0,33.9-15.2,33.9-33.9c0-18.7-15.2-33.9-33.9-33.9c-18.7,0-33.9,15.2-33.9,33.9   C200.6,76.1,215.9,91.4,234.6,91.4"/><path class="st5" d="M188.9,108c18.7,0,33.9-15.3,33.9-33.9c0-18.7-15.2-33.9-33.9-33.9c-18.7,0-33.9,15.2-33.9,33.9   C155,92.8,170.3,108,188.9,108"/><path class="st5" d="M162.6,145.8c18.7,0,33.9-15.2,33.9-33.9c0-18.7-15.2-33.9-33.9-33.9c-18.7,0-33.9,15.2-33.9,33.9   C128.7,130.5,143.9,145.8,162.6,145.8"/><path class="st5" d="M347.8,146.6c18.7,0,33.9-15.2,33.9-33.9c0-18.7-15.3-33.9-33.9-33.9c-18.7,0-33.9,15.2-33.9,33.9   C313.9,131.4,329.1,146.6,347.8,146.6"/><path class="st5" d="M349.5,194c18.7,0,33.9-15.2,33.9-33.9c0-18.7-15.2-33.9-33.9-33.9c-18.7,0-33.9,15.2-33.9,33.9   C315.6,178.8,330.9,194,349.5,194"/><path class="st5" d="M325,251.1c18.7,0,33.9-15.2,33.9-33.9c0-18.7-15.2-33.9-33.9-33.9c-18.7,0-33.9,15.2-33.9,33.9   C291,235.8,306.3,251.1,325,251.1"/><path class="st5" d="M160,188.8c18.7,0,33.9-15.2,33.9-33.9c0-18.7-15.2-33.9-33.9-33.9c-18.7,0-33.9,15.2-33.9,33.9   C126.1,173.5,141.3,188.8,160,188.8"/><path class="st5" d="M184.6,255.5c18.7,0,33.9-15.2,33.9-33.9c0-18.7-15.2-33.9-33.9-33.9c-18.7,0-33.9,15.2-33.9,33.9   C150.6,240.2,165.9,255.5,184.6,255.5"/><path class="st5" d="M344.7,226.5c18.7,0,33.9-15.2,33.9-33.9c0-18.7-15.2-33.9-33.9-33.9c-18.7,0-33.9,15.2-33.9,33.9   C310.7,211.2,326,226.5,344.7,226.5"/><path class="st5" d="M164.9,224.1c18.7,0,33.9-15.2,33.9-33.9c0-18.7-15.2-33.9-33.9-33.9c-18.7,0-33.9,15.2-33.9,33.9   C131,208.8,146.2,224.1,164.9,224.1"/><g><path class="st6" d="M157.5,176.1c-3.4-2.5-7.1-3.5-10.3-2.5c-7.5,2.5-10.1,15-5.8,27.9c4.3,13,13.8,21.5,21.3,19    c0.5-0.2,1-0.4,1.5-0.7c3.6,14.8,7.6,25.4,9.7,28.4c10.3,15.2,59.1,55.3,82.2,55.3V62C170.6,62,154.5,123.6,157.5,176.1z"/><path class="st7" d="M366.3,173.7c-3.8-1.3-8.1,0.3-12.1,3.9C357.6,124.7,342,62,255.9,62h0v241.7h0c23.1,0,71.9-40.2,82.2-55.3    c2.1-3.1,6.3-14.1,9.9-29.4c0.9,0.7,1.8,1.3,2.9,1.6c7.5,2.5,17-6,21.3-19C376.4,188.7,373.8,176.2,366.3,173.7z"/></g><path class="st5" d="M244.2,120.3c18.7,0,33.9-15.2,33.9-33.9c0-18.7-15.2-33.9-33.9-33.9c-18.7,0-33.9,15.2-33.9,33.9   C210.3,105.1,225.5,120.3,244.2,120.3"/><path class="st5" d="M290.7,118.6c18.7,0,33.9-15.2,33.9-33.9c0-18.7-15.2-33.9-33.9-33.9c-18.7,0-33.9,15.2-33.9,33.9   C256.8,103.3,272.1,118.6,290.7,118.6"/><path class="st5" d="M210,130.9c18.7,0,33.9-15.2,33.9-33.9c0-18.7-15.2-33.9-33.9-33.9c-18.7,0-33.9,15.2-33.9,33.9   C176.1,115.6,191.3,130.9,210,130.9"/><path class="st5" d="M184.8,142.7c15.9,0,28.9-13,28.9-28.9c0-15.9-13-28.9-28.9-28.9c-15.9,0-28.9,13-28.9,28.9   C155.9,129.7,168.9,142.7,184.8,142.7"/><path class="st5" d="M318,139.6c18.7,0,33.9-15.2,33.9-33.9c0-18.7-15.2-33.9-33.9-33.9c-18.7,0-33.9,15.2-33.9,33.9   C284,124.4,299.3,139.6,318,139.6"/><path class="st5" d="M345.5,162.6c13.2,0,23.9-10.8,23.9-23.9c0-13.2-10.8-23.9-23.9-23.9c-13.2,0-23.9,10.8-23.9,23.9   C321.6,151.9,332.3,162.6,345.5,162.6"/><path class="st5" d="M169.4,167.2c12.8,0,23.2-10.4,23.2-23.2c0-12.8-10.4-23.2-23.2-23.2c-12.8,0-23.2,10.4-23.2,23.2   C146.2,156.8,156.6,167.2,169.4,167.2"/><path class="st5" d="M164.6,183c8.2,0,14.8-6.7,14.8-14.8c0-8.2-6.7-14.8-14.8-14.8c-8.2,0-14.8,6.7-14.8,14.8   C149.7,176.4,156.4,183,164.6,183"/><path class="st5" d="M349.7,184.8c8.2,0,14.8-6.7,14.8-14.8c0-8.2-6.7-14.8-14.8-14.8c-8.2,0-14.8,6.7-14.8,14.8   C334.9,178.1,341.6,184.8,349.7,184.8"/><path class="st5" d="M166.3,196.2c5.8,0,10.4-4.7,10.4-10.4c0-5.7-4.7-10.4-10.4-10.4c-5.7,0-10.4,4.7-10.4,10.4   C155.9,191.5,160.6,196.2,166.3,196.2"/><path class="st5" d="M348,195.3c5.8,0,10.4-4.7,10.4-10.4c0-5.7-4.7-10.4-10.4-10.4c-5.7,0-10.4,4.7-10.4,10.4   C337.6,190.6,342.2,195.3,348,195.3"/><path class="st8" d="M349.6,171.9c-2.7-2.1-27.9-10.8-37.5-11.1c0,0-21.6-2.6-32.3,2.4c-10.7,4.9-12.9,4.2-23.3,4.7c0,0-0.4,0-1,0   c-0.7,0-1,0-1,0c-10.4-0.5-12.6,0.2-23.3-4.7c-10.7-4.9-32.3-2.4-32.3-2.4c-9.6,0.2-34.8,8.9-37.5,11.1c-2.7,2.1,0,5.5,0,5.5   c10.9-0.9,12.3,17.5,12.3,17.5c1.3,5,3.1,9.5,6,13.7c3.6,5.2,8.7,9.4,14.7,11.6c5.7,2.1,11,2.2,17.1,2.2c7.9-0.1,15.2-2.1,21.2-7.2   c11.1-9.3,14.9-33.5,14.9-33.5c-1.5-0.7-1.6-3.5-1.6-3.5c-0.1-4.1,6.4-4.5,8.5-4.5c0.3,0,0.6,0,1,0c0.4,0,0.7,0,1,0   c2,0,8.6,0.4,8.5,4.5c0,0-0.1,2.8-1.6,3.5c0,0,3.9,24.2,14.9,33.5c6,5,13.4,7.1,21.2,7.2c6.1,0.1,11.4-0.1,17.1-2.2   c6-2.2,11.1-6.4,14.7-11.6c2.9-4.2,4.8-8.8,6-13.7c0,0,1.4-18.5,12.4-17.5C349.6,177.4,352.3,174,349.6,171.9 M240.5,190.7   c-2,14.1-5.7,21.5-14.7,25.7c-9.1,4.2-17,3.5-17,3.5s-7.7,0.7-16.8-3.5c-9.1-4.2-12.5-11.6-14.5-25.7c-0.3-2.4-0.6-4.8-0.6-7.2   c0.1-6.6,3.3-13.9,9.7-16.8c4-1.8,9.4-2.4,13.7-2.7c2.8-0.2,5.7-0.4,8.5-0.4c0.9,0,1.8,0.1,2.7,0.2c7.3,0.6,16.1,0.6,22.4,4.8   c1.1,0.8,2.2,1.6,3.2,2.7C241.8,176.5,241.5,184.1,240.5,190.7 M333.4,190.7c-2,14.1-5.4,21.5-14.5,25.7   c-9.1,4.2-16.8,3.5-16.8,3.5s-7.9,0.7-17-3.5c-9.1-4.2-12.7-11.6-14.7-25.7c-0.9-6.6-1.3-14.2,3.5-19.4c1-1.1,2-1.9,3.2-2.7   c6.3-4.2,15.1-4.2,22.4-4.8c0.9-0.1,1.8-0.2,2.6-0.2c2.8,0,5.7,0.2,8.5,0.4c4.3,0.3,9.8,0.9,13.7,2.7c6.3,2.9,9.6,10.2,9.7,16.8   C334,185.8,333.8,188.3,333.4,190.7"/><g class="st9"><g><defs><rect height="56.3" id="SVGID_1_" width="64.2" x="176.9" y="163.5"/></defs><clipPath id="SVGID_2_"><use style="overflow:visible;" xlink:href="#SVGID_1_"/></clipPath><path class="st10" d="M240.5,190.7c-2,14.1-5.7,21.5-14.7,25.7c-9.1,4.2-17,3.5-17,3.5s-7.7,0.7-16.8-3.5     c-9.1-4.2-12.5-11.6-14.5-25.7c-0.3-2.4-0.6-4.8-0.6-7.2c0.1-6.6,3.3-13.9,9.7-16.8c4-1.8,9.4-2.4,13.7-2.7     c2.8-0.2,5.7-0.4,8.5-0.4c0.9,0,1.8,0.1,2.7,0.2c7.3,0.6,16.1,0.6,22.4,4.8c1.1,0.8,2.2,1.6,3.2,2.7     C241.8,176.5,241.5,184.1,240.5,190.7"/></g></g><g class="st9"><g><defs><rect height="56.3" id="SVGID_3_" width="64.2" x="269.8" y="163.5"/></defs><clipPath id="SVGID_4_"><use style="overflow:visible;" xlink:href="#SVGID_3_"/></clipPath><path class="st11" d="M333.4,190.7c-2,14.1-5.4,21.5-14.5,25.7c-9.1,4.2-16.8,3.5-16.8,3.5s-7.9,0.7-17-3.5     c-9.1-4.2-12.7-11.6-14.7-25.7c-0.9-6.6-1.3-14.2,3.5-19.4c1-1.1,2-1.9,3.2-2.7c6.3-4.2,15.1-4.2,22.4-4.8     c0.9-0.1,1.8-0.2,2.6-0.2c2.8,0,5.7,0.2,8.5,0.4c4.3,0.3,9.8,0.9,13.7,2.7c6.3,2.9,9.6,10.2,9.7,16.8     C334,185.8,333.8,188.3,333.4,190.7"/></g></g><g><polygon class="st12" points="213.3,299.4 209.3,313.6 219.8,389.7 255.9,352.4   "/><polygon class="st12" points="298.5,299.7 301.9,313.4 292.1,390.5 255.9,352.4   "/></g><g class="st13"><g><defs><rect height="0.5" id="SVGID_5_" width="16.3" x="247.8" y="388.8"/></defs><clipPath id="SVGID_6_"><use style="overflow:visible;" xlink:href="#SVGID_5_"/></clipPath><polygon class="st14" points="247.9,388.8 264.1,388.8 264.1,389.3 247.9,389.3    "/></g></g><g><path class="st15" d="M213.4,177.2c5.9,0,10.7,5.4,10.7,12.1c0,6.7-4.8,12.1-10.7,12.1c-5.9,0-10.7-5.4-10.7-12.1    C202.8,182.6,207.6,177.2,213.4,177.2"/><path class="st15" d="M300,177.2c5.9,0,10.7,5.4,10.7,12.1c0,6.7-4.8,12.1-10.7,12.1c-5.9,0-10.7-5.4-10.7-12.1    C289.4,182.6,294.1,177.2,300,177.2"/><path class="st16" d="M234.7,253.7c3.8,8.4,12.2,14.2,22,14.2c9.8,0,18.2-5.8,22-14.2H234.7z"/></g><polygon class="st17" points="256,488.5 256,488.5 256,488.5  "/><path class="st18" d="M142.9,456.5c0.7,0.4,1.4,0.8,2,1.2c0-10.4,0-16.7,0-16.7S144.1,446.9,142.9,456.5z"/><path class="st18" d="M366.9,457.9c0.7-0.4,1.4-0.8,2.1-1.3c-1.2-9.6-2-15.5-2-15.5S366.9,447.4,366.9,457.9z"/><path d="M264.1,388.8l10.8-16.4l-18.9-20l-19.3,20l11.3,16.4l-14.1,98.6c7.3,0.7,14.7,1.1,22.2,1.1h0c7.5,0,14.9-0.4,22.2-1.1   L264.1,388.8z"/></g></svg>