<?xml version="1.0" ?><svg id="Layer_1" style="enable-background:new 0 0 512 512;" version="1.1" viewBox="0 0 512 512" xml:space="preserve" xmlns="http://www.w3.org/2000/svg" xmlns:xlink="http://www.w3.org/1999/xlink"><style type="text/css">
	.st0{fill:#94D9F8;}
	.st1{fill:#EDD9B4;}
	.st2{fill:#DCC5A1;}
	.st3{fill-rule:evenodd;clip-rule:evenodd;fill:#BC9F82;}
	.st4{fill-rule:evenodd;clip-rule:evenodd;fill:#8B5E3C;}
	.st5{fill-rule:evenodd;clip-rule:evenodd;fill:#DCC5A1;}
	.st6{fill-rule:evenodd;clip-rule:evenodd;fill:#EDD9B4;}
	.st7{fill:#FFFFFF;}
	.st8{fill:#342214;}
	.st9{fill:none;}
	.st10{fill:#BE1E2D;}
	.st11{fill:#00AEEF;}
	.st12{fill:#EF3F6C;}
</style><g><path class="st0" d="M89.7,379.2c8.9-7.9,29.4-24,89.3-52.4l43.5,60.3l15.2-14.4l-0.2-0.4l18.8-17.6l18.4,17.6l-0.1,0.1l15.4,14.6   l43.4-60.1c60.2,28.4,80.1,44.2,89.1,52.2c4,3.5,7.5,9.3,10.7,16.8c24.4-35,38.7-77.5,38.7-123.3C471.7,153.6,375.1,57,256,57   C136.9,57,40.3,153.6,40.3,272.8c0,45.9,14.3,88.4,38.7,123.3C82.2,388.6,85.7,382.7,89.7,379.2z"/><path class="st1" d="M256,192.5v163.3c15.6,0.1,31.3-10.2,43.2-24.8v-98.6C299.2,205.8,277.6,192.5,256,192.5z"/><path class="st2" d="M212.8,232.5V331c11.9,14,27.5,24.7,43.2,24.8V192.5C234.4,192.5,212.8,205.8,212.8,232.5z"/><path class="st3" d="M299.2,232.5v66C282.8,310.3,267.1,317,256,317c-11.1,0-26.8-6.7-43.2-18.6v-66   C212.8,179.2,299.2,179.2,299.2,232.5"/><path class="st4" d="M328.1,47.5c21.3,3.4,33,18,38.1,37.8c13.1,51.5-14.3,163.2-109.3,164.6c-49,0.7-84.3-11.8-97.1-51.4   c-12.9-39.6-18.1-103.5,9.8-139.4C204.7,14,278.5,13.6,328.1,47.5"/><g><path class="st5" d="M155.9,154.5c-3.7-3-7.7-4.3-11.3-3.1c-7.6,2.5-10.3,15.2-5.9,28.3c4.2,12.6,13.2,21,20.7,19.5    c4.1,23.3,10.5,41.2,13.3,45.3c10.4,15.4,59.9,56.1,83.3,56.1V55.5C178.4,55.5,157.3,105.7,155.9,154.5z"/><path class="st6" d="M367,151.4c-3.4-1.1-7.3,0-10.9,2.8c-1.5-48.7-22.6-98.7-100.1-98.7v245.1c23.4,0,72.9-40.7,83.3-56.1    c2.8-4.1,9.2-22,13.3-45.2c7.4,1.2,16.2-7.2,20.3-19.6C377.2,166.6,374.6,153.9,367,151.4z"/></g><path class="st7" d="M256.2,355.3l-43.4-43.8c-12.5,5.5-23.7,10.6-33.8,15.4l43.5,60.3L256.2,355.3z"/><path class="st7" d="M289.9,387.2l43.4-60.1c-10.2-4.8-21.5-10-34.1-15.5l-43,43.7L289.9,387.2z"/><g><path class="st8" d="M209.2,160.5c6.3,0,11.5,5.8,11.5,13c0,7.2-5.1,13-11.5,13c-6.3,0-11.5-5.8-11.5-13    C197.7,166.3,202.9,160.5,209.2,160.5"/><path class="st8" d="M302.4,160.5c6.3,0,11.5,5.8,11.5,13c0,7.2-5.1,13-11.5,13c-6.3,0-11.5-5.8-11.5-13    C290.9,166.3,296.1,160.5,302.4,160.5"/><path class="st7" d="M232.1,243c4.1,9,13.1,15.3,23.7,15.3c10.6,0,19.6-6.3,23.7-15.3H232.1z"/></g><path class="st4" d="M327,99.1c-25.5,15.7-55.7,10.2-44-3.6c11.8-13.7-1.2-4.2-24.1,5.9c-23,10-49.4,8.4-33.8-0.1   c19-10.3-55.2-17-68.7,88.9c-21.7-76.8,15-141.2,97.9-144.8c88.6-3.9,124.5,66.2,100,142.5C355.9,146.5,345.9,119.5,327,99.1"/><polygon class="st9" points="278.2,487.4 278.3,488.2 278.2,487.4  "/><polygon class="st9" points="233.8,487.4 233.7,488.2 233.8,487.4  "/><polygon class="st10" points="264.1,388.6 278.2,487.4 278.2,487.4 264.1,388.6  "/><polygon class="st10" points="233.8,487.4 247.9,388.6 247.9,388.6 233.8,487.4  "/><path class="st11" d="M422.3,379.2c-9-7.9-28.9-23.7-89.1-52.2l-43.4,60.1l-15.4-14.6l-10.4,16.1h0l14.1,98.7   c32.8-3.4,63.5-14.1,90.3-30.5c0-10.5,0-16.9,0-16.9s0.8,5.9,2,15.6c24.6-15.4,45.8-35.7,62.4-59.5   C429.8,388.6,426.3,382.7,422.3,379.2z"/><path class="st11" d="M141.4,455.6c1.2-9.7,2-15.6,2-15.6s0,6.3,0,16.9c26.8,16.4,57.5,27.2,90.3,30.5l14.1-98.7l-10.2-15.8   l-15.2,14.4L179,326.9c-59.9,28.4-80.4,44.5-89.3,52.4c-4,3.5-7.5,9.4-10.7,16.8C95.6,419.8,116.8,440.1,141.4,455.6z"/><polygon class="st12" points="274.5,372.6 274.6,372.4 256.2,354.8 237.4,372.4 237.7,372.8 256.2,355.3  "/><path class="st12" d="M264.1,388.6L264.1,388.6l10.4-16.1l-18.3-17.3l-18.5,17.6l10.2,15.8l-14.1,98.7c7.3,0.7,14.7,1.1,22.2,1.1   c7.5,0,14.9-0.4,22.2-1.1L264.1,388.6z"/><path class="st7" d="M141.4,455.6c0.7,0.4,1.4,0.9,2.1,1.3c0-10.5,0-16.9,0-16.9S142.6,445.9,141.4,455.6z"/><path class="st7" d="M368.5,456.8c0.7-0.4,1.4-0.9,2.1-1.3c-1.2-9.7-2-15.6-2-15.6S368.6,446.3,368.5,456.8z"/></g></svg>