<?xml version="1.0" ?><svg baseProfile="tiny" id="Layer_1" version="1.2" viewBox="0 0 512 512" xml:space="preserve" xmlns="http://www.w3.org/2000/svg" xmlns:xlink="http://www.w3.org/1999/xlink"><g id="XMLID_530_"><path d="M423.6,204.3C420.3,20.3,294.9,6.6,266.7,5.9l0-0.7c0,0-170.9-9-174.9,198.4   c0,0,6.1,128.6-48.6,113.2c0,0,64.9,99,206,18.3l28.1,0.7c131.1,80.8,191.4-18.3,191.4-18.3C418,332.8,423.6,204.3,423.6,204.3z" fill="#3F2820" id="XMLID_555_"/><g id="XMLID_551_"><path d="M268.9,411.9h-25.9c-22,0-39.8-17.8-39.8-39.8v-57.6c0-22,17.8-39.8,39.8-39.8h25.9    c22,0,39.8,17.8,39.8,39.8v57.6C308.7,394.1,290.9,411.9,268.9,411.9z" fill="#EDBB98" id="XMLID_554_"/><path d="M308.7,371.2v0.9c0,22-17.8,39.8-39.8,39.8h-25.9c-22,0-39.8-17.8-39.8-39.8v-0.9    c-82.8,17.9-147.3,73-164.6,140.4c-0.2,1,109.7,0,217.3,0c107.6,0,217.5,1,217.3,0C456,444.2,391.5,389.1,308.7,371.2z" fill="#9E005D" id="XMLID_553_"/><path d="M266.9,432.6" fill="#110102" id="XMLID_552_"/></g><g id="XMLID_531_"><ellipse cx="390.5" cy="203.3" fill="#F4C5A2" id="XMLID_550_" rx="30.4" ry="42" transform="matrix(0.9772 0.2124 -0.2124 0.9772 52.1004 -78.3067)"/><ellipse cx="121.5" cy="206" fill="#F4C5A2" id="XMLID_549_" rx="30.4" ry="42" transform="matrix(-0.9772 0.2124 -0.2124 -0.9772 283.9958 381.5853)"/><ellipse cx="256.3" cy="200.7" fill="#F4C5A2" id="XMLID_548_" rx="130.5" ry="152.3"/><path d="M148,157.2l58.7-1.3l2.1-51.3l23.8,53h23.8c0,0-5.6-39.5-1.7-59.7l22.1,59.7l94.3-4.8    c0,0,8.7,21.1-4.8,39.3c0,0,14.7-6.8,16.9-27.4c0,0,15.9-5.7,28.3,4.6c0,0,21.3-143.5-102.8-164.7c0,0-224.1-48.4-209.6,169    c0,0,24.9-30.5,41.2,18.5l11.5,11.2L148,157.2z" fill="#3F2820" id="XMLID_532_"/></g></g></svg>