<?xml version="1.0" ?><svg baseProfile="tiny" id="Layer_1" version="1.2" viewBox="0 0 512 512" xml:space="preserve" xmlns="http://www.w3.org/2000/svg" xmlns:xlink="http://www.w3.org/1999/xlink"><g id="XMLID_294_"><path d="M91.7,204.5c0,19,0.9,38.5,5.7,57c5.5,21.4,15.3,30.5,30.7,44.8c4.6,4.2,7.9,11,5.3,16.6   c5.3-8.7,8.5-18.7,9.3-28.9c6.1,8.9,10.8,18.7,14.1,29c2.3-5.7,4.6-11.3,6.9-17c14.4,16.4,36.2,24,57.4,29   c27.2,6.4,55.1,9.5,83,9.2c11.2-0.1,22.6-0.7,33.6,1.5c11,2.2,21.9,7.7,27.8,17.3c1-9.4-1.4-19.2-6.7-27   c18.8,10.4,33.1,28.5,38.8,49.1c12.7-30.9,18.4-64.2,20.8-97.4c1.2-16.8,1.6-33.6,1.7-50.5c0-9.6,5.2-37.8-5-42.7   c-3.7-1.8-8-1.7-12.1-1.5C299.2,196.9,195.4,200.6,91.7,204.5z" fill="#3F2820" id="XMLID_318_"/><path d="M269,411.5h-26c-22,0-39.9-17.9-39.9-39.9v-57.8c0-22,17.9-39.9,39.9-39.9h26   c22,0,39.9,17.9,39.9,39.9v57.8C308.9,393.7,291,411.5,269,411.5z" fill="#EDBB98" id="XMLID_317_"/><path d="M308.9,370.7v0.9c0,22-105.8,22-105.8,0v-0.9C120,388.7,55.3,444,38,511.6   c-0.2,1,110.1,0,218,0c108,0,218.3,1,218,0C456.7,444,392,388.7,308.9,370.7z" fill="#ED1E79" id="XMLID_316_"/><path d="M269.2,432.3" fill="#110102" id="XMLID_315_"/><ellipse cx="391.3" cy="195.3" fill="#F4C5A2" id="XMLID_314_" rx="30.5" ry="42.1" transform="matrix(0.9772 0.2124 -0.2124 0.9772 50.4035 -78.6674)"/><ellipse cx="121.4" cy="198" fill="#F4C5A2" id="XMLID_313_" rx="30.5" ry="42.1" transform="matrix(-0.9772 0.2124 -0.2124 -0.9772 282.0484 365.6582)"/><ellipse cx="256.7" cy="192.6" fill="#F4C5A2" id="XMLID_312_" rx="131" ry="152.8"/><path d="M349.1,13.4c0,0-74.3-24.6-134.1-7.2c-48.6,4.8-87,31.2-98.9,40.3c-2.7,2-4.8,4.7-6.3,7.7   C89.3,97.4,92,179.4,92,179.4c6.9-18.6,20.5-22.6,20.5-22.6c23.3,1,28.4,12.5,28.4,12.5c0.6-22.1,15.8-24.8,15.8-24.8   c14.5-6.4,33.8-44.7,33.8-44.7c0-16.4,15.3-31,15.3-31l0,0c2.1,4.3,5,8.2,9.2,11.7c0,0,43.6,44.4,79.9,45.3l-10-22.7   c0,0,27.3,28.3,71.1,32.7c0,0,14.7,19,13.8,33.4c0,0,22.5-31.9,46-3.9C415.8,165.4,414.3,39.5,349.1,13.4z" fill="#3F2820" id="XMLID_296_"/><path d="M339.8,379.5v76.8H172.2v-76.9c-15.1,5.3-29.3,11.8-42.6,19.4v113   c37.3-0.1,82.1-0.3,126.4-0.3c42.8,0,86,0.2,122.5,0.3V396.7C366.4,390,353.4,384.2,339.8,379.5z" fill="#F7931E" id="XMLID_295_"/></g></svg>