<?xml version="1.0" ?><svg baseProfile="tiny" id="Layer_1" version="1.2" viewBox="0 0 512 512" xml:space="preserve" xmlns="http://www.w3.org/2000/svg" xmlns:xlink="http://www.w3.org/1999/xlink"><g id="XMLID_1_"><g id="XMLID_577_"><path d="M268.2,417.6h-24.4c-20.7,0-37.5-16.8-37.5-37.5v-54.3c0-20.7,16.8-37.5,37.5-37.5h24.4    c20.7,0,37.5,16.8,37.5,37.5v54.3C305.7,400.8,288.9,417.6,268.2,417.6z" fill="#EDBB98" id="XMLID_581_"/><path d="M305.7,379.3v0.9c0,20.7-16.8,37.5-37.5,37.5h-24.4c-20.7,0-37.5-16.8-37.5-37.5v-0.9    c-78.1,16.9-138.9,68.9-155.2,132.3c-0.2,0.9,103.4,0,204.8,0c101.4,0,205.1,0.9,204.8,0C444.5,448.1,383.7,396.1,305.7,379.3z" fill="#2B00FF" id="XMLID_580_"/><path d="M310.9,511.7c15.2,0,30.1,0.1,44.1,0.1L377,407c-13.8-8.2-28.9-15.1-45-20.5L310.9,511.7z    " fill="#F2F2F2" id="XMLID_579_"/><path d="M157,511.8c14,0,28.8-0.1,44.1-0.1L180,386.5c-16.1,5.4-31.1,12.3-45,20.5L157,511.8z" fill="#F2F2F2" id="XMLID_578_"/></g><ellipse cx="256.6" cy="218.8" fill="#F4C5A2" id="XMLID_576_" rx="123.1" ry="143.6"/><path d="M102.5,204c0,0-31.9-30.4,6.2-55c0,0-30.8-40.8,7.3-48c0,0-6.8-61.6,53.7-61.6   c0,0,32.4-66.2,89.5-26.8c0,0,75.2-38.5,87.9,23.1c0,0,54.4,6.3,39.9,48c0,0,57.1,1.3,25.4,49.8c0,0,23.6,48.1-9.6,63.3   c0,0-33,8.6-43.9-23.3c0,0-20.7-70.2-68.9-74.6c0,0-27.8,12.8-33.4,12.8c0,0-20.1,2.7-35.5-7.3c0,0-62.8,4.2-82.1,88.6   C139,193.2,118.6,182.1,102.5,204z" fill="#3F2820" id="XMLID_562_"/><ellipse cx="383.1" cy="221.3" fill="#F4C5A2" id="XMLID_561_" rx="28.6" ry="39.6" transform="matrix(0.9772 0.2124 -0.2124 0.9772 55.7399 -76.3208)"/><ellipse cx="129.5" cy="223.8" fill="#F4C5A2" id="XMLID_560_" rx="28.6" ry="39.6" transform="matrix(-0.9772 0.2124 -0.2124 -0.9772 303.5852 415.0321)"/><polygon fill="#3F2820" id="XMLID_559_" points="358.9,173.6 347.5,243.2 383.1,181.7  "/><polygon fill="#3F2820" id="XMLID_558_" points="143.7,173.6 155,243.2 119.5,181.7  "/></g></svg>