<?xml version="1.0" ?><svg baseProfile="tiny" id="Layer_1" version="1.2" viewBox="0 0 512 512" xml:space="preserve" xmlns="http://www.w3.org/2000/svg" xmlns:xlink="http://www.w3.org/1999/xlink"><g id="XMLID_298_"><path d="M436,201.4C432.4,15.3,297.8,1.5,267.5,0.7l0-0.7c0,0-183.5-9.1-187.8,200.6   c0,0,6.5,130-52.2,114.4c0,0,69.7,100.1,221.2,18.5l30.2,0.7c140.8,81.7,205.6-18.5,205.6-18.5C430,331.4,436,201.4,436,201.4z" fill="#3F2820" id="XMLID_344_"/><path d="M271.5,487.9h-26.2c-22.2,0-40.2-93.8-40.2-116v-58.2c0-22.2,18-40.2,40.2-40.2h26.2   c22.2,0,40.2,18,40.2,40.2v58.2C311.7,394,293.7,487.9,271.5,487.9z" fill="#EDBB98" id="XMLID_343_"/><ellipse cx="394.4" cy="201.4" fill="#F4C5A2" id="XMLID_342_" rx="30.7" ry="42.5" transform="matrix(0.9772 0.2124 -0.2124 0.9772 51.7758 -79.1769)"/><ellipse cx="122.4" cy="204.1" fill="#F4C5A2" id="XMLID_341_" rx="30.7" ry="42.5" transform="matrix(-0.9772 0.2124 -0.2124 -0.9772 285.2871 377.6162)"/><ellipse cx="258.7" cy="198.7" fill="#F4C5A2" id="XMLID_340_" rx="132" ry="154"/><path d="M311.7,75.9c0,0-37.7,67.7-110.5,83c0,0,7.3-12,9.3-32.4c0,0-50.2,16.8-58.1,71.1   c0,0-2.1,29.2,5.7,44.2c0,0-24.8-38.4-19.7-70.5c0,0-25.8-21.2-41.5,4c0,0,86.3-188.9,218-115.9L311.7,75.9z" fill="#3F2820" id="XMLID_328_"/><path d="M311.7,75.9c0,0,49.6,29.8,41.8,83c0,0,7.1-3.4,12.6-21.7c0,0,5.8,25.3-6.8,57.4   c0,0,19.4-18.5,20.4-27.3c0,0-3.9,54.6-15.5,68.2c0,0,22.5-39.5,30.2-75.7c0,0-6.5-96.1-110.7-113.3L311.7,75.9z" fill="#3F2820" id="XMLID_327_"/><path d="M269.7,433.2" fill="#110102" id="XMLID_326_"/><path d="M311.7,369.6l-0.1,0.1v0.8c0,16.4-9.8,30.4-23.9,36.7l-29.1,45.7H258l-29.1-45.7   c-14.1-6.3-23.9-20.3-23.9-36.7v-0.8l-0.1-0.1c-83.7,18.1-148.9,73.9-166.4,141.9c-0.2,1,110.9,0,219.7,0c108.8,0,220,1,219.7,0   C460.6,443.5,395.4,387.8,311.7,369.6z" fill="#F7931E" id="XMLID_324_"/></g></svg>