<?xml version="1.0" ?><svg baseProfile="tiny" id="Layer_1" version="1.2" viewBox="0 0 512 512" xml:space="preserve" xmlns="http://www.w3.org/2000/svg" xmlns:xlink="http://www.w3.org/1999/xlink"><g id="XMLID_605_"><path d="M299.1,21.7c0,0-63-52.9-152.5,6.6c0,0-64,43.5-58.3,158.7c0,0-19.8,52.8-51.9,46.2   c0,0,37.8,24.9,51,27.1c0,0-28.3,12.9-47.2,4.7c0,0,45.3,25.6,71.8,25.5c0,0-41.4,16-63.1,4.5c0,0,31,28.3,81.3,20.1   c0,0-37.1,20.2-54.1,23.6c0,0,82.2,26.4,110.5-30.2l110-165.9l31.5-95.4L299.1,21.7z" fill="#3F2820" id="XMLID_632_"/><path d="M286.8,15.7c0,0,142.4-15.7,136.4,176.5c0,0-36.3,99.2-28.9,131.3c0,0-38.8,9.4-61.8-33.1   L275.3,88.4C275.3,88.4,275.7,26.1,286.8,15.7z" fill="#3F2820" id="XMLID_631_"/><path d="M274.9,414.9h-25.4c-21.6,0-39.1-17.5-39.1-39.1v-56.6c0-21.6,17.5-39.1,39.1-39.1h25.4   c21.6,0,39.1,17.5,39.1,39.1v56.6C314,397.4,296.5,414.9,274.9,414.9z" fill="#EDBB98" id="XMLID_630_"/><path d="M314,373.7v0.9c0,21.6-17.5,39.1-39.1,39.1h-25.4c-21.6,0-39.1-17.5-39.1-39.1v-0.9   c-81.4,17.6-144.7,71.8-161.7,137.9c-0.2,0.9,107.7,0,213.4,0c105.7,0,213.7,0.9,213.4,0C458.7,445.4,395.3,391.3,314,373.7z" fill="#F985EB" id="XMLID_629_"/><ellipse cx="394.3" cy="210.3" fill="#F4C5A2" id="XMLID_628_" rx="29.8" ry="41.3" transform="matrix(0.9772 0.2124 -0.2124 0.9772 53.6652 -78.9649)"/><ellipse cx="130.1" cy="213" fill="#F4C5A2" id="XMLID_627_" rx="29.8" ry="41.3" transform="matrix(-0.9772 0.2124 -0.2124 -0.9772 302.4884 393.4098)"/><ellipse cx="262.6" cy="207.7" fill="#F4C5A2" id="XMLID_626_" rx="128.2" ry="149.6"/><path d="M314,88.4c0,0-36.6,65.7-107.3,80.6c0,0,7.1-11.6,9-31.5c0,0-48.8,16.3-56.5,69.1   c0,0-2,28.4,5.5,42.9c0,0-24.1-37.3-19.1-68.5c0,0-25.1-20.6-40.3,3.9c0,0,83.9-183.5,211.7-112.6L314,88.4z" fill="#3F2820" id="XMLID_612_"/><path d="M314,88.4c0,0,48.2,29,40.6,80.6c0,0,6.9-3.3,12.3-21.1c0,0,5.7,24.6-6.6,55.7   c0,0,18.8-18,19.8-26.5c0,0-3.8,53.1-15.1,66.2c0,0,21.9-38.4,29.4-73.5c0,0-6.3-93.3-107.5-110L314,88.4z" fill="#3F2820" id="XMLID_611_"/><ellipse cx="263.2" cy="426.6" fill="#110102" id="XMLID_610_" rx="24.4" ry="13.8"/><path d="M210.5,373.7l52.7,37.6l-35.4,42.4C227.8,453.6,195.7,402.8,210.5,373.7z" fill="#F471EA" id="XMLID_609_"/><path d="M314,373.7l-52.7,37.6l35.4,42.4C296.7,453.6,328.7,402.8,314,373.7z" fill="#F471EA" id="XMLID_608_"/><path d="M273.3,435.5" fill="#110102" id="XMLID_607_"/><polygon fill="#110102" id="XMLID_606_" points="300.5,511.6 273.3,435.5 251,435.5 223.7,511.6 262.1,511.6  "/></g></svg>