<?xml version="1.0" ?><svg baseProfile="tiny" id="Layer_1" version="1.2" viewBox="0 0 512 512" xml:space="preserve" xmlns="http://www.w3.org/2000/svg" xmlns:xlink="http://www.w3.org/1999/xlink"><g id="XMLID_297_"><path d="M269.6,406.6h-27.2c-23.1,0-41.9-18.7-41.9-41.9v-60.6c0-23.1,18.7-41.9,41.9-41.9h27.2   c23.1,0,41.9,18.7,41.9,41.9v60.6C311.5,387.9,292.7,406.6,269.6,406.6z" fill="#EDBB98" id="XMLID_604_"/><path d="M311.5,363.8v1c0,23.1-18.7,41.9-41.9,41.9h-27.2c-23.1,0-41.9-18.7-41.9-41.9v-1   c-87.2,18.9-155.1,76.9-173.3,147.8c-0.3,1,115.5,0,228.7,0c113.3,0,229,1,228.7,0C466.5,440.7,398.7,382.6,311.5,363.8z" fill="#E6E6E6" id="XMLID_603_"/><ellipse cx="386.4" cy="199.8" fill="#F4C5A2" id="XMLID_602_" rx="29.4" ry="40.7" transform="matrix(0.9772 0.2124 -0.2124 0.9772 51.2536 -77.5152)"/><ellipse cx="125.6" cy="202.4" fill="#F4C5A2" id="XMLID_601_" rx="29.4" ry="40.7" transform="matrix(-0.9772 0.2124 -0.2124 -0.9772 291.3452 373.5389)"/><ellipse cx="256.3" cy="197.2" fill="#F4C5A2" id="XMLID_600_" rx="126.5" ry="147.6"/><path d="M390.6,97.6c-1.1-12.3-4.7-32-9.6-43.5C366.1,19.3,312.8,4.3,277,0.9   C210.7-4,187.5,12.3,180,26l0,0c0,0-82.2,10.5-66.8,116l17.8,65.3c0,0,32.1-88.1,74.2-110.1l-9.1-19.8c3.1,4.1,6.3,8.1,9.6,12   c1.8,2.1,3.7,4.3,5.6,6.4c10.1,11.2,21.5,21.8,36.7,26.9c15.3,5.1,32.5,3.9,47.9,0.1c14.1-3.5,30.4-15.2,45.3-12.8   c10.8,1.7,17.9,11.2,22.4,20.3c12.1,24,15.8,50.8,19.4,77.1C388.4,170.3,394,134.7,390.6,97.6z" fill="#3F2820" id="XMLID_587_"/><path d="M364.1,274.6c-5.9,3.9-74.5,48-94.2,8.3c0,0-7.8-4.6-13.3-2.6c-5.5-2-13.3,2.6-13.3,2.6   c-20.6,41.5-94.6-8.6-94.6-8.6c0.8,1.8,1.7,3.6,2.6,5.4c22.3,38.6,59.9,64.2,102.6,65.1c1,0,1.9,0,2.7-0.1c0.6,0,1.4,0,2.2,0   C303.4,343.8,342.2,316,364.1,274.6z" fill="#3F2820" id="XMLID_586_"/><path d="M352.4,376l-87.5,93.1l-105.5-93c-67,25.9-117,76.2-132.2,135.5c-0.3,1,115.5,0,228.7,0   c113.3,0,229,1,228.7,0C469.5,452.2,419.4,401.9,352.4,376z" fill="#ED1E79" id="XMLID_584_"/><path d="M195.4,264.9c1.2-2.5,3.2-4.6,5.5-6.2c2.3-1.7,4.8-2.9,7.4-4c5.2-2.1,10.7-3.2,16.1-3.8   c5.4-0.6,10.9-0.7,16.3-0.5c5.4,0.3,10.7,0.8,16.2,1.8l-1.4-0.1l2.2,0l-1.4,0.1c5.5-1,10.8-1.6,16.2-1.8c5.4-0.2,10.8-0.1,16.3,0.5   c5.4,0.6,10.9,1.7,16.1,3.8c2.6,1.1,5.2,2.3,7.4,4c2.3,1.7,4.3,3.8,5.5,6.2c-4.6-2.8-9.5-3.4-14.4-3.7c-4.9-0.2-9.9,0-14.8,0.5   c-5,0.4-9.9,1.1-14.9,1.8c-4.9,0.7-10,1.5-14.7,2.4l-0.7,0.1l-0.7,0l-2.2,0l-0.7,0l-0.7-0.1c-4.7-0.9-9.8-1.7-14.7-2.4   c-5-0.7-9.9-1.4-14.9-1.8c-4.9-0.4-9.9-0.7-14.8-0.5C204.9,261.4,200,262.1,195.4,264.9z" fill="#3F2820" id="XMLID_583_"/></g></svg>