<?xml version="1.0" ?><svg baseProfile="tiny" id="Layer_1" version="1.2" viewBox="0 0 512 512" xml:space="preserve" xmlns="http://www.w3.org/2000/svg" xmlns:xlink="http://www.w3.org/1999/xlink"><g id="XMLID_399_"><g id="XMLID_436_"><path d="M268,419.3H244c-20.3,0-36.8-16.5-36.8-36.8v-53.3c0-20.3,16.5-36.8,36.8-36.8H268    c20.3,0,36.8,16.5,36.8,36.8v53.3C304.8,402.8,288.3,419.3,268,419.3z" fill="#EDBB98" id="XMLID_439_"/><path d="M304.8,381.7v0.9c0,20.3-16.5,36.8-36.8,36.8H244c-20.3,0-36.8-16.5-36.8-36.8v-0.9    c-76.7,16.6-136.3,67.6-152.3,129.9c-0.2,0.9,101.5,0,201.1,0c99.6,0,201.3,0.9,201.1,0C441.1,449.3,381.4,398.3,304.8,381.7z" fill="#9E005D" id="XMLID_438_"/><path d="M266.1,438.5" fill="#110102" id="XMLID_437_"/></g><path d="M165.8,277c0,0,11.6,65-22.2,78.9c0,0-93.4,74.4-47.2,131.3c0,0,23.1-28.3,49.8-40.4   c0,0,50.9-27.5,61.1-64.3l10.6-59.6L165.8,277z" fill="#3F2820" id="XMLID_435_"/><ellipse cx="380.5" cy="226.3" fill="#F4C5A2" id="XMLID_434_" rx="28.1" ry="38.9" transform="matrix(0.9772 0.2124 -0.2124 0.9772 56.7515 -75.6563)"/><ellipse cx="131.5" cy="228.8" fill="#F4C5A2" id="XMLID_433_" rx="28.1" ry="38.9" transform="matrix(-0.9772 0.2124 -0.2124 -0.9772 308.6233 424.4786)"/><ellipse cx="256.3" cy="223.9" fill="#F4C5A2" id="XMLID_432_" rx="120.8" ry="141"/><g id="XMLID_414_"><path d="M305.7,250c-21.1,0-38.2-17.1-38.2-38.2s17.1-38.2,38.2-38.2c21.1,0,38.2,17.1,38.2,38.2    S326.7,250,305.7,250z M305.7,178.9c-18.1,0-32.9,14.7-32.9,32.9s14.7,32.9,32.9,32.9c18.1,0,32.9-14.7,32.9-32.9    S323.8,178.9,305.7,178.9z" fill="#1A1A1A" id="XMLID_415_"/></g><g id="XMLID_410_"><path d="M208.2,250c-21.1,0-38.2-17.1-38.2-38.2s17.1-38.2,38.2-38.2c21.1,0,38.2,17.1,38.2,38.2    S229.2,250,208.2,250z M208.2,178.9c-18.1,0-32.9,14.7-32.9,32.9s14.7,32.9,32.9,32.9s32.9-14.7,32.9-32.9    S226.3,178.9,208.2,178.9z" fill="#1A1A1A" id="XMLID_411_"/></g><g id="XMLID_408_"><path d="M271,200.8c-9.1,0.2-21.7,0.3-28,0.3v5.4c1.1,0,2.3,0,3.7,0c5.2,0,12.9-0.1,24.4-0.4    L271,200.8z" fill="#1A1A1A" id="XMLID_409_"/></g><g id="XMLID_406_"><polygon fill="#1A1A1A" id="XMLID_407_" points="367.7,207.2 333.2,193.5 335.6,188.3 370.6,202.1   "/></g><g id="XMLID_404_"><polygon fill="#1A1A1A" id="XMLID_405_" points="146.5,209.4 144,204.1 178.9,187.6 181.1,193.1   "/></g><ellipse cx="253.6" cy="38.1" fill="#3F2820" id="XMLID_401_" rx="61.7" ry="38.1"/><path d="M156,183.6l54.3-1.2l1.9-47.5l22.1,49h22c0,0-5.2-36.6-1.6-55.3l20.4,55.3l87.3-4.5   c0,0,8,19.5-4.4,36.4c0,0,5.2-2.4,9.6-8.7c0.4-0.8,0.9-1.5,1.4-2.4c0.5-0.9,1-1.7,1.6-2.7c1.5-3.2,2.6-7,3.1-11.6   c0,0,14.8-5.3,26.2,4.2c0,0,19.7-132.8-95.2-152.4c0,0-207.5-44.8-194,156.4c0,0,23-28.2,38.2,17.1l10.7,10.4L156,183.6z" fill="#3F2820" id="XMLID_400_"/></g></svg>