<?xml version="1.0" ?><svg id="Layer_1" style="enable-background:new 0 0 512 512;" version="1.1" viewBox="0 0 512 512" xml:space="preserve" xmlns="http://www.w3.org/2000/svg" xmlns:xlink="http://www.w3.org/1999/xlink"><style type="text/css">
	.st0{fill:#BD8169;}
	.st1{fill:#BE1E2D;}
	.st2{fill:#A97C50;}
	.st3{fill:#DCC5A1;}
	.st4{fill:#EDD9B4;}
	.st5{fill:#BC9F82;}
	.st6{fill:none;}
	.st7{fill-rule:evenodd;clip-rule:evenodd;fill:#80604B;}
	.st8{fill-rule:evenodd;clip-rule:evenodd;fill:#FFFFFF;}
	.st9{fill:#80604B;}
	.st10{fill:#342214;}
	.st11{fill:#FFFFFF;}
</style><g><path class="st0" d="M73.1,381.5c0.6-1,1.2-2,1.8-2.9c0.1-0.1,0.2-0.3,0.3-0.4c0.7-1,1.4-1.9,2.1-2.7c0.2-0.2,0.3-0.4,0.5-0.6   c0.7-0.8,1.5-1.6,2.2-2.3c3.1-2.8,7.6-6.5,14.6-11.4c17.7-12.4,51.3-32.1,118.9-61.7l86.1,0.6c94.1,41.3,121.3,62.7,132.4,72.5   c0.8,0.7,1.5,1.4,2.2,2.3c0.2,0.2,0.3,0.4,0.5,0.6c0.7,0.8,1.4,1.7,2.1,2.7c0.1,0.1,0.2,0.3,0.3,0.4c0.6,0.9,1.2,1.9,1.8,2.9   c0.1,0.2,0.3,0.4,0.4,0.7c0.4,0.8,0.8,1.5,1.3,2.3c19.8-32.6,31.2-70.9,31.2-111.8C471.7,153.6,375.1,57,256,57   C136.9,57,40.3,153.6,40.3,272.8c0,40.9,11.4,79.2,31.2,111.8c0.4-0.8,0.8-1.6,1.3-2.3C72.8,382,73,381.7,73.1,381.5z"/><polygon class="st1" points="256,488.5 256,488.5 256,488.5  "/><path class="st2" d="M440.6,384.5c-0.4-0.8-0.8-1.6-1.3-2.3c-0.1-0.2-0.3-0.4-0.4-0.7c-0.6-1-1.2-2-1.8-2.9   c-0.1-0.1-0.2-0.3-0.3-0.4c-0.7-1-1.4-1.9-2.1-2.7c-0.2-0.2-0.3-0.4-0.5-0.6c-0.7-0.8-1.5-1.6-2.2-2.3   c-11.2-9.9-38.3-31.3-132.4-72.5l-86.1-0.6c-67.6,29.6-101.2,49.3-118.9,61.7c-6.9,4.9-11.4,8.6-14.6,11.4   c-0.8,0.7-1.5,1.4-2.2,2.3c-0.2,0.2-0.3,0.4-0.5,0.6c-0.7,0.8-1.4,1.7-2.1,2.7c-0.1,0.1-0.2,0.3-0.3,0.4c-0.6,0.9-1.2,1.9-1.8,2.9   c-0.1,0.2-0.3,0.4-0.4,0.7c-0.4,0.8-0.8,1.5-1.3,2.3c37.8,62.3,106.3,104,184.6,104c0,0,0,0,0,0   C334.2,488.5,402.7,446.9,440.6,384.5z"/><path class="st3" d="M210.3,217.3v69.8v34.5c12.6,14.8,29.1,22.5,45.7,22.7V175.1C233.2,175.1,210.3,189.2,210.3,217.3z"/><path class="st4" d="M256,175.1v169.2c16.6,0.1,33.1-7.3,45.7-22.7v-34.5v-69.8C301.7,189.2,278.8,175.1,256,175.1z"/><path class="st5" d="M210.3,267.8v3.3c0,0,23.3,27.7,45.6,28.7c22.3,1,45.8-26.8,45.8-26.8v-5.1"/><rect class="st6" height="32" width="91.4" x="210.3" y="267.8"/><rect class="st6" height="58.5" width="91.4" x="210.3" y="285.8"/><path class="st7" d="M259.5,214.4c-2,0-3.4,2.9-3.4,2.9s-1.5-2.9-3.4-2.9c-8,0.1-41.1,3.3-50.7,15.6c0,0,46.7-0.8,49.3-1.6   c2.6-0.8,4.9-5.8,4.9-5.8s2.3,5.1,4.9,5.8c2.6,0.8,49.3,1.6,49.3,1.6C300.6,217.8,267.6,214.5,259.5,214.4"/><g><path class="st3" d="M256.1,30.1c-81.3,0-97.5,64.4-95,121.6c-0.1,0-0.2,0-0.3,0.1c-8,2.6-10.9,16.1-6.3,30    c2.8,8.5,7.7,15.2,12.9,18.5c4.1,19.3,9,33.5,11.2,37.1c10.1,16.3,54.8,52.1,77.5,52.1h0L256.1,30.1L256.1,30.1z"/><path class="st4" d="M351.1,151.9c2.6-57.2-13.6-121.8-95-121.8v259.4c22.7,0,67.4-35.9,77.5-52.1c2.3-3.6,7.2-18,11.3-37.5    c5-3.5,9.6-9.9,12.3-18.1C361.7,168,359,154.7,351.1,151.9z"/></g><polygon class="st8" points="301.7,287.1 304.8,302.4 294.3,384.4 256.2,344.3  "/><polygon class="st8" points="210.3,287.1 206.3,302.7 217.5,383.6 256.2,344.3  "/><path class="st9" d="M355.9,161.9c7.3-35.8,2.6-119.2-25.3-116.4c-25.9-26.3-116.2-31.2-141-2.8c-56.6,10.9-30.4,119.7-30.4,119.7   c1.8,10.6,4.2,20.3,6.7,28.4c3.8-0.3,7.6-0.5,11.4-0.7c-4.1-7.5-7.5-15.2-8.8-20.8c-0.7-3.2-2.4-14.9-2.3-17.5   c0.8-19.6,15-76.5,39.3-81c9.5-1.7,33.2,19.6,48.8,19.6c16.4-0.4,36.9-22,47.5-20.5c25.3,3.4,46.8,55.7,46.6,81   c0,3.2-4.1,22.6-10.2,36.4c4.1-0.2,8.2-0.5,12.2-0.8c2.1-7.3,4-15.6,5.5-24.5L355.9,161.9z"/><g><path class="st10" d="M209.1,145.2c6.4,0,11.5,5.8,11.5,13.1c0,7.2-5.2,13.1-11.5,13.1c-6.4,0-11.5-5.9-11.5-13.1    C197.5,151.1,202.7,145.2,209.1,145.2"/><path class="st10" d="M302.6,145.2c6.4,0,11.5,5.8,11.5,13.1c0,7.2-5.2,13.1-11.5,13.1c-6.4,0-11.5-5.9-11.5-13.1    C291,151.1,296.2,145.2,302.6,145.2"/><path class="st11" d="M232,227.9c4.1,9,13.2,15.4,23.8,15.4c10.6,0,19.7-6.3,23.8-15.4H232z"/></g></g></svg>