<?xml version="1.0" ?><svg baseProfile="tiny" id="Layer_1" version="1.2" viewBox="0 0 512 512" xml:space="preserve" xmlns="http://www.w3.org/2000/svg" xmlns:xlink="http://www.w3.org/1999/xlink"><g id="XMLID_367_"><g id="XMLID_397_"><path d="M267.3,423.9h-22.8c-19.3,0-35-15.7-35-35v-50.7c0-19.3,15.7-35,35-35h22.8    c19.3,0,35,15.7,35,35v50.7C302.3,408.2,286.7,423.9,267.3,423.9z" fill="#EDBB98" id="XMLID_398_"/></g><g id="XMLID_395_"><path d="M302.3,388v0.8c0,19.3-15.7,35-35,35h-22.8c-19.3,0-35-15.7-35-35V388    c-72.9,15.8-129.7,64.3-144.9,123.6c-0.2,0.8,96.6,0,191.3,0c94.7,0,191.5,0.8,191.3,0C432,452.3,375.2,403.8,302.3,388z" fill="#E6E6E6" id="XMLID_396_"/></g><g id="XMLID_393_"><ellipse cx="371.8" cy="245.8" fill="#F4C5A2" id="XMLID_394_" rx="25.7" ry="35.5" transform="matrix(0.9772 0.2124 -0.2124 0.9772 60.6924 -73.3732)"/></g><g id="XMLID_391_"><ellipse cx="144.5" cy="248.1" fill="#F4C5A2" id="XMLID_392_" rx="25.7" ry="35.5" transform="matrix(-0.9772 0.2124 -0.2124 -0.9772 338.4767 459.7993)"/></g><g id="XMLID_389_"><ellipse cx="258.5" cy="243.6" fill="#F4C5A2" id="XMLID_390_" rx="110.3" ry="128.7"/></g><path d="M129.5,216.9c0,0,1.3-70.3,15.1-91.9c0,0,27.9-39.4,77.7-60.8c6.4-2.7,41.3-26.5,51.9-48.1   c0,0,1.6,16.2-10.2,29.2c13.1-10.3,25.6-26.8,31.4-45.4c0,0,43.8,40.6,46.3,67.3c0,0,52.4,46.4,37.6,143.8l-17.9,26.5   c0,0-13.9-62.9-32.5-85.3c0,0-84.7-25.2-141.4,6.3c0,0-33,29.8-31.7,67.9C155.8,226.6,148.9,213.5,129.5,216.9z" fill="#3F2820" id="XMLID_371_"/><path d="M218.4,412l-8.8-24v0.8C209.6,397.8,212.9,405.9,218.4,412z" fill="none" id="XMLID_370_"/><path d="M209.6,388.9V388c-72.9,15.8-129.7,64.3-144.9,123.6c-0.2,0.8,95.9,0,190.4,0L218.4,412   C212.9,405.9,209.6,397.8,209.6,388.9z" fill="#49C6F2" id="XMLID_369_"/><path d="M302.4,388.9V388c72.9,15.8,129.7,64.3,144.9,123.6c0.2,0.8-95.9,0-190.4,0l36.6-99.6   C299.1,405.9,302.4,397.8,302.4,388.9z" fill="#49C6F2" id="XMLID_368_"/></g></svg>