<?xml version="1.0" ?><svg baseProfile="tiny" id="Layer_1" version="1.2" viewBox="0 0 512 512" xml:space="preserve" xmlns="http://www.w3.org/2000/svg" xmlns:xlink="http://www.w3.org/1999/xlink"><g id="XMLID_509_"><path d="M268.7,413.6h-25.4c-21.6,0-39.1-17.5-39.1-39.1v-56.6c0-21.6,17.5-39.1,39.1-39.1h25.4   c21.6,0,39.1,17.5,39.1,39.1v56.6C307.8,396.1,290.3,413.6,268.7,413.6z" fill="#EDBB98" id="XMLID_529_"/><path d="M307.8,373.6v0.9c0,21.6-17.5,39.1-39.1,39.1h-25.4c-21.6,0-39.1-17.5-39.1-39.1v-0.9   c-81.4,17.6-144.8,71.8-161.8,138c-0.2,0.9,107.8,0,213.6,0c105.8,0,213.9,0.9,213.6,0C452.6,445.4,389.2,391.2,307.8,373.6z" fill="#29ABE2" id="XMLID_528_"/><g id="XMLID_510_"><ellipse cx="385.4" cy="214.7" fill="#F4C5A2" id="XMLID_527_" rx="28.7" ry="39.6" transform="matrix(0.9772 0.2124 -0.2124 0.9772 54.3952 -76.9704)"/><ellipse cx="131.6" cy="217.2" fill="#F4C5A2" id="XMLID_526_" rx="28.7" ry="39.6" transform="matrix(-0.9772 0.2124 -0.2124 -0.9772 306.2907 401.5808)"/><ellipse cx="258.8" cy="212.2" fill="#F4C5A2" id="XMLID_525_" rx="123.2" ry="143.7"/><path d="M258.8,96.6c0,0,27.1,53.8,89.7,58.5c0,0,17.9,37.9,8.3,57l21.7-34c0,0,19.1-5.1,29.9,8.4    c0,0,25.8-115.8-55.2-161.4c0,0,14.3-9.5,16.3-9.5c2,0-21.7,1.4-29.2,5.4V0l-14.3,17.7c0,0-85.6-48.2-184.3,17.8    c0,0-68.5,55.8-35.3,157.5c0,0,10.8-23.2,31.9-10.4c0,0,11.8,23.3,22.2,34.7c0,0-14.8-56,13.1-90c0,0,3.1,24.1,17.9,27.9    c0,0-8.6-19.3,3.8-46.5c0,0,9.9,53.2,54.4,54C249.9,162.6,218.9,117.1,258.8,96.6z" fill="#3F2820" id="XMLID_511_"/></g></g></svg>