<?xml version="1.0" encoding="UTF-8" standalone="no"?>
<!-- Created with Inkscape (http://www.inkscape.org/) -->

<svg
   width="60.679958mm"
   height="60.679958mm"
   viewBox="0 0 60.679959 60.679959"
   version="1.1"
   id="svg2157"
   sodipodi:docname="about.svg"
   inkscape:version="1.1.2 (b8e25be8, 2022-02-05)"
   xmlns:inkscape="http://www.inkscape.org/namespaces/inkscape"
   xmlns:sodipodi="http://sodipodi.sourceforge.net/DTD/sodipodi-0.dtd"
   xmlns="http://www.w3.org/2000/svg"
   xmlns:svg="http://www.w3.org/2000/svg"
   xmlns:rdf="http://www.w3.org/1999/02/22-rdf-syntax-ns#"
   xmlns:cc="http://creativecommons.org/ns#"
   xmlns:dc="http://purl.org/dc/elements/1.1/">
  <defs
     id="defs2151">
    <clipPath
       id="clipEmfPath1"
       clipPathUnits="userSpaceOnUse">
      <path
         id="path818"
         d="  M 327.75757,165.27878   L 806.55403,165.27878   L 806.55403,241.51821   L 327.75757,241.51821   z" />
    </clipPath>
    <pattern
       y="0"
       x="0"
       height="6"
       width="6"
       patternUnits="userSpaceOnUse"
       id="EMFhbasepattern" />
    <clipPath
       clipPathUnits="userSpaceOnUse"
       id="clipPath6422-2-4-0-3">
      <rect
         style="display:inline;opacity:1;fill:#e6e6e6;fill-rule:evenodd;stroke:none;stroke-width:0.13645676px;stroke-linecap:butt;stroke-linejoin:miter;stroke-opacity:1"
         id="rect6424-9-2-1-1"
         width="65.232262"
         height="49.6987"
         x="249.37424"
         y="271.81693" />
    </clipPath>
    <clipPath
       clipPathUnits="userSpaceOnUse"
       id="clipPath11400-5-5-7-3-4">
      <rect
         style="opacity:1;fill:#ac9393;fill-opacity:1;fill-rule:nonzero;stroke:none;stroke-width:0.03386667;stroke-miterlimit:4;stroke-dasharray:none;stroke-dashoffset:0;stroke-opacity:1"
         id="rect11402-5-4-87-7-4"
         width="98.577835"
         height="49.797783"
         x="66.45697"
         y="135.42085"
         ry="0" />
    </clipPath>
    <clipPath
       clipPathUnits="userSpaceOnUse"
       id="clipPath1481-7-1-6-7-6-28-4-0-8-6-2">
      <path
         style="opacity:1;fill:#536c5d;fill-opacity:1;fill-rule:nonzero;stroke:none;stroke-width:0.1416602;stroke-miterlimit:4;stroke-dasharray:none;stroke-dashoffset:0;stroke-opacity:1"
         d="m -37.148736,566.3509 4.449874,5.92058 4.458811,5.91685 0.01085,-0.014 v -11.77174 z"
         id="path1483-6-1-9-4-8-9-7-2-4-4-4"
         inkscape:connector-curvature="0" />
    </clipPath>
    <clipPath
       clipPathUnits="userSpaceOnUse"
       id="clipPath1481-7-1-6-7-6-2-3-8-5-6-11-2">
      <path
         style="opacity:1;fill:#536c5d;fill-opacity:1;fill-rule:nonzero;stroke:none;stroke-width:0.1416602;stroke-miterlimit:4;stroke-dasharray:none;stroke-dashoffset:0;stroke-opacity:1"
         d="m -37.148736,566.3509 4.449874,5.92058 4.458811,5.91685 0.01085,-0.014 v -11.77174 z"
         id="path1483-6-1-9-4-8-0-2-5-5-5-03-3"
         inkscape:connector-curvature="0" />
    </clipPath>
  </defs>
  <sodipodi:namedview
     id="base"
     pagecolor="#ffffff"
     bordercolor="#666666"
     borderopacity="1.0"
     inkscape:pageopacity="0.0"
     inkscape:pageshadow="2"
     inkscape:zoom="0.73779951"
     inkscape:cx="-162.64581"
     inkscape:cy="254.13408"
     inkscape:document-units="mm"
     inkscape:current-layer="g1119"
     showgrid="false"
     inkscape:window-width="1409"
     inkscape:window-height="1027"
     inkscape:window-x="0"
     inkscape:window-y="25"
     inkscape:window-maximized="0"
     fit-margin-top="0"
     fit-margin-left="0"
     fit-margin-right="0"
     fit-margin-bottom="0"
     inkscape:pagecheckerboard="0" />
  <metadata
     id="metadata2154">
    <rdf:RDF>
      <cc:Work
         rdf:about="">
        <dc:format>image/svg+xml</dc:format>
        <dc:type
           rdf:resource="http://purl.org/dc/dcmitype/StillImage" />
      </cc:Work>
    </rdf:RDF>
  </metadata>
  <g
     inkscape:label="圖層 1"
     inkscape:groupmode="layer"
     id="layer1"
     transform="translate(-46.50589,-83.024796)">
    <g
       id="g1119"
       transform="matrix(1.1646624,0,0,1.1646624,14.902266,-222.96709)">
      <g
         id="g85824-0-3"
         transform="matrix(0.53082229,0,0,0.53082229,276.07577,-281.84771)"
         style="fill:#ffffff"
         inkscape:export-filename="/Users/rita/Desktop/應用工具moda/about.png"
         inkscape:export-xdpi="600"
         inkscape:export-ydpi="600">
        <g
           id="g827-3-0-0-8-8-1-0"
           transform="matrix(0.88765812,0,0,-0.88765812,-419.93363,1094.4869)"
           style="fill:#ffffff">
          <path
             d="M 0,0 C -7.884,0.141 -7.886,11.859 0,12.001 7.886,11.859 7.884,0.141 0,0 m 0,14.149 c -10.709,-10e-4 -11.032,-16.297 0,-16.297 11.032,0 10.709,16.296 0,16.297"
             style="fill:#ffffff;fill-opacity:1;fill-rule:nonzero;stroke:none"
             id="path829-9-9-4-3-8-6-8-0" />
        </g>
        <g
           id="g831-9-5-2-3-6-5-3"
           transform="matrix(0.88765812,0,0,-0.88765812,-403.33008,1080.682)"
           style="fill:#ffffff">
          <path
             d="m 0,0 c -3.943,0.071 -5.914,3.036 -5.914,6 0,2.965 1.971,5.93 5.914,6.001 C 3.943,11.93 5.914,8.965 5.914,6 5.914,3.036 3.943,0.071 0,0 m 7.049,20.654 c -0.616,0 -1.116,-0.5 -1.116,-1.115 V 11.416 C 4.657,13.014 2.701,14.149 0,14.149 -5.355,14.148 -8.113,10.074 -8.153,6 -8.113,1.926 -5.355,-2.148 0,-2.148 c 2.701,0 4.657,1.135 5.933,2.732 v -1.352 c 0,-0.615 0.5,-1.115 1.116,-1.115 0.616,0 1.115,0.5 1.115,1.115 v 20.307 c 0,0.615 -0.499,1.115 -1.115,1.115"
             style="fill:#ffffff;fill-opacity:1;fill-rule:nonzero;stroke:none"
             id="path833-7-7-2-2-2-9-0" />
        </g>
        <g
           id="g835-0-1-1-1-4-3-1"
           transform="matrix(0.88765812,0,0,-0.88765812,-383.87208,1063.8703)"
           style="fill:#ffffff">
          <path
             d="m 0,0 c -3.943,0.071 -5.914,3.036 -5.914,6 0,2.965 1.971,5.93 5.914,6.001 C 3.943,11.93 5.914,8.965 5.914,6 5.914,3.036 3.943,0.071 0,0 m 7.034,13.883 c -0.619,0 -1.12,-0.501 -1.12,-1.119 V 11.441 C 4.637,13.026 2.687,14.149 0,14.149 -5.355,14.148 -8.113,10.074 -8.153,6 -8.113,1.926 -5.355,-2.148 0,-2.148 c 2.687,0 4.637,1.123 5.914,2.708 v -1.35 c 0,-0.618 0.501,-1.119 1.12,-1.119 0.618,0 1.119,0.501 1.119,1.119 v 13.554 c 0,0.618 -0.501,1.119 -1.119,1.119"
             style="fill:#ffffff;fill-opacity:1;fill-rule:nonzero;stroke:none"
             id="path837-3-0-4-0-8-3-9" />
        </g>
        <g
           id="g839-9-6-7-5-1-1-8"
           transform="matrix(0.88765812,0,0,-0.88765812,-442.00701,1082.1399)"
           style="fill:#ffffff">
          <path
             d="M 0,0 C -3.407,0 -5.76,-1.649 -7.033,-3.898 -8.307,-1.649 -10.662,0 -14.069,0 c -2.469,0 -4.599,-1.06 -5.913,-2.853 v 1.365 c 0,0.617 -0.5,1.12 -1.117,1.12 -0.621,0 -1.121,-0.503 -1.121,-1.12 v -5.322 -1.338 -6.794 c 0,-0.618 0.5,-1.118 1.121,-1.118 0.617,0 1.117,0.5 1.117,1.118 0.041,1.308 -0.099,6.697 0.103,8.631 0.063,0.399 0.151,0.679 0.203,0.822 0.851,1.995 2.835,3.255 5.607,3.343 3.941,-0.074 5.914,-3.032 5.917,-5.995 v -6.8 c 0,-0.618 0.501,-1.119 1.119,-1.119 0.618,0 1.119,0.501 1.119,1.119 v 6.793 h 10e-4 c 0,2.966 1.973,5.928 5.913,6.002 2.562,0 4.24,-1.217 5.133,-2.858 0.506,-0.999 0.77,-2.278 0.78,-3.835 l 0.004,-1.621 v -4.481 c 0,-0.617 0.5,-1.117 1.117,-1.117 0.618,0 1.121,0.5 1.121,1.117 v 4.481 2.312 C 8.155,-3.372 5.036,-0.087 0,0"
             style="fill:#ffffff;fill-opacity:1;fill-rule:nonzero;stroke:none"
             id="path841-8-0-7-5-7-8-6" />
        </g>
      </g>
    </g>
  </g>
</svg>
