<?xml version="1.0" encoding="UTF-8" standalone="no"?>
<!-- Created with Inkscape (http://www.inkscape.org/) -->

<svg
   xmlns:dc="http://purl.org/dc/elements/1.1/"
   xmlns:cc="http://creativecommons.org/ns#"
   xmlns:rdf="http://www.w3.org/1999/02/22-rdf-syntax-ns#"
   xmlns:svg="http://www.w3.org/2000/svg"
   xmlns="http://www.w3.org/2000/svg"
   xmlns:sodipodi="http://sodipodi.sourceforge.net/DTD/sodipodi-0.dtd"
   xmlns:inkscape="http://www.inkscape.org/namespaces/inkscape"
   width="60.679958mm"
   height="60.679958mm"
   viewBox="0 0 60.679959 60.679959"
   version="1.1"
   id="svg2157"
   sodipodi:docname="about.svg"
   inkscape:version="0.92.4 (5da689c313, 2019-01-14)">
  <defs
     id="defs2151" />
  <sodipodi:namedview
     id="base"
     pagecolor="#ffffff"
     bordercolor="#666666"
     borderopacity="1.0"
     inkscape:pageopacity="0.0"
     inkscape:pageshadow="2"
     inkscape:zoom="0.2701074"
     inkscape:cx="25.290567"
     inkscape:cy="433.82436"
     inkscape:document-units="mm"
     inkscape:current-layer="layer1"
     showgrid="false"
     inkscape:window-width="1227"
     inkscape:window-height="1041"
     inkscape:window-x="3079"
     inkscape:window-y="0"
     inkscape:window-maximized="0"
     fit-margin-top="0"
     fit-margin-left="0"
     fit-margin-right="0"
     fit-margin-bottom="0" />
  <metadata
     id="metadata2154">
    <rdf:RDF>
      <cc:Work
         rdf:about="">
        <dc:format>image/svg+xml</dc:format>
        <dc:type
           rdf:resource="http://purl.org/dc/dcmitype/StillImage" />
        <dc:title></dc:title>
      </cc:Work>
    </rdf:RDF>
  </metadata>
  <g
     inkscape:label="圖層 1"
     inkscape:groupmode="layer"
     id="layer1"
     transform="translate(-46.50589,-83.024796)">
    <g
       id="g822">
      <rect
         ry="0"
         y="83.024796"
         x="46.50589"
         height="60.679958"
         width="60.679958"
         id="rect4508"
         style="display:inline;opacity:0;fill:#ffffff;fill-rule:evenodd;stroke:none;stroke-width:0.28222224px;stroke-linecap:butt;stroke-linejoin:miter;stroke-opacity:1" />
      <g
         id="g2841">
        <text
           xml:space="preserve"
           style="font-style:normal;font-variant:normal;font-weight:bold;font-stretch:normal;font-size:62.05784225px;line-height:1.25;font-family:'Noto Sans T Chinese';-inkscape-font-specification:'Noto Sans T Chinese, Bold';font-variant-ligatures:normal;font-variant-caps:normal;font-variant-numeric:normal;font-feature-settings:normal;text-align:start;letter-spacing:0px;word-spacing:0px;writing-mode:lr-tb;text-anchor:start;fill:#808080;fill-opacity:1;stroke:none;stroke-width:0.26062793"
           x="51.268078"
           y="148.43896"
           id="text2814"
           transform="scale(1.1023734,0.90713364)"><tspan
             sodipodi:role="line"
             id="tspan2812"
             x="51.268078"
             y="148.43896"
             style="font-style:normal;font-variant:normal;font-weight:bold;font-stretch:normal;font-size:62.05784225px;font-family:'Noto Sans T Chinese';-inkscape-font-specification:'Noto Sans T Chinese, Bold';font-variant-ligatures:normal;font-variant-caps:normal;font-variant-numeric:normal;font-feature-settings:normal;text-align:start;writing-mode:lr-tb;text-anchor:start;fill:#808080;fill-opacity:1;stroke-width:0.26062793">9</tspan></text>
        <path
           sodipodi:nodetypes="scscsscscsccccccccccccccsccscccccccccccccccccccccccccccccsssssccccccccccccccccccccccc"
           inkscape:connector-curvature="0"
           d="m 75.731036,110.24412 c -2.424826,0 -4.390537,2.17224 -4.390561,4.85191 2.4e-5,2.67962 1.965735,4.85182 4.390561,4.85182 2.424824,0 4.390547,-2.1722 4.390547,-4.85182 0,-2.67967 -1.965723,-4.85191 -4.390547,-4.85191 z m 0,1.4156 c 1.583184,0 2.866623,1.53842 2.866635,3.43631 -1.2e-5,1.89778 -1.283451,3.43625 -2.866635,3.43625 -1.583186,0 -2.866613,-1.53847 -2.866637,-3.43625 2.4e-5,-1.89789 1.283451,-3.43631 2.866637,-3.43631 z m 24.549624,-1.09468 v 9.11902 h 3.40299 v -1.15629 h -2.02028 v -3.02763 h 2.02028 v -1.14449 h -2.02028 v -2.6344 h 2.02028 v -1.15621 z m -1.822677,-0.0886 c -2.19149,0.27827 -3.80631,1.93268 -3.80631,4.74946 0,2.73806 1.51094,4.38751 3.80631,4.57146 v -1.21443 c -1.46857,-0.2801 -2.352,-1.48006 -2.352,-3.42863 0,-2.03426 0.96468,-3.19972 2.352,-3.49064 z m -7.01171,9.20752 h 1.38274 V 110.565 h -1.38274 z m -4.72682,-9.11896 v 9.11902 h 1.38273 v -4.00527 h 1.52144 v -1.14427 h -1.52144 v -2.81327 h 1.52144 V 110.565 Z m -5.02795,0 v 9.11902 h 1.38272 v -4.00527 h 1.82256 v -1.14427 h -1.82256 v -2.81327 h 1.82256 V 110.565 Z m -24.632555,-2.49736 c -3.894088,0 -7.050863,3.15674 -7.050863,7.05087 0,3.89402 3.156775,7.05087 7.050863,7.05087 3.894072,0 7.05085,-3.15685 7.05085,-7.05087 0,-3.89413 -3.156778,-7.05087 -7.05085,-7.05087 z m 0,1.82525 c 2.88608,0 5.225774,2.33953 5.225811,5.22562 -3.7e-5,2.88609 -2.339731,5.22563 -5.225811,5.22554 -2.885996,0 -5.225537,-2.33956 -5.225582,-5.22554 4.5e-5,-2.88603 2.339586,-5.22554 5.225582,-5.22562 z m 4.355244,-1.10279 -0.01211,0.0152 c 0.0448,0.0274 0.08932,0.0542 0.133523,0.082 z m 1.518739,1.21686 c 1.052283,1.08766 1.746439,2.47125 1.989164,3.965 l 1.577735,1.2643 -1.609331,1.28941 c -0.277795,1.48785 -1.004431,2.85496 -2.082215,3.91761 l 5.095232,-4.08223 4.091407,3.27784 0.02491,-0.0311 c -1.03072,-1.03256 -1.677959,-2.36731 -1.840085,-3.79467 l -0.796028,-0.63782 0.775044,-0.62078 c 0.1022,-1.16925 0.530469,-2.28981 1.239066,-3.24183 l -3.417808,2.73806 z"
           style="display:inline;opacity:1;fill:#ffffff;fill-opacity:1;stroke:none;stroke-width:2.03200006;stroke-linejoin:round;stroke-miterlimit:4;stroke-dasharray:12.19200034, 2.03200006;stroke-dashoffset:0;stroke-opacity:1"
           id="path4526"
           inkscape:export-xdpi="600"
           inkscape:export-ydpi="600" />
      </g>
    </g>
  </g>
</svg>
